<svg width="47" height="48" viewBox="0 0 47 48" fill="none" xmlns="http://www.w3.org/2000/svg">
<g clip-path="url(#clip0_1_25974)">
<path d="M42.428 33.3063C41.9998 33.4577 41.5874 33.652 41.0981 33.8554C42.2092 31.374 42.5857 28.6261 42.1828 25.9373C41.6947 22.446 40.2247 19.3751 38.1345 16.5798C37.5831 15.842 36.9764 15.146 36.3742 14.4489C36.0239 14.0444 35.5934 13.9969 35.294 14.3076C34.9607 14.6522 35.0048 15.0127 35.3144 15.3584C35.4782 15.5403 35.6386 15.7245 35.7979 15.9098C37.9831 18.4486 39.6971 21.2484 40.4835 24.5408C41.3083 28.0004 41.0563 31.3313 39.1785 34.4429C39.0284 34.7011 38.7972 34.9024 38.5209 35.0158C36.0962 36.0722 33.6817 37.1501 31.257 38.2076C30.9102 38.3579 30.5791 38.5805 30.169 38.6257C30.169 38.4393 30.169 38.2867 30.169 38.1387C30.1746 35.7863 28.6583 34.0113 26.3082 33.6927C24.4451 33.4407 22.5797 33.2012 20.7041 33.0475C18.5574 32.8713 16.5236 32.408 14.7034 31.1788C13.6484 30.4869 12.4824 29.9817 11.2562 29.6851C10.8641 29.5856 10.759 29.4116 10.7353 29.0365C10.5783 26.5282 11.0449 24.1318 12.0279 21.8348C13.6967 17.9367 16.4343 14.8771 19.6149 12.1597C20.2397 11.6265 20.7222 11.4389 21.6057 11.7236C23.6135 12.3699 25.7252 12.3157 27.8132 12.0841C28.7657 11.979 29.7193 11.8321 30.5452 11.2841C30.7576 11.144 30.8593 11.3124 30.9768 11.4084C31.6061 11.9168 32.2253 12.4366 32.8524 12.9473C33.2591 13.2795 33.6761 13.2795 33.9517 12.9597C34.2274 12.6399 34.1777 12.2321 33.7653 11.8829C33.0874 11.3101 32.4095 10.7531 31.7124 10.204C31.5033 10.039 31.4016 9.89438 31.4389 9.60062C31.4894 9.27308 31.4637 8.93833 31.364 8.62229C31.2643 8.30625 31.0931 8.01742 30.8638 7.77815C30.5893 7.49342 30.6379 7.30925 30.8288 7.02339C31.4866 6.06243 32.0378 5.03272 32.4728 3.95243C32.7541 3.22706 32.9597 2.4836 32.8739 1.69947C32.7496 0.551533 31.927 0.0464908 30.8864 0.519904C30.3576 0.760565 29.9057 0.765078 29.4052 0.443067C28.5013 -0.136553 27.5488 -0.152374 26.6404 0.426116C26.0551 0.800101 25.5478 0.778636 24.9705 0.41482C24.079 -0.150112 23.1446 -0.132034 22.2588 0.428378C21.765 0.739091 21.3199 0.774117 20.7798 0.527807C19.6669 0.019368 18.8263 0.576398 18.746 1.82038C18.6907 2.6723 18.9472 3.45415 19.2601 4.22359C19.6499 5.18284 20.1742 6.07318 20.7086 6.95673C20.7741 7.06972 20.9346 7.1748 20.7312 7.32394C20.5821 7.43015 20.4815 7.43692 20.3482 7.30133C19.1517 6.10255 17.6874 5.77715 16.0479 5.9342C14.9892 6.03476 14.0017 5.74778 13.0911 5.19302C12.5894 4.88795 12.1872 4.94445 11.9612 5.32182C11.7352 5.6992 11.8561 6.07882 12.3589 6.38615C13.5771 7.15735 15.0221 7.48941 16.4547 7.32733C17.8003 7.17593 18.8624 7.64595 19.7663 8.74983C18.7155 8.85264 17.7484 8.92609 16.8106 9.20177C15.2683 9.65372 13.9339 10.396 13.0278 11.7722C12.7216 12.2366 12.7679 12.6874 13.1408 12.9021C13.5927 13.1642 13.917 12.9574 14.187 12.571C15.5327 10.6503 17.5552 10.335 19.6782 10.1983C19.6782 10.291 19.685 10.3113 19.6782 10.3226C19.4895 10.4785 19.2985 10.6311 19.1132 10.7847C16.8761 12.5925 14.8537 14.6003 13.1871 16.9515C10.9116 20.1603 9.45856 23.6697 9.30038 27.6502C9.27891 28.1699 9.57041 28.893 9.2484 29.1473C8.92639 29.4015 8.24734 29.119 7.72422 29.1179C7.41011 29.1179 7.33215 29.0241 7.31634 28.7077C7.2508 27.4807 6.47572 26.683 5.28936 26.6446C4.19904 26.6085 3.10533 26.6051 2.01276 26.6446C0.827528 26.6898 0.0151566 27.5485 0.0128969 28.7315C0.0061177 34.1548 0.0061177 39.5755 0.0128969 44.9936C0.0128969 46.2082 0.847865 47.0545 2.06134 47.0793C3.11437 47.1008 4.16853 47.0963 5.22496 47.0793C6.35482 47.0624 7.12087 46.4206 7.2847 45.3111C7.34458 44.91 7.43723 44.8806 7.79201 45.0151C9.91276 45.8218 12.0459 46.5969 14.169 47.3991C15.2253 47.7999 16.3462 48.0036 17.4761 48.0002C20.8453 47.9934 24.2146 47.9934 27.5838 48.0002C29.323 48.0189 31.0293 47.5262 32.4908 46.5833C36.7165 43.8912 40.9494 41.2063 45.1894 38.5285C46.0515 37.9817 46.4842 37.1727 46.5271 36.1773C46.6232 33.9582 44.5928 32.5436 42.428 33.3063ZM29.1995 10.37C26.7999 10.9553 24.2947 10.9553 21.895 10.37C21.2283 10.2006 20.9481 9.75992 21.0882 9.1272C21.2283 8.49447 21.5978 8.26172 22.3164 8.4312C24.443 8.94303 26.6606 8.94303 28.7871 8.4312C29.4775 8.26737 29.8933 8.52725 30.03 9.13398C30.1667 9.74072 29.8537 10.2096 29.1995 10.3746V10.37ZM20.1821 2.45423C20.051 1.80682 20.0691 1.78647 20.6668 1.98194C21.3865 2.22034 22.0893 2.17515 22.7198 1.75597C23.3209 1.35713 23.8496 1.33227 24.4846 1.73111C25.3885 2.29605 26.3398 2.27457 27.2415 1.68252C27.7578 1.34356 28.2448 1.32888 28.7578 1.67349C29.4775 2.1582 30.265 2.27232 31.0638 1.9424C31.6174 1.71643 31.5304 2.03392 31.474 2.34124C31.3033 3.27564 30.8887 4.11739 30.439 4.93993C29.2911 7.04148 28.96 7.24485 26.5218 7.38383C26.2223 7.40077 25.9207 7.38383 25.6179 7.38383C24.975 7.43241 24.3445 7.29004 23.7084 7.26518C22.7559 7.2279 22.1435 6.78612 21.7119 5.93307C21.1402 4.80773 20.4454 3.73097 20.1821 2.45874V2.45423ZM44.3985 37.3568C40.105 40.0858 35.8047 42.8103 31.4977 45.5303C30.36 46.2444 29.0399 46.6141 27.6968 46.5946C24.2907 46.5878 20.8837 46.5878 17.4761 46.5946C16.516 46.5978 15.5634 46.4259 14.665 46.0873C12.3623 45.2297 10.0619 44.3676 7.75359 43.5248C7.41463 43.4027 7.30165 43.248 7.3073 42.8841C7.3265 40.6447 7.31747 38.4042 7.31634 36.1648C7.32403 35.996 7.31457 35.8268 7.28809 35.6598C7.21013 35.3095 6.98303 35.0881 6.61921 35.0824C6.22602 35.0756 5.99214 35.3084 5.91078 35.6824C5.88717 35.8504 5.88111 36.0204 5.89271 36.1897C5.89271 38.994 5.89271 41.7987 5.89271 44.6038C5.89271 45.5879 5.79102 45.6873 4.78205 45.6873C3.97194 45.6873 3.16296 45.6873 2.35284 45.6873C1.57663 45.6873 1.40376 45.5122 1.40263 44.7134C1.40263 42.0974 1.40263 39.481 1.40263 36.8642C1.40263 34.267 1.40263 31.6684 1.40263 29.0682C1.40263 28.1914 1.54273 28.0513 2.41273 28.0513C3.28272 28.0513 4.14368 28.0513 5.01141 28.0513C5.73453 28.0513 5.89158 28.214 5.89384 28.9552C5.89384 30.0478 5.89384 31.1392 5.89384 32.2318C5.89384 32.8656 6.13676 33.1797 6.60452 33.1797C7.07228 33.1797 7.30843 32.869 7.3152 32.2295C7.33745 31.8347 7.3348 31.4388 7.3073 31.0443C7.2508 30.5641 7.46096 30.5099 7.87223 30.5223C9.98733 30.589 11.9748 31.1505 13.7475 32.2781C16.0072 33.7198 18.4783 34.3062 21.1018 34.5073C22.8068 34.6373 24.505 34.8678 26.2043 35.079C27.7228 35.2666 28.7871 36.5569 28.7792 38.1511C28.7792 39.0494 28.7792 39.0494 27.8979 39.0494C25.8838 39.0494 23.8696 39.0494 21.8554 39.0494C21.6091 39.0494 21.356 39.0358 21.1425 39.1737C21.0261 39.2391 20.9324 39.3382 20.8737 39.4581C20.815 39.5779 20.7941 39.7128 20.8137 39.8448C20.8245 39.978 20.8764 40.1045 20.9622 40.2069C21.048 40.3093 21.1635 40.3826 21.2927 40.4165C21.4937 40.4607 21.6994 40.4801 21.9051 40.4741C24.2575 40.4741 26.6099 40.4741 28.9634 40.482C29.376 40.4877 29.7848 40.4028 30.1611 40.2335C34.1924 38.4521 38.2256 36.674 42.2608 34.8994C42.5668 34.7574 42.8838 34.6403 43.2087 34.5491C44.0154 34.3446 44.6934 34.6904 45.0018 35.4327C45.1521 35.772 45.1738 36.1544 45.0627 36.5085C44.9517 36.8626 44.7156 37.1641 44.3985 37.3568V37.3568Z" fill="#1C1C1C" fill-opacity="0.7"/>
<path d="M27.8289 22.7146C27.4764 22.5418 27.0956 22.4276 26.7318 22.2774C26.5849 22.2175 26.4267 22.1881 26.4301 21.9474C26.4425 20.5408 26.4301 19.133 26.4301 17.7082C26.9304 17.7738 27.4037 17.9737 27.7995 18.2867C28.1791 18.568 28.5576 18.5533 28.8333 18.1635C29.109 17.7737 28.9723 17.4133 28.6074 17.1354C28.108 16.7523 27.5475 16.4574 26.9329 16.3727C26.4651 16.3117 26.4109 16.1083 26.4211 15.7196C26.4414 14.9186 26.2313 14.5898 25.7499 14.574C25.2336 14.5559 25.0155 14.879 25.0415 15.7321C25.0539 16.1388 24.9794 16.3309 24.524 16.4676C23.1275 16.8879 22.3479 17.9093 22.1513 19.3307C21.9649 20.6978 22.5004 21.7543 23.7162 22.4401C24.0367 22.6351 24.3692 22.8098 24.7116 22.9632C24.9647 23.0671 25.037 23.2073 25.0359 23.4694C25.0257 25.0693 25.0212 26.6692 25.0359 28.269C25.0359 28.6193 24.9104 28.6769 24.6042 28.6408C23.9693 28.5673 23.4269 28.2826 22.8948 27.9628C22.505 27.7256 22.1174 27.7369 21.8666 28.1493C21.6158 28.5617 21.7683 28.9063 22.1603 29.1549C22.8643 29.6068 23.6032 29.9864 24.4528 30.0192C24.9534 30.0384 25.0607 30.2452 25.0392 30.7084C25.0008 31.5581 25.2245 31.897 25.7172 31.9027C26.2098 31.9083 26.455 31.5637 26.4132 30.7254C26.3872 30.2214 26.5148 30.0068 27.0436 29.8576C28.587 29.4226 29.7067 27.9369 29.831 26.3121C29.9654 24.7111 29.2446 23.4106 27.8289 22.7146ZM25.0336 21.4526C24.141 21.2707 23.5546 20.6447 23.5218 19.8403C23.4834 18.9036 24.0743 18.0811 25.0336 17.8065V21.4526ZM26.7905 28.4792C26.5228 28.5775 26.4278 28.5436 26.4301 28.234C26.4425 26.7347 26.4301 25.2342 26.4301 23.727C27.6639 23.9936 28.3712 24.7213 28.4503 25.7777C28.5396 26.8951 27.7792 28.1154 26.7905 28.4792Z" fill="#1C1C1C" fill-opacity="0.7"/>
</g>
<defs>
<clipPath id="clip0_1_25974">
<rect width="46.53" height="48" fill="white"/>
</clipPath>
</defs>
</svg>
