<svg width="29" height="28" viewBox="0 0 29 28" fill="none" xmlns="http://www.w3.org/2000/svg">
<rect x="0.949219" width="28" height="28" rx="8" fill="#FFDE59"/>
<path d="M14.9521 7.33398C13.1189 7.33398 11.6146 8.83311 11.6146 10.6663C11.6146 12.4996 13.1189 14.0039 14.9521 14.0039C16.7854 14.0039 18.2832 12.4996 18.2832 10.6663C18.2832 8.83311 16.7854 7.33398 14.9521 7.33398ZM12.2839 14.668C10.2824 14.668 8.28223 16.0015 8.28223 17.9991V19.481C8.40927 20.3146 8.94896 20.6686 9.61699 20.6673H20.2821C20.9501 20.6686 21.3912 20.111 21.6156 19.481V17.9991C21.6169 15.3348 19.6167 14.668 17.6139 14.668H12.2839Z" fill="white"/>
</svg>
