<svg width="44" height="44" viewBox="0 0 44 44" fill="none" xmlns="http://www.w3.org/2000/svg">
<rect width="43.9978" height="43.9978" rx="21.9989" fill="#FF783B"/>
<g clip-path="url(#clip0_1_5093)">
<path d="M22.2481 10C22.4225 10.0698 22.5969 10.1257 22.7423 10.2374C23.1347 10.4888 23.2364 10.8658 23.2219 11.2987C23.2219 11.4104 23.2074 11.4942 23.3236 11.592C23.3818 11.6339 23.3091 11.8573 23.251 11.969C23.062 12.3042 22.844 12.6254 22.8876 13.0443C22.9167 13.3097 23.0184 13.5052 23.28 13.6029C23.5126 13.6867 23.7452 13.7845 23.9923 13.8124C24.8353 13.8822 25.1841 14.4827 25.2277 15.2228C25.2568 15.6976 25.2423 16.1724 25.2423 16.6333C25.2423 17.3455 25.3876 18.0158 25.6928 18.6721C25.8382 18.9794 25.8673 19.3424 25.9254 19.6916C25.9835 19.9848 25.969 20.292 26.0417 20.5853C26.0998 20.8087 26.2161 21.0322 26.3469 21.2277C26.5359 21.5489 26.7684 21.8421 26.9574 22.1494C27.0155 22.2332 26.9719 22.3728 26.9864 22.4845C26.8847 22.4287 26.7829 22.3728 26.6957 22.303C26.6376 22.2611 26.6085 22.1913 26.5504 22.1075C26.594 22.5264 26.8411 22.8476 26.812 23.2247C26.7829 23.2386 26.7539 23.2526 26.7248 23.2665C26.6231 23.099 26.5068 22.9174 26.376 22.7219C26.376 23.0152 26.376 23.2665 26.376 23.5319C26.3469 23.5319 26.3324 23.5319 26.3033 23.5458C26.0853 23.3224 26.1725 23.0012 26.0562 22.7359C26.0271 23.0012 25.9981 23.2665 25.969 23.5179C25.9254 23.5179 25.8818 23.5179 25.8527 23.5179C25.8091 23.3084 25.78 23.099 25.7364 22.8755C25.6928 22.9872 25.6347 23.1129 25.5766 23.2247C25.562 23.2247 25.5329 23.2247 25.5184 23.2247C25.5039 23.1409 25.4748 23.071 25.4748 22.9872C25.4603 22.4706 25.4893 21.9539 25.4312 21.4372C25.4021 21.1579 25.2568 20.8786 25.126 20.6272C24.8062 20.0407 24.4864 19.4542 24.3847 18.7978C24.3266 18.4487 24.312 18.0996 24.2684 17.7505C24.2539 17.6387 24.1957 17.527 24.1521 17.4013C24.1231 17.4013 24.0795 17.4153 24.0504 17.4153C24.0504 18.2392 24.0068 19.0631 24.0504 19.8871C24.0649 20.2222 24.2539 20.5574 24.3556 20.8925C24.5736 21.6047 24.5736 22.3449 24.4428 23.071C24.2975 23.9508 24.1376 24.8446 24.0068 25.7243C23.9341 26.1852 23.9341 26.646 23.8905 27.1069C23.8905 27.1627 23.8905 27.2325 23.9196 27.2884C24.2539 28.0565 24.1085 28.8106 23.8614 29.5786C23.7016 30.0814 23.5271 30.5981 23.4109 31.1008C23.3236 31.4778 23.3673 31.8689 23.5271 32.2459C23.7597 32.7626 23.7016 32.8324 23.1202 32.9022C22.8876 32.9302 22.655 32.9581 22.4225 32.9721C22.2917 32.986 22.1754 32.9162 22.2045 32.7626C22.2335 32.609 22.2917 32.4554 22.3207 32.3018C22.4806 31.5616 22.7277 30.8355 22.7132 30.0814C22.7132 29.9277 22.6986 29.7602 22.6841 29.6066C22.6114 29.048 22.6405 28.5033 22.6986 27.9447C22.7423 27.5817 22.6696 27.2186 22.6114 26.8555C22.4661 25.6545 22.3062 24.4536 22.1463 23.2526C22.1463 23.2247 22.1318 23.1967 22.1318 23.1548C22.0446 23.1548 21.9719 23.1548 21.8992 23.1548C21.8411 23.6715 21.7975 24.2022 21.7248 24.7189C21.6085 25.5288 21.4632 26.3248 21.3469 27.1348C21.3033 27.456 21.3324 27.7911 21.3324 28.1123C21.3324 28.5033 21.3905 28.9083 21.3469 29.2993C21.2597 30.0255 21.3033 30.7517 21.5068 31.4499C21.6085 31.827 21.6957 32.204 21.7975 32.5811C21.8702 32.9022 21.812 32.9721 21.4777 32.9302C21.4486 32.9302 21.4196 32.9441 21.3905 32.9302C21.1143 32.8883 20.8382 32.8604 20.5475 32.8185C20.4021 32.8045 20.3585 32.7067 20.3876 32.5671C20.4167 32.4554 20.4457 32.3297 20.4893 32.218C20.751 31.7013 20.6783 31.1706 20.5184 30.64C20.3149 29.9696 20.126 29.2993 19.9516 28.629C19.8498 28.238 19.9079 27.847 20.0388 27.4839C20.126 27.2465 20.0969 27.0091 20.0969 26.7577C20.1114 25.878 19.8498 25.0261 19.7335 24.1603C19.6463 23.49 19.5446 22.8197 19.501 22.1494C19.4574 21.4511 19.6899 20.7808 19.9079 20.1105C19.9661 19.9429 20.0242 19.7614 20.0242 19.5938C20.0097 18.8537 19.9806 18.1135 19.9516 17.3734C19.9225 17.3734 19.9079 17.3594 19.8789 17.3594C19.8353 17.4432 19.7771 17.541 19.7626 17.6248C19.719 17.8203 19.6609 18.0018 19.6609 18.1973C19.6754 19.0213 19.3411 19.7335 18.9632 20.4317C18.876 20.5713 18.7742 20.711 18.7306 20.8646C18.6579 21.116 18.5998 21.3673 18.5853 21.6187C18.5562 22.0935 18.5562 22.5543 18.5271 23.0291C18.5271 23.071 18.5126 23.1129 18.4254 23.1688C18.3673 23.0431 18.3236 22.9314 18.2655 22.8057C18.2219 23.0152 18.1928 23.2247 18.1492 23.4341C18.1056 23.4341 18.062 23.4341 18.0329 23.4341C18.0039 23.1688 17.9748 22.9174 17.9457 22.6521C17.9312 22.6521 17.9312 22.6521 17.9167 22.6521C17.8585 22.9314 17.8149 23.1967 17.7568 23.476C17.7132 23.476 17.6841 23.476 17.6405 23.476C17.626 23.3643 17.6114 23.2526 17.5969 23.1409C17.5969 23.0152 17.5969 22.8895 17.5969 22.7359C17.4806 22.9035 17.3789 23.0571 17.2771 23.2107C17.2481 23.1967 17.219 23.1828 17.1899 23.1688C17.1609 22.7917 17.3934 22.4706 17.4516 22.0795C17.3789 22.2471 17.2917 22.3449 17.2045 22.4287C17.1609 22.4566 17.1027 22.4706 17.0446 22.4845C17.03 22.4287 16.9864 22.3728 17.001 22.3169C17.03 22.2192 17.0591 22.1214 17.1173 22.0237C17.2045 21.8701 17.2917 21.7025 17.4225 21.5768C17.9312 21.0741 18.062 20.4457 18.0911 19.7893C18.1202 19.3145 18.2219 18.8676 18.4399 18.4347C18.687 17.946 18.7742 17.4013 18.7888 16.8707C18.8033 16.34 18.7742 15.8094 18.8033 15.2787C18.8178 14.9994 18.905 14.7061 19.0213 14.4408C19.1667 14.1196 19.4428 13.9381 19.8062 13.8682C20.0824 13.8124 20.3731 13.7565 20.6347 13.6588C21.1289 13.4772 21.3033 12.9047 21.0271 12.4718C20.8963 12.2763 20.78 12.0668 20.6928 11.8434C20.6638 11.7735 20.7219 11.6478 20.751 11.5641C20.7655 11.5222 20.8091 11.4803 20.8091 11.4244C20.7364 10.6703 21.0707 10.2095 21.7829 10C21.9428 10 22.1027 10 22.2481 10Z" fill="white"/>
</g>
<defs>
<clipPath id="clip0_1_5093">
<rect width="10" height="23" fill="white" transform="translate(17 10)"/>
</clipPath>
</defs>
</svg>
