<svg xmlns="http://www.w3.org/2000/svg" viewBox="0 0 66 66"><defs><style>.cls-1{fill:#d9d9d9;fill-opacity:0.15;}.cls-2{fill:#353533;}.cls-3{fill:#1a1a1a;}.cls-4{fill:#f0f0f0;}.cls-5{fill:#dfdfdf;}.cls-6{fill:#ffde59;}.cls-7{fill-opacity:0.2;}.cls-8{fill:#ccc;}.cls-9{fill:#cdcdcd;}.cls-10{fill:#cbcbcb;}.cls-11{fill:#b3b3b3;}</style></defs><g id="Layer_2" data-name="Layer 2"><g id="Layer_1-2" data-name="Layer 1"><circle class="cls-1" cx="33" cy="33" r="33"/><path class="cls-2" d="M33,48H23.48q-.3,0-.6-.06A1.87,1.87,0,0,1,21.77,46q0-13,0-26.06A1.68,1.68,0,0,1,23.7,18H33v1.84l-.55,0c-2.81,0-5.63,0-8.45,0-.41,0-.52.1-.51.52q0,12,0,24c0,.42.11.51.52.51,3,0,6,0,9,0Z"/><path class="cls-3" d="M33,19.88V18l1.29,0c2.65,0,5.3,0,8,0a1.94,1.94,0,0,1,1.87,1,2.93,2.93,0,0,1,.11.93c0,8.71,0,17.43,0,26.14A1.8,1.8,0,0,1,42.29,48c-2.95,0-5.9,0-8.85,0L33,48V44.89c3,0,6,0,9,0,.42,0,.48-.14.48-.51q0-7.54,0-15.09c0-3,0-6,0-9,0-.34-.07-.46-.43-.45-.83,0-1.67,0-2.5,0h-6Z"/><path class="cls-4" d="M33,19.88l.53,0,0,4.79c-.17,0-.36-.06-.51.09-2.49,0-5,0-7.49,0-.36,0-.54.06-.53.48s.11.55.53.54c2.5,0,5,0,7.49,0,0,0,0,.05,0,.08v1.32a.19.19,0,0,1,0,.08c-2.49,0-5,0-7.49,0-.36,0-.53.07-.53.49s.12.54.54.54c2.49,0,5,0,7.49,0,.14.15.33.07.5.09v1.3l-.49,0H25.47c-.18,0-.41-.09-.48.21-.15.67,0,.88.67.88l7.34,0v1.37H25.51c-.17,0-.38-.09-.5.12a.63.63,0,0,0,.54,1l7.44,0v1.37H25.5c-.17,0-.38-.08-.49.13a.63.63,0,0,0,.54,1H33v1.38H25.5c-.17,0-.38-.09-.5.12a.63.63,0,0,0,.55,1H33v1.38h-7.5c-.16,0-.37-.09-.49.13a.63.63,0,0,0,.54,1H33v1.38H25.49c-.17,0-.38-.08-.49.13a.63.63,0,0,0,.54,1H33v1.6H24c-.41,0-.52-.08-.52-.51q0-12,0-24c0-.41.1-.52.52-.52,2.81,0,5.63,0,8.45,0Zm-5,3.51c.88,0,1.77,0,2.65,0,.45,0,.47-.21.46-.55s0-.58-.44-.57c-1.74,0-3.49,0-5.24,0-.48,0-.43.26-.44.57s0,.57.47.55C26.29,23.37,27.14,23.39,28,23.39Z"/><path class="cls-5" d="M33,44.89c0-.52,0-1,0-1.58v0c2.55,0,5.09,0,7.64,0,.53,0,.32-.38.36-.63s0-.49-.41-.48H33V40.79c2.53,0,5.06,0,7.59,0,.44,0,.42-.24.41-.53s.09-.59-.42-.59c-2.52,0-5,0-7.58,0V38.29c2.53,0,5.06,0,7.59,0,.45,0,.43-.24.42-.53s.08-.59-.42-.59c-2.53,0-5.06,0-7.59,0V35.79c2.53,0,5.06,0,7.58,0,.45,0,.43-.23.42-.53s.09-.59-.41-.59c-2.53,0-5.06,0-7.59,0V33.29c2.53,0,5.06,0,7.58,0,.39,0,.47-.17.42-.48s.18-.64-.36-.63l-7.64,0V30.79h.5c0,.39,0,.78.07,1.25l1.71-1.27h2.54l1.79,1.36V30.8H40.7c.14,0,.25,0,.3-.18.19-.61,0-.92-.65-.92H39.6a9.34,9.34,0,0,1,0-1.4H40.7c.14,0,.25,0,.3-.19.19-.61,0-.91-.66-.91H39.6V25.88h1.09c.16,0,.28,0,.32-.22.16-.76,0-1-.77-1H39.6V19.89c.83,0,1.67,0,2.5,0,.36,0,.43.11.43.44,0,3,0,6,0,9q0,7.55,0,15.09c0,.37-.06.5-.48.5C39,44.89,36,44.9,33,44.89Z"/><path class="cls-6" d="M39.6,25.88v1.33c0,.36,0,.72,0,1.09a7.27,7.27,0,0,0,0,1.4v2.44l-1.79-1.35a9.28,9.28,0,0,0-1.31-1V20a.22.22,0,0,0,0-.08h3.09c0,1.6,0,3.2,0,4.8C39.59,25.1,39.6,25.49,39.6,25.88Z"/><path class="cls-7" d="M39.6,25.88v1.33c0,.36,0,.72,0,1.09a7.27,7.27,0,0,0,0,1.4v2.44l-1.79-1.35a9.28,9.28,0,0,0-1.31-1V20a.22.22,0,0,0,0-.08h3.09c0,1.6,0,3.2,0,4.8C39.59,25.1,39.6,25.49,39.6,25.88Z"/><path class="cls-6" d="M36.5,20v9.77a10.19,10.19,0,0,0-1.24,1l-1.71,1.27c0-.47,0-.86-.07-1.25V24.7l0-4.79h.17c.14.13.32.08.48.08Z"/><path class="cls-6" d="M36.5,20H34.17c-.16,0-.33,0-.47-.08h2.79A.19.19,0,0,1,36.5,20Z"/><path class="cls-8" d="M33,38.31H25.56a.64.64,0,0,1-.55-1c.12-.21.33-.12.5-.12H33v1.12Z"/><path class="cls-8" d="M33,40.81H25.56a.64.64,0,0,1-.55-1c.12-.21.33-.13.5-.13H33v1.12Z"/><path class="cls-8" d="M33,43.31H25.56a.64.64,0,0,1-.55-1c.12-.21.33-.12.5-.12H32.4l.6,0v1.12Z"/><path class="cls-9" d="M33,30.81H25.65c-.66,0-.81-.22-.66-.88.07-.31.3-.21.48-.22H33c0,.36,0,.72,0,1.08Z"/><path class="cls-9" d="M33,33.31H25.56a.63.63,0,0,1-.55-1c.12-.21.33-.12.5-.12H33v1.1Z"/><path class="cls-8" d="M33,35.81H25.56a.64.64,0,0,1-.55-1c.12-.21.33-.12.5-.12H33v1.1Z"/><path class="cls-10" d="M33,25.8c-2.5,0-5,0-7.49,0-.42,0-.52-.14-.53-.54s.17-.49.53-.48c2.5,0,5,0,7.49,0Z"/><path class="cls-10" d="M33,28.3c-2.49,0-5,0-7.49,0-.42,0-.52-.13-.53-.54s.16-.49.53-.48c2.5,0,5,0,7.49,0Z"/><path class="cls-9" d="M28,23.39c-.85,0-1.7,0-2.54,0-.46,0-.48-.21-.47-.55s0-.58.44-.57c1.75,0,3.5,0,5.24,0,.49,0,.43.27.44.57s0,.57-.46.55C29.76,23.37,28.87,23.39,28,23.39Z"/><path class="cls-5" d="M33.5,25.89V27.2H33V25.88Z"/><path class="cls-11" d="M33.5,25.89H33s0-.06,0-.09v-1c.14-.15.33-.07.5-.09C33.5,25.09,33.5,25.49,33.5,25.89Z"/><path class="cls-11" d="M33,27.21h.51v1.18c-.17,0-.36.07-.51-.09V27.21Z"/><path class="cls-11" d="M33,30.79c0-.36,0-.72,0-1.08h.49v1.1Z"/><path class="cls-11" d="M33,35.79V34.72c2.53,0,5.06,0,7.58,0,.51,0,.41.3.42.59s0,.53-.42.53C38.06,35.79,35.53,35.8,33,35.79Z"/><path class="cls-11" d="M33,38.29V37.21c2.53,0,5.06,0,7.59,0,.5,0,.4.3.41.59s0,.53-.41.53C38.06,38.29,35.53,38.29,33,38.29Z"/><path class="cls-11" d="M33,40.79V39.71c2.53,0,5.06,0,7.59,0,.5,0,.41.3.41.59s0,.54-.41.53C38.06,40.79,35.53,40.79,33,40.79Z"/><path class="cls-11" d="M33,43.29V42.21h7.59c.38,0,.46.16.41.48s.18.63-.36.63C38.09,43.29,35.55,43.29,33,43.29Z"/><path class="cls-11" d="M33,33.29V32.22l7.63,0c.54,0,.33.38.37.63s0,.48-.42.48C38.06,33.29,35.53,33.29,33,33.29Z"/><path class="cls-11" d="M39.59,25.88V24.71h.65c.77,0,.92.2.76,1,0,.2-.16.22-.31.22Z"/><path class="cls-11" d="M39.61,28.3c0-.37,0-.73,0-1.09h.74c.63,0,.84.3.66.91,0,.17-.17.18-.3.18Z"/><path class="cls-11" d="M39.6,30.8V29.71h.74c.63,0,.85.3.66.91,0,.18-.17.18-.3.18Z"/><path class="cls-11" d="M35.27,30.78a10.19,10.19,0,0,1,1.24-1,10,10,0,0,1,1.3,1Z"/></g></g></svg>