<svg width="32" height="27" viewBox="0 0 32 27" fill="none" xmlns="http://www.w3.org/2000/svg">
<path d="M28.375 4.71875H23.5938L22.4547 1.52656C22.376 1.30813 22.2318 1.11932 22.0418 0.985921C21.8517 0.852524 21.6251 0.781045 21.393 0.78125H10.607C10.1324 0.78125 9.70703 1.08008 9.54883 1.52656L8.40625 4.71875H3.625C2.07109 4.71875 0.8125 5.97734 0.8125 7.53125V23.5625C0.8125 25.1164 2.07109 26.375 3.625 26.375H28.375C29.9289 26.375 31.1875 25.1164 31.1875 23.5625V7.53125C31.1875 5.97734 29.9289 4.71875 28.375 4.71875ZM28.6562 23.5625C28.6562 23.7172 28.5297 23.8438 28.375 23.8438H3.625C3.47031 23.8438 3.34375 23.7172 3.34375 23.5625V7.53125C3.34375 7.37656 3.47031 7.25 3.625 7.25H10.1887L10.7898 5.56953L11.5949 3.3125H20.4016L21.2066 5.56953L21.8078 7.25H28.375C28.5297 7.25 28.6562 7.37656 28.6562 7.53125V23.5625ZM16 9.5C12.8922 9.5 10.375 12.0172 10.375 15.125C10.375 18.2328 12.8922 20.75 16 20.75C19.1078 20.75 21.625 18.2328 21.625 15.125C21.625 12.0172 19.1078 9.5 16 9.5ZM16 18.5C14.1367 18.5 12.625 16.9883 12.625 15.125C12.625 13.2617 14.1367 11.75 16 11.75C17.8633 11.75 19.375 13.2617 19.375 15.125C19.375 16.9883 17.8633 18.5 16 18.5Z" fill="#1C1C1C"/>
</svg>
