<svg width="28" height="28" viewBox="0 0 28 28" fill="none" xmlns="http://www.w3.org/2000/svg">
<rect width="28" height="28" rx="5" fill="#1C1C1C" fill-opacity="0.05"/>
<path d="M16.9589 6.31849C17.483 6.5271 17.8536 6.90311 18.1858 7.45436L18.2953 7.64461L18.7014 8.4233L18.7147 8.44505L18.7269 8.46397L18.7614 8.51112C18.9464 8.71273 19.256 8.83452 19.4604 8.83452C21.3325 8.83452 22.8616 10.3048 22.9553 12.1531L22.9599 12.3331V17.537C22.9599 19.9364 21.0649 21.8945 18.6904 21.9959L18.4968 22H9.46303C7.063 22 5.10549 20.1053 5.00412 17.7305L5 17.537V12.3331C5 10.4012 6.56698 8.83452 8.49948 8.83452C8.70312 8.83452 9.0132 8.71255 9.19851 8.51112L9.2049 8.5036L9.21289 8.49313L9.25907 8.4223L9.66402 7.64486C10.025 6.98885 10.4176 6.55032 11.0003 6.3184C12.068 5.89385 15.892 5.89385 16.9589 6.31849ZM11.4982 7.56999C11.2994 7.64912 11.1194 7.83228 10.9273 8.1498L10.8442 8.2942L10.4986 8.96239L10.4135 9.11634C10.3425 9.23445 10.2715 9.33415 10.1904 9.42252C9.7769 9.87192 9.18327 10.1315 8.65557 10.175L8.49948 10.1815L8.35212 10.1865C7.28088 10.2589 6.42441 11.1152 6.35196 12.1858L6.34699 12.3331V17.537C6.34699 19.2003 7.65064 20.5596 9.29206 20.6484L9.46303 20.653H18.4968C20.1599 20.653 21.5195 19.3488 21.6083 17.7079L21.6129 17.537V12.3331C21.6129 11.1946 20.7277 10.2622 19.6077 10.1865L19.4604 10.1815L19.304 10.175C18.7755 10.1315 18.1819 9.87185 17.769 9.42192C17.6889 9.33472 17.6183 9.23573 17.5477 9.11861L17.5307 9.08958L17.5105 9.05353L17.4063 8.85799L17.1154 8.29445C16.919 7.93785 16.7391 7.71991 16.545 7.61038L16.4608 7.56999L16.3536 7.53437C15.4295 7.27316 12.2148 7.28503 11.4982 7.56999ZM13.9797 11.5668C15.9285 11.5668 17.5079 13.1462 17.5079 15.0951C17.5079 17.0439 15.9285 18.6233 13.9797 18.6233C12.0308 18.6233 10.4514 17.0439 10.4514 15.0951C10.4514 13.1462 12.0308 11.5668 13.9797 11.5668ZM13.9797 12.9138C12.7747 12.9138 11.7984 13.8901 11.7984 15.0951C11.7984 16.3 12.7747 17.2763 13.9797 17.2763C15.1846 17.2763 16.1609 16.3 16.1609 15.0951C16.1609 13.8901 15.1846 12.9138 13.9797 12.9138ZM18.9228 10.9391C19.4187 10.9391 19.8208 11.3412 19.8208 11.8371C19.8208 12.2977 19.4741 12.6772 19.0275 12.7291L18.9228 12.7351C18.4187 12.7351 18.0167 12.3331 18.0167 11.8371C18.0167 11.3766 18.3633 10.9971 18.81 10.9452L18.9228 10.9391Z" fill="black"/>
</svg>
