<svg width="40" height="40" viewBox="0 0 40 40" fill="none" xmlns="http://www.w3.org/2000/svg">
<rect x="0.989949" y="20" width="26.6" height="26.6" rx="13.3" transform="rotate(-45 0.989949 20)" fill="white"/>
<path d="M19.8863 18.6742L24.0406 14.5199L25.278 15.7574L21.1238 19.9116L21.0354 20L21.1238 20.0884L25.278 24.2426L24.0406 25.4801L19.8863 21.3258L19.7979 21.2374L19.7095 21.3258L15.5553 25.4801L14.3179 24.2426L18.4721 20.0884L18.5605 20L18.4721 19.9116L14.3179 15.7574L15.5553 14.5199L19.7095 18.6742L19.7979 18.7626L19.8863 18.6742Z" fill="#1C1C1C" stroke="white" stroke-width="0.25"/>
<rect x="0.989949" y="20" width="26.6" height="26.6" rx="13.3" transform="rotate(-45 0.989949 20)" stroke="#1C1C1C" stroke-width="1.4"/>
</svg>
