<svg width="18" height="18" viewBox="0 0 18 18" fill="none" xmlns="http://www.w3.org/2000/svg">
<path d="M9.01602 0.666748C13.7493 0.666748 17.3327 4.54757 17.3327 8.98756C17.3327 14.137 13.1327 17.3334 8.99935 17.3334C7.63268 17.3334 6.11601 16.9662 4.89935 16.2485C4.47435 15.9897 4.11601 15.7978 3.65768 15.948L1.97435 16.4488C1.54935 16.5823 1.16602 16.2485 1.29102 15.7978L1.84935 13.9283C1.94102 13.6696 1.92435 13.3942 1.79102 13.1772C1.07435 11.8585 0.666016 10.4147 0.666016 9.0126C0.666016 4.62268 4.17435 0.666748 9.01602 0.666748ZM12.8243 7.95268C12.2327 7.95268 11.7577 8.42839 11.7577 9.02094C11.7577 9.60515 12.2327 10.0892 12.8243 10.0892C13.416 10.0892 13.891 9.60515 13.891 9.02094C13.891 8.42839 13.416 7.95268 12.8243 7.95268ZM8.98268 7.95268C8.39935 7.94433 7.91601 8.42839 7.91601 9.0126C7.91601 9.60515 8.39101 10.0809 8.98268 10.0892C9.57435 10.0892 10.0493 9.60515 10.0493 9.02094C10.0493 8.42839 9.57435 7.95268 8.98268 7.95268ZM5.14101 7.95268C4.54935 7.95268 4.07435 8.42839 4.07435 9.02094C4.07435 9.60515 4.55768 10.0892 5.14101 10.0892C5.73268 10.0809 6.20768 9.60515 6.20768 9.02094C6.20768 8.42839 5.73268 7.95268 5.14101 7.95268Z" fill="#2A3182"/>
</svg>
