<svg width="25" height="25" viewBox="0 0 25 25" fill="none" xmlns="http://www.w3.org/2000/svg">
<g clip-path="url(#clip0_1_36310)">
<path d="M9.7309 0.613281C10.255 0.707977 10.7918 0.758482 11.3033 0.903684C14.0628 1.68651 15.9699 3.42261 17.056 6.0678C17.0876 6.14356 17.1065 6.23194 17.1444 6.33926C17.0055 6.33295 16.8918 6.31401 16.7718 6.31401C16.2161 6.32032 15.6541 6.32032 15.0984 6.35189C14.9279 6.36452 14.8395 6.33926 14.7511 6.18144C13.7218 4.28751 12.1494 3.14483 10.0214 2.79761C7.00293 2.30519 3.89607 4.28119 3.01832 7.23572C1.93218 10.9036 4.14234 14.6094 7.88699 15.3796C10.8107 15.9794 13.7723 14.4011 14.9721 11.6044C15.0416 11.4339 15.1426 11.3708 15.3131 11.3392C15.9067 11.2256 16.5003 11.2193 17.0939 11.3456C17.1634 11.3582 17.2265 11.3834 17.3086 11.4024C17.0623 12.3051 16.6897 13.1385 16.1593 13.8834C14.3407 16.4465 11.8527 17.7281 8.70791 17.6145C4.74856 17.4693 1.43963 14.5147 0.74501 10.5943C0.694492 10.3102 0.656602 10.0198 0.612398 9.73571C0.612398 9.32536 0.612398 8.91501 0.612398 8.50466C0.656603 8.20163 0.700805 7.8986 0.751323 7.60188C1.27545 4.3822 3.92764 1.56656 7.11659 0.853179C7.57757 0.752169 8.04486 0.689038 8.50583 0.613281C8.91629 0.613281 9.32044 0.613281 9.7309 0.613281Z" fill="#2A3182"/>
<path d="M8.50781 0.613281C8.04684 0.695352 7.57323 0.752169 7.11857 0.853179C3.92962 1.56656 1.27743 4.3822 0.753303 7.60188C0.702785 7.90491 0.65858 8.20163 0.614378 8.50466C0.614378 5.87209 0.614378 3.23953 0.614378 0.613281C3.24131 0.613281 5.87456 0.613281 8.50781 0.613281Z" fill="white"/>
<path d="M8.28078 19.0906C8.887 19.0906 9.48059 19.1411 10.0552 19.0717C10.4531 19.0212 10.6172 19.1474 10.8004 19.4757C12.1517 21.8431 14.7976 23.0679 17.4561 22.5817C20.102 22.1019 22.1606 19.9934 22.6026 17.3166C23.1962 13.7308 20.5882 10.3154 16.9825 9.96185C14.1346 9.68408 11.5645 11.2118 10.4341 13.857C10.3962 13.9391 10.3141 14.0338 10.2384 14.0527C9.56268 14.2169 8.88068 14.2169 8.20501 14.0527C8.18606 14.0464 8.16712 14.0338 8.14817 14.0212C8.91857 10.8836 12.1202 7.61338 16.7173 7.80277C21.0366 7.97954 24.5349 11.4202 24.8002 15.833C25.0654 20.1575 22.0532 23.8759 17.9108 24.6588C13.4336 25.5047 9.52479 22.7711 8.28078 19.0906Z" fill="#2A3182"/>
</g>
<defs>
<clipPath id="clip0_1_36310">
<rect width="24.1981" height="24.1981" fill="white" transform="translate(24.8125 0.613281) rotate(90)"/>
</clipPath>
</defs>
</svg>
