<svg width="24" height="24" viewBox="0 0 24 24" fill="none" xmlns="http://www.w3.org/2000/svg">
<rect width="24" height="24" rx="12" fill="#FFDE59"/>
<path d="M15.6059 8.2585C15.782 8.09086 16.0163 7.99819 16.2594 8.00003C16.5025 8.00187 16.7354 8.09808 16.9089 8.26836C17.0825 8.43865 17.1831 8.66968 17.1895 8.91272C17.1959 9.15576 17.1077 9.39179 16.9434 9.571L11.9559 15.8085C11.8701 15.9009 11.7666 15.975 11.6516 16.0265C11.5365 16.0779 11.4122 16.1056 11.2862 16.108C11.1602 16.1103 11.035 16.0872 10.9181 16.04C10.8012 15.9929 10.695 15.9226 10.6059 15.8335L7.29839 12.526C7.20628 12.4402 7.1324 12.3367 7.08116 12.2217C7.02992 12.1067 7.00237 11.9825 7.00015 11.8567C6.99792 11.7308 7.02108 11.6057 7.06823 11.489C7.11538 11.3723 7.18556 11.2662 7.27459 11.1772C7.36361 11.0882 7.46965 11.018 7.58639 10.9709C7.70312 10.9237 7.82816 10.9005 7.95404 10.9028C8.07992 10.905 8.20406 10.9325 8.31906 10.9838C8.43406 11.035 8.53756 11.1089 8.62339 11.201L11.2409 13.8173L15.5821 8.286C15.59 8.27638 15.5983 8.2672 15.6071 8.2585H15.6059Z" fill="#1C1C1C"/>
</svg>
