<svg width="28" height="28" viewBox="0 0 28 28" fill="none" xmlns="http://www.w3.org/2000/svg">
<rect width="28" height="28" rx="14" fill="#1C1C1C"/>
<path d="M9.5 9.59562V16.8125C9.49989 17.5266 9.77139 18.2139 10.2594 18.7352C10.7475 19.2564 11.4155 19.5725 12.128 19.6194L12.3125 19.625H17.2782C17.1619 19.954 16.9465 20.2388 16.6616 20.4403C16.3768 20.6417 16.0364 20.75 15.6875 20.75H11.75C10.8549 20.75 9.99645 20.3944 9.36351 19.7615C8.73058 19.1286 8.375 18.2701 8.375 17.375V11.1875C8.37482 10.8384 8.48292 10.4978 8.68441 10.2127C8.88589 9.92759 9.17085 9.712 9.5 9.59562ZM17.9375 7.25C18.3851 7.25 18.8143 7.42779 19.1307 7.74426C19.4472 8.06072 19.625 8.48995 19.625 8.9375V16.8125C19.625 17.2601 19.4472 17.6893 19.1307 18.0057C18.8143 18.3222 18.3851 18.5 17.9375 18.5H12.3125C11.8649 18.5 11.4357 18.3222 11.1193 18.0057C10.8028 17.6893 10.625 17.2601 10.625 16.8125V8.9375C10.625 8.48995 10.8028 8.06072 11.1193 7.74426C11.4357 7.42779 11.8649 7.25 12.3125 7.25H17.9375ZM17.9375 8.375H12.3125C12.1633 8.375 12.0202 8.43426 11.9148 8.53975C11.8093 8.64524 11.75 8.78832 11.75 8.9375V16.8125C11.75 16.9617 11.8093 17.1048 11.9148 17.2102C12.0202 17.3157 12.1633 17.375 12.3125 17.375H17.9375C18.0867 17.375 18.2298 17.3157 18.3352 17.2102C18.4407 17.1048 18.5 16.9617 18.5 16.8125V8.9375C18.5 8.78832 18.4407 8.64524 18.3352 8.53975C18.2298 8.43426 18.0867 8.375 17.9375 8.375Z" fill="white"/>
</svg>
