<svg width="26" height="15" viewBox="0 0 26 15" fill="none" xmlns="http://www.w3.org/2000/svg">
<path d="M25.8525 6.0955C25.5438 4.06168 23.7534 2.38162 21.5374 2.09827C21.3838 2.07864 21.3572 2.03042 21.3591 1.90666C21.3661 1.5098 21.374 1.11251 21.3582 0.716069C21.3368 0.166861 21.138 0.000433801 20.543 0.000433801C17.416 7.06529e-06 14.289 0.000433801 11.162 0.000433801H6.84882C5.13379 0.000433801 3.41876 7.06529e-06 1.70372 0.000860537C1.33129 0.000860537 1.09713 0.1212 1.01007 0.356331C0.962588 0.484779 0.956536 0.6192 0.953743 0.754476C0.905793 3.11603 1.23912 5.43235 1.94766 7.70173C2.69764 10.1025 3.83169 12.3322 5.50017 14.3208C5.68917 14.5461 5.89727 14.6673 6.21756 14.6669C9.51774 14.6609 12.8179 14.6618 16.1181 14.6656C16.4025 14.6661 16.6097 14.5735 16.7815 14.3648C17.4589 13.5416 18.0864 12.6881 18.5929 11.7668C18.7209 11.5334 18.8666 11.4643 19.145 11.466C19.9578 11.4707 20.7753 11.5317 21.5835 11.4101C24.3525 10.9923 26.2389 8.6397 25.8525 6.0955ZM20.8107 9.88022C20.7153 9.87979 20.6203 9.88022 20.5249 9.88064C20.2739 9.88064 20.0226 9.87339 19.7721 9.8832C19.5887 9.89003 19.5766 9.83754 19.638 9.69245C19.9104 9.0532 20.1515 8.40329 20.3577 7.74312C20.7348 6.5329 21.0025 5.30348 21.1762 4.05442C21.2469 3.54874 21.1212 3.61019 21.6594 3.72285C23.184 4.04119 24.2771 5.30774 24.2799 6.73389C24.2831 8.45022 22.7958 9.8943 20.8107 9.88022Z" fill="#1C1C1C"/>
</svg>
