<svg width="47" height="48" viewBox="0 0 47 48" fill="none" xmlns="http://www.w3.org/2000/svg">
<mask id="path-1-inside-1_1_26000" fill="white">
<path d="M46.3681 4.14126C46.3217 1.73105 44.5243 0.00397944 42.1101 0.00397944C29.4926 -0.00132648 16.8752 -0.00132648 4.25769 0.00397944C1.88594 0.00397944 0.0819284 1.73635 0.0341752 4.10677C-0.0126938 6.33791 -0.0126938 8.56993 0.0341752 10.8028C0.0739696 12.8761 1.59677 14.6152 3.54802 14.8261C4.07861 14.8831 4.18075 15.0608 4.1781 15.545C4.16218 17.6435 4.12637 19.7446 4.21259 21.8405C4.2882 23.6524 5.56427 25.0851 7.31257 25.5268C7.96179 25.6686 8.62968 25.7044 9.29035 25.6329C9.86206 25.5904 9.97349 25.7961 9.96553 26.3306C9.93369 28.4742 9.96553 30.6178 9.94961 32.7614C9.92972 35.2419 10.9007 37.2051 13.0164 38.6855C11.8438 39.4893 11.6037 40.6632 11.5905 41.9154C11.5799 42.909 11.5905 43.9052 11.6435 44.8974C11.6795 45.7239 12.0316 46.5051 12.627 47.0795C13.2224 47.6539 14.0157 47.9777 14.843 47.9841C20.1489 48.0035 25.4522 48.0035 30.7528 47.9841C32.4958 47.9761 33.8859 46.5475 33.9363 44.8085C33.9642 43.9251 33.9536 43.0403 33.9655 42.1555C33.9828 40.8065 33.7666 39.549 32.5648 38.6788C34.7163 37.1693 35.6594 35.1278 35.6157 32.577C35.5852 30.5011 35.6263 28.4225 35.5971 26.3426C35.5905 25.8199 35.686 25.5719 36.2683 25.6329C36.7541 25.6624 37.2412 25.6659 37.7274 25.6435C40.5263 25.6356 42.2123 23.9522 42.2215 21.1454C42.2277 19.245 42.2277 17.3437 42.2215 15.4415C42.2215 15.1073 42.2215 14.8897 42.6778 14.838C44.8095 14.6006 46.319 12.9438 46.3588 10.7644C46.4057 8.55887 46.4088 6.35118 46.3681 4.14126ZM8.63507 23.996C6.79657 23.996 5.82824 23.0211 5.82691 21.1733C5.82691 17.0864 5.83752 13.0008 5.81365 8.91393C5.81365 8.39395 5.9463 8.25071 6.46495 8.26264C7.6296 8.30377 8.7969 8.27592 10.1075 8.27592C9.89289 8.52766 9.62777 8.73143 9.32931 8.87404C9.03085 9.01664 8.70574 9.09487 8.37508 9.10364C7.73439 9.14742 7.47573 9.50159 7.4744 10.0958C7.4744 12.7488 7.4744 15.3996 7.4744 18.0481C7.4744 18.6583 7.77021 19.0337 8.38437 19.035C9.66177 19.035 10.7561 20.2288 10.7893 21.4054C10.8092 22.1482 11.105 22.3445 11.9407 22.3459C14.6343 22.3512 17.3288 22.3512 20.0242 22.3459C22.2554 22.3459 24.4865 22.3592 26.7163 22.334C27.1939 22.334 27.3636 22.4175 27.3424 22.9375C27.3013 23.9987 27.3358 23.9987 26.2613 23.9987L8.63507 23.996ZM32.3088 44.4477C32.2902 45.6933 31.6681 46.322 30.4238 46.3273C27.8849 46.3392 25.3447 46.3273 22.8059 46.3273C20.3094 46.3273 17.8139 46.3273 15.3192 46.3273C13.8601 46.3273 13.2671 45.7357 13.2645 44.2859C13.2645 43.4024 13.2645 42.519 13.2645 41.6329C13.2724 40.3383 13.8999 39.7188 15.2449 39.7161C18.8264 39.7082 22.4 39.7161 25.9775 39.7161C27.4366 39.7161 28.8957 39.7068 30.3549 39.7161C31.6813 39.7267 32.3008 40.3409 32.3141 41.6594C32.3194 42.5933 32.3233 43.5205 32.3088 44.4477ZM33.9443 32.8887C33.9337 35.9396 31.8299 38.0514 28.7816 38.0554C24.7819 38.0625 20.7821 38.0625 16.7823 38.0554C13.7593 38.0554 11.6528 35.9741 11.6263 32.9564C11.6077 30.7014 11.6263 28.4464 11.617 26.1913C11.617 25.8358 11.6356 25.6302 12.0972 25.6329C15.5659 25.6528 19.036 25.6435 22.5047 25.6448C22.6135 25.655 22.7215 25.6714 22.8284 25.6939C22.0179 26.3664 21.3083 27.0204 20.7498 27.8163C19.7142 29.2591 19.1352 30.9794 19.0877 32.7548C19.0665 33.5108 19.3238 33.8942 19.8505 33.926C20.3771 33.9579 20.6702 33.5905 20.7273 32.845C21.0032 29.1998 23.286 26.519 26.7362 25.8027C27.1056 25.7384 27.4786 25.6967 27.8531 25.678C28.7896 25.5997 29.0018 25.3729 29.0085 24.4444C29.0217 22.3021 28.8904 20.1585 29.0337 18.0163C29.0473 17.6732 29.1358 17.3372 29.293 17.032C29.4502 16.7268 29.6723 16.4597 29.9436 16.2494C30.6573 15.6816 31.4625 15.5384 32.3061 15.8819C33.1245 16.2149 33.6976 16.776 33.8382 17.7138C34.012 18.8798 33.9708 20.0524 33.9708 21.221C33.9753 25.1103 33.9664 28.9995 33.9443 32.8887ZM32.8831 14.4732C30.2302 13.4691 27.4101 15.415 27.3238 18.2789C27.3039 18.9196 27.3026 19.5616 27.3238 20.201C27.3371 20.5512 27.2734 20.6971 26.8689 20.6957C22.1625 20.6816 17.4562 20.6816 12.7498 20.6957C12.462 20.6957 12.3413 20.6254 12.2497 20.3336C11.8146 18.9275 10.8728 17.9911 9.46412 17.5586C9.15372 17.4631 9.11924 17.3145 9.12056 17.0479C9.12675 15.0591 9.12675 13.0694 9.12056 11.0788C9.12056 10.8135 9.1577 10.6622 9.47473 10.5694C9.9972 10.4242 10.484 10.1724 10.9045 9.83C11.325 9.48758 11.6701 9.06188 11.9181 8.57966C11.9607 8.47995 12.0339 8.39641 12.1272 8.34108C12.2204 8.28575 12.3288 8.26153 12.4368 8.27194C14.8417 8.28122 17.2466 8.27194 19.7629 8.27194C17.9868 10.7923 17.7798 13.3815 18.979 16.0597C19.9367 18.1993 21.7566 19.2432 23.8286 18.9647C25.1378 18.7869 26.1035 18.0454 26.8529 17.0055C28.5455 14.6576 28.5774 11.1796 26.9418 8.78129C26.8463 8.64068 26.7548 8.49877 26.6022 8.27061H28.3837C30.1957 8.27061 32.009 8.27724 33.8223 8.27061C34.1433 8.27061 34.3303 8.34753 34.4961 8.65262C34.7413 9.11363 35.0774 9.52012 35.4842 9.84752C35.8909 10.1749 36.3598 10.4164 36.8626 10.5575C37.1942 10.6569 37.2605 10.7922 37.2605 11.0973C37.2517 13.0862 37.2517 15.0759 37.2605 17.0665C37.2605 17.3503 37.1955 17.4857 36.905 17.5772C36.4655 17.7377 36.0343 17.9201 35.613 18.1237C35.4193 16.3674 34.5439 15.0967 32.8898 14.4732H32.8831ZM20.962 9.47105C22.2394 7.87264 24.192 7.88856 25.4535 9.50952C26.1168 10.3598 26.5147 11.6067 26.5028 13.091C26.4819 14.2781 26.0533 15.4218 25.289 16.3303C24.0673 17.739 22.2686 17.7178 21.0576 16.2958C19.5361 14.4998 19.4923 11.3175 20.9687 9.47105H20.962ZM40.5767 16.5279C40.5767 18.1197 40.5767 19.7115 40.5767 21.3033C40.5767 22.9972 39.558 23.9973 37.8468 24.0026C37.2287 24.0026 36.6105 23.9907 35.9897 24.0026C35.7032 24.0106 35.609 23.9204 35.617 23.6299C35.6382 22.8579 35.6011 22.0832 35.6435 21.3139C35.7099 20.1267 36.5933 19.222 37.7778 19.0668C38.7793 18.9342 38.9279 18.7697 38.9279 17.7603C38.9279 15.2842 38.9279 12.8116 38.9279 10.3426C38.9279 9.39545 38.7952 9.23628 37.8773 9.09037C37.299 8.99751 36.771 8.80783 36.2855 8.26264C37.6611 8.26264 38.9385 8.27326 40.2026 8.26264C40.6934 8.25601 40.5701 8.5916 40.5701 8.85159C40.5745 11.4082 40.5767 13.967 40.5767 16.5279ZM44.7259 4.60951C44.6357 6.65893 44.718 8.72159 44.6994 10.771C44.7026 11.3505 44.5012 11.9125 44.1306 12.358C43.7601 12.8035 43.2442 13.104 42.6739 13.2064C42.3635 13.2635 42.2282 13.2144 42.2322 12.8642C42.2441 11.4727 42.2388 10.0786 42.2322 8.68977C42.2322 8.45365 42.2587 8.29183 42.5399 8.19499C42.724 8.14045 42.8792 8.01567 42.972 7.84763C43.0648 7.6796 43.0878 7.48181 43.036 7.29696C42.9405 6.85922 42.6381 6.62443 42.1778 6.6231H4.67022C4.4938 6.6231 4.31738 6.6231 4.13963 6.6231C3.94944 6.62499 3.76622 6.69495 3.62314 6.82026C3.48007 6.94557 3.3866 7.11798 3.35966 7.30626C3.28007 7.69492 3.44986 8.0451 3.81332 8.16581C4.17677 8.28652 4.16881 8.48682 4.16749 8.76539C4.16749 10.0919 4.14626 11.4183 4.17545 12.7448C4.18606 13.2515 4.00168 13.2754 3.58649 13.1653C2.47755 12.8695 1.71615 11.9794 1.70554 10.8228C1.68697 8.56774 1.68299 6.31273 1.70554 4.06435C1.7188 2.75909 2.68316 1.78148 3.98709 1.67668C4.22851 1.65679 4.47258 1.66208 4.71532 1.66208H23.2065C29.3905 1.66208 35.5759 1.69923 41.7599 1.64087C43.6276 1.6223 44.8029 2.78826 44.722 4.60951H44.7259Z"/>
</mask>
<path d="M46.3681 4.14126C46.3217 1.73105 44.5243 0.00397944 42.1101 0.00397944C29.4926 -0.00132648 16.8752 -0.00132648 4.25769 0.00397944C1.88594 0.00397944 0.0819284 1.73635 0.0341752 4.10677C-0.0126938 6.33791 -0.0126938 8.56993 0.0341752 10.8028C0.0739696 12.8761 1.59677 14.6152 3.54802 14.8261C4.07861 14.8831 4.18075 15.0608 4.1781 15.545C4.16218 17.6435 4.12637 19.7446 4.21259 21.8405C4.2882 23.6524 5.56427 25.0851 7.31257 25.5268C7.96179 25.6686 8.62968 25.7044 9.29035 25.6329C9.86206 25.5904 9.97349 25.7961 9.96553 26.3306C9.93369 28.4742 9.96553 30.6178 9.94961 32.7614C9.92972 35.2419 10.9007 37.2051 13.0164 38.6855C11.8438 39.4893 11.6037 40.6632 11.5905 41.9154C11.5799 42.909 11.5905 43.9052 11.6435 44.8974C11.6795 45.7239 12.0316 46.5051 12.627 47.0795C13.2224 47.6539 14.0157 47.9777 14.843 47.9841C20.1489 48.0035 25.4522 48.0035 30.7528 47.9841C32.4958 47.9761 33.8859 46.5475 33.9363 44.8085C33.9642 43.9251 33.9536 43.0403 33.9655 42.1555C33.9828 40.8065 33.7666 39.549 32.5648 38.6788C34.7163 37.1693 35.6594 35.1278 35.6157 32.577C35.5852 30.5011 35.6263 28.4225 35.5971 26.3426C35.5905 25.8199 35.686 25.5719 36.2683 25.6329C36.7541 25.6624 37.2412 25.6659 37.7274 25.6435C40.5263 25.6356 42.2123 23.9522 42.2215 21.1454C42.2277 19.245 42.2277 17.3437 42.2215 15.4415C42.2215 15.1073 42.2215 14.8897 42.6778 14.838C44.8095 14.6006 46.319 12.9438 46.3588 10.7644C46.4057 8.55887 46.4088 6.35118 46.3681 4.14126ZM8.63507 23.996C6.79657 23.996 5.82824 23.0211 5.82691 21.1733C5.82691 17.0864 5.83752 13.0008 5.81365 8.91393C5.81365 8.39395 5.9463 8.25071 6.46495 8.26264C7.6296 8.30377 8.7969 8.27592 10.1075 8.27592C9.89289 8.52766 9.62777 8.73143 9.32931 8.87404C9.03085 9.01664 8.70574 9.09487 8.37508 9.10364C7.73439 9.14742 7.47573 9.50159 7.4744 10.0958C7.4744 12.7488 7.4744 15.3996 7.4744 18.0481C7.4744 18.6583 7.77021 19.0337 8.38437 19.035C9.66177 19.035 10.7561 20.2288 10.7893 21.4054C10.8092 22.1482 11.105 22.3445 11.9407 22.3459C14.6343 22.3512 17.3288 22.3512 20.0242 22.3459C22.2554 22.3459 24.4865 22.3592 26.7163 22.334C27.1939 22.334 27.3636 22.4175 27.3424 22.9375C27.3013 23.9987 27.3358 23.9987 26.2613 23.9987L8.63507 23.996ZM32.3088 44.4477C32.2902 45.6933 31.6681 46.322 30.4238 46.3273C27.8849 46.3392 25.3447 46.3273 22.8059 46.3273C20.3094 46.3273 17.8139 46.3273 15.3192 46.3273C13.8601 46.3273 13.2671 45.7357 13.2645 44.2859C13.2645 43.4024 13.2645 42.519 13.2645 41.6329C13.2724 40.3383 13.8999 39.7188 15.2449 39.7161C18.8264 39.7082 22.4 39.7161 25.9775 39.7161C27.4366 39.7161 28.8957 39.7068 30.3549 39.7161C31.6813 39.7267 32.3008 40.3409 32.3141 41.6594C32.3194 42.5933 32.3233 43.5205 32.3088 44.4477ZM33.9443 32.8887C33.9337 35.9396 31.8299 38.0514 28.7816 38.0554C24.7819 38.0625 20.7821 38.0625 16.7823 38.0554C13.7593 38.0554 11.6528 35.9741 11.6263 32.9564C11.6077 30.7014 11.6263 28.4464 11.617 26.1913C11.617 25.8358 11.6356 25.6302 12.0972 25.6329C15.5659 25.6528 19.036 25.6435 22.5047 25.6448C22.6135 25.655 22.7215 25.6714 22.8284 25.6939C22.0179 26.3664 21.3083 27.0204 20.7498 27.8163C19.7142 29.2591 19.1352 30.9794 19.0877 32.7548C19.0665 33.5108 19.3238 33.8942 19.8505 33.926C20.3771 33.9579 20.6702 33.5905 20.7273 32.845C21.0032 29.1998 23.286 26.519 26.7362 25.8027C27.1056 25.7384 27.4786 25.6967 27.8531 25.678C28.7896 25.5997 29.0018 25.3729 29.0085 24.4444C29.0217 22.3021 28.8904 20.1585 29.0337 18.0163C29.0473 17.6732 29.1358 17.3372 29.293 17.032C29.4502 16.7268 29.6723 16.4597 29.9436 16.2494C30.6573 15.6816 31.4625 15.5384 32.3061 15.8819C33.1245 16.2149 33.6976 16.776 33.8382 17.7138C34.012 18.8798 33.9708 20.0524 33.9708 21.221C33.9753 25.1103 33.9664 28.9995 33.9443 32.8887ZM32.8831 14.4732C30.2302 13.4691 27.4101 15.415 27.3238 18.2789C27.3039 18.9196 27.3026 19.5616 27.3238 20.201C27.3371 20.5512 27.2734 20.6971 26.8689 20.6957C22.1625 20.6816 17.4562 20.6816 12.7498 20.6957C12.462 20.6957 12.3413 20.6254 12.2497 20.3336C11.8146 18.9275 10.8728 17.9911 9.46412 17.5586C9.15372 17.4631 9.11924 17.3145 9.12056 17.0479C9.12675 15.0591 9.12675 13.0694 9.12056 11.0788C9.12056 10.8135 9.1577 10.6622 9.47473 10.5694C9.9972 10.4242 10.484 10.1724 10.9045 9.83C11.325 9.48758 11.6701 9.06188 11.9181 8.57966C11.9607 8.47995 12.0339 8.39641 12.1272 8.34108C12.2204 8.28575 12.3288 8.26153 12.4368 8.27194C14.8417 8.28122 17.2466 8.27194 19.7629 8.27194C17.9868 10.7923 17.7798 13.3815 18.979 16.0597C19.9367 18.1993 21.7566 19.2432 23.8286 18.9647C25.1378 18.7869 26.1035 18.0454 26.8529 17.0055C28.5455 14.6576 28.5774 11.1796 26.9418 8.78129C26.8463 8.64068 26.7548 8.49877 26.6022 8.27061H28.3837C30.1957 8.27061 32.009 8.27724 33.8223 8.27061C34.1433 8.27061 34.3303 8.34753 34.4961 8.65262C34.7413 9.11363 35.0774 9.52012 35.4842 9.84752C35.8909 10.1749 36.3598 10.4164 36.8626 10.5575C37.1942 10.6569 37.2605 10.7922 37.2605 11.0973C37.2517 13.0862 37.2517 15.0759 37.2605 17.0665C37.2605 17.3503 37.1955 17.4857 36.905 17.5772C36.4655 17.7377 36.0343 17.9201 35.613 18.1237C35.4193 16.3674 34.5439 15.0967 32.8898 14.4732H32.8831ZM20.962 9.47105C22.2394 7.87264 24.192 7.88856 25.4535 9.50952C26.1168 10.3598 26.5147 11.6067 26.5028 13.091C26.4819 14.2781 26.0533 15.4218 25.289 16.3303C24.0673 17.739 22.2686 17.7178 21.0576 16.2958C19.5361 14.4998 19.4923 11.3175 20.9687 9.47105H20.962ZM40.5767 16.5279C40.5767 18.1197 40.5767 19.7115 40.5767 21.3033C40.5767 22.9972 39.558 23.9973 37.8468 24.0026C37.2287 24.0026 36.6105 23.9907 35.9897 24.0026C35.7032 24.0106 35.609 23.9204 35.617 23.6299C35.6382 22.8579 35.6011 22.0832 35.6435 21.3139C35.7099 20.1267 36.5933 19.222 37.7778 19.0668C38.7793 18.9342 38.9279 18.7697 38.9279 17.7603C38.9279 15.2842 38.9279 12.8116 38.9279 10.3426C38.9279 9.39545 38.7952 9.23628 37.8773 9.09037C37.299 8.99751 36.771 8.80783 36.2855 8.26264C37.6611 8.26264 38.9385 8.27326 40.2026 8.26264C40.6934 8.25601 40.5701 8.5916 40.5701 8.85159C40.5745 11.4082 40.5767 13.967 40.5767 16.5279ZM44.7259 4.60951C44.6357 6.65893 44.718 8.72159 44.6994 10.771C44.7026 11.3505 44.5012 11.9125 44.1306 12.358C43.7601 12.8035 43.2442 13.104 42.6739 13.2064C42.3635 13.2635 42.2282 13.2144 42.2322 12.8642C42.2441 11.4727 42.2388 10.0786 42.2322 8.68977C42.2322 8.45365 42.2587 8.29183 42.5399 8.19499C42.724 8.14045 42.8792 8.01567 42.972 7.84763C43.0648 7.6796 43.0878 7.48181 43.036 7.29696C42.9405 6.85922 42.6381 6.62443 42.1778 6.6231H4.67022C4.4938 6.6231 4.31738 6.6231 4.13963 6.6231C3.94944 6.62499 3.76622 6.69495 3.62314 6.82026C3.48007 6.94557 3.3866 7.11798 3.35966 7.30626C3.28007 7.69492 3.44986 8.0451 3.81332 8.16581C4.17677 8.28652 4.16881 8.48682 4.16749 8.76539C4.16749 10.0919 4.14626 11.4183 4.17545 12.7448C4.18606 13.2515 4.00168 13.2754 3.58649 13.1653C2.47755 12.8695 1.71615 11.9794 1.70554 10.8228C1.68697 8.56774 1.68299 6.31273 1.70554 4.06435C1.7188 2.75909 2.68316 1.78148 3.98709 1.67668C4.22851 1.65679 4.47258 1.66208 4.71532 1.66208H23.2065C29.3905 1.66208 35.5759 1.69923 41.7599 1.64087C43.6276 1.6223 44.8029 2.78826 44.722 4.60951H44.7259Z" fill="#1C1C1C" fill-opacity="0.7" stroke="white" stroke-width="0.4" mask="url(#path-1-inside-1_1_26000)"/>
</svg>
