<svg width="21" height="24" viewBox="0 0 21 24" fill="none" xmlns="http://www.w3.org/2000/svg">
<path d="M10.0884 23.9999C9.00929 22.763 7.92196 21.5344 6.84281 20.2975C4.6518 17.7828 2.4608 15.2682 0.277964 12.7535C0.179859 12.6388 0.0899294 12.5159 0 12.3931C2.24006 12.3931 4.48829 12.3931 6.72835 12.3931C6.74471 12.3931 6.76106 12.3931 6.77741 12.3931C6.78558 12.4422 6.78558 12.4914 6.80193 12.5405C7.10442 13.5726 7.39874 14.6129 7.70123 15.6449C8.36343 17.9385 9.03382 20.232 9.69602 22.5255C9.84318 23.017 9.95764 23.5084 10.0884 23.9999Z" fill="#FDB501"/>
<path d="M20.3068 12.3931C19.8572 12.9255 19.4075 13.4661 18.9497 13.9985C16.1047 17.2668 13.2596 20.535 10.4146 23.8033C10.3574 23.8688 10.2838 23.9344 10.2266 23.9999C10.2347 23.9262 10.2347 23.8606 10.2511 23.7869C10.5863 22.6156 10.9215 21.4443 11.2648 20.2729C11.739 18.6265 12.2295 16.9719 12.7037 15.3255C12.9817 14.3507 13.2596 13.3678 13.5376 12.3931C13.554 12.3931 13.5703 12.3931 13.5867 12.3931C15.8267 12.3931 18.0668 12.3931 20.3068 12.3931Z" fill="#FDB501"/>
<path d="M20.3084 12.3931C18.0684 12.3931 15.8201 12.3931 13.5801 12.3931C14.4875 10.9433 15.4032 9.49345 16.3025 8.04362C16.5069 7.71597 16.6949 7.38014 16.8911 7.05249C16.9647 7.11802 17.0464 7.17536 17.0955 7.24908C18.142 8.89549 19.1884 10.5501 20.2267 12.2047C20.2676 12.2539 20.2839 12.3276 20.3084 12.3931Z" fill="#FDE079"/>
<path d="M6.72835 12.385C4.48829 12.385 2.24006 12.385 0 12.385C0.19621 12.0492 0.384244 11.697 0.596804 11.3693C1.4634 9.99324 2.33816 8.61713 3.21293 7.24102C3.26198 7.15911 3.35191 7.10996 3.41732 7.04443C3.45002 7.11815 3.46637 7.20006 3.50725 7.26559C4.0877 8.183 4.67633 9.10041 5.25678 10.026C5.75548 10.8124 6.23783 11.5987 6.72835 12.385Z" fill="#FDE079"/>
<path d="M10.0962 7.04443C10.1371 7.04443 10.1698 7.04443 10.2106 7.04443C10.2434 7.11815 10.2597 7.20006 10.3006 7.26559C10.742 7.96184 11.1835 8.64989 11.625 9.34614C12.2627 10.3618 12.9004 11.3775 13.5299 12.385C11.2816 12.385 9.03339 12.385 6.78516 12.385C6.83421 12.2868 6.88326 12.1803 6.94049 12.0902C7.80708 10.7222 8.68185 9.35433 9.54844 7.97822C9.74465 7.68334 9.91633 7.36389 10.0962 7.04443Z" fill="#FDE078"/>
<path d="M10.0973 7.04443C9.91741 7.3557 9.74573 7.68334 9.54952 7.98641C8.68293 9.35433 7.80816 10.7222 6.94157 12.0984C6.88434 12.1885 6.83529 12.2949 6.78623 12.3932C6.76988 12.3932 6.75353 12.3932 6.73718 12.3932C6.24666 11.6069 5.76431 10.8205 5.26561 10.0342C4.67698 9.1086 4.08835 8.19119 3.5079 7.27379C3.46702 7.20826 3.45067 7.12634 3.41797 7.05262C5.64168 7.04443 7.87356 7.04443 10.0973 7.04443Z" fill="#FDD23C"/>
<path d="M13.5301 12.3931C12.8925 11.3774 12.263 10.3617 11.6253 9.3542C11.1838 8.65795 10.7423 7.9699 10.3009 7.27365C10.26 7.20812 10.2436 7.12621 10.2109 7.05249C12.4346 7.05249 14.6665 7.05249 16.8902 7.05249C16.694 7.38833 16.506 7.72416 16.3016 8.04362C15.3941 9.49345 14.4867 10.9433 13.5792 12.3931C13.5629 12.3931 13.5465 12.3931 13.5301 12.3931Z" fill="#FDD23C"/>
<path d="M6.78516 12.3931C9.03339 12.3931 11.2816 12.3931 13.5299 12.3931C13.2519 13.3678 12.9821 14.3507 12.696 15.3255C12.2218 16.9801 11.7394 18.6265 11.2571 20.2729C10.9137 21.4443 10.5785 22.6156 10.2434 23.7869C10.227 23.8525 10.227 23.9262 10.2188 23.9999C10.1779 23.9999 10.1289 23.9999 10.088 23.9999C9.95721 23.5084 9.84276 23.017 9.70377 22.5255C9.04157 20.232 8.37118 17.9385 7.70898 15.6449C7.40649 14.6129 7.11217 13.5726 6.80968 12.5405C6.79333 12.4914 6.79333 12.4422 6.78516 12.3931ZM7.07947 12.7125C8.09322 16.2183 9.09879 19.6832 10.1044 23.1562C10.1452 23.1562 10.1861 23.1562 10.2188 23.1562C10.2597 23.0006 10.2924 22.8368 10.3415 22.6811C10.5131 22.1569 10.7093 21.6408 10.8647 21.1084C10.9873 20.6743 11.0527 20.232 11.1753 19.7978C11.3879 19.0279 11.6086 18.2579 11.8376 17.4961C12.0256 16.849 12.2136 16.2019 12.4098 15.5548C12.6306 14.8176 12.8595 14.0886 13.0802 13.3514C13.1374 13.1466 13.1783 12.9337 13.2274 12.7125C11.1508 12.7125 9.13967 12.7125 7.07947 12.7125Z" fill="#FDD23C"/>
<path d="M5.48638 1.87573C5.64171 1.97403 5.76434 2.02317 5.85427 2.11328C6.58188 2.83409 7.30132 3.55491 8.02075 4.27573C8.24966 4.50508 8.25784 4.75901 8.06163 4.94741C7.87359 5.12761 7.64468 5.11123 7.41577 4.88188C6.67999 4.16106 5.95237 3.43205 5.22476 2.70304C5.06943 2.5474 5.00403 2.35901 5.11848 2.1788C5.19206 2.05594 5.35557 1.98222 5.48638 1.87573Z" fill="#FDD340"/>
<path d="M12.6155 5.07036C12.2394 5.07036 12.0269 4.73453 12.1658 4.45603C12.2067 4.37412 12.2721 4.30859 12.3293 4.24306C13.0243 3.53862 13.7273 2.84238 14.4222 2.14613C14.6757 1.9004 14.9209 1.86763 15.1172 2.06422C15.3052 2.25262 15.2807 2.50654 15.0272 2.76047C14.3323 3.4649 13.6292 4.16115 12.9262 4.8574C12.828 4.95569 12.6891 5.02122 12.6155 5.07036Z" fill="#FDD340"/>
<path d="M10.5869 2.02321C10.5869 2.53106 10.5869 3.0471 10.5869 3.55495C10.5869 3.89079 10.4234 4.0628 10.1455 4.05461C9.88385 4.04642 9.73669 3.88259 9.72852 3.55495C9.72852 2.53106 9.72852 1.51536 9.72852 0.491468C9.72852 0.196587 9.90837 0 10.1536 0C10.3989 0 10.5788 0.196587 10.5788 0.491468C10.5869 0.999318 10.5869 1.51536 10.5869 2.02321Z" fill="#FDD23D"/>
<path d="M7.08008 12.7126C9.14028 12.7126 11.1514 12.7126 13.2198 12.7126C13.1708 12.9338 13.1299 13.1468 13.0726 13.3516C12.8519 14.0888 12.623 14.8178 12.4023 15.555C12.2061 16.2021 12.018 16.8492 11.83 17.4963C11.6092 18.2662 11.3803 19.028 11.1678 19.798C11.0533 20.2321 10.9879 20.6744 10.8571 21.1086C10.7018 21.641 10.5056 22.157 10.3339 22.6812C10.2848 22.8369 10.2521 22.9925 10.2113 23.1563C10.1704 23.1563 10.1295 23.1563 10.0968 23.1563C9.0994 19.6915 8.09383 16.2184 7.08008 12.7126Z" fill="#FDD23C"/>
</svg>
