<svg width="158" height="124" viewBox="0 0 158 124" fill="none" xmlns="http://www.w3.org/2000/svg">
<path d="M158 122.973V92.2285L85.6165 92.2285V122.973L158 122.973Z" fill="#BCE376"/>
<path d="M155.597 121.071H88.0224C87.738 121.071 87.5073 120.839 87.5073 120.553V94.6452C87.5073 94.3591 87.738 94.127 88.0224 94.127H155.597C155.881 94.127 156.112 94.3591 156.112 94.6452V120.554C156.112 120.84 155.881 121.071 155.597 121.071ZM88.5375 120.035H155.082V95.1635H88.5375V120.035Z" fill="#70A636"/>
<path d="M121.806 118.656C127.874 118.656 132.792 113.706 132.792 107.601C132.792 101.496 127.874 96.5469 121.806 96.5469C115.739 96.5469 110.82 101.496 110.82 107.601C110.82 113.706 115.739 118.656 121.806 118.656Z" fill="#70A636"/>
<path d="M101.91 109.415C102.91 108.992 103.381 107.834 102.961 106.827C102.541 105.821 101.389 105.347 100.389 105.77C99.3886 106.193 98.9181 107.351 99.3381 108.358C99.7581 109.364 100.909 109.838 101.91 109.415Z" fill="#70A636"/>
<path d="M143.854 108.997C144.621 108.225 144.621 106.974 143.854 106.202C143.087 105.43 141.843 105.43 141.076 106.202C140.309 106.974 140.309 108.225 141.076 108.997C141.843 109.769 143.087 109.769 143.854 108.997Z" fill="#70A636"/>
<path d="M126.382 108.455C125.926 107.938 125.376 107.553 124.733 107.301C124.091 107.049 123.268 106.806 122.265 106.574C121.533 106.393 120.954 106.232 120.53 106.089C120.106 105.947 119.756 105.753 119.479 105.507C119.202 105.261 119.064 104.944 119.064 104.556C119.064 104 119.305 103.555 119.787 103.218C120.269 102.882 121.004 102.713 121.995 102.713C122.598 102.713 123.222 102.803 123.864 102.984C124.161 103.068 124.454 103.17 124.741 103.29C125.291 103.52 125.923 103.264 126.148 102.708C126.362 102.177 126.13 101.56 125.61 101.329C125.251 101.17 124.863 101.036 124.444 100.927C123.915 100.79 123.38 100.702 122.84 100.657V99.1381C122.84 98.5658 122.379 98.1016 121.81 98.1016C121.241 98.1016 120.78 98.5658 120.78 99.1381V100.701C120.123 100.786 119.529 100.934 119.016 101.161C118.199 101.524 117.59 102.011 117.184 102.626C116.779 103.241 116.576 103.923 116.576 104.673C116.576 105.565 116.804 106.273 117.261 106.797C117.717 107.32 118.264 107.705 118.9 107.951C119.536 108.197 120.368 108.443 121.396 108.687C122.128 108.869 122.708 109.031 123.131 109.173C123.556 109.315 123.905 109.512 124.182 109.764C124.458 110.017 124.597 110.337 124.597 110.725C124.597 111.256 124.35 111.682 123.855 112.005C123.36 112.328 122.611 112.49 121.609 112.49C120.799 112.49 119.992 112.351 119.19 112.073C118.796 111.936 118.431 111.78 118.097 111.605C117.561 111.323 116.899 111.576 116.652 112.132L116.647 112.144C116.42 112.656 116.623 113.253 117.109 113.525C117.536 113.762 118.029 113.967 118.591 114.138C119.301 114.356 120.031 114.492 120.779 114.551V116.064C120.779 116.636 121.24 117.101 121.809 117.101C122.378 117.101 122.839 116.636 122.839 116.064V114.502C123.5 114.417 124.098 114.27 124.616 114.042C125.439 113.679 126.053 113.195 126.458 112.587C126.862 111.979 127.065 111.3 127.065 110.55C127.066 109.671 126.838 108.973 126.382 108.455Z" fill="#BCE376"/>
<path d="M92.3722 119.265C92.3722 119.724 92.2721 120.163 92.0909 120.554H88.0229V116.461C88.4106 116.277 88.8467 116.178 89.3038 116.178C90.9986 116.177 92.3722 117.559 92.3722 119.265Z" fill="#70A636"/>
<path d="M92.3732 95.9385C92.3732 97.6448 90.9997 99.0269 89.3038 99.0269C88.8477 99.0269 88.4116 98.9262 88.0229 98.7439V94.6465H92.0909C92.2731 95.0365 92.3732 95.4753 92.3732 95.9385Z" fill="#70A636"/>
<path d="M155.595 94.6465V98.7439C155.203 98.9273 154.771 99.0269 154.311 99.0269C152.618 99.0269 151.242 97.6448 151.242 95.9385C151.242 95.4753 151.342 95.0365 151.523 94.6465H155.595Z" fill="#70A636"/>
<path d="M155.595 116.46V120.553H151.523C151.341 120.163 151.242 119.724 151.242 119.264C151.242 117.558 152.618 116.176 154.311 116.176C154.771 116.177 155.203 116.278 155.595 116.46Z" fill="#70A636"/>
<path d="M156.327 107.383L149.789 77.3516L79.0849 92.9376L85.6237 122.969L156.327 107.383Z" fill="#BCE376"/>
<path d="M153.574 106.047L87.5643 120.597C87.2863 120.658 87.0124 120.481 86.9513 120.201L81.4413 94.8937C81.3802 94.6139 81.5561 94.3383 81.8342 94.2769L147.843 79.727C148.122 79.6656 148.395 79.8426 148.456 80.1224L153.966 105.43C154.028 105.71 153.852 105.986 153.574 106.047ZM87.8477 119.474L152.851 105.146L147.561 80.8505L82.5578 95.1778L87.8477 119.474Z" fill="#70A636"/>
<path d="M117.705 111.218C123.772 111.218 128.691 106.269 128.691 100.164C128.691 94.0586 123.772 89.1094 117.705 89.1094C111.637 89.1094 106.718 94.0586 106.718 100.164C106.718 106.269 111.637 111.218 117.705 111.218Z" fill="#70A636"/>
<path d="M99.1702 105.686C99.759 104.77 99.4976 103.546 98.5864 102.954C97.6751 102.361 96.4591 102.624 95.8703 103.541C95.2815 104.458 95.5429 105.681 96.4542 106.274C97.3654 106.866 98.5814 106.603 99.1702 105.686Z" fill="#70A636"/>
<path d="M139.634 96.5836C140.113 95.604 139.712 94.4193 138.738 93.9377C137.764 93.456 136.587 93.8598 136.108 94.8394C135.63 95.8191 136.031 97.0037 137.005 97.4854C137.978 97.967 139.156 97.5633 139.634 96.5836Z" fill="#70A636"/>
<path d="M122.347 100.013C121.791 99.6061 121.173 99.3486 120.491 99.2405C119.81 99.1324 118.954 99.073 117.925 99.0614C117.171 99.0423 116.572 99.0094 116.127 98.9617C115.683 98.914 115.299 98.7996 114.977 98.6194C114.655 98.4392 114.452 98.1594 114.37 97.78C114.252 97.2373 114.392 96.7487 114.792 96.3163C115.191 95.8839 115.873 95.5617 116.84 95.3487C117.43 95.2183 118.058 95.1727 118.725 95.2109C119.033 95.2289 119.34 95.2649 119.645 95.3211C120.233 95.4271 120.796 95.0424 120.897 94.4499C120.993 93.885 120.635 93.3317 120.077 93.2183C119.693 93.1399 119.285 93.0933 118.852 93.0774C118.307 93.0572 117.765 93.0869 117.228 93.1579L116.905 91.6741C116.782 91.1145 116.234 90.7616 115.678 90.8834C115.123 91.0064 114.772 91.5586 114.893 92.1171L115.226 93.6444C114.601 93.8691 114.053 94.1404 113.6 94.4732C112.88 95.0031 112.388 95.6115 112.122 96.2983C111.857 96.9861 111.805 97.6963 111.964 98.4286C112.154 99.2998 112.528 99.9432 113.085 100.357C113.642 100.77 114.258 101.028 114.932 101.131C115.606 101.234 116.471 101.296 117.527 101.314C118.281 101.333 118.881 101.367 119.325 101.414C119.77 101.462 120.153 101.58 120.477 101.766C120.801 101.953 121.004 102.236 121.086 102.615C121.199 103.133 121.048 103.604 120.633 104.026C120.218 104.449 119.522 104.768 118.542 104.983C117.751 105.158 116.934 105.195 116.09 105.096C115.676 105.047 115.288 104.974 114.924 104.875C114.341 104.715 113.748 105.104 113.626 105.7L113.623 105.713C113.511 106.262 113.835 106.803 114.369 106.963C114.836 107.103 115.361 107.196 115.947 107.244C116.688 107.303 117.429 107.28 118.173 107.175L118.495 108.653C118.617 109.213 119.166 109.566 119.721 109.444C120.277 109.321 120.628 108.769 120.507 108.21L120.175 106.684C120.803 106.459 121.355 106.186 121.813 105.852C122.54 105.321 123.036 104.716 123.302 104.034C123.569 103.354 123.622 102.647 123.463 101.913C123.274 101.053 122.902 100.42 122.347 100.013Z" fill="#BCE376"/>
<path d="M91.4308 117.895C91.5287 118.344 91.5245 118.794 91.4297 119.215L87.4555 120.09L86.5854 116.091C86.9257 115.829 87.3302 115.638 87.7757 115.539C89.4326 115.174 91.0684 116.228 91.4308 117.895Z" fill="#70A636"/>
<path d="M86.4689 95.109C86.8323 96.7762 85.7842 98.4211 84.1273 98.7868C83.6818 98.8853 83.2341 98.8811 82.8159 98.7857L81.9448 94.7836L85.9191 93.9082C86.1803 94.2495 86.3709 94.6565 86.4689 95.109Z" fill="#70A636"/>
<path d="M147.949 80.2324L148.82 84.2345C148.476 84.4973 148.075 84.6881 147.625 84.7877C145.972 85.1523 144.334 84.0988 143.97 82.4316C143.872 81.9791 143.875 81.5297 143.97 81.1089L147.949 80.2324Z" fill="#70A636"/>
<path d="M152.595 101.541L153.465 105.54L149.487 106.417C149.226 106.075 149.036 105.668 148.939 105.219C148.575 103.552 149.626 101.906 151.28 101.541C151.73 101.442 152.173 101.447 152.595 101.541Z" fill="#70A636"/>
<path d="M151.368 92.5241L138.593 64.5957L72.8406 95.0467L85.6157 122.975L151.368 92.5241Z" fill="#BCE376"/>
<path d="M148.389 91.8085L87.0034 120.234C86.7453 120.354 86.4388 120.24 86.3198 119.98L75.5547 96.4443C75.4357 96.1847 75.5484 95.8763 75.8075 95.7565L137.193 67.3309C137.451 67.2111 137.757 67.3245 137.876 67.5853L148.641 91.1206C148.76 91.3814 148.648 91.6887 148.389 91.8085ZM87.0403 119.077L147.49 91.0835L137.156 68.4893L76.706 96.4825L87.0403 119.077Z" fill="#70A636"/>
<path d="M119.867 101.6C124.158 97.2828 124.158 90.2836 119.867 85.9666C115.577 81.6497 108.621 81.6497 104.33 85.9666C100.04 90.2836 100.04 97.2828 104.33 101.6C108.621 105.917 115.577 105.917 119.867 101.6Z" fill="#70A636"/>
<path d="M95.1829 103.153C95.5527 102.127 95.0256 100.993 94.0056 100.621C92.9856 100.249 91.8591 100.78 91.4893 101.806C91.1196 102.832 91.6467 103.966 92.6666 104.338C93.6866 104.71 94.8132 104.179 95.1829 103.153Z" fill="#70A636"/>
<path d="M132.253 86.4914C133.02 85.7195 133.02 84.468 132.253 83.6961C131.486 82.9241 130.242 82.9241 129.475 83.6961C128.707 84.468 128.707 85.7195 129.475 86.4914C130.242 87.2634 131.486 87.2634 132.253 86.4914Z" fill="#70A636"/>
<path d="M116.608 92.6365C115.978 92.3588 115.32 92.2401 114.631 92.2814C113.942 92.3228 113.094 92.4489 112.087 92.6588C111.347 92.8029 110.753 92.8993 110.309 92.9481C109.864 92.9969 109.465 92.9682 109.112 92.8612C108.76 92.7542 108.503 92.5242 108.341 92.1723C108.111 91.6667 108.144 91.1601 108.442 90.6524C108.741 90.1448 109.339 89.6816 110.238 89.2661C110.787 89.0118 111.391 88.8327 112.05 88.7267C112.356 88.6779 112.663 88.6472 112.973 88.6355C113.569 88.6133 114.037 88.1151 114.009 87.5152C113.983 86.9429 113.516 86.4798 112.948 86.4893C112.556 86.4956 112.147 86.538 111.721 86.6154C111.184 86.7129 110.662 86.8592 110.152 87.0436L109.521 85.6637C109.283 85.1433 108.672 84.9164 108.155 85.156C107.638 85.3955 107.412 86.0102 107.65 86.5306L108.3 87.9508C107.738 88.3038 107.261 88.6885 106.889 89.1103C106.298 89.7823 105.946 90.4829 105.833 91.211C105.721 91.9391 105.821 92.645 106.133 93.3254C106.503 94.1362 107.005 94.6831 107.637 94.9672C108.269 95.2512 108.925 95.371 109.605 95.3264C110.286 95.2819 111.143 95.1558 112.18 94.946C112.92 94.8029 113.513 94.7064 113.958 94.6566C114.402 94.6079 114.802 94.6397 115.159 94.752C115.515 94.8643 115.773 95.0975 115.934 95.4494C116.154 95.9316 116.107 96.4234 115.792 96.9247C115.477 97.4271 114.864 97.8881 113.952 98.31C113.217 98.6502 112.426 98.8643 111.581 98.9491C111.166 98.9915 110.771 99.0021 110.395 98.984C109.791 98.9533 109.295 99.461 109.302 100.07V100.083C109.308 100.643 109.741 101.102 110.296 101.143C110.782 101.179 111.316 101.158 111.897 101.077C112.633 100.977 113.353 100.793 114.057 100.531L114.686 101.906C114.924 102.426 115.535 102.653 116.052 102.414C116.569 102.174 116.794 101.56 116.556 101.039L115.907 99.62C116.473 99.2649 116.954 98.8791 117.33 98.4541C117.927 97.779 118.284 97.0805 118.399 96.3577C118.514 95.6349 118.415 94.9332 118.104 94.2517C117.735 93.4526 117.238 92.9142 116.608 92.6365Z" fill="#BCE376"/>
<path d="M90.2114 116.763C90.4021 117.18 90.4937 117.62 90.4905 118.051L86.7944 119.763L85.0933 116.044C85.3692 115.714 85.7242 115.44 86.1392 115.248C87.6802 114.536 89.5025 115.213 90.2114 116.763Z" fill="#70A636"/>
<path d="M80.5112 95.5723C81.2201 97.1229 80.547 98.9554 79.006 99.6687C78.591 99.8605 78.1538 99.9527 77.7251 99.9496L76.0229 96.2273L79.7191 94.5156C80.0456 94.7954 80.3184 95.1515 80.5112 95.5723Z" fill="#70A636"/>
<path d="M137.41 67.8027L139.112 71.5239C138.833 71.8546 138.481 72.128 138.063 72.3209C136.525 73.0332 134.701 72.357 133.992 70.8064C133.799 70.3856 133.707 69.9458 133.711 69.5144L137.41 67.8027Z" fill="#70A636"/>
<path d="M146.477 87.6191L148.178 91.3382L144.478 93.051C144.151 92.7733 143.878 92.4161 143.687 91.9985C142.978 90.4479 143.655 88.6144 145.193 87.9021C145.611 87.7092 146.046 87.6181 146.477 87.6191Z" fill="#70A636"/>
<path d="M143.38 79.0721L124.961 54.541L67.2066 98.444L85.6252 122.975L143.38 79.0721Z" fill="#BCE376"/>
<path d="M140.318 79.0124L86.4003 119.997C86.1738 120.17 85.8504 120.125 85.6787 119.897L70.1589 99.2241C69.9872 98.9962 70.0325 98.6708 70.259 98.4981L124.177 57.5131C124.403 57.3403 124.727 57.3859 124.899 57.6138L140.419 78.2864C140.591 78.5154 140.546 78.8397 140.318 79.0124ZM86.1906 118.858L139.287 78.4973L124.388 58.6524L71.2912 99.0132L86.1906 118.858Z" fill="#70A636"/>
<path d="M113.055 96.5724C117.346 92.2555 117.346 85.2563 113.055 80.9393C108.765 76.6223 101.809 76.6223 97.5184 80.9393C93.228 85.2563 93.228 92.2555 97.5184 96.5724C101.809 100.889 108.765 100.889 113.055 96.5724Z" fill="#70A636"/>
<path d="M90.753 101.56C90.9062 100.48 90.1596 99.4785 89.0855 99.3243C88.0114 99.1702 87.0165 99.9213 86.8633 101.002C86.7101 102.083 87.4567 103.084 88.5308 103.238C89.6049 103.392 90.5998 102.641 90.753 101.56Z" fill="#70A636"/>
<path d="M122.31 78.1309C123.354 77.8343 123.961 76.7421 123.667 75.6915C123.372 74.6409 122.286 74.0296 121.242 74.3262C120.198 74.6228 119.591 75.715 119.885 76.7656C120.18 77.8162 121.266 78.4275 122.31 78.1309Z" fill="#70A636"/>
<path d="M109.448 86.6659C108.774 86.5303 108.105 86.5557 107.442 86.7444C106.778 86.933 105.976 87.2383 105.037 87.6612C104.344 87.9611 103.786 88.1826 103.362 88.3268C102.939 88.4709 102.543 88.5281 102.175 88.4995C101.807 88.472 101.507 88.3024 101.274 87.9929C100.942 87.5488 100.867 87.0475 101.049 86.4868C101.232 85.9262 101.719 85.3454 102.508 84.7455C102.99 84.3788 103.541 84.0735 104.163 83.8276C104.45 83.7142 104.744 83.6178 105.044 83.5404C105.623 83.3899 105.973 82.8027 105.818 82.223C105.671 81.6697 105.117 81.3179 104.563 81.4493C104.182 81.5404 103.791 81.6687 103.392 81.8361C102.888 82.0471 102.409 82.3025 101.95 82.5929L101.04 81.3804C100.696 80.9236 100.05 80.8335 99.5964 81.178C99.1424 81.5235 99.0529 82.1732 99.3953 82.63L100.332 83.8774C99.8577 84.3438 99.4721 84.8218 99.1993 85.3146C98.7654 86.0989 98.5705 86.8588 98.6158 87.5944C98.6611 88.3299 98.9076 88.9977 99.3573 89.5954C99.8914 90.3076 100.498 90.7337 101.176 90.8757C101.854 91.0167 102.52 90.9923 103.176 90.8026C103.831 90.6129 104.642 90.3045 105.61 89.8763C106.303 89.5763 106.861 89.3548 107.285 89.2107C107.708 89.0665 108.105 89.0114 108.477 89.0453C108.849 89.0793 109.15 89.2499 109.383 89.5604C109.701 89.9833 109.759 90.474 109.558 91.0326C109.357 91.5911 108.856 92.1741 108.056 92.7824C107.41 93.2732 106.683 93.6526 105.875 93.9175C105.479 94.0479 105.095 94.1444 104.724 94.2069C104.127 94.3076 103.75 94.9106 103.887 95.5031L103.89 95.5158C104.015 96.0617 104.536 96.4167 105.086 96.3372C105.569 96.2683 106.085 96.1316 106.637 95.9281C107.334 95.6706 107.998 95.3367 108.63 94.9297L109.537 96.1369C109.88 96.5937 110.526 96.6838 110.98 96.3393C111.434 95.9938 111.523 95.3441 111.181 94.8873L110.245 93.6409C110.722 93.1725 111.109 92.6923 111.386 92.1963C111.826 91.4088 112.025 90.6489 111.984 89.9187C111.943 89.1884 111.697 88.5239 111.248 87.9251C110.722 87.2203 110.121 86.8016 109.448 86.6659Z" fill="#BCE376"/>
<path d="M88.7836 115.919C89.0585 116.286 89.2418 116.696 89.3313 117.118L86.085 119.585L83.6328 116.318C83.8329 115.937 84.1205 115.592 84.485 115.316C85.8374 114.288 87.7608 114.557 88.7836 115.919Z" fill="#70A636"/>
<path d="M74.8152 97.3049C75.838 98.6668 75.5694 100.602 74.2159 101.63C73.8514 101.907 73.4438 102.091 73.0246 102.181L70.5703 98.9127L73.8167 96.4453C74.1948 96.6456 74.5372 96.935 74.8152 97.3049Z" fill="#70A636"/>
<path d="M124.484 57.9258L126.938 61.1944C126.736 61.5781 126.45 61.9204 126.083 62.1992C124.732 63.2262 122.806 62.958 121.784 61.5961C121.507 61.2273 121.324 60.816 121.234 60.3942L124.484 57.9258Z" fill="#70A636"/>
<path d="M137.554 75.332L140.006 78.5985L136.757 81.068C136.378 80.8666 136.036 80.5773 135.761 80.2106C134.738 78.8487 135.009 76.9112 136.36 75.8853C136.726 75.6055 137.131 75.4232 137.554 75.332Z" fill="#70A636"/>
<path d="M132.702 67.6506L109.492 47.6543L62.4143 102.977L85.624 122.974L132.702 67.6506Z" fill="#BCE376"/>
<path d="M129.696 68.2519L85.7437 119.897C85.5583 120.114 85.2339 120.14 85.0179 119.953L65.4607 103.101C65.2448 102.915 65.2195 102.588 65.4049 102.371L109.357 50.726C109.543 50.5087 109.867 50.4833 110.083 50.6698L129.64 67.5217C129.855 67.7082 129.88 68.0346 129.696 68.2519ZM85.296 118.83L128.579 67.9721L109.803 51.7943L66.5204 102.652L85.296 118.83Z" fill="#70A636"/>
<path d="M97.5483 96.3686C103.616 96.3686 108.535 91.4193 108.535 85.3142C108.535 79.209 103.616 74.2598 97.5483 74.2598C91.4807 74.2598 86.562 79.209 86.562 85.3142C86.562 91.4193 91.4807 96.3686 97.5483 96.3686Z" fill="#70A636"/>
<path d="M85.1816 102.755C86.0903 102.159 86.3466 100.934 85.754 100.02C85.1614 99.1054 83.9443 98.8475 83.0356 99.4438C82.1268 100.04 81.8705 101.265 82.4631 102.179C83.0557 103.093 84.2728 103.351 85.1816 102.755Z" fill="#70A636"/>
<path d="M111.511 71.4354C112.557 71.1442 113.17 70.0552 112.88 69.0031C112.591 67.9509 111.509 67.334 110.463 67.6252C109.417 67.9163 108.804 69.0053 109.094 70.0574C109.383 71.1096 110.465 71.7265 111.511 71.4354Z" fill="#70A636"/>
<path d="M101.169 82.3753C100.482 82.388 99.8333 82.5576 99.2256 82.8841C98.6167 83.2116 97.8994 83.6821 97.0715 84.2969C96.4585 84.7388 95.9602 85.0759 95.5768 85.308C95.1934 85.5401 94.8195 85.681 94.454 85.7319C94.0885 85.7838 93.7598 85.6832 93.467 85.4309C93.0478 85.0695 92.8677 84.5947 92.9266 84.0075C92.9867 83.4203 93.3374 82.7484 93.9821 81.9927C94.375 81.5306 94.849 81.1141 95.403 80.7399C95.66 80.5672 95.9265 80.4103 96.2036 80.2694C96.7365 79.998 96.9535 79.3494 96.6797 78.8152C96.4184 78.3065 95.8012 78.0818 95.2882 78.3298C94.9353 78.5004 94.5814 78.7103 94.2265 78.9604C93.7788 79.2752 93.3648 79.6271 92.9793 80.0097L91.8322 79.0219C91.4004 78.6499 90.7505 78.7008 90.3797 79.1353C90.01 79.5699 90.0605 80.2238 90.4924 80.5969L91.6721 81.6133C91.3087 82.1708 91.0338 82.7208 90.8716 83.2603C90.6135 84.1199 90.5851 84.9042 90.7863 85.6132C90.9864 86.3223 91.3698 86.9211 91.9365 87.4086C92.6096 87.9894 93.2932 88.2756 93.9852 88.2671C94.6773 88.2597 95.323 88.0922 95.9223 87.7658C96.5217 87.4394 97.2485 86.9635 98.1027 86.3371C98.7158 85.8951 99.214 85.5581 99.5974 85.326C99.9808 85.0949 100.357 84.955 100.728 84.9073C101.097 84.8607 101.429 84.9625 101.722 85.2147C102.122 85.5602 102.283 86.0266 102.205 86.6148C102.128 87.2041 101.763 87.8803 101.111 88.6465C100.584 89.2655 99.9545 89.7912 99.2224 90.2247C98.8632 90.4377 98.5083 90.6136 98.1585 90.7557C97.5971 90.9825 97.357 91.6523 97.6161 92.2024L97.6213 92.214C97.8605 92.7196 98.4429 92.9549 98.9654 92.7588C99.4215 92.5871 99.8976 92.3434 100.393 92.0254C101.019 91.6237 101.597 91.1552 102.128 90.6211L103.27 91.6057C103.702 91.9777 104.352 91.9268 104.723 91.4923C105.093 91.0577 105.042 90.4038 104.61 90.0307L103.43 89.0143C103.796 88.4547 104.074 87.9015 104.238 87.3567C104.5 86.4929 104.533 85.7086 104.337 85.0027C104.143 84.2979 103.761 83.7012 103.195 83.2137C102.532 82.6424 101.856 82.3626 101.169 82.3753Z" fill="#BCE376"/>
<path d="M87.2116 115.399C87.5581 115.698 87.8246 116.059 88.0016 116.453L85.3556 119.562L82.2651 116.9C82.3789 116.484 82.5875 116.086 82.8845 115.737C83.9863 114.44 85.9234 114.289 87.2116 115.399Z" fill="#70A636"/>
<path d="M69.601 100.225C70.8893 101.335 71.0388 103.283 69.936 104.579C69.639 104.928 69.2798 105.196 68.889 105.374L65.7964 102.709L68.4424 99.5996C68.8553 99.7151 69.2513 99.9239 69.601 100.225Z" fill="#70A636"/>
<path d="M109.75 51.0645L112.842 53.729C112.726 54.1476 112.52 54.5429 112.221 54.8948C111.12 56.1889 109.181 56.3415 107.894 55.2318C107.544 54.9308 107.277 54.5694 107.102 54.1762L109.75 51.0645Z" fill="#70A636"/>
<path d="M126.215 65.252L129.306 67.9143L126.658 71.0261C126.245 70.9116 125.849 70.7018 125.502 70.4029C124.214 69.2932 124.066 67.342 125.167 66.049C125.465 65.6982 125.822 65.4321 126.215 65.252Z" fill="#70A636"/>
<path d="M55.5509 0.00150931C54.0436 -0.0324064 52.1781 0.500706 49.4563 2.06295C46.4395 3.79477 29.1933 -1.77906 31.2779 3.29451C39.1578 12.3044 50.0019 25.132 37.6189 35.1159L37.6221 35.1244C25.6552 45.0034 16.171 63.0052 11.3772 80.0054C1.35477 115.551 30.1708 122.525 58.615 123.837C87.0108 125.147 114.126 119.217 104.588 79.5953C98.9461 56.1585 85.4413 38.1641 70.2744 30.9506C60.3288 22.3541 84.9589 1.11543 72.9182 3.08784C61.3758 5.30296 60.0739 0.103256 55.5509 0.00150931Z" fill="#FFDE59"/>
<path d="M73.9458 2.97154C73.6392 2.9885 73.299 3.02771 72.9219 3.08918C71.6326 3.33613 70.4887 3.47921 69.4354 3.5587C68.9329 8.28994 56.413 24.8885 63.601 32.3309C77.9842 40.8214 86.8586 56.4364 90.1566 80.0047C95.7329 119.847 68.1566 123.179 40.0221 119.275C33.9254 118.429 27.8403 117.318 22.1797 115.757C31.6502 121.328 45.1729 123.219 58.6187 123.839C87.0145 125.149 114.129 119.219 104.591 79.5966C98.9498 56.1598 85.445 38.1654 70.278 30.952C60.6432 22.6236 83.4563 2.43207 73.9458 2.97154Z" fill="#FFDE59"/>
<path d="M73.9458 2.97154C73.6392 2.9885 73.299 3.02771 72.9219 3.08918C71.6326 3.33613 70.4887 3.47921 69.4354 3.5587C68.9329 8.28994 56.413 24.8885 63.601 32.3309C77.9842 40.8214 86.8586 56.4364 90.1566 80.0047C95.7329 119.847 68.1566 123.179 40.0221 119.275C33.9254 118.429 27.8403 117.318 22.1797 115.757C31.6502 121.328 45.1729 123.219 58.6187 123.839C87.0145 125.149 114.129 119.219 104.591 79.5966C98.9498 56.1598 85.445 38.1654 70.278 30.952C60.6432 22.6236 83.4563 2.43207 73.9458 2.97154Z" fill="black" fill-opacity="0.1"/>
<path d="M38.7188 1.46289C56.6486 26.3506 50.8026 45.5257 50.8026 45.5257C50.8026 45.5257 53.2737 46.7774 54.4787 31.4878C55.4246 19.4848 49.9768 7.16285 47.5857 2.40511C45.3705 2.44645 41.9093 1.86246 38.7188 1.46289Z" fill="#D4A034"/>
<path d="M68.9792 25.0981C68.5958 24.9984 68.1882 25.0514 67.8448 25.2443C63.6925 27.5781 57.3062 27.8272 51.9879 27.3503C46.6696 26.8733 42.4921 25.7626 42.4921 25.7626C41.6958 25.5506 40.8731 26.0053 40.6551 26.779C40.4371 27.5527 40.9047 28.3508 41.7011 28.5638C41.7011 28.5638 46.1124 29.7413 51.713 30.2437C57.3136 30.7461 64.175 30.6634 69.3437 27.7594C70.0589 27.3577 70.3022 26.4695 69.8893 25.7753C69.6892 25.4404 69.3626 25.1977 68.9792 25.0981Z" fill="#474747"/>
<path d="M69.738 27.1187C69.3451 27.0667 68.947 27.1695 68.631 27.4027C63.9805 30.842 57.3066 31.0857 51.7081 30.3364C46.1096 29.5871 41.7562 27.9189 41.7562 27.9189C40.9883 27.6242 40.1193 27.9899 39.816 28.736C39.5126 29.4822 39.8887 30.3258 40.6565 30.6205C40.6565 30.6205 45.3112 32.4116 51.2984 33.2139C57.2855 34.0152 64.7768 33.9039 70.4416 29.7143C70.7576 29.4811 70.9651 29.1356 71.0178 28.754C71.0705 28.3725 70.9662 27.9856 70.726 27.6793C70.4869 27.372 70.1309 27.1706 69.738 27.1187Z" fill="#474747"/>
<path d="M42.8983 28.0825C42.5138 28.1757 42.1831 28.4142 41.9787 28.7449C41.7744 29.0755 41.7143 29.4709 41.8102 29.844C41.906 30.2181 42.1515 30.5392 42.4917 30.7374C42.4917 30.7374 50.9542 35.6001 51.7873 46.8802C51.8158 47.265 52.0001 47.6221 52.3003 47.8744C52.6005 48.1266 52.9902 48.2528 53.3863 48.2252C53.7824 48.1976 54.15 48.0185 54.4101 47.7271C54.6703 47.4356 54.7999 47.0562 54.7714 46.6725C53.8371 34.0283 44.0316 28.2457 44.0316 28.2457C43.6904 28.0475 43.2827 27.9892 42.8983 28.0825Z" fill="#474747"/>
<path d="M43.756 28.12C43.382 27.9917 42.9702 28.0129 42.6131 28.1793C41.8684 28.5249 41.5524 29.3918 41.9084 30.1157C41.9084 30.1157 44.1383 34.6721 41.8347 39.6556C41.4966 40.3869 41.8326 41.2464 42.5857 41.575C42.9481 41.7329 43.3589 41.7446 43.7296 41.6078C44.1004 41.4711 44.3996 41.1966 44.5618 40.8447C47.4437 34.6095 44.606 28.864 44.606 28.864C44.4364 28.5164 44.1299 28.2493 43.756 28.12Z" fill="#474747"/>
<path d="M55.7787 54.5156V59.1536C53.9206 59.3592 52.2869 59.7683 50.8807 60.383C48.7656 61.3072 47.1782 62.5409 46.1207 64.082C45.0979 65.623 44.587 67.3527 44.587 69.2711C44.587 71.5657 45.1864 73.3982 46.3851 74.7675C47.6196 76.103 49.0827 77.0961 50.7754 77.7468C52.1215 78.2534 53.7921 78.76 55.7798 79.2677V91.3089C54.1745 91.1509 52.5945 90.8086 51.0398 90.2818C48.8541 89.4944 47.055 88.4843 45.6446 87.2506L43.6875 91.258C45.1685 92.5934 47.1962 93.6893 49.7705 94.5457C51.7244 95.1615 53.7268 95.5462 55.7798 95.7009V100.26H60.1048V95.6956C62.2809 95.5292 64.179 95.1116 65.7959 94.4418C67.9468 93.5176 69.551 92.2839 70.6086 90.7429C71.6661 89.1679 72.1949 87.4382 72.1949 85.5548C72.1949 83.2941 71.5777 81.4966 70.3442 80.1612C69.1455 78.8258 67.6993 77.8327 66.0076 77.1819C64.4845 76.5958 62.5137 76.0108 60.1048 75.4247V63.4185C61.3656 63.5181 62.6454 63.7555 63.9452 64.135C65.7085 64.614 67.3654 65.3337 68.9169 66.2928L70.6623 62.1838C69.1466 61.1567 67.3306 60.3682 65.2145 59.8203C63.5334 59.3846 61.8301 59.1229 60.1048 59.0338V54.5177H55.7787V54.5156ZM55.7787 63.5764V74.3733C55.1773 74.209 54.6369 74.0489 54.1597 73.8953C52.9252 73.4501 51.8856 72.8502 51.0387 72.0977C50.1929 71.3103 49.7694 70.3002 49.7694 69.0665C49.7694 67.3888 50.5099 66.0183 51.9909 64.9564C52.9537 64.2812 54.2177 63.8223 55.7787 63.5764ZM60.1037 80.3286C61.1265 80.5979 61.9881 80.8512 62.6749 81.0865C63.9094 81.4977 64.9311 82.0965 65.7422 82.884C66.588 83.6375 67.0115 84.6306 67.0115 85.8633C67.0115 87.541 66.2531 88.8945 64.7373 89.9215C63.6166 90.656 62.0713 91.117 60.1037 91.3089V80.3286Z" fill="#474747"/>
<path d="M25.4229 118.784V123.989C25.3618 123.996 25.2997 123.999 25.2365 123.999H0.5V118.773H25.2365C25.2997 118.774 25.3618 118.778 25.4229 118.784Z" fill="#FBCB0C"/>
<path d="M6.40057 118.775H2.16406V123.991H6.40057V118.775Z" fill="#FCE997"/>
<path d="M23.634 118.775H17.5078V123.991H23.634V118.775Z" fill="#FCA21C"/>
<path d="M25.4229 123.104V123.99C25.3618 123.997 25.2997 123.999 25.2365 123.999H0.5V123.113H25.2365C25.2997 123.113 25.3618 123.11 25.4229 123.104Z" fill="#EF7F18"/>
<path d="M26.0479 113.561V118.766C25.9868 118.774 25.9247 118.776 25.8615 118.776H1.125V113.551H25.8615C25.9247 113.551 25.9868 113.554 26.0479 113.561Z" fill="#FBCB0C"/>
<path d="M7.02557 113.551H2.78906V118.766H7.02557V113.551Z" fill="#FCE997"/>
<path d="M24.259 113.551H18.1328V118.766H24.259V113.551Z" fill="#FCA21C"/>
<path d="M26.0479 117.879V118.765C25.9868 118.772 25.9247 118.775 25.8615 118.775H1.125V117.888H25.8615C25.9247 117.89 25.9868 117.886 26.0479 117.879Z" fill="#EF7F18"/>
<path d="M24.9229 108.335V113.54C24.8618 113.547 24.7997 113.549 24.7365 113.549H0V108.324H24.7365C24.7997 108.325 24.8618 108.328 24.9229 108.335Z" fill="#FBCB0C"/>
<path d="M5.90057 108.326H1.66406V113.542H5.90057V108.326Z" fill="#FCE997"/>
<path d="M23.134 108.326H17.0078V113.542H23.134V108.326Z" fill="#FCA21C"/>
<path d="M24.9229 112.654V113.54C24.8618 113.548 24.7997 113.55 24.7365 113.55H0V112.664H24.7365C24.7997 112.664 24.8618 112.661 24.9229 112.654Z" fill="#EF7F18"/>
<path d="M24.9229 103.112V108.317C24.8618 108.325 24.7997 108.327 24.7365 108.327H0V103.102H24.7365C24.7997 103.102 24.8618 103.105 24.9229 103.112Z" fill="#FBCB0C"/>
<path d="M5.90057 103.102H1.66406V108.317H5.90057V103.102Z" fill="#FCE997"/>
<path d="M23.134 103.102H17.0078V108.317H23.134V103.102Z" fill="#FCA21C"/>
<path d="M24.9229 107.43V108.316C24.8618 108.323 24.7997 108.325 24.7365 108.325H0V107.439H24.7365C24.7997 107.439 24.8618 107.437 24.9229 107.43Z" fill="#EF7F18"/>
<path d="M26.0479 97.8856V103.091C25.9868 103.098 25.9247 103.1 25.8615 103.1H1.125V97.875H25.8615C25.9247 97.8761 25.9868 97.8792 26.0479 97.8856Z" fill="#FBCB0C"/>
<path d="M7.02557 97.877H2.78906V103.093H7.02557V97.877Z" fill="#FCE997"/>
<path d="M24.259 97.877H18.1328V103.093H24.259V97.877Z" fill="#FCA21C"/>
<path d="M26.0479 102.205V103.091C25.9868 103.099 25.9247 103.101 25.8615 103.101H1.125V102.215H25.8615C25.9247 102.215 25.9868 102.211 26.0479 102.205Z" fill="#EF7F18"/>
<path d="M26.7901 92.6629V97.8679C26.729 97.8754 26.6669 97.8775 26.6037 97.8775H1.86719V92.6523H26.6037C26.6669 92.6523 26.729 92.6555 26.7901 92.6629Z" fill="#FBCB0C"/>
<path d="M7.76776 92.6523H3.53125V97.8679H7.76776V92.6523Z" fill="#FCE997"/>
<path d="M25.0012 92.6523H18.875V97.8679H25.0012V92.6523Z" fill="#FCA21C"/>
<path d="M26.7901 96.9805V97.8665C26.729 97.8739 26.6669 97.876 26.6037 97.876H1.86719V96.99H26.6037C26.6669 96.99 26.729 96.9879 26.7901 96.9805Z" fill="#EF7F18"/>
<path d="M26.0479 87.4364V92.6414C25.9868 92.6488 25.9247 92.6509 25.8615 92.6509H1.125V87.4258H25.8615C25.9247 87.4268 25.9868 87.43 26.0479 87.4364Z" fill="#FBCB0C"/>
<path d="M7.02557 87.4277H2.78906V92.6433H7.02557V87.4277Z" fill="#FCE997"/>
<path d="M24.259 87.4277H18.1328V92.6433H24.259V87.4277Z" fill="#FCA21C"/>
<path d="M26.0479 91.7559V92.6419C25.9868 92.6493 25.9247 92.6514 25.8615 92.6514H1.125V91.7654H25.8615C25.9247 91.7654 25.9868 91.7622 26.0479 91.7559Z" fill="#EF7F18"/>
<path d="M27.0401 82.2137V87.4187C26.979 87.4261 26.9169 87.4283 26.8537 87.4283H2.11719V82.2031H26.8537C26.9169 82.2031 26.979 82.2063 27.0401 82.2137Z" fill="#FBCB0C"/>
<path d="M8.01776 82.2031H3.78125V87.4187H8.01776V82.2031Z" fill="#FCE997"/>
<path d="M25.2512 82.2031H19.125V87.4187H25.2512V82.2031Z" fill="#FCA21C"/>
<path d="M27.0401 86.5312V87.4173C26.979 87.4247 26.9169 87.4268 26.8537 87.4268H2.11719V86.5408H26.8537C26.9169 86.5408 26.979 86.5387 27.0401 86.5312Z" fill="#EF7F18"/>
<path d="M26.0479 76.9872V82.1922C25.9868 82.1996 25.9247 82.2017 25.8615 82.2017H1.125V76.9766H25.8615C25.9247 76.9776 25.9868 76.9808 26.0479 76.9872Z" fill="#FBCB0C"/>
<path d="M7.02557 76.9785H2.78906V82.1941H7.02557V76.9785Z" fill="#FCE997"/>
<path d="M24.259 76.9785H18.1328V82.1941H24.259V76.9785Z" fill="#FCA21C"/>
<path d="M26.0479 81.3066V82.1927C25.9868 82.2001 25.9247 82.2022 25.8615 82.2022H1.125V81.3162H25.8615C25.9247 81.3162 25.9868 81.313 26.0479 81.3066Z" fill="#EF7F18"/>
<path d="M52.0479 118.776V123.981C51.9868 123.989 51.9247 123.991 51.8615 123.991H27.125V118.766H51.8615C51.9247 118.767 51.9868 118.77 52.0479 118.776Z" fill="#FBCB0C"/>
<path d="M33.0256 118.768H28.7891V123.983H33.0256V118.768Z" fill="#FCE997"/>
<path d="M50.259 118.768H44.1328V123.983H50.259V118.768Z" fill="#FCA21C"/>
<path d="M52.0479 123.096V123.982C51.9868 123.989 51.9247 123.991 51.8615 123.991H27.125V123.105H51.8615C51.9247 123.105 51.9868 123.102 52.0479 123.096Z" fill="#EF7F18"/>
<path d="M53.1729 113.552V118.757C53.1118 118.764 53.0497 118.766 52.9865 118.766H28.25V113.541H52.9865C53.0497 113.542 53.1118 113.544 53.1729 113.552Z" fill="#FBCB0C"/>
<path d="M34.1506 113.543H29.9141V118.759H34.1506V113.543Z" fill="#FCE997"/>
<path d="M51.384 113.543H45.2578V118.759H51.384V113.543Z" fill="#FCA21C"/>
<path d="M53.1729 117.869V118.755C53.1118 118.763 53.0497 118.765 52.9865 118.765H28.25V117.879H52.9865C53.0497 117.88 53.1118 117.877 53.1729 117.869Z" fill="#EF7F18"/>
<path d="M53.9151 108.327V113.532C53.854 113.539 53.7919 113.542 53.7287 113.542H28.9922V108.316H53.7287C53.7919 108.317 53.854 108.321 53.9151 108.327Z" fill="#FBCB0C"/>
<path d="M34.8928 108.318H30.6562V113.534H34.8928V108.318Z" fill="#FCE997"/>
<path d="M52.1262 108.318H46V113.534H52.1262V108.318Z" fill="#FCA21C"/>
<path d="M53.9151 112.646V113.533C53.854 113.54 53.7919 113.542 53.7287 113.542H28.9922V112.656H53.7287C53.7919 112.656 53.854 112.653 53.9151 112.646Z" fill="#EF7F18"/>
<path d="M53.1729 103.102V108.307C53.1118 108.315 53.0497 108.317 52.9865 108.317H28.25V103.092H52.9865C53.0497 103.093 53.1118 103.095 53.1729 103.102Z" fill="#FBCB0C"/>
<path d="M34.1506 103.094H29.9141V108.309H34.1506V103.094Z" fill="#FCE997"/>
<path d="M51.384 103.094H45.2578V108.309H51.384V103.094Z" fill="#FCA21C"/>
<path d="M53.1729 107.42V108.306C53.1118 108.313 53.0497 108.316 52.9865 108.316H28.25V107.429H52.9865C53.0497 107.431 53.1118 107.427 53.1729 107.42Z" fill="#EF7F18"/>
<path d="M54.1662 97.8778V103.083C54.1051 103.09 54.0429 103.092 53.9797 103.092H29.2422V97.8672H53.9787C54.0429 97.8682 54.1051 97.8714 54.1662 97.8778Z" fill="#FBCB0C"/>
<path d="M35.1428 97.8691H30.9062V103.085H35.1428V97.8691Z" fill="#FCE997"/>
<path d="M52.3762 97.8691H46.25V103.085H52.3762V97.8691Z" fill="#FCA21C"/>
<path d="M54.1662 102.197V103.083C54.1051 103.091 54.0429 103.093 53.9797 103.093H29.2422V102.207H53.9787C54.0429 102.207 54.1051 102.204 54.1662 102.197Z" fill="#EF7F18"/>
<path d="M53.1729 92.6532V97.8582C53.1118 97.8656 53.0497 97.8677 52.9865 97.8677H28.25V92.6426H52.9865C53.0497 92.6436 53.1118 92.6458 53.1729 92.6532Z" fill="#FBCB0C"/>
<path d="M34.1506 92.6445H29.9141V97.8601H34.1506V92.6445Z" fill="#FCE997"/>
<path d="M51.384 92.6445H45.2578V97.8601H51.384V92.6445Z" fill="#FCA21C"/>
<path d="M53.1729 96.9707V97.8567C53.1118 97.8642 53.0497 97.8663 52.9865 97.8663H28.25V96.9802H52.9865C53.0497 96.9813 53.1118 96.9781 53.1729 96.9707Z" fill="#EF7F18"/>
</svg>
