<svg width="45" height="44" viewBox="0 0 45 44" fill="none" xmlns="http://www.w3.org/2000/svg">
<rect x="0.949219" width="43.9978" height="43.9978" rx="21.9989" fill="#8581FF"/>
<path d="M32.0622 12.7727C32.5469 12.1066 32.6305 10.7695 32.6305 10.7695H12.9473C12.9473 10.7695 13.0309 12.1066 13.5156 12.7727L21.5587 22.9912V30.3241H19.0983C16.6379 30.3241 16.6379 32.7684 16.6379 32.7684H28.9399C28.9399 32.7684 28.9399 30.3241 26.4795 30.3241H24.0191V22.9912L32.0622 12.7727ZM22.0508 16.8803C22.0508 16.3617 22.2581 15.8643 22.6273 15.4976C22.9964 15.1309 23.4971 14.9249 24.0191 14.9249C24.5411 14.9249 25.0418 15.1309 25.4109 15.4976C25.78 15.8643 25.9874 16.3617 25.9874 16.8803C25.9874 17.399 25.78 17.8963 25.4109 18.2631C25.0418 18.6298 24.5411 18.8358 24.0191 18.8358C23.4971 18.8358 22.9964 18.6298 22.6273 18.2631C22.2581 17.8963 22.0508 17.399 22.0508 16.8803Z" fill="white"/>
</svg>
