<svg width="32" height="32" viewBox="0 0 32 32" fill="none" xmlns="http://www.w3.org/2000/svg">
<rect width="32" height="32" rx="16" fill="#1C1C1C"/>
<path fill-rule="evenodd" clip-rule="evenodd" d="M15.5242 9.02502C15.8088 9.02502 16.0397 9.25597 16.0397 9.54052C16.0397 9.82508 15.8088 10.056 15.5242 10.056H12.9543C11.1782 10.056 10.031 11.2726 10.031 13.1552V18.8698C10.031 20.7524 11.1782 21.969 12.9543 21.969H19.0193C20.7954 21.969 21.9433 20.7524 21.9433 18.8698V16.1012C21.9433 15.8166 22.1742 15.5857 22.4588 15.5857C22.7433 15.5857 22.9743 15.8166 22.9743 16.1012V18.8698C22.9743 21.3401 21.3845 23 19.0193 23H12.9543C10.5891 23 9 21.3401 9 18.8698V13.1552C9 10.6849 10.5891 9.02502 12.9543 9.02502H15.5242ZM21.5107 9.62892L22.3472 10.4654C22.7548 10.8723 22.9788 11.4132 22.9781 11.9892C22.9781 12.5652 22.7541 13.1055 22.3472 13.5117L17.1859 18.6729C16.8072 19.0516 16.3027 19.2606 15.7666 19.2606H13.1918C13.053 19.2606 12.9196 19.2042 12.8227 19.1046C12.7258 19.0056 12.6729 18.8716 12.6763 18.732L12.7409 16.1346C12.754 15.6177 12.9622 15.1318 13.3279 14.7654H13.3286L18.4651 9.62892C19.305 8.79036 20.6707 8.79036 21.5107 9.62892ZM18.0419 11.5095L14.0572 15.4947C13.8791 15.6727 13.7781 15.9091 13.7719 16.16L13.7204 18.2296H15.7666C16.0278 18.2296 16.2725 18.1286 16.4574 17.9437L20.4662 13.9337L18.0419 11.5095ZM19.1937 10.3582L18.7705 10.7802L21.1948 13.2051L21.6186 12.7824C21.8303 12.5707 21.9471 12.2889 21.9471 11.9892C21.9471 11.6889 21.8303 11.4064 21.6186 11.1947L20.7821 10.3582C20.3443 9.92172 19.6322 9.92172 19.1937 10.3582Z" fill="white"/>
</svg>
