<svg width="21" height="21" viewBox="0 0 21 21" fill="none" xmlns="http://www.w3.org/2000/svg">
<path d="M18.4881 1.84058L18.4882 1.84061L19.6551 3.00569L18.4881 1.84058ZM18.4881 1.84058C17.2969 0.653141 15.3601 0.653141 14.1688 1.84058L14.1688 1.84061L7.01784 8.98038H7.01686L7.00221 8.99503C6.48305 9.51436 6.18726 10.2034 6.16872 10.9362L6.16872 10.9362L6.07859 14.5541L6.07859 14.5541M18.4881 1.84058L6.07859 14.5541M6.07859 14.5541C6.07346 14.762 6.15244 14.9617 6.29711 15.1092C6.44171 15.2576 6.64059 15.3415 6.84772 15.3415H10.4396C11.2008 15.3415 11.9173 15.0453 12.455 14.5084L19.6551 7.31956L6.07859 14.5541ZM14.701 3.47963L18.0122 6.78655L18.568 6.233L18.5681 6.23295M14.701 3.47963L18.5681 6.23295M14.701 3.47963L15.2557 2.92722L14.701 3.47963ZM18.5681 6.23295C18.854 5.94745 19.0117 5.56768 19.0117 5.16358C19.0117 4.75846 18.854 4.37772 18.568 4.09225L17.4012 2.92719M18.5681 6.23295L17.4012 2.92719M17.4012 2.92719C16.8099 2.33871 15.8481 2.33866 15.2558 2.92718L17.4012 2.92719ZM16.925 7.87197L11.3679 13.4219C11.1194 13.67 10.7908 13.8055 10.4396 13.8055H7.63634L7.70698 10.9741L7.70698 10.9741C7.71529 10.6375 7.85101 10.3204 8.09025 10.0815L8.05492 10.0461L8.09025 10.0815L13.6138 4.566L16.925 7.87197ZM10.8707 1.75287C10.8707 1.32883 10.526 0.984848 10.1015 0.984848H6.51633C4.8545 0.984848 3.46187 1.56738 2.48479 2.58636C1.50788 3.60516 0.95 5.05643 0.95 6.78766V14.7472C0.95 16.4784 1.50788 17.9297 2.48479 18.9485C3.46187 19.9675 4.8545 20.55 6.51633 20.55H14.9773C16.6392 20.55 18.032 19.9675 19.0094 18.9485C19.9865 17.9297 20.5446 16.4784 20.5446 14.7472V10.8909C20.5446 10.4669 20.2 10.1229 19.7755 10.1229C19.351 10.1229 19.0063 10.4669 19.0063 10.8909V14.7472C19.0063 16.0481 18.6093 17.1142 17.9096 17.8546C17.2103 18.5947 16.2043 19.014 14.9773 19.014H6.51633C5.28932 19.014 4.28364 18.5947 3.58452 17.8546C2.88514 17.1142 2.48829 16.0481 2.48829 14.7472V6.78766C2.48829 5.4867 2.88514 4.42067 3.58452 3.68028C4.28364 2.94018 5.28932 2.5209 6.51633 2.5209H10.1015C10.526 2.5209 10.8707 2.17691 10.8707 1.75287Z" fill="#1C1C1C" stroke="black" stroke-width="0.1"/>
</svg>
