<svg width="45" height="44" viewBox="0 0 45 44" fill="none" xmlns="http://www.w3.org/2000/svg">
<rect x="0.949219" width="43.9978" height="43.9978" rx="21.9989" fill="#34AA1B"/>
<g clip-path="url(#clip0_1_15705)">
<path d="M13.9059 14.3914L14.1796 14.4559V16.9694C13.8789 17.1477 13.664 17.4657 13.664 17.8395C13.664 18.1994 13.8628 18.5003 14.1418 18.6881L13.4707 21.3628C13.3955 21.6592 13.5622 21.9643 13.7985 21.9643H15.5924C15.8287 21.9643 15.9952 21.6582 15.92 21.4014L15.2487 18.6902C15.5279 18.5012 15.7264 18.2004 15.7264 17.8395C15.7264 17.4635 15.5116 17.1469 15.2108 16.9694V14.7085L17.4451 15.2456L17.4452 17.8395C17.4452 20.8794 19.905 23.3392 22.9449 23.3392C25.9848 23.3392 28.4059 20.8794 28.4059 17.8395L28.4446 15.2452L31.9786 14.3914C32.7627 14.2035 32.7627 13.2313 31.9786 13.038L23.7977 11.0615C23.2392 10.9326 22.654 10.9326 22.095 11.0615L13.9055 13.038C13.127 13.2262 13.127 14.2037 13.9059 14.3914ZM27.379 24.4048L22.9448 28.839L18.5107 24.4048C15.506 25.363 13.3203 28.1515 13.3203 31.4728C13.3203 32.2978 13.9876 32.9638 14.81 32.9638H31.0814C31.9034 32.9638 32.5694 32.2978 32.5694 31.4728C32.5694 28.1515 30.3824 25.363 27.379 24.4048Z" fill="white"/>
</g>
<defs>
<clipPath id="clip0_1_15705">
<rect width="21.9989" height="21.9989" fill="white" transform="translate(11.9492 10.9648)"/>
</clipPath>
</defs>
</svg>
