<svg width="45" height="45" viewBox="0 0 45 45" fill="none" xmlns="http://www.w3.org/2000/svg">
<rect x="0.949219" y="0.994141" width="43.9978" height="43.9978" rx="21.9989" fill="#6404F8"/>
<g clip-path="url(#clip0_1_15792)">
<path d="M16.2238 33.9939C16.004 33.9048 15.7842 33.8603 15.6084 33.7267C15.037 33.3258 14.8172 32.7024 15.037 32.0344C15.96 29.2732 17.015 26.5566 18.3337 23.9291C18.7732 23.0384 19.1249 22.0586 19.5644 21.168C20.3996 19.3866 21.4106 17.6497 22.5535 16.0465C23.96 14.087 25.8062 12.84 28.1359 12.3056C28.6194 12.172 29.1469 12.1275 29.6743 12.0384C30.5095 11.9493 31.1688 12.7064 30.9491 13.508C30.8611 13.9088 30.5535 14.1315 30.0699 14.1761C29.015 14.2206 28.048 14.4878 27.0809 14.8886C25.8502 15.4676 24.8831 16.3137 24.1359 17.4716C24.0919 17.5161 24.0919 17.5607 24.0919 17.5607C24.3557 17.7833 24.6194 18.006 24.8392 18.2732C25.0589 18.4959 25.1908 18.8076 25.4106 19.0748C25.4546 19.1639 25.4985 19.253 25.5864 19.2975C26.1578 19.8765 26.7293 20.4999 27.1249 21.2125C27.4326 21.7914 27.6524 22.3704 27.7842 22.9939C27.8282 23.2165 27.7842 23.4392 27.7403 23.6619C27.6524 24.0182 27.3886 24.2854 26.993 24.3299C25.5864 24.5971 24.1798 24.8643 22.7732 25.1315C22.5974 25.1761 22.4216 25.1315 22.1578 25.1315C22.2018 25.2651 22.2018 25.3542 22.2458 25.4433C23.1688 27.4473 24.0919 29.4959 25.015 31.4999C25.4546 32.4352 25.015 33.3704 24.0919 33.5931C23.5644 33.7267 23.0809 33.5485 22.8172 33.1032C22.4216 32.3461 22.0699 31.589 21.6743 30.7874C21.0589 29.4514 20.4875 28.1599 19.8721 26.7793C19.8282 26.8684 19.7842 26.9129 19.7842 27.002C18.9491 29.006 18.2458 30.9655 17.5864 32.925C17.4106 33.4149 17.1908 33.8157 16.6633 33.9939C16.4875 33.9939 16.3557 33.9939 16.2238 33.9939ZM24.4436 21.257C24.004 21.836 23.6084 22.3704 23.2128 22.8603L23.2567 22.9048C23.9161 22.7712 24.6194 22.6376 25.3227 22.504C25.0589 22.0586 24.7952 21.7024 24.4436 21.257Z" fill="white"/>
<path d="M25.5859 17.5609C25.5859 16.5366 26.4211 15.6904 27.4321 15.6904C28.4431 15.6904 29.2782 16.5366 29.2782 17.5609C29.2782 18.5852 28.4431 19.4313 27.4321 19.4313C26.4211 19.4313 25.5859 18.5852 25.5859 17.5609Z" fill="white"/>
</g>
<defs>
<clipPath id="clip0_1_15792">
<rect width="16" height="22" fill="white" transform="translate(14.9492 11.9941)"/>
</clipPath>
</defs>
</svg>
