<svg width="45" height="45" viewBox="0 0 45 45" fill="none" xmlns="http://www.w3.org/2000/svg">
<rect x="0.949219" y="0.996094" width="43.9978" height="43.9978" rx="21.9989" fill="#34AA1B"/>
<g clip-path="url(#clip0_1_15787)">
<path d="M31.0145 32.9958C30.4121 32.9078 29.9959 32.5412 29.6041 32.1012C27.5718 29.8132 25.5248 27.5399 23.4826 25.2618C23.4386 25.2129 23.3945 25.1689 23.3455 25.1151C23.037 25.428 22.7334 25.736 22.42 26.0586C22.3465 25.9902 22.2926 25.9413 22.2437 25.8973C19.9616 23.6191 17.6893 21.3361 15.3974 19.0726C14.3152 18.0019 13.9675 16.7113 14.1046 15.2447C14.1683 14.5162 14.3788 13.8269 14.6531 13.1523C14.6971 13.0447 14.751 13.0203 14.8636 13.0056C15.2652 12.9518 15.5395 13.1083 15.8284 13.3967C21.323 18.9015 26.8323 24.3965 32.3416 29.8915C32.6599 30.2092 32.895 30.5612 32.944 31.0208C33.0468 31.9594 32.5032 32.7318 31.5777 32.9616C31.5336 32.9714 31.4944 32.986 31.4503 33.0007C31.2985 32.9958 31.1565 32.9958 31.0145 32.9958Z" fill="white"/>
<path d="M12.9492 31.0843C13.0178 30.4683 13.3998 30.0479 13.8209 29.6323C15.5202 27.9506 17.2049 26.2591 18.8944 24.5725C18.9482 24.5187 18.9972 24.4551 19.0266 24.4111C19.8689 25.252 20.6867 26.0733 21.5633 26.9484C21.5388 26.9631 21.4556 26.9875 21.4017 27.0413C19.6387 28.7964 17.8807 30.5514 16.1226 32.3114C15.7455 32.6878 15.3292 32.9616 14.7808 32.9763C14.7563 32.9763 14.7318 32.9909 14.7073 33.0007C14.6926 33.0007 14.6828 33.0007 14.6681 33.0007C14.624 32.9909 14.5849 32.9714 14.5408 32.9665C14.056 32.9176 13.6642 32.7074 13.3508 32.3358C13.1108 32.0523 13.0129 31.715 12.9492 31.363C12.9492 31.2652 12.9492 31.1772 12.9492 31.0843Z" fill="white"/>
<path d="M28.7921 13.0498C29.0664 13.3236 29.3308 13.5876 29.6002 13.8565C28.5571 14.8978 27.5042 15.9489 26.466 16.9853C26.7647 17.2786 27.034 17.5475 27.3132 17.8261C28.3416 16.7995 29.3945 15.7484 30.4376 14.7071C30.7167 14.9858 30.991 15.2546 31.2701 15.5333C30.227 16.5746 29.1741 17.6257 28.1261 18.667C28.4101 18.9506 28.6746 19.2146 28.939 19.4786C29.9821 18.4372 31.035 17.3862 32.0732 16.3497C32.372 16.6479 32.6413 16.9217 32.9498 17.2297C32.9204 17.2444 32.8519 17.2737 32.8029 17.3226C31.5541 18.5692 30.2907 19.8012 29.0615 21.0674C28.4248 21.7225 27.6903 22.1283 26.7696 22.182C26.7549 22.182 26.7402 22.182 26.7304 22.1869C26.417 22.3483 26.2407 22.1527 26.0448 21.9523C25.3053 21.1994 24.5561 20.4563 23.8068 19.7181C23.7138 19.6301 23.6991 19.5568 23.7285 19.4297C23.7823 19.2097 23.797 18.9799 23.8362 18.7599C23.9439 18.1488 24.2133 17.611 24.654 17.171C26.0056 15.8169 27.3622 14.4676 28.7187 13.1134C28.7383 13.0889 28.7676 13.0645 28.7921 13.0498Z" fill="white"/>
</g>
<defs>
<clipPath id="clip0_1_15787">
<rect width="20" height="20" fill="white" transform="translate(12.9492 12.9961)"/>
</clipPath>
</defs>
</svg>
