<svg xmlns="http://www.w3.org/2000/svg" xmlns:xlink="http://www.w3.org/1999/xlink" viewBox="0 0 66 66"><defs><style>.cls-1{fill:none;}.cls-2{fill:#d9d9d9;fill-opacity:0.15;}.cls-3{clip-path:url(#clip-path);}.cls-4{fill:#ffde59;}.cls-5{fill-opacity:0.08;}.cls-6{fill:#c3dfea;}.cls-7{fill:#edf3f9;}.cls-8{fill:#c4dfeb;}.cls-9{fill:#ecf3f9;}</style><clipPath id="clip-path"><rect class="cls-1" x="19.67" y="18" width="26.66" height="30"/></clipPath></defs><g id="Layer_2" data-name="Layer 2"><g id="Layer_1-2" data-name="Layer 1"><circle class="cls-2" cx="33" cy="33" r="33"/><g class="cls-3"><path class="cls-4" d="M33,48a24.41,24.41,0,0,1-3.29-1.8,25.32,25.32,0,0,1-7.26-6.65,14.67,14.67,0,0,1-2.6-5.69,8.29,8.29,0,0,1-.17-1.79c0-3.07,0-6.14,0-9.22a.43.43,0,0,1,.06-.27.48.48,0,0,1,.19-.21l6-4.18a.63.63,0,0,1,.39-.17L33,18v2.62H27.18a.67.67,0,0,0-.39.15l-4.2,2.93a.56.56,0,0,0-.21.22.49.49,0,0,0-.06.29c0,2.6,0,5.19,0,7.79a6.18,6.18,0,0,0,.05,1,10.21,10.21,0,0,0,1.4,3.74A22.76,22.76,0,0,0,32.93,45l.07.07Z"/><path class="cls-4" d="M33,48V45.07a28.48,28.48,0,0,0,3.59-2.26,20.68,20.68,0,0,0,5.64-6.07,10.15,10.15,0,0,0,1.49-5.45c-.06-2.35,0-4.69,0-7a.59.59,0,0,0-.3-.56q-2.08-1.44-4.14-2.89a.93.93,0,0,0-.58-.18H33V18a2.58,2.58,0,0,1,.29,0h6.26a.8.8,0,0,1,.52.16l6,4.2a.48.48,0,0,1,.23.46c0,2.95,0,5.9,0,8.85A11.74,11.74,0,0,1,45,37.13a21.54,21.54,0,0,1-5.77,7,31.92,31.92,0,0,1-6,3.84C33.15,48,33.09,48,33,48Z"/><path class="cls-5" d="M33,48V45.07a28.48,28.48,0,0,0,3.59-2.26,20.68,20.68,0,0,0,5.64-6.07,10.15,10.15,0,0,0,1.49-5.45c-.06-2.35,0-4.69,0-7a.59.59,0,0,0-.3-.56q-2.08-1.44-4.14-2.89a.93.93,0,0,0-.58-.18H33V18a2.58,2.58,0,0,1,.29,0h6.26a.8.8,0,0,1,.52.16l6,4.2a.48.48,0,0,1,.23.46c0,2.95,0,5.9,0,8.85A11.74,11.74,0,0,1,45,37.13a21.54,21.54,0,0,1-5.77,7,31.92,31.92,0,0,1-6,3.84C33.15,48,33.09,48,33,48Z"/><path class="cls-6" d="M33,20.62h5.7a.94.94,0,0,1,.58.19q2.05,1.46,4.14,2.89a.59.59,0,0,1,.3.56c0,2.34-.05,4.68,0,7a10.16,10.16,0,0,1-1.49,5.46,20.68,20.68,0,0,1-5.64,6.07A28.48,28.48,0,0,1,33,45.07L32.93,45c.09-.08.07-.18.07-.28,0-.56,0-1.13,0-1.7a23.58,23.58,0,0,0,2.67-1.75,18.56,18.56,0,0,0,5-5.37,7.6,7.6,0,0,0,1.25-3.8c0-2.34,0-4.68,0-7a.42.42,0,0,0,0-.22.33.33,0,0,0-.15-.16c-1-.66-1.92-1.32-2.86-2a1.5,1.5,0,0,0-.92-.28c-1.65,0-3.3,0-5,0V20.62Z"/><path class="cls-7" d="M33,43c0,.56,0,1.13,0,1.7,0,.1,0,.2-.07.27a22.72,22.72,0,0,1-9.16-8.28A10.4,10.4,0,0,1,22.37,33a6.18,6.18,0,0,1-.05-1q0-3.89,0-7.79a.49.49,0,0,1,.06-.29.56.56,0,0,1,.21-.22l4.2-2.93a.7.7,0,0,1,.39-.15H33v1.78l-5.32,0a.65.65,0,0,0-.38.18c-1,.69-2,1.39-3,2.07a.5.5,0,0,0-.25.49q0,3.45,0,6.92,0,.3,0,.6a9.24,9.24,0,0,0,1.52,3.73,20.36,20.36,0,0,0,6.34,6A5,5,0,0,0,33,43Z"/><path class="cls-4" d="M33,22.41c1.66,0,3.31,0,5,0a1.46,1.46,0,0,1,.92.29c.94.68,1.9,1.34,2.86,2a.39.39,0,0,1,.15.16.34.34,0,0,1,0,.22c0,2.34,0,4.68,0,7a7.51,7.51,0,0,1-1.26,3.8,18.39,18.39,0,0,1-5,5.37A23.58,23.58,0,0,1,33,43V34A.43.43,0,0,0,33,34l5.48-5.61c.12-.12.09-.19,0-.29-.32-.3-.64-.61-.95-.93-.14-.13-.22-.13-.35,0-.32.34-.64.68-1,1-1.06,1.09-2.14,2.18-3.21,3.27v-9Z"/><path class="cls-5" d="M33,22.41c1.66,0,3.31,0,5,0a1.46,1.46,0,0,1,.92.29c.94.68,1.9,1.34,2.86,2a.39.39,0,0,1,.15.16.34.34,0,0,1,0,.22c0,2.34,0,4.68,0,7a7.51,7.51,0,0,1-1.26,3.8,18.39,18.39,0,0,1-5,5.37A23.58,23.58,0,0,1,33,43V34A.43.43,0,0,0,33,34l5.48-5.61c.12-.12.09-.19,0-.29-.32-.3-.64-.61-.95-.93-.14-.13-.22-.13-.35,0-.32.34-.64.68-1,1-1.06,1.09-2.14,2.18-3.21,3.27v-9Z"/><path class="cls-4" d="M33,22.43v9l-.07.13c-.41.42-.83.83-1.23,1.26-.16.17-.25.16-.42,0-.79-.76-1.6-1.49-2.39-2.25-.22-.22-.37-.29-.59,0a5.51,5.51,0,0,1-.7.75c-.18.17-.2.27,0,.46,1.26,1.16,2.5,2.32,3.74,3.49.17.16.26.18.42,0,.4-.42.82-.83,1.23-1.25v9a4.77,4.77,0,0,1-1-.58,20.39,20.39,0,0,1-6.34-6,9.14,9.14,0,0,1-1.52-3.72q0-.3,0-.6,0-3.46,0-6.93a.53.53,0,0,1,.25-.49c1-.68,2-1.38,3-2.07a.64.64,0,0,1,.38-.17Z"/><path class="cls-8" d="M32.93,31.55a.54.54,0,0,0,.07-.13l3.21-3.27c.33-.33.65-.66,1-1,.13-.14.21-.14.35,0,.3.31.62.62.95.92.1.11.13.18,0,.3Q35.74,31.16,33,34c0-.69,0-1.38,0-2.07C33,31.78,33,31.65,32.93,31.55Z"/><path class="cls-9" d="M32.93,31.55c.11.1.06.23.07.35,0,.69,0,1.38,0,2.07A.43.43,0,0,1,33,34c-.42.42-.84.83-1.24,1.25-.16.18-.25.16-.42,0-1.24-1.17-2.48-2.33-3.74-3.49-.2-.18-.17-.29,0-.46a6.3,6.3,0,0,0,.71-.75c.21-.3.36-.23.58,0,.79.76,1.6,1.5,2.4,2.25.16.16.25.17.41,0C32.1,32.38,32.52,32,32.93,31.55Z"/></g></g></g></svg>