<svg width="29" height="28" viewBox="0 0 29 28" fill="none" xmlns="http://www.w3.org/2000/svg">
<rect x="0.949219" width="28" height="28" rx="8" fill="#FFDE59"/>
<g clip-path="url(#clip0_1_16046)">
<path d="M6.97497 17.2281C7.04058 16.8829 7.16039 16.5549 7.26022 16.2211C7.63961 14.946 8.02186 13.6709 8.40125 12.3958C8.40981 12.3645 8.42407 12.3359 8.4583 12.3046C8.4583 12.3502 8.4583 12.3958 8.4583 12.4415C8.4583 13.7194 8.45545 14.9974 8.4583 16.2753C8.46115 17.3935 9.19426 18.3149 10.264 18.5545C10.4551 18.5973 10.6491 18.603 10.843 18.603C13.6785 18.603 16.5139 18.603 19.3494 18.603C19.4064 18.603 19.4606 18.603 19.5319 18.603C19.4036 19.0138 19.278 19.4131 19.1554 19.8125C19.1012 19.9894 19.0441 20.1634 18.9899 20.3402C18.756 21.0876 18.0514 21.4784 17.2955 21.2759C15.0705 20.6825 12.8455 20.0835 10.6234 19.4873C9.76192 19.2562 8.90045 19.0252 8.03897 18.797C7.4599 18.6429 7.10048 18.2807 6.97497 17.6902C6.97212 17.6788 6.96071 17.6674 6.95215 17.6588C6.95215 17.5647 6.95215 17.4705 6.95215 17.3736C6.98353 17.3308 6.94644 17.2737 6.97497 17.2281Z" fill="white"/>
<path d="M6.97489 17.2285C6.98345 17.2799 6.99201 17.3312 6.94922 17.374C6.94922 17.3255 6.94922 17.2799 6.94922 17.2314C6.95778 17.2371 6.96633 17.2342 6.97489 17.2285Z" fill="white"/>
<path d="M13.6156 11.0316C13.6128 11.6963 13.0679 12.2382 12.4033 12.2382C11.7386 12.2382 11.1938 11.6991 11.1909 11.0316C11.1881 10.3641 11.7415 9.81356 12.4118 9.81642C13.0736 9.81927 13.6185 10.3698 13.6156 11.0316Z" fill="white"/>
<path d="M19.9082 8C16.9273 8 13.9435 8 10.9626 8C10.027 8 9.3709 8.65038 9.3709 9.58602C9.36804 11.7597 9.3709 13.9305 9.3709 16.1041C9.3709 16.2353 9.37945 16.3694 9.40798 16.4978C9.57628 17.228 10.1696 17.6901 10.9427 17.693C12.4374 17.6958 13.935 17.693 15.4297 17.693C16.9216 17.693 18.4107 17.693 19.9025 17.693C20.8439 17.693 21.4914 17.0483 21.4914 16.1098C21.4914 13.9333 21.4914 11.754 21.4914 9.57746C21.4914 8.65038 20.8382 8 19.9082 8ZM20.2791 13.8135C19.6344 13.0633 19.0182 12.3444 18.4049 11.6256C18.2366 11.4288 18.0341 11.289 17.7802 11.2377C17.3495 11.1521 16.9986 11.2919 16.7219 11.6227C16.2199 12.2218 15.7207 12.8208 15.2215 13.4199C15.0075 13.6766 14.7879 13.9333 14.5797 14.1958C14.5084 14.287 14.4713 14.2728 14.4028 14.1986C14.2145 13.9989 14.0149 13.8078 13.8209 13.6167C13.3217 13.1232 12.6998 13.1232 12.2035 13.6167C11.7071 14.1102 11.2108 14.6065 10.7173 15.1029C10.6831 15.1371 10.6545 15.1827 10.6203 15.2284C10.5747 15.1656 10.5889 15.1228 10.5889 15.0829C10.5889 13.2573 10.5889 11.4288 10.5889 9.60314C10.5889 9.30647 10.6831 9.21234 10.9797 9.21234H19.8968C20.1849 9.21234 20.2848 9.30647 20.2848 9.59173C20.2848 10.9495 20.2848 12.3074 20.2848 13.668V13.8135H20.2791Z" fill="white"/>
<path d="M13.6156 11.0316C13.6128 11.6963 13.0679 12.2382 12.4033 12.2382C11.7386 12.2382 11.1938 11.6991 11.1909 11.0316C11.1881 10.3641 11.7415 9.81356 12.4118 9.81642C13.0736 9.81927 13.6185 10.3698 13.6156 11.0316Z" fill="white"/>
<path d="M13.6156 11.0316C13.6128 11.6963 13.0679 12.2382 12.4033 12.2382C11.7386 12.2382 11.1938 11.6991 11.1909 11.0316C11.1881 10.3641 11.7415 9.81356 12.4118 9.81642C13.0736 9.81927 13.6185 10.3698 13.6156 11.0316Z" fill="white"/>
</g>
<defs>
<clipPath id="clip0_1_16046">
<rect width="14.5452" height="13.33" fill="white" transform="translate(6.94922 8)"/>
</clipPath>
</defs>
</svg>
