<svg width="33" height="32" viewBox="0 0 33 32" fill="none" xmlns="http://www.w3.org/2000/svg">
<g clip-path="url(#clip0_1_26187)">
<path d="M19.277 6.57101C20.1292 7.52653 20.7927 8.59542 21.1475 9.83384C21.0861 9.84503 21.0205 9.87361 20.9581 9.87355C20.493 9.87 20.0372 9.84293 19.573 9.85063C19.1323 9.86757 18.6944 9.91828 18.2547 9.94647C17.7243 8.84293 16.936 7.97241 15.8949 7.32877C12.742 5.38351 8.53796 6.67452 7.00132 10.0679C5.62208 13.1125 6.82251 16.6284 9.78759 18.1652C10.1668 18.3579 10.5997 18.4494 11.0079 18.5829C11.5135 18.6622 12.0116 18.7875 12.5185 18.8157C12.9223 18.8304 13.3328 18.7255 13.7369 18.6778C13.8391 18.6799 13.9494 18.7097 14.0436 18.6842C15.698 18.2746 16.9975 17.3582 17.9065 15.9154C18.5204 14.9358 18.8599 13.8618 18.839 12.6841C19.1808 12.6364 19.5238 12.5375 19.8539 12.5532C20.4467 12.5906 21.04 12.7017 21.6365 12.7842C21.6278 12.8814 21.6078 12.9796 21.5991 13.0768C21.4323 15.5814 20.4266 17.685 18.5451 19.357C17.4014 20.3729 16.0859 21.0356 14.5965 21.385C14.5187 21.4033 14.4466 21.4892 14.3717 21.5413C14.0843 21.5615 13.7917 21.5878 13.4973 21.5916C12.8062 21.597 12.1193 21.585 11.4333 21.5843C11.3455 21.5525 11.2507 21.5043 11.1588 21.4899C9.23257 21.1697 7.58856 20.3024 6.21326 18.9289C3.54813 16.2536 2.90106 11.979 4.62765 8.61966C6.98372 4.06379 12.4272 2.34943 16.9505 4.74427C17.1227 4.83653 17.2908 4.94619 17.464 5.04971C18.0683 5.55681 18.6727 6.06391 19.277 6.57101Z" fill="#FED82F"/>
<path d="M11.4353 21.5977C12.1212 21.5984 12.8082 21.6104 13.4993 21.6049C13.7937 21.6011 14.0802 21.5697 14.3737 21.5547C14.9278 22.605 15.6917 23.4551 16.7033 24.0844C19.6971 25.9589 23.8339 24.81 25.452 21.6418C27.2697 18.0871 25.4698 13.9219 21.6315 12.7812C21.0349 12.6987 20.4467 12.5815 19.8489 12.5501C19.5126 12.5293 19.1696 12.6282 18.834 12.6811C16.9938 13.0394 15.5936 14.0386 14.6071 15.6358C14.0343 16.5663 13.7871 17.5923 13.7319 18.6748C13.3226 18.7286 12.9121 18.8335 12.5135 18.8127C12.0066 18.7845 11.5033 18.6653 11.0028 18.5799C11.0051 18.54 10.9961 18.5011 10.9984 18.4612C11.1938 15.2281 12.6782 12.7525 15.435 11.0415C16.3071 10.4981 17.2729 10.1901 18.2609 9.94245C18.7058 9.90812 19.1436 9.85742 19.5792 9.84661C20.0373 9.83378 20.5043 9.85984 20.9643 9.86953C21.0266 9.86959 21.0922 9.84101 21.1536 9.82982C21.7386 9.97572 22.338 10.092 22.9043 10.2849C28.22 12.1321 30.486 18.246 27.7849 23.0767C25.3936 27.3522 20.2585 28.9594 15.9138 26.7981C13.718 25.7081 12.214 23.9549 11.4353 21.5977Z" fill="#FBBE01"/>
<path d="M18.2576 9.94958C17.2696 10.1972 16.3038 10.5052 15.4317 11.0486C12.6749 12.7596 11.1957 15.2291 10.9951 18.4683C10.9928 18.5082 11.0018 18.5471 10.9995 18.587C10.5914 18.4536 10.1584 18.362 9.77922 18.1693C6.82024 16.6376 5.61982 13.1217 6.99296 10.072C8.52445 6.68477 12.7285 5.39376 15.8865 7.33289C16.9389 7.97552 17.722 8.85217 18.2576 9.94958Z" fill="#FEFEFD"/>
<path d="M21.6291 12.7776C25.4726 13.9121 27.2663 18.0722 25.4496 21.6382C23.8315 24.8064 19.6947 25.9552 16.7009 24.0807C15.6945 23.4453 14.9254 22.6014 14.3713 21.5511C14.4462 21.4989 14.5121 21.408 14.596 21.3947C16.0804 21.0515 17.401 20.3826 18.5447 19.3668C20.4261 17.6948 21.4258 15.586 21.5987 13.0865C21.6003 12.973 21.6152 12.8809 21.6291 12.7776Z" fill="#FEFEFD"/>
<path d="M13.7293 18.671C13.7795 17.5947 14.0318 16.5625 14.6045 15.632C15.5798 14.0358 16.98 13.0366 18.8315 12.6773C18.8574 13.8489 18.518 14.9229 17.8989 15.9086C16.9961 17.3565 15.6965 18.273 14.036 18.6775C13.9418 18.703 13.8377 18.6783 13.7293 18.671Z" fill="#FEFEFC"/>
</g>
<defs>
<clipPath id="clip0_1_26187">
<rect width="27.4286" height="18" fill="white" transform="translate(11.5703) rotate(40)"/>
</clipPath>
</defs>
</svg>
