<svg width="14" height="14" viewBox="0 0 14 14" fill="none" xmlns="http://www.w3.org/2000/svg">
<path d="M5.3431 7.15368C5.21464 6.66319 5.20685 6.17658 5.3976 5.70166C5.73628 4.8647 6.35134 4.3742 7.24669 4.23795C7.39852 4.21459 7.54644 4.21849 7.69437 4.21459C7.97076 4.19124 8.22769 4.23795 8.45347 4.40923C8.78047 4.56106 9.06465 4.76738 9.29043 5.04766C9.3644 5.14109 9.38775 5.07491 9.42279 5.0282C9.73811 4.65448 10.1352 4.40145 10.6101 4.28856C11.3108 4.12117 11.9531 4.24963 12.5332 4.67784C12.9731 5.35909 12.9925 6.07926 12.72 6.8189C12.4709 7.49625 12.0738 8.08796 11.6417 8.65632C11.2368 9.18964 10.7853 9.68013 10.322 10.1628C9.97946 10.5171 9.62132 10.8558 9.2554 11.1906C9.21647 11.2256 9.16975 11.319 9.09968 11.2217C9.10747 10.9881 9.17754 10.7662 9.17754 10.5327C9.16975 9.96431 8.96733 9.47771 8.59751 9.05339C8.54301 8.99499 8.48851 8.93271 8.42233 8.88599C8.0019 8.54343 7.51919 8.36046 6.97809 8.36046C6.70948 8.36046 6.44866 8.41496 6.19952 8.51618C6.14113 8.53953 6.08663 8.57457 6.02045 8.54732C5.90367 8.35268 5.78688 8.15803 5.6701 7.96339C5.5066 7.71814 5.36646 7.45732 5.3431 7.15368Z" fill="#FFDE59"/>
<path d="M6.00056 8.5508C6.63509 8.26662 7.26962 8.24326 7.90805 8.53133C8.10269 8.61697 8.28176 8.73376 8.43747 8.87779C8.48419 8.94008 8.54258 8.99458 8.58929 9.05686C8.88126 9.4734 8.98247 9.94443 8.93576 10.4388C8.86569 11.2018 8.48808 11.7857 7.83408 12.1945C7.11391 12.6383 6.0317 12.6149 5.36214 12.0543C4.50571 11.2135 4.58357 9.68361 5.51785 8.87779C5.66967 8.74933 5.83317 8.64812 6.00056 8.5508Z" fill="#58595B"/>
<path d="M12.8201 4.93952C13.1705 5.28598 13.3573 5.71419 13.4274 6.19301C13.5364 6.97547 13.2133 7.64114 12.8357 8.28346C12.2518 9.27224 11.4849 10.117 10.683 10.9306C10.3638 11.2576 10.029 11.5651 9.6903 11.8727C9.44894 12.0907 9.23873 12.0945 8.99737 11.8804C8.95066 11.8376 8.90395 11.7987 8.85723 11.7559C8.84166 11.7014 8.85723 11.6702 8.91562 11.6624C9.08302 11.7286 9.23094 11.6858 9.35551 11.5612C9.51512 11.4055 9.6864 11.2615 9.84601 11.1097C10.2003 10.7788 10.5389 10.4323 10.8698 10.0781C11.6017 9.28781 12.2946 8.46253 12.7695 7.48154C12.9758 7.05722 13.1199 6.61344 13.1043 6.12683C13.0926 5.76869 12.9953 5.44169 12.8357 5.12637C12.8085 5.07577 12.7656 5.02905 12.7734 4.96677C12.7812 4.94341 12.7929 4.92784 12.8201 4.93952Z" fill="#FFDE59"/>
<path d="M12.8201 4.93952C13.1705 5.28598 13.3573 5.71419 13.4274 6.19301C13.5364 6.97547 13.2133 7.64114 12.8357 8.28346C12.2518 9.27224 11.4849 10.117 10.683 10.9306C10.3638 11.2576 10.029 11.5651 9.6903 11.8727C9.44894 12.0907 9.23873 12.0945 8.99737 11.8804C8.95066 11.8376 8.90395 11.7987 8.85723 11.7559C8.84166 11.7014 8.85723 11.6702 8.91562 11.6624C9.08302 11.7286 9.23094 11.6858 9.35551 11.5612C9.51512 11.4055 9.6864 11.2615 9.84601 11.1097C10.2003 10.7788 10.5389 10.4323 10.8698 10.0781C11.6017 9.28781 12.2946 8.46253 12.7695 7.48154C12.9758 7.05722 13.1199 6.61344 13.1043 6.12683C13.0926 5.76869 12.9953 5.44169 12.8357 5.12637C12.8085 5.07577 12.7656 5.02905 12.7734 4.96677C12.7812 4.94341 12.7929 4.92784 12.8201 4.93952Z" fill="black" fill-opacity="0.1"/>
<path d="M12.8226 4.96968C12.9822 5.22661 13.099 5.49911 13.1457 5.80275C13.2158 6.25432 13.169 6.68642 13.0016 7.11074C12.6902 7.90877 12.2036 8.5978 11.6664 9.25569C11.316 9.68391 10.9384 10.0849 10.5608 10.4858C10.1949 10.8712 9.79395 11.2216 9.41245 11.5953C9.30735 11.7004 9.17888 11.7471 9.02706 11.7276C8.98424 11.7238 8.94921 11.716 8.94531 11.6654C8.97646 11.5019 9.02317 11.3461 9.14774 11.2216C9.17888 11.2605 9.19835 11.2255 9.21392 11.2099C9.37352 11.062 9.53313 10.914 9.68884 10.7622C9.96523 10.5053 10.2299 10.2367 10.4869 9.96419C11.1564 9.26348 11.7754 8.52773 12.2776 7.69856C12.5462 7.25478 12.7798 6.78764 12.8576 6.26989C12.9355 5.75214 12.8693 5.24607 12.589 4.78672C12.5695 4.75168 12.5228 4.72443 12.5579 4.67383C12.6279 4.70886 12.6863 4.75947 12.7291 4.82565C12.7681 4.87236 12.8148 4.91129 12.8226 4.96968Z" fill="#FFDE59"/>
<path d="M12.8226 4.96968C12.9822 5.22661 13.099 5.49911 13.1457 5.80275C13.2158 6.25432 13.169 6.68642 13.0016 7.11074C12.6902 7.90877 12.2036 8.5978 11.6664 9.25569C11.316 9.68391 10.9384 10.0849 10.5608 10.4858C10.1949 10.8712 9.79395 11.2216 9.41245 11.5953C9.30735 11.7004 9.17888 11.7471 9.02706 11.7276C8.98424 11.7238 8.94921 11.716 8.94531 11.6654C8.97646 11.5019 9.02317 11.3461 9.14774 11.2216C9.17888 11.2605 9.19835 11.2255 9.21392 11.2099C9.37352 11.062 9.53313 10.914 9.68884 10.7622C9.96523 10.5053 10.2299 10.2367 10.4869 9.96419C11.1564 9.26348 11.7754 8.52773 12.2776 7.69856C12.5462 7.25478 12.7798 6.78764 12.8576 6.26989C12.9355 5.75214 12.8693 5.24607 12.589 4.78672C12.5695 4.75168 12.5228 4.72443 12.5579 4.67383C12.6279 4.70886 12.6863 4.75947 12.7291 4.82565C12.7681 4.87236 12.8148 4.91129 12.8226 4.96968Z" fill="black" fill-opacity="0.05"/>
<path d="M9.10039 11.2237C9.03421 11.3716 8.96803 11.5196 8.89796 11.6675C8.8785 11.6947 8.86293 11.7259 8.84346 11.7531C8.50478 12.2319 8.06489 12.5745 7.48486 12.6991C6.66347 12.8743 5.94719 12.6679 5.35938 12.049C5.50341 12.1229 5.64744 12.2047 5.79537 12.2709C6.77637 12.7069 7.93254 12.3838 8.52036 11.4806C9.01864 10.7137 9.0381 9.91182 8.58264 9.10989C8.57096 9.09043 8.55928 9.06707 8.54761 9.04372C8.53982 9.01257 8.5515 9.00479 8.57875 9.01257C8.95246 9.39018 9.14321 9.84953 9.18603 10.3751C9.21717 10.667 9.17435 10.9473 9.10039 11.2237Z" fill="#414042"/>
<path d="M2.91683 13.0304C2.90515 13.042 2.89736 13.0498 2.88569 13.0615C2.77669 12.9759 2.67937 12.8785 2.58594 12.7734C2.74165 12.8085 2.79615 12.9603 2.91683 13.0304Z" fill="white"/>
<path d="M2.91683 13.0304C2.90515 13.042 2.89736 13.0498 2.88569 13.0615C2.77669 12.9759 2.67937 12.8785 2.58594 12.7734C2.74165 12.8085 2.79615 12.9603 2.91683 13.0304Z" fill="black" fill-opacity="0.2"/>
<path d="M12.8122 4.97999C12.7733 4.93716 12.7343 4.89824 12.7266 4.83984C12.785 4.85931 12.8161 4.90602 12.8472 4.94884C12.8356 4.95663 12.8239 4.96831 12.8122 4.97999Z" fill="#F18118"/>
<path d="M8.60887 9.01903C8.59719 9.03071 8.58551 9.0385 8.57772 9.05018C8.53879 8.99179 8.47262 8.95286 8.46094 8.875C8.51933 8.91393 8.56994 8.96064 8.60887 9.01903Z" fill="#504C47"/>
<path d="M8.41057 9.91063C8.40668 10.0274 8.36386 10.1247 8.286 10.2026C7.87726 10.6113 7.4724 11.0201 7.06365 11.4249C6.88069 11.604 6.66658 11.6001 6.48362 11.421C6.23837 11.1797 5.99312 10.9383 5.75177 10.6931C5.58048 10.5179 5.5727 10.296 5.72841 10.1364C5.88802 9.96902 6.1138 9.97291 6.29677 10.1481C6.43301 10.2804 6.56926 10.4128 6.69773 10.5491C6.75612 10.6113 6.78726 10.6074 6.84565 10.5491C7.13762 10.2532 7.43347 9.95734 7.72933 9.66538C7.84611 9.5486 7.98625 9.50967 8.14197 9.55638C8.28211 9.5992 8.36386 9.70431 8.3989 9.84834C8.40668 9.86781 8.41057 9.89116 8.41057 9.91063Z" fill="#F0F1F1"/>
<path d="M3.52499 7.85996C2.82817 7.19039 2.18196 6.47411 1.60971 5.69165C1.23211 5.17391 0.897324 4.62891 0.691004 4.01773C0.231649 2.67081 0.971288 1.29664 2.33767 1.00079C3.20967 0.813932 3.95709 1.07475 4.55659 1.73653C4.62666 1.81439 4.65391 1.83775 4.73566 1.74432C5.51423 0.848968 6.77161 0.685469 7.76039 1.33946C7.78764 1.35893 7.82268 1.36671 7.81489 1.41343C8.00564 1.56914 8.05235 1.79882 8.11853 2.01293C8.2976 2.59296 8.1925 3.15353 7.96671 3.70242C7.89275 3.88149 7.82268 4.06445 7.70978 4.22016C7.55796 4.28245 7.39447 4.2552 7.23875 4.27466C5.93465 4.44595 5.05487 5.69944 5.34294 6.98018C5.35462 7.03079 5.37408 7.0814 5.36241 7.1359C5.34683 7.1865 5.3118 7.21764 5.27676 7.24879C4.98091 7.51739 4.69673 7.80157 4.39698 8.06628C4.2218 8.222 4.04273 8.23757 3.85199 8.13635C3.73131 8.06239 3.65345 7.93393 3.52499 7.85996Z" fill="#E53950"/>
<path d="M5.34914 7.1582C5.43478 7.43849 5.56324 7.7032 5.67614 7.97181C5.43478 8.19759 5.19732 8.42337 4.95207 8.64137C4.76911 8.80487 4.54721 8.80487 4.36425 8.64137C4.18129 8.48177 4.01 8.31437 3.83093 8.15088C3.82315 8.12363 3.83093 8.11195 3.86208 8.11973C4.08007 8.23263 4.25914 8.16255 4.42654 8.00684C4.73407 7.72656 5.0416 7.44238 5.34914 7.1582Z" fill="#D00028"/>
</svg>
