<svg width="34" height="32" viewBox="0 0 34 32" fill="none" xmlns="http://www.w3.org/2000/svg">
<path d="M10.5767 0.000260484C11.6377 0.0325289 12.6651 0.217789 13.6604 0.55631H13.7598C13.8272 0.588309 13.8777 0.623677 13.9114 0.655676C14.2836 0.775253 14.6356 0.909988 14.9724 1.09525L15.6124 1.38156C15.865 1.51629 16.1682 1.76724 16.3366 1.86997C16.505 1.96934 16.6903 2.07207 16.8419 2.18828C18.713 0.758412 20.9849 -0.0163124 23.326 0.000260484C24.3887 0.000260484 25.4497 0.150422 26.4585 0.488942C32.6749 2.50996 34.9148 9.3309 33.0437 15.2929C31.9827 18.3396 30.2479 21.1202 27.976 23.3921C24.7238 26.5416 21.155 29.3373 17.3134 31.7457L16.8924 32L16.4545 31.7288C12.5994 29.3373 9.0104 26.5416 5.72793 23.3753C3.47113 21.1033 1.73474 18.3396 0.656859 15.2929C-1.24627 9.3309 0.993696 2.50996 7.27738 0.453575C7.76579 0.285156 8.26937 0.167263 8.77462 0.10158H8.97672C9.44998 0.0325289 9.91986 0.000260484 10.3914 0.000260484H10.5767ZM25.5828 5.32255C24.8922 5.08508 24.1344 5.45728 23.8817 6.16464C23.646 6.87199 24.0165 7.64672 24.7238 7.89766C25.8034 8.30187 26.5259 9.36458 26.5259 10.5418V10.594C26.4939 10.9797 26.6101 11.3519 26.8459 11.6382C27.0817 11.9245 27.4354 12.0913 27.8059 12.1266C28.4964 12.1081 29.0859 11.554 29.1364 10.845V10.6446C29.1869 8.28502 27.757 6.1478 25.5828 5.32255Z" fill="#FFDE59"/>
</svg>
