<svg width="45" height="44" viewBox="0 0 45 44" fill="none" xmlns="http://www.w3.org/2000/svg">
<rect x="0.949219" width="43.9978" height="43.9978" rx="21.9989" fill="#FF783B"/>
<g clip-path="url(#clip0_1_15699)">
<path d="M17.3676 13.0404C17.4967 13.0939 17.6155 13.1692 17.7188 13.2629L17.7609 13.305L19.8681 15.4102L19.8687 15.4108C20.0711 15.6117 20.1964 15.8775 20.2224 16.1616C20.2485 16.4456 20.1738 16.7298 20.0114 16.9643C19.8489 17.1988 19.6092 17.3686 19.3341 17.444C19.059 17.5194 18.7661 17.4956 18.5068 17.3767L18.1172 17.198V17.6266V26.5895V27.0168L18.5061 26.8398C18.7651 26.7219 19.0574 26.6987 19.3317 26.7742C19.6061 26.8498 19.8453 27.0193 20.0074 27.2532C20.1696 27.4871 20.2445 27.7705 20.219 28.0539C20.1935 28.3374 20.0693 28.6029 19.868 28.8041L19.8679 28.8042L17.7618 30.9113L17.7618 30.9113C17.649 31.0242 17.515 31.1137 17.3676 31.1748C17.2202 31.2359 17.0622 31.2673 16.9027 31.2673C16.7431 31.2673 16.5851 31.2359 16.4377 31.1748C16.2903 31.1137 16.1564 31.0242 16.0436 30.9113L16.0436 30.9113L13.9374 28.8042L13.937 28.8037C13.7352 28.6027 13.6104 28.337 13.5847 28.0532C13.5589 27.7695 13.6337 27.4857 13.796 27.2515C13.9583 27.0173 14.1977 26.8477 14.4725 26.7722C14.7472 26.6967 15.0397 26.7202 15.2989 26.8386L15.6882 27.0165V26.5885V17.6257V17.1983L15.2992 17.3754C15.0402 17.4933 14.748 17.5165 14.4736 17.441C14.1992 17.3654 13.9601 17.1959 13.7979 16.962C13.6358 16.7281 13.5609 16.4447 13.5864 16.1613C13.6119 15.8778 13.7361 15.6123 13.9374 15.4111L13.9374 15.411L16.0436 13.3039L16.0436 13.3038C16.1564 13.191 16.2903 13.1014 16.4377 13.0404C16.5851 12.9793 16.7431 12.9478 16.9027 12.9478C17.0622 12.9478 17.2202 12.9793 17.3676 13.0404ZM30.8046 27.8436C31.1165 27.8438 31.4164 27.9639 31.6422 28.1792C31.8679 28.3944 32.0022 28.6882 32.0172 28.9998C32.0321 29.3113 31.9267 29.6167 31.7227 29.8526C31.52 30.0869 31.2355 30.2349 30.9275 30.2664L30.7981 30.2727H22.8609C22.549 30.2725 22.2491 30.1524 22.0233 29.9371C21.7976 29.7219 21.6633 29.428 21.6483 29.1165C21.6333 28.805 21.7388 28.4996 21.9428 28.2637C22.1455 28.0293 22.43 27.8814 22.738 27.8499L22.8674 27.8436H30.8046ZM30.8046 20.8926C31.1165 20.8927 31.4164 21.0129 31.6422 21.2281C31.8679 21.4433 32.0022 21.7372 32.0172 22.0487C32.0321 22.3603 31.9267 22.6656 31.7227 22.9016C31.52 23.1359 31.2355 23.2839 30.9275 23.3153L30.7981 23.3216H22.8609C22.549 23.3215 22.2491 23.2013 22.0233 22.9861C21.7976 22.7708 21.6633 22.477 21.6483 22.1655C21.6333 21.8539 21.7388 21.5485 21.9428 21.3126C22.1455 21.0783 22.43 20.9303 22.738 20.8989L22.8674 20.8926H30.8046ZM30.8048 13.9415C31.1269 13.9415 31.4358 14.0695 31.6636 14.2972C31.8913 14.525 32.0193 14.8339 32.0193 15.156C32.0193 15.4782 31.8913 15.7871 31.6636 16.0148C31.4358 16.2426 31.1269 16.3706 30.8048 16.3706H22.8607C22.5386 16.3706 22.2297 16.2426 22.0019 16.0148C21.7742 15.7871 21.6462 15.4782 21.6462 15.156C21.6462 14.8339 21.7742 14.525 22.0019 14.2972C22.2297 14.0695 22.5386 13.9415 22.8607 13.9415H30.8048Z" fill="white" stroke="#F6F6F6" stroke-width="0.549973"/>
</g>
<defs>
<clipPath id="clip0_1_15699">
<rect width="23.8322" height="23.8322" fill="white" transform="translate(10.9492 10.1934)"/>
</clipPath>
</defs>
</svg>
