<svg width="28" height="28" viewBox="0 0 28 28" fill="none" xmlns="http://www.w3.org/2000/svg">
<rect width="28" height="28" rx="8" fill="#FFDE59"/>
<g clip-path="url(#clip0_1_16305)">
<path d="M6.02282 17.2282C6.08843 16.883 6.20824 16.555 6.30808 16.2212C6.68747 14.9462 7.06971 13.6711 7.4491 12.396C7.45766 12.3646 7.47192 12.3361 7.50615 12.3047C7.50615 12.3503 7.50615 12.396 7.50615 12.4416C7.50615 13.7196 7.5033 14.9975 7.50615 16.2754C7.509 17.3937 8.24211 18.315 9.31182 18.5546C9.50294 18.5974 9.69691 18.6031 9.89089 18.6031C12.7263 18.6031 15.5618 18.6031 18.3972 18.6031C18.4543 18.6031 18.5085 18.6031 18.5798 18.6031C18.4514 19.0139 18.3259 19.4133 18.2032 19.8126C18.149 19.9895 18.092 20.1635 18.0378 20.3403C17.8039 21.0877 17.0993 21.4785 16.3434 21.276C14.1184 20.6826 11.8934 20.0836 9.67124 19.4874C8.80977 19.2564 7.9483 19.0253 7.08682 18.7971C6.50776 18.6431 6.14833 18.2808 6.02282 17.6903C6.01997 17.6789 6.00856 17.6675 6 17.6589C6 17.5648 6 17.4707 6 17.3737C6.03138 17.3309 5.99429 17.2738 6.02282 17.2282Z" fill="white"/>
<path d="M6.02567 17.2285C6.03423 17.2799 6.04279 17.3312 6 17.374C6 17.3255 6 17.2799 6 17.2314C6.00856 17.2371 6.01712 17.2342 6.02567 17.2285Z" fill="white"/>
<path d="M12.6669 11.0316C12.664 11.6963 12.1192 12.2382 11.4545 12.2382C10.7899 12.2382 10.2451 11.6991 10.2422 11.0316C10.2393 10.3641 10.7927 9.81356 11.4631 9.81642C12.1249 9.81927 12.6697 10.3698 12.6669 11.0316Z" fill="white"/>
<path d="M18.9605 8C15.9796 8 12.9958 8 10.0149 8C9.07923 8 8.42314 8.65038 8.42314 9.58602C8.42029 11.7597 8.42314 13.9305 8.42314 16.1041C8.42314 16.2353 8.4317 16.3694 8.46023 16.4978C8.62853 17.228 9.22186 17.6901 9.9949 17.693C11.4896 17.6958 12.9872 17.693 14.482 17.693C15.9739 17.693 17.4629 17.693 18.9548 17.693C19.8961 17.693 20.5437 17.0483 20.5437 16.1098C20.5437 13.9333 20.5437 11.754 20.5437 9.57746C20.5437 8.65038 19.8904 8 18.9605 8ZM19.3313 13.8135C18.6866 13.0633 18.0705 12.3444 17.4572 11.6256C17.2889 11.4288 17.0864 11.289 16.8325 11.2377C16.4017 11.1521 16.0509 11.2919 15.7742 11.6227C15.2721 12.2218 14.7729 12.8208 14.2737 13.4199C14.0598 13.6766 13.8401 13.9333 13.6319 14.1958C13.5606 14.287 13.5235 14.2728 13.4551 14.1986C13.2668 13.9989 13.0671 13.8078 12.8731 13.6167C12.3739 13.1232 11.7521 13.1232 11.2557 13.6167C10.7594 14.1102 10.263 14.6065 9.76955 15.1029C9.73532 15.1371 9.70679 15.1827 9.67256 15.2284C9.62692 15.1656 9.64118 15.1228 9.64118 15.0829C9.64118 13.2573 9.64118 11.4288 9.64118 9.60314C9.64118 9.30647 9.73532 9.21234 10.032 9.21234H18.9491C19.2372 9.21234 19.337 9.30647 19.337 9.59173C19.337 10.9495 19.337 12.3074 19.337 13.668V13.8135H19.3313Z" fill="white"/>
<path d="M12.6669 11.0316C12.664 11.6963 12.1192 12.2382 11.4545 12.2382C10.7899 12.2382 10.2451 11.6991 10.2422 11.0316C10.2393 10.3641 10.7927 9.81356 11.4631 9.81642C12.1249 9.81927 12.6697 10.3698 12.6669 11.0316Z" fill="white"/>
<path d="M12.6669 11.0316C12.664 11.6963 12.1192 12.2382 11.4545 12.2382C10.7899 12.2382 10.2451 11.6991 10.2422 11.0316C10.2393 10.3641 10.7927 9.81356 11.4631 9.81642C12.1249 9.81927 12.6697 10.3698 12.6669 11.0316Z" fill="white"/>
</g>
<defs>
<clipPath id="clip0_1_16305">
<rect width="14.5452" height="13.33" fill="white" transform="translate(6 8)"/>
</clipPath>
</defs>
</svg>
