<svg width="30" height="30" viewBox="0 0 30 30" fill="none" xmlns="http://www.w3.org/2000/svg">
<path d="M21.5007 0C26.5847 0 30 3.56717 30 8.87508V21.1249C30 26.4328 26.5847 30 21.4992 30H8.49927C3.41534 30 0 26.4328 0 21.1249V8.87508C0 3.56717 3.41534 0 8.49927 0H21.5007ZM23.1549 15.8251C21.547 14.822 20.3056 16.2306 19.9707 16.6811C19.6479 17.1161 19.3704 17.596 19.0778 18.0758C18.3628 19.2601 17.5438 20.6254 16.1259 21.4195C14.0655 22.5604 12.5013 21.5093 11.3761 20.7446C10.9537 20.4598 10.5434 20.1904 10.1347 20.0108C9.12709 19.5758 8.22056 20.0712 6.8751 21.7802C6.16919 22.6734 5.46931 23.5588 4.76038 24.4412C4.33652 24.969 4.43759 25.7833 5.00926 26.1362C5.92182 26.6981 7.03499 27 8.29297 27H20.9346C21.648 27 22.363 26.9025 23.0448 26.6796C24.5803 26.178 25.7991 25.0294 26.4356 23.5124C26.9726 22.2368 27.2335 20.6889 26.7312 19.4009C26.5638 18.9737 26.3134 18.5758 25.962 18.226C25.0403 17.3111 24.1791 16.4567 23.1549 15.8251ZM9.74829 6C7.68032 6 6 7.68259 6 9.75C6 11.8174 7.68032 13.5 9.74829 13.5C11.8147 13.5 13.4966 11.8174 13.4966 9.75C13.4966 7.68259 11.8147 6 9.74829 6Z" fill="#1C1C1C"/>
</svg>
