<svg width="24" height="18" viewBox="0 0 24 18" fill="none" xmlns="http://www.w3.org/2000/svg">
<path d="M11.9449 11.7512C15.6621 11.7512 18.836 12.3405 18.836 14.6986C18.836 17.0558 15.6824 17.6666 11.9449 17.6666C8.22783 17.6666 5.05393 17.0773 5.05393 14.7201C5.05393 12.3619 8.20746 11.7512 11.9449 11.7512ZM17.8882 10.3312C19.3092 10.3049 20.837 10.5 21.4016 10.6385C22.5976 10.8737 23.3843 11.3537 23.7102 12.0513C23.9857 12.624 23.9857 13.2884 23.7102 13.8602C23.2116 14.9422 21.6043 15.2895 20.9796 15.3793C20.8506 15.3988 20.7468 15.2866 20.7604 15.1568C21.0795 12.1586 18.541 10.7371 17.8843 10.4102C17.8561 10.3956 17.8503 10.3732 17.8532 10.3595C17.8552 10.3497 17.8668 10.3341 17.8882 10.3312ZM5.84529 10.3292L6.1129 10.3316C6.13424 10.3345 6.14491 10.3501 6.14685 10.3589C6.14976 10.3735 6.14394 10.395 6.11678 10.4106C5.4591 10.7375 2.92056 12.159 3.2397 15.1562C3.25328 15.287 3.15046 15.3982 3.02144 15.3796C2.39675 15.2899 0.789428 14.9425 0.290838 13.8605C0.0143822 13.2878 0.0143822 12.6244 0.290838 12.0517C0.616764 11.3541 1.40248 10.8741 2.59851 10.6379C3.16404 10.5004 4.69085 10.3053 6.1129 10.3316L5.84529 10.3292ZM11.9449 0.333252C14.4757 0.333252 16.505 2.37238 16.505 4.91884C16.505 7.46433 14.4757 9.50541 11.9449 9.50541C9.41416 9.50541 7.38488 7.46433 7.38488 4.91884C7.38488 2.37238 9.41416 0.333252 11.9449 0.333252ZM18.1355 1.09797C20.58 1.09797 22.4996 3.41126 21.8458 5.98797C21.4045 7.72269 19.8069 8.87494 18.0269 8.82811C17.8484 8.82323 17.6728 8.80664 17.5031 8.77737C17.3799 8.75591 17.3178 8.61639 17.3876 8.51297C18.0666 7.50804 18.4537 6.2992 18.4537 5.00158C18.4537 3.64736 18.0308 2.38486 17.2964 1.34969C17.2732 1.3175 17.2557 1.26774 17.279 1.23066C17.2984 1.20042 17.3343 1.18481 17.3682 1.177C17.6156 1.12627 17.8697 1.09797 18.1355 1.09797ZM5.86409 1.09787C6.12987 1.09787 6.38402 1.12617 6.63234 1.1769C6.66532 1.18471 6.70218 1.20129 6.72158 1.23056C6.74389 1.26764 6.7274 1.3174 6.70412 1.34959C5.96982 2.38477 5.54689 3.64727 5.54689 5.00148C5.54689 6.2991 5.93393 7.50794 6.61294 8.51287C6.68278 8.61629 6.6207 8.75581 6.49751 8.77727C6.32679 8.80752 6.15218 8.82313 5.9737 8.82801C4.19371 8.87484 2.59609 7.72259 2.15473 5.98787C1.49997 3.41116 3.41964 1.09787 5.86409 1.09787Z" fill="#1C1C1C"/>
</svg>
