<svg width="22" height="22" viewBox="0 0 22 22" fill="none" xmlns="http://www.w3.org/2000/svg">
<path d="M16.0584 0.166992C19.7428 0.166992 21.8228 2.25674 21.8337 5.94116V16.0595C21.8337 19.7428 19.7428 21.8337 16.0584 21.8337H5.94116C2.25674 21.8337 0.166992 19.7428 0.166992 16.0595V5.94116C0.166992 2.25674 2.25674 0.166992 5.94116 0.166992H16.0584ZM11.542 4.64116C11.2376 4.45699 10.8692 4.45699 10.5778 4.64116C10.2842 4.82424 10.1228 5.16116 10.1542 5.49699V16.5362C10.2095 17.002 10.5984 17.3487 11.0534 17.3487C11.5203 17.3487 11.9092 17.002 11.9526 16.5362V5.49699C11.9959 5.16116 11.8345 4.82424 11.542 4.64116ZM6.48282 8.19449C6.19032 8.01032 5.82091 8.01032 5.52949 8.19449C5.23591 8.37866 5.07449 8.71341 5.10699 9.05033V16.5362C5.14924 17.002 5.53924 17.3487 6.00507 17.3487C6.47199 17.3487 6.86091 17.002 6.90424 16.5362V9.05033C6.93782 8.71341 6.77424 8.37866 6.48282 8.19449ZM16.5134 12.127C16.222 11.9428 15.8537 11.9428 15.5503 12.127C15.2567 12.3112 15.0953 12.6351 15.1387 12.9828V16.5362C15.182 17.002 15.5709 17.3487 16.0378 17.3487C16.4928 17.3487 16.8817 17.002 16.937 16.5362V12.9828C16.9684 12.6351 16.807 12.3112 16.5134 12.127Z" fill="#1C1C1C" fill-opacity="0.2"/>
</svg>
