<svg width="29" height="28" viewBox="0 0 29 28" fill="none" xmlns="http://www.w3.org/2000/svg">
<rect x="0.949219" width="28" height="28" rx="8" fill="#FFDE59"/>
<path d="M17.5111 11.1125L12.9751 11.681L12.8131 12.434L13.7056 12.596C14.2861 12.7355 14.4016 12.944 14.2756 13.5245L12.8131 20.39C12.4306 22.1645 13.0231 23 14.4136 23C15.4936 23 16.7446 22.502 17.3131 21.8165L17.4871 20.993C17.0926 21.341 16.5121 21.4805 16.1296 21.4805C15.5851 21.4805 15.3886 21.098 15.5266 20.4245L17.5111 11.1125ZM17.6476 6.98C17.6476 7.50513 17.439 8.00875 17.0677 8.38007C16.6964 8.75139 16.1928 8.96 15.6676 8.96C15.1425 8.96 14.6389 8.75139 14.2676 8.38007C13.8962 8.00875 13.6876 7.50513 13.6876 6.98C13.6876 6.45487 13.8962 5.95125 14.2676 5.57993C14.6389 5.20861 15.1425 5 15.6676 5C16.1928 5 16.6964 5.20861 17.0677 5.57993C17.439 5.95125 17.6476 6.45487 17.6476 6.98Z" fill="white"/>
</svg>
