<svg width="28" height="28" viewBox="0 0 28 28" fill="none" xmlns="http://www.w3.org/2000/svg">
<g clip-path="url(#clip0_1_26561)">
<path d="M0.015625 9.39167C0.015625 6.06964 0.015625 4.40862 0.67238 3.14432C1.22582 2.0789 2.09452 1.2102 3.15994 0.656755C4.42425 0 6.08526 0 9.40729 0H18.624C21.946 0 23.607 0 24.8713 0.656755C25.9367 1.2102 26.8054 2.0789 27.3589 3.14432C28.0156 4.40862 28.0156 6.06964 28.0156 9.39167V18.6083C28.0156 21.9304 28.0156 23.5914 27.3589 24.8557C26.8054 25.9211 25.9367 26.7898 24.8713 27.3432C23.607 28 21.946 28 18.624 28H9.40729C6.08526 28 4.42425 28 3.15994 27.3432C2.09452 26.7898 1.22582 25.9211 0.67238 24.8557C0.015625 23.5914 0.015625 21.9304 0.015625 18.6083V9.39167Z" fill="url(#paint0_radial_1_26561)"/>
<path d="M0.015625 9.39167C0.015625 6.06964 0.015625 4.40862 0.67238 3.14432C1.22582 2.0789 2.09452 1.2102 3.15994 0.656755C4.42425 0 6.08526 0 9.40729 0H18.624C21.946 0 23.607 0 24.8713 0.656755C25.9367 1.2102 26.8054 2.0789 27.3589 3.14432C28.0156 4.40862 28.0156 6.06964 28.0156 9.39167V18.6083C28.0156 21.9304 28.0156 23.5914 27.3589 24.8557C26.8054 25.9211 25.9367 26.7898 24.8713 27.3432C23.607 28 21.946 28 18.624 28H9.40729C6.08526 28 4.42425 28 3.15994 27.3432C2.09452 26.7898 1.22582 25.9211 0.67238 24.8557C0.015625 23.5914 0.015625 21.9304 0.015625 18.6083V9.39167Z" fill="url(#paint1_radial_1_26561)"/>
<path d="M14.0007 3.81836C11.2356 3.81836 10.8886 3.83045 9.80254 3.87987C8.71864 3.92951 7.97878 4.10112 7.3314 4.3529C6.66176 4.61297 6.09371 4.96084 5.52779 5.527C4.96145 6.09293 4.61358 6.661 4.35268 7.33045C4.10026 7.97806 3.92845 8.71815 3.87966 9.80166C3.83109 10.8877 3.81836 11.235 3.81836 14.0002C3.81836 16.7654 3.83066 17.1114 3.87987 18.1974C3.92972 19.2814 4.10132 20.0212 4.35289 20.6686C4.61315 21.3383 4.96102 21.9064 5.52716 22.4723C6.09287 23.0387 6.66091 23.3874 7.33013 23.6474C7.97793 23.8992 8.718 24.0708 9.80169 24.1205C10.8877 24.1699 11.2345 24.182 13.9994 24.182C16.7648 24.182 17.1107 24.1699 18.1968 24.1205C19.2807 24.0708 20.0214 23.8992 20.6692 23.6474C21.3386 23.3874 21.9058 23.0387 22.4715 22.4723C23.0379 21.9064 23.3857 21.3383 23.6466 20.6688C23.8969 20.0212 24.0687 19.2811 24.1197 18.1976C24.1684 17.1116 24.1812 16.7654 24.1812 14.0002C24.1812 11.235 24.1684 10.8879 24.1197 9.80187C24.0687 8.71793 23.8969 7.97806 23.6466 7.33066C23.3857 6.661 23.0379 6.09293 22.4715 5.527C21.9052 4.96063 21.3388 4.61275 20.6685 4.3529C20.0195 4.10112 19.2792 3.92951 18.1953 3.87987C17.1093 3.83045 16.7635 3.81836 13.9975 3.81836H14.0007ZM13.0874 5.65321C13.3584 5.65278 13.6609 5.65321 14.0007 5.65321C16.7192 5.65321 17.0414 5.66297 18.1149 5.71175C19.1076 5.75715 19.6464 5.92303 20.0053 6.06239C20.4804 6.24693 20.8191 6.46754 21.1753 6.8239C21.5316 7.18027 21.7522 7.51966 21.9372 7.99481C22.0766 8.3533 22.2427 8.89209 22.2878 9.88481C22.3366 10.9581 22.3472 11.2806 22.3472 13.9978C22.3472 16.7151 22.3366 17.0375 22.2878 18.1109C22.2424 19.1036 22.0766 19.6424 21.9372 20.0009C21.7527 20.476 21.5316 20.8144 21.1753 21.1705C20.8189 21.5269 20.4806 21.7475 20.0053 21.932C19.6468 22.072 19.1076 22.2375 18.1149 22.2829C17.0416 22.3317 16.7192 22.3423 14.0007 22.3423C11.282 22.3423 10.9598 22.3317 9.88654 22.2829C8.89384 22.2371 8.35507 22.0712 7.99596 21.9318C7.52082 21.7473 7.18144 21.5267 6.82509 21.1703C6.46873 20.8139 6.24813 20.4754 6.06317 20C5.92381 19.6415 5.75773 19.1028 5.71254 18.11C5.66376 17.0367 5.654 16.7143 5.654 13.9953C5.654 11.2763 5.66376 10.9556 5.71254 9.88227C5.75794 8.88954 5.92381 8.35075 6.06317 7.99184C6.24771 7.51669 6.46873 7.1773 6.82509 6.82093C7.18144 6.46457 7.52082 6.24397 7.99596 6.059C8.35486 5.919 8.89384 5.75354 9.88654 5.70794C10.8258 5.66551 11.1898 5.65278 13.0874 5.65066V5.65321ZM19.4355 7.34381C18.761 7.34381 18.2137 7.89045 18.2137 8.56521C18.2137 9.23975 18.761 9.78703 19.4355 9.78703C20.11 9.78703 20.6573 9.23975 20.6573 8.56521C20.6573 7.89066 20.11 7.34339 19.4355 7.34339V7.34381ZM14.0007 8.77139C11.1132 8.77139 8.77209 11.1126 8.77209 14.0002C8.77209 16.8878 11.1132 19.2279 14.0007 19.2279C16.8882 19.2279 19.2285 16.8878 19.2285 14.0002C19.2285 11.1126 16.888 8.77139 14.0005 8.77139H14.0007ZM14.0007 10.6062C15.875 10.6062 17.3946 12.1257 17.3946 14.0002C17.3946 15.8745 15.875 17.3941 14.0007 17.3941C12.1263 17.3941 10.6069 15.8745 10.6069 14.0002C10.6069 12.1257 12.1263 10.6062 14.0007 10.6062Z" fill="white"/>
</g>
<defs>
<radialGradient id="paint0_radial_1_26561" cx="0" cy="0" r="1" gradientUnits="userSpaceOnUse" gradientTransform="translate(7.45316 30.1566) rotate(-90) scale(27.7501 25.8097)">
<stop stop-color="#FFDD55"/>
<stop offset="0.1" stop-color="#FFDD55"/>
<stop offset="0.5" stop-color="#FF543E"/>
<stop offset="1" stop-color="#C837AB"/>
</radialGradient>
<radialGradient id="paint1_radial_1_26561" cx="0" cy="0" r="1" gradientUnits="userSpaceOnUse" gradientTransform="translate(-4.67452 2.01707) rotate(78.6806) scale(12.4044 51.1314)">
<stop stop-color="#3771C8"/>
<stop offset="0.128" stop-color="#3771C8"/>
<stop offset="1" stop-color="#6600FF" stop-opacity="0"/>
</radialGradient>
<clipPath id="clip0_1_26561">
<rect width="28" height="28" fill="white"/>
</clipPath>
</defs>
</svg>
