<svg width="45" height="44" viewBox="0 0 45 44" fill="none" xmlns="http://www.w3.org/2000/svg">
<rect x="0.949219" width="43.9978" height="43.9978" rx="21.9989" fill="#6404F8"/>
<g clip-path="url(#clip0_1_15679)">
<path d="M22.9442 30.6374C26.8086 30.6374 30.0755 27.5759 31.1452 24.0606C31.3853 23.2705 33.027 23.2705 33.027 21.5628C33.027 19.8552 31.3697 19.7571 31.1016 18.9266C29.9893 15.4833 26.7573 12.4883 22.9442 12.4883C19.1287 12.4883 15.8953 15.4856 14.7849 18.9321C14.5181 19.7617 12.8613 19.8258 12.8613 21.5628C12.8613 23.2998 14.5076 23.2998 14.7564 24.1028C15.839 27.596 19.0953 30.6374 22.9442 30.6374Z" fill="white"/>
<path d="M31.1028 18.9266C29.9905 15.4833 26.7585 12.4883 22.9453 12.4883" stroke="white" stroke-width="3.66169" stroke-linecap="round"/>
<path d="M20.7047 20.5528C20.7047 20.9314 20.6021 21.2641 20.4481 21.4951C20.2927 21.7279 20.1034 21.8361 19.9256 21.8361C19.7478 21.8361 19.559 21.7279 19.4031 21.4951C19.2491 21.2641 19.1465 20.9314 19.1465 20.5528C19.1465 20.1738 19.2491 19.8415 19.4031 19.6105C19.559 19.3777 19.7478 19.2695 19.9256 19.2695C20.1039 19.2695 20.2927 19.3777 20.4481 19.6105C20.6021 19.8415 20.7047 20.1742 20.7047 20.5528ZM26.7544 20.5528C26.7544 20.9314 26.6518 21.2641 26.4978 21.4951C26.3424 21.7279 26.1531 21.8361 25.9753 21.8361C25.7975 21.8361 25.6082 21.7279 25.4528 21.4951C25.2988 21.2641 25.1962 20.9314 25.1962 20.5528C25.1962 20.1738 25.2988 19.8415 25.4528 19.6105C25.6082 19.3777 25.7975 19.2695 25.9753 19.2695C26.1531 19.2695 26.3424 19.3777 26.4978 19.6105C26.6518 19.8415 26.7544 20.1742 26.7544 20.5528Z" fill="#6404F8" stroke="#6404F8" stroke-width="0.916622"/>
<path fill-rule="evenodd" clip-rule="evenodd" d="M20.4199 25.207C21.3045 25.8028 22.1468 26.1007 22.9457 26.1007C23.7441 26.1007 24.5356 25.8033 25.3197 25.2093" fill="#6404F8"/>
</g>
<defs>
<clipPath id="clip0_1_15679">
<rect width="21.9989" height="21.9989" fill="white" transform="translate(11.9492 10.6543)"/>
</clipPath>
</defs>
</svg>
