<svg width="45" height="44" viewBox="0 0 45 44" fill="none" xmlns="http://www.w3.org/2000/svg">
<rect x="0.949219" width="43.9978" height="43.9978" rx="21.9989" fill="#00AE9C"/>
<path d="M33.211 30.4935L29.0217 20.3462C28.9443 20.1588 28.8131 19.9986 28.6446 19.8859C28.4761 19.7732 28.2779 19.713 28.0752 19.713C27.8724 19.713 27.6743 19.7732 27.5058 19.8859C27.3373 19.9986 27.206 20.1588 27.1286 20.3462L22.9394 30.4935C22.8873 30.618 22.8603 30.7515 22.86 30.8864C22.8596 31.0213 22.8859 31.1549 22.9374 31.2796C22.9889 31.4043 23.0645 31.5176 23.1599 31.613C23.2552 31.7084 23.3685 31.784 23.4932 31.8355C23.6179 31.887 23.7516 31.9133 23.8865 31.913C24.0214 31.9127 24.1549 31.8857 24.2793 31.8336C24.4038 31.7815 24.5167 31.7054 24.6116 31.6095C24.7065 31.5137 24.7816 31.4 24.8325 31.275L25.6857 29.2088H30.4647L31.3179 31.275C31.3952 31.4625 31.5265 31.6228 31.695 31.7356C31.8636 31.8484 32.0618 31.9086 32.2647 31.9086C32.4329 31.9084 32.5986 31.8669 32.747 31.7875C32.8953 31.7082 33.0219 31.5935 33.1154 31.4536C33.2089 31.3137 33.2665 31.1529 33.2831 30.9854C33.2997 30.818 33.2747 30.649 33.2105 30.4935H33.211ZM26.5314 27.1607L28.0754 23.4207L29.6194 27.1607H26.5314ZM23.4132 26.2726C23.5723 26.0529 23.6377 25.779 23.595 25.511C23.5524 25.2431 23.4051 25.0031 23.1856 24.8436C23.1763 24.8366 22.4874 24.3255 21.4871 23.227C23.3327 20.7284 24.3782 17.8857 24.8045 16.548H26.3066C26.5782 16.548 26.8387 16.4401 27.0307 16.248C27.2228 16.056 27.3306 15.7955 27.3306 15.5239C27.3306 15.2524 27.2228 14.9919 27.0307 14.7998C26.8387 14.6078 26.5782 14.4999 26.3066 14.4999H20.9071V13.569C20.9071 13.2974 20.7992 13.0369 20.6072 12.8449C20.4152 12.6528 20.1547 12.5449 19.8831 12.5449C19.6115 12.5449 19.351 12.6528 19.159 12.8449C18.9669 13.0369 18.8591 13.2974 18.8591 13.569V14.4999H13.4596C13.188 14.4999 12.9275 14.6078 12.7355 14.7998C12.5434 14.9919 12.4355 15.2524 12.4355 15.5239C12.4355 15.7955 12.5434 16.056 12.7355 16.248C12.9275 16.4401 13.188 16.548 13.4596 16.548H22.641C22.1979 17.8024 21.3819 19.783 20.1372 21.5918C18.6752 19.6517 18.132 18.3964 18.1278 18.3861C18.0208 18.1388 17.8205 17.9436 17.5705 17.8429C17.3205 17.7422 17.0409 17.7442 16.7923 17.8483C16.5437 17.9524 16.3462 18.1504 16.2426 18.3992C16.139 18.648 16.1377 18.9276 16.2389 19.1774C16.2659 19.2417 16.9162 20.7707 18.6994 23.0841C18.7422 23.1395 18.7846 23.1935 18.8269 23.2475C17.0004 25.3119 15.2084 26.5924 14.4585 27.0057C14.22 27.1358 14.043 27.3552 13.9664 27.6158C13.8897 27.8764 13.9197 28.1567 14.0498 28.3952C14.1799 28.6336 14.3993 28.8106 14.6599 28.8873C14.9204 28.9639 15.2008 28.9339 15.4392 28.8039C15.5398 28.7489 17.7014 27.5522 20.1698 24.8199C21.2181 25.9407 21.9386 26.4695 21.9819 26.5002C22.0908 26.5793 22.2143 26.6362 22.3452 26.6676C22.4761 26.6989 22.6119 26.7042 22.7449 26.683C22.8778 26.6618 23.0053 26.6146 23.12 26.5441C23.2346 26.4736 23.3343 26.3812 23.4132 26.2722V26.2726Z" fill="white"/>
</svg>
