<svg width="23" height="23" viewBox="0 0 23 23" fill="none" xmlns="http://www.w3.org/2000/svg">
<path d="M0.0351563 9.03438C0.111918 8.99305 0.106014 8.91038 0.129633 8.84543C0.35992 8.1959 0.944494 7.75895 1.63535 7.74714C2.45021 7.73533 3.27098 7.73533 4.08584 7.74714C4.97746 7.75895 5.68604 8.46752 5.68604 9.35915C5.69194 12.9906 5.69194 16.6161 5.68604 20.2476C5.68604 21.1097 5.05423 21.8064 4.1567 21.8596C3.28869 21.9127 2.42069 21.9068 1.55269 21.8596C0.820493 21.8182 0.3363 21.3872 0.100109 20.6963C0.0823946 20.6491 0.0942041 20.5901 0.0351562 20.5664C0.0351563 16.7224 0.0351563 12.8784 0.0351563 9.03438Z" fill="#2195F2"/>
<path d="M14.4471 8.44929C15.882 8.44929 17.2873 8.4552 18.6986 8.44929C19.289 8.44339 19.8559 8.52605 20.3991 8.76225C22.0111 9.47082 22.9028 11.1891 22.5957 12.9192C22.2355 14.9209 21.8931 16.9286 21.5565 18.9362C21.2553 20.7372 19.7083 22.0953 17.8837 22.1071C16.5669 22.1189 15.2502 22.1248 13.9334 22.0126C11.6896 21.8236 9.49891 21.3926 7.40861 20.5128C7.18423 20.4183 7.10156 20.312 7.10156 20.0522C7.11337 16.344 7.10747 12.6299 7.10747 8.92167C7.10747 8.75634 7.15471 8.66186 7.29642 8.56739C8.21757 7.93558 9.05605 7.21519 9.72919 6.31176C10.3551 5.46737 10.7153 4.52851 10.6858 3.45975C10.674 2.98146 10.7094 2.50317 10.8157 2.03669C11.0342 1.06831 11.6069 0.702211 12.5694 0.973832C13.9806 1.36945 14.8073 2.33193 15.0553 3.74908C15.321 5.27252 15.0612 6.76643 14.5416 8.2131C14.5121 8.28396 14.4825 8.35482 14.4471 8.44929Z" fill="#FEC007"/>
</svg>
