<svg width="28" height="28" viewBox="0 0 28 28" fill="none" xmlns="http://www.w3.org/2000/svg">
<path d="M0 9.39167C0 6.06964 0 4.40862 0.656755 3.14432C1.2102 2.0789 2.0789 1.2102 3.14432 0.656755C4.40862 0 6.06964 0 9.39167 0H18.6083C21.9304 0 23.5914 0 24.8557 0.656755C25.9211 1.2102 26.7898 2.0789 27.3432 3.14432C28 4.40862 28 6.06964 28 9.39167V18.6083C28 21.9304 28 23.5914 27.3432 24.8557C26.7898 25.9211 25.9211 26.7898 24.8557 27.3432C23.5914 28 21.9304 28 18.6083 28H9.39167C6.06964 28 4.40862 28 3.14432 27.3432C2.0789 26.7898 1.2102 25.9211 0.656755 24.8557C0 23.5914 0 21.9304 0 18.6083V9.39167Z" fill="#1265BF"/>
<path d="M6.28495 8.69539C7.62645 8.69539 8.71394 7.60789 8.71394 6.2664C8.71394 4.9249 7.62645 3.8374 6.28495 3.8374C4.94345 3.8374 3.85596 4.9249 3.85596 6.2664C3.85596 7.60789 4.94345 8.69539 6.28495 8.69539Z" fill="white"/>
<path d="M10.9385 10.4905H14.9641V12.3347C14.9641 12.3347 16.0565 10.1498 19.0288 10.1498C21.6802 10.1498 23.8766 11.456 23.8766 15.4372V23.8325H19.7049V16.4545C19.7049 14.106 18.4511 13.8476 17.4957 13.8476C15.5128 13.8476 15.1733 15.558 15.1733 16.7609V23.8325H10.9385V10.4905Z" fill="white"/>
<path d="M4.16754 10.4905H8.40237V23.8325H4.16754V10.4905Z" fill="white"/>
</svg>
