<svg width="29" height="28" viewBox="0 0 29 28" fill="none" xmlns="http://www.w3.org/2000/svg">
<rect x="0.949219" width="28" height="28" rx="8" fill="#FFDE59"/>
<path d="M15.3925 21C14.4104 20.1622 13.5 19.2438 12.6709 18.2542C11.4267 16.7682 9.94922 14.5551 9.94922 12.4462C9.94812 10.2436 11.2745 8.25749 13.3094 7.41456C15.3442 6.57162 17.6866 7.03807 19.2433 8.59622C20.267 9.61538 20.8405 11.0017 20.8359 12.4462C20.8359 14.5551 19.3584 16.7682 18.1142 18.2542C17.2851 19.2438 16.3747 20.1622 15.3925 21ZM15.3925 10.1134C14.5591 10.1134 13.789 10.558 13.3722 11.2798C12.9555 12.0016 12.9555 12.8908 13.3722 13.6126C13.789 14.3344 14.5591 14.7791 15.3925 14.7791C16.6809 14.7791 17.7254 13.7346 17.7254 12.4462C17.7254 11.1578 16.6809 10.1134 15.3925 10.1134Z" fill="white"/>
</svg>
