<svg width="144" height="103" viewBox="0 0 144 103" fill="none" xmlns="http://www.w3.org/2000/svg">
<g clip-path="url(#clip0_1_2441)">
<path d="M75.2373 69.9593C76.0974 69.2823 76.8669 68.4698 77.7723 67.8831C79.3114 66.9352 80.8506 65.7165 82.5708 65.3103C86.7808 64.2722 88.9084 66.9352 88.1841 70.7718C87.6409 73.7056 86.6903 76.5492 85.9207 79.4378C85.6491 80.5211 85.4227 81.6495 85.3775 82.7328C85.2869 84.0417 86.1018 84.5833 87.2787 83.9063C88.2747 83.3195 89.18 82.5522 89.9043 81.6946C91.7151 79.5281 93.0279 77.0908 93.888 74.3826C95.6987 68.7407 100.633 64.8138 106.835 65.1749C109.279 65.3103 111.407 66.1228 112.448 68.4698C113.58 71.0426 112.901 73.4799 111.135 75.5562C109.279 77.7227 106.835 78.6254 104.073 78.7157C102.489 78.7608 100.95 78.7157 99.275 78.7157C98.7318 79.9795 99.7729 82.0557 100.905 82.8682C103.349 84.5833 106.065 84.5833 108.691 83.6355C113.444 81.9203 116.16 78.3094 117.337 73.4799C117.926 71.0877 118.65 68.6955 119.284 66.3484C119.284 66.3033 119.284 66.2582 119.329 66.2582C119.736 65.1749 121.774 64.8138 123.72 65.4457C124.761 65.8068 124.942 66.3033 124.58 67.7025C123.63 71.3585 122.724 75.0145 121.819 78.7157C121.502 79.9795 121.23 81.2884 121.14 82.5522C121.049 83.816 121.955 84.4931 122.996 83.8612C124.309 83.0938 125.576 82.146 126.482 80.9725C128.428 78.6254 129.605 75.7818 130.465 72.848C131.099 70.6364 131.733 68.3796 132.457 66.1679C132.548 65.852 132.91 65.4457 133.227 65.3555C133.906 65.1749 134.675 65.0846 135.354 65.1749C137.482 65.4909 138.478 65.6263 137.663 68.3344C136.033 73.841 134.63 79.4378 133.091 85.0347C132.955 85.5763 132.774 86.0728 132.638 86.6144C132.729 86.7047 132.774 86.7498 132.864 86.8401C133.589 86.3888 134.358 85.9825 135.037 85.486C138.206 83.1841 140.334 80.0246 141.918 76.504C142.416 75.4208 143.005 75.2402 143.638 75.9624C143.91 76.2332 144.091 76.9102 143.91 77.2262C141.647 82.2363 138.659 86.7498 133.634 89.3226C131.868 90.2253 131.235 91.4891 130.646 93.1591C129.877 95.3257 129.017 97.4922 127.84 99.4782C126.119 102.457 123.222 103.179 119.963 102.908C118.514 102.818 117.247 102.367 116.296 101.193C114.847 99.433 115.074 97.4922 115.934 95.5965C117.111 93.0237 119.42 91.7599 121.819 90.6767C122.996 90.1802 124.173 89.6385 125.395 89.3226C126.572 89.0066 127.115 88.2845 127.432 87.2012C127.794 85.802 128.247 84.4479 128.654 83.0938C128.564 83.0487 128.473 83.0036 128.383 82.9584C127.84 83.5001 127.342 84.0868 126.798 84.6285C125.214 86.2082 123.494 87.472 121.185 87.7428C117.79 88.1491 115.164 87.2012 114.893 82.9133C114.259 83.5001 113.716 83.9966 113.127 84.4931C109.098 88.1039 102.399 89.0518 97.6 86.6144C95.6987 85.6666 94.2954 84.132 93.6616 82.0557C93.5711 81.7398 93.4353 81.469 93.2542 80.9725C92.4394 82.0557 91.7604 83.0036 90.9908 83.9063C89.4064 85.802 87.5956 87.4269 85.0153 87.788C84.0194 87.9234 82.8877 87.8331 81.8918 87.6074C80.5337 87.2915 79.5378 86.0277 79.5378 84.5382C79.5378 83.2744 79.6283 81.9654 79.8999 80.7468C80.579 77.6324 81.4391 74.5632 82.0728 71.4488C82.2086 70.9072 81.9823 70.0947 81.6201 69.7336C81.258 69.4177 80.3526 69.3274 79.8999 69.5531C77.048 70.9523 74.5582 72.8029 73.6981 76.0978C72.7927 79.4378 71.9779 82.823 71.1178 86.2082C71.0273 86.6144 70.7556 87.0658 70.3935 87.2463C68.9449 87.9234 67.4058 87.9234 65.9119 87.3818C65.1876 87.1109 64.916 86.6144 65.1876 85.7569C65.5045 84.7187 65.6855 83.5903 66.0024 82.2363C64.418 83.6806 62.7431 84.6736 60.887 84.4931C58.5783 84.2222 56.9939 85.2152 55.1832 86.2985C52.1049 88.2393 48.6645 88.5102 45.224 87.2463C42.6437 86.2985 41.3762 84.2222 41.1046 81.5592C40.833 79.0768 41.3309 76.7297 42.1458 74.3826C42.191 74.2472 42.191 74.1118 42.191 74.2021C39.9729 74.7888 37.7094 75.4208 35.446 76.0978C35.1291 76.1881 34.8122 76.7297 34.6764 77.0908C33.9069 79.6635 33.1825 82.2814 32.4582 84.8541C31.8698 86.9755 30.7833 87.8331 28.5651 87.6074C28.3388 87.6074 28.1124 87.5172 27.8861 87.472C25.9848 87.1109 25.7585 86.6144 26.347 84.809C27.2071 82.1009 27.9766 79.3476 28.7915 76.6394C28.8367 76.4589 28.7915 76.1881 28.7915 76.0075C26.5733 75.6464 24.4004 75.2853 22.2275 75.0145C22.0012 74.9694 21.5485 75.511 21.4127 75.827C20.6884 77.6775 20.0546 79.5732 19.3303 81.4238C17.429 86.2082 12.9474 88.6456 7.83203 87.8331C5.93074 87.5172 4.2558 86.9755 3.07881 85.3958C1.72074 83.6355 1.63021 81.6495 2.12816 79.6184C3.03354 75.6916 5.74967 73.3896 9.37117 71.9453C11.4988 71.0877 13.717 70.8169 15.9804 70.862C16.5236 70.862 16.9763 70.862 17.2027 70.185C18.5607 65.5811 19.9641 61.0224 21.4127 56.1929C18.7418 58.3594 15.8899 57.8178 13.0379 57.5921C11.1367 57.4567 9.19009 57.5018 7.37934 58.3594C5.74966 59.1719 5.1159 60.7967 5.88547 62.0605C6.65504 63.4146 8.42052 63.8208 9.95966 62.9633C11.2272 62.2862 11.861 62.4216 12.3589 63.6854C12.54 64.0917 12.4042 64.859 12.0873 65.1749C9.41644 67.8831 4.9801 68.1087 2.17343 65.6263C-1.4028 62.4216 -0.678502 57.1407 3.48623 55.1096C6.65504 53.575 10.0955 53.3042 13.6264 53.8458C15.7993 54.1618 18.0628 54.6131 20.1451 53.5299C21.0052 53.0785 21.8201 52.5369 22.5897 51.905C24.0835 50.6863 26.1659 50.5058 27.8408 51.4536C28.4293 51.8147 28.6104 52.2209 28.3841 52.9431C27.1618 56.8699 25.9395 60.7967 24.7626 64.7687C24.1741 66.7547 23.5856 68.7858 22.9971 70.8169C22.9065 71.0426 22.9065 71.3134 22.8613 71.6293C24.8531 71.9904 26.7544 72.3064 28.6557 72.6675C29.4252 72.8029 29.7874 72.5321 30.0137 71.7647C31.1455 67.6123 32.2772 63.4598 33.4994 59.3073C34.0879 57.3213 34.9028 55.3353 35.6271 53.3945C35.8987 52.7174 36.3966 52.2661 37.2115 52.4015C38.3432 52.582 39.4749 52.7626 40.6066 53.0785C41.2404 53.2591 41.4667 53.7104 41.2404 54.4777C39.5654 59.7586 37.981 65.0846 36.3514 70.3655C36.125 71.1328 36.0345 71.9453 35.8534 72.8931C37.7547 73.0737 39.2486 72.3064 40.7877 71.5842C41.512 71.2231 42.1458 70.6815 42.8701 70.2301C43.0511 70.0947 43.3228 69.9142 43.4586 69.9593C44.6808 70.4558 45.0882 69.4628 45.722 68.8309C48.9361 65.7617 52.6934 64.4979 57.0845 65.2652C60.3438 65.8068 62.562 68.7407 62.6525 72.4869C62.6978 75.8721 61.6566 78.9414 59.8459 82.1911C60.887 82.0106 61.7019 82.0557 62.3809 81.7849C64.916 80.8371 66.4098 78.8059 67.4057 76.4589C68.1753 74.5632 68.6733 72.5321 69.2165 70.5461C69.5787 69.2371 69.8955 67.9282 70.2577 66.6193C70.5746 65.4909 71.4347 64.9492 72.8833 65.0395C73.4718 65.0846 74.0603 65.22 74.6488 65.4006C75.871 65.7617 76.0974 66.1679 75.7805 67.4768C75.7352 68.2893 75.4636 69.1469 75.2373 69.9593C75.2373 70.0045 75.192 70.0045 75.192 70.0045V70.0496C75.192 70.0044 75.2373 70.0045 75.2373 69.9593ZM57.2203 72.8029C56.9939 71.3134 56.9939 69.8239 55.5453 69.1017C54.0062 68.3344 52.5576 68.9212 51.4259 70.0045C48.076 73.2091 46.9443 77.2713 47.3517 81.7398C47.578 84.0417 49.2982 84.6285 51.4711 83.9063C52.6481 83.5001 53.6893 82.823 53.3724 81.1981C53.1914 80.2052 53.9157 79.6635 54.7305 79.2573C55.1379 79.0316 55.6811 78.6705 55.7717 78.2643C56.3149 76.504 56.7676 74.6534 57.2203 72.8029ZM16.0257 74.8791C12.7211 74.3375 8.37526 76.4589 7.78676 80.8371C7.60569 82.1009 7.96784 83.3647 8.7374 83.8612C9.64278 84.4479 11.0914 84.2674 12.0873 83.3647C14.5771 81.1079 15.075 77.9032 16.0257 74.8791ZM101.584 75.7818C103.892 75.6916 106.156 74.9243 107.242 72.171C107.604 71.2231 107.921 70.2753 107.152 69.4177C106.337 68.5601 105.296 68.9212 104.3 69.192C104.028 69.2823 103.757 69.4628 103.53 69.6434C101.855 70.7266 100.859 72.3064 100.09 74.0667C99.4108 75.6464 99.5013 75.7818 101.584 75.7818ZM125.757 92.5272C123.63 93.3848 121.728 94.5132 120.597 96.5443C120.144 97.3116 119.918 98.2144 120.732 98.8914C121.547 99.5684 122.362 99.1622 123.041 98.5754C124.852 96.9957 125.44 94.8292 125.757 92.5272ZM128.79 82.5974C128.79 82.5522 128.745 82.5522 128.745 82.5071C128.7 82.5071 128.654 82.5522 128.654 82.5522C128.654 82.5974 128.7 82.6425 128.745 82.6876C128.745 82.6425 128.745 82.6425 128.79 82.5974Z" fill="#FEDE5D"/>
<path d="M75.9156 17.2859C73.9238 17.1053 73.5164 16.5637 73.9691 14.8937C74.1954 14.0812 74.6481 13.5396 75.5987 13.7201C76.6399 13.9007 77.0021 13.4042 77.319 12.5015C78.4054 9.16142 79.5824 5.82137 80.6688 2.48131C80.8952 1.714 81.3479 1.26265 82.1174 1.30778C83.2039 1.35292 84.2903 1.44319 85.3315 1.714C86.3727 1.93968 86.6443 2.61672 86.2822 3.65485C85.241 6.72408 84.2451 9.83846 83.2492 12.9077C83.2039 13.1334 83.1586 13.3139 83.1134 13.675C84.2451 13.675 85.3315 13.675 86.418 13.675C87.6402 13.675 87.9571 13.991 87.9571 15.0742C87.9571 16.338 87.3234 17.1505 86.3274 17.1956C85.1957 17.1956 84.064 17.2407 82.9323 17.1956C82.2533 17.1505 81.8911 17.3761 81.7553 18.0532C80.9857 21.4835 80.1256 24.9138 79.4466 28.3442C79.2202 29.3823 79.356 30.5107 79.5371 31.5488C79.8087 32.9931 80.7141 33.5348 82.1627 33.264C84.2451 32.9029 85.7842 31.6391 87.097 30.1496C88.9078 28.1636 90.13 25.8617 90.8996 23.2438C92.6651 17.331 98.55 13.6299 104.571 14.3972C109.55 15.0742 111.542 20.0843 108.509 24.1014C106.744 26.4033 104.435 27.622 101.583 27.7574C99.7723 27.8477 98.0068 27.7574 96.1055 27.7574C95.6528 29.2469 96.7393 31.5939 98.55 32.4515C101.538 33.8959 104.48 33.4445 107.332 32.0002C110.275 30.4655 112.085 27.9379 113.534 25.0041C115.526 21.0321 117.699 17.1505 120.958 13.991C122.226 12.7272 123.674 11.8244 125.53 11.7793C127.613 11.7793 128.518 13.0882 127.703 14.9388C127.115 16.2477 127.703 17.4664 127.975 18.6399C128.518 20.8516 129.378 23.0181 129.785 25.2298C130.148 26.9449 130.057 28.7955 130.193 30.5558C130.193 30.7815 130.193 31.0072 130.238 31.278C133.045 30.8718 134.72 29.1115 136.078 26.8998C136.395 26.4033 136.712 25.8617 136.938 25.3201C137.21 24.5979 137.617 24.5527 138.16 24.8687C138.658 25.1846 139.292 25.4555 138.884 26.2679C137.526 28.9309 135.987 31.4585 133.09 32.7675C132.23 33.1737 131.279 33.5348 130.419 33.5348C129.242 33.4896 128.608 34.1215 127.884 34.8437C125.44 37.1908 120.822 37.8227 118.016 36.1075C116.16 34.9791 115.345 33.2188 115.39 31.0974C115.435 29.8788 117.155 28.8406 118.242 29.3823C118.514 29.5177 118.649 30.0142 118.649 30.3753C118.785 31.5939 119.238 32.5869 120.37 33.0834C121.411 33.5348 122.452 33.3091 123.312 32.4967C123.493 32.3161 123.629 31.7745 123.493 31.5488C122.814 30.1947 123.04 29.4274 124.263 28.4796C124.534 28.2539 124.761 27.622 124.67 27.2609C124.127 24.7784 123.493 22.296 122.905 19.8586C122.633 18.6851 122.361 17.5116 122.045 16.0672C121.411 16.7894 120.777 17.3761 120.37 18.0983C118.378 21.3932 116.476 24.7333 114.575 28.0733C112.085 32.4967 108.69 35.8818 103.484 36.7846C99.5912 37.4165 95.7434 37.1908 92.7103 34.257C91.6692 33.2188 90.9901 31.7745 90.2658 30.6461C89.0436 31.955 87.8213 33.4896 86.3727 34.7534C84.2903 36.604 81.71 37.2811 78.9034 36.92C76.2325 36.5589 74.4218 34.5729 74.0596 31.7745C74.0143 31.3231 73.9691 30.9169 73.8785 30.1496C73.2448 30.9169 72.8373 31.5037 72.3847 32.0453C70.8455 33.8959 69.1706 35.4756 66.8619 36.3332C66.6355 36.4235 66.4092 36.4686 66.2281 36.5137C62.9235 37.3713 60.9769 35.927 60.9317 32.5418C60.9317 32.0453 60.9317 31.5488 60.9317 30.7815C60.2526 31.7745 59.7094 32.5869 59.1209 33.3542C57.446 35.5208 55.3636 37.0554 52.4664 37.0554C49.2976 37.0554 47.0341 35.0694 46.672 31.955C46.2193 28.0733 47.3963 24.5979 49.6597 21.5286C53.1454 16.6991 57.6723 13.7653 63.8741 14.2618C66.3186 14.4423 68.6726 15.1194 70.7097 16.6088C71.7509 17.4213 71.8414 17.8726 71.1171 18.9108C70.076 20.31 69.6685 20.4002 68.1294 19.4975C63.3762 16.6991 58.3966 17.8275 55.3183 22.3411C53.7339 24.6882 52.6475 27.2609 52.5569 30.1496C52.5117 31.278 52.5569 32.5418 53.7792 33.0834C55.0014 33.625 55.9521 32.7675 56.7669 31.955C59.3925 29.3823 60.9317 26.1325 62.1992 22.7473C62.2444 22.5668 62.2897 22.3862 62.3803 22.2057C62.7424 21.5286 62.9688 20.4454 63.4667 20.31C64.4626 20.0843 65.6396 20.1746 66.6355 20.4905C67.903 20.8516 67.9936 21.303 67.6767 22.6119C67.0882 24.9138 66.4997 27.1706 65.9565 29.4726C65.7754 30.2399 65.7754 31.0523 65.7754 31.8196C65.8207 32.948 66.5903 33.3994 67.6314 32.948C69.7591 32.0453 71.0719 30.2399 72.4299 28.4796C74.1501 26.2228 74.6934 23.5598 75.2819 20.8516C75.2819 19.7232 75.5987 18.5497 75.9156 17.2859ZM96.3771 24.9138C97.4636 24.9138 98.3237 25.0041 99.1838 24.9138C101.402 24.643 103.167 23.65 104.073 21.4835C104.48 20.4905 104.888 19.3621 103.937 18.5497C103.032 17.7372 101.809 18.008 100.859 18.5497C98.4595 19.9038 97.1467 22.1154 96.3771 24.9138Z" fill="white"/>
<path d="M19.5558 33.5351C16.3417 37.0557 11.6338 38.139 7.19744 36.2884C5.29615 35.476 4.02863 34.1219 3.93809 32.0005C3.84755 29.7889 4.70766 27.8932 6.69948 26.855C10.0946 25.0947 13.3993 25.7266 16.6133 27.4418C16.7039 27.4869 16.7944 27.5321 16.885 27.5772C16.9302 27.5772 16.9755 27.5772 17.1566 27.5772C17.5187 26.5842 17.8809 25.5461 18.243 24.4628C19.5558 20.4458 20.7328 16.3835 22.1814 12.4116C22.8152 10.7415 23.9016 9.20693 24.9428 7.71744C26.2103 5.95715 28.0663 6.36337 29.4697 7.22095C29.696 7.35636 29.8318 8.07853 29.6508 8.30421C26.7083 12.5018 25.6671 17.4668 24.128 22.2512C23.3131 24.6885 22.4078 27.1259 21.5929 29.5632C21.5024 29.8791 21.4571 30.4208 21.5929 30.511C24.5807 32.497 27.7042 33.9414 31.4162 32.7678C33.7702 32.0005 35.2188 30.2402 36.2147 28.164C38.5234 23.3796 38.9761 18.2792 38.0255 13.0886C36.6674 5.50579 30.4203 2.79764 23.5395 4.28712C20.2801 5.00929 17.6998 6.81473 16.387 10.0194C15.6174 11.8248 15.7985 13.54 16.5681 15.2551C17.066 16.4287 16.8397 17.0606 15.5722 17.9181C14.6215 18.5952 13.5351 18.55 12.7202 17.7827C9.77776 15.0746 9.32507 10.7867 11.498 7.22095C13.2182 4.37739 15.8438 2.61709 18.8768 1.44356C23.1773 -0.136194 27.6137 -0.452145 32.05 0.676252C38.2971 2.25601 43.0503 6.905 44.001 14.0816C44.7253 19.543 43.9104 24.8239 41.2396 29.7437C37.8444 35.9725 31.7784 38.455 25.0333 36.3336C24.0827 36.0176 23.132 35.6114 22.2267 35.16C21.3213 34.7087 20.5065 34.1219 19.5558 33.5351ZM16.0701 30.3756C14.4857 29.8791 13.1277 29.2472 11.7243 29.0667C10.2304 28.841 8.96292 30.0597 8.96292 31.3686C8.96292 32.7227 10.0494 33.5351 11.7243 33.4449C13.6256 33.3095 14.8026 32.1359 16.0701 30.3756Z" fill="white"/>
<path d="M68.9453 51.5451C69.398 52.2673 69.8507 53.1249 70.4844 54.163C70.756 53.4408 70.9371 52.9443 71.2087 52.493C71.3445 52.2673 71.5709 52.1319 71.7519 51.9513C71.8877 52.177 72.1141 52.4478 72.0688 52.6735C71.8877 53.4408 71.5709 54.1178 71.254 54.9754C71.3445 55.1108 71.6161 55.3365 71.7519 55.6073C71.8877 55.833 71.933 56.1038 71.9783 56.3746C71.6161 56.3746 71.1182 56.5552 70.9824 56.4198C70.3939 55.6976 69.8507 55.9684 69.2169 56.3295C68.8547 56.51 68.4473 56.6003 68.0399 56.6454C66.7271 56.826 65.6407 56.3295 65.1427 55.3816C64.6447 54.4338 64.9164 53.0797 65.7765 52.177C65.867 52.0867 65.9575 52.0416 66.0481 51.9513C66.9534 51.3646 67.4061 50.7327 67.0893 49.514C66.7724 48.4307 67.4061 47.4377 68.4926 46.9412C69.398 46.535 70.3033 46.6253 70.9371 47.3926C71.5256 48.1148 71.4351 48.9724 70.8918 49.6494C70.3939 50.3716 69.6696 50.8681 68.9453 51.5451ZM69.5338 54.9303C69.0358 54.0727 68.6284 53.2151 68.0852 52.4027C67.9946 52.2673 67.5419 52.2673 67.3609 52.4027C66.546 52.9443 66.1839 54.163 66.546 54.84C66.9082 55.5622 67.8136 55.6976 68.9453 55.2011C69.0811 55.2011 69.2169 55.1108 69.5338 54.9303ZM68.221 50.191C68.3568 50.2813 68.5379 50.3264 68.6737 50.4167C69.0811 49.9202 69.5338 49.4688 69.8959 48.9272C70.0317 48.7467 69.8054 48.3405 69.7601 48.0245C69.4432 48.0696 68.9 48.0696 68.8095 48.2502C68.5379 48.8821 68.4021 49.5591 68.221 50.191Z" fill="white"/>
</g>
<defs>
<clipPath id="clip0_1_2441">
<rect width="144" height="103" fill="white"/>
</clipPath>
</defs>
</svg>
