<svg width="20" height="22" viewBox="0 0 20 22" fill="none" xmlns="http://www.w3.org/2000/svg">
<path d="M13.9538 0.167971C14.4137 0.166891 14.7774 0.524212 14.7785 1.00064L14.7795 1.81273C17.7637 2.04662 19.735 4.0801 19.7382 7.19854L19.75 16.3265C19.7543 19.7264 17.6183 21.8184 14.1945 21.8238L5.83121 21.8346C2.4288 21.839 0.266058 19.6972 0.26178 16.2875L0.250007 7.26675C0.245736 4.12774 2.14749 2.09967 5.13169 1.82573L5.13062 1.01363C5.12955 0.537205 5.48252 0.178802 5.95315 0.178802C6.42378 0.177719 6.77675 0.53504 6.77782 1.01147L6.77888 1.76942L13.1323 1.76076L13.1313 1.00281C13.1302 0.526378 13.4832 0.169056 13.9538 0.167971ZM14.3902 15.5425H14.3795C13.8875 15.5544 13.4928 15.967 13.5035 16.4651C13.5046 16.9632 13.9014 17.3735 14.3934 17.3844C14.8951 17.3833 15.3015 16.9707 15.3004 16.4618C15.3004 15.9529 14.8929 15.5425 14.3902 15.5425ZM5.57665 15.5436C5.08463 15.5653 4.69957 15.9778 4.70064 16.4759C4.7231 16.974 5.12955 17.3638 5.62157 17.341C6.10396 17.3194 6.48795 16.9068 6.46549 16.4088C6.45479 15.9215 6.05797 15.5425 5.57665 15.5436ZM9.98342 15.5382C9.4914 15.5609 9.10742 15.9724 9.10742 16.4705C9.12988 16.9686 9.53633 17.3573 10.0283 17.3356C10.5097 17.3129 10.8947 16.9014 10.8723 16.4023C10.8616 15.9161 10.4647 15.5371 9.98342 15.5382ZM5.5713 11.6456C5.07928 11.6672 4.69529 12.0798 4.69636 12.5778C4.71776 13.0759 5.12528 13.4657 5.61729 13.443C6.09862 13.4213 6.4826 13.0088 6.46014 12.5107C6.44945 12.0235 6.05369 11.6445 5.5713 11.6456ZM9.97914 11.6077C9.48713 11.6293 9.10207 12.0419 9.10313 12.5399C9.12453 13.038 9.53205 13.4268 10.0241 13.4051C10.5054 13.3824 10.8894 12.9709 10.868 12.4728C10.8562 11.9856 10.4605 11.6066 9.97914 11.6077ZM14.3859 11.6131C13.8939 11.6239 13.5088 12.0245 13.5099 12.5226V12.5345C13.5206 13.0326 13.9271 13.4105 14.4201 13.3997C14.9015 13.3878 15.2855 12.9752 15.2748 12.4771C15.2523 12.0007 14.8662 11.612 14.3859 11.6131ZM13.1345 3.42826L6.78102 3.43692L6.78209 4.3129C6.78209 4.77958 6.43019 5.14773 5.95957 5.14773C5.48894 5.14881 5.1349 4.78175 5.1349 4.31506L5.13383 3.48131C3.0481 3.69029 1.894 4.91601 1.8972 7.26459L1.89828 7.60134L18.0921 7.57968V7.2007C18.0461 4.8727 16.8781 3.65131 14.7817 3.4694L14.7827 4.30315C14.7827 4.76875 14.4201 5.13799 13.9602 5.13799C13.4896 5.13907 13.1355 4.77092 13.1355 4.30532L13.1345 3.42826Z" fill="#1C1C1C"/>
</svg>
