<svg width="29" height="28" viewBox="0 0 29 28" fill="none" xmlns="http://www.w3.org/2000/svg">
<rect x="0.949219" width="28" height="28" rx="8" fill="#FFDE59"/>
<g clip-path="url(#clip0_1_16100)">
<path d="M20.7827 7.58332H16.6994C16.3654 7.58196 16.0416 7.69807 15.7846 7.91135C15.5276 8.12463 15.3538 8.42149 15.2935 8.74999L14.7569 11.6958C14.7198 11.9011 14.7283 12.1119 14.7817 12.3135C14.8351 12.5152 14.9322 12.7026 15.066 12.8625C15.2006 13.0225 15.3685 13.1513 15.5578 13.24C15.7472 13.3286 15.9536 13.375 16.1627 13.3758H17.866L17.7202 13.7608C17.6126 14.0463 17.5752 14.3535 17.6112 14.6564C17.6472 14.9594 17.7556 15.2492 17.9272 15.5015C18.0988 15.7538 18.3286 15.961 18.5971 16.1058C18.8657 16.2506 19.1652 16.3286 19.4702 16.3333C19.5834 16.3342 19.6944 16.3022 19.7897 16.241C19.885 16.1799 19.9605 16.0924 20.0069 15.9892L21.3135 13.0375C21.3433 12.9732 21.3611 12.904 21.366 12.8333V8.16666C21.366 8.01195 21.3046 7.86358 21.1952 7.75418C21.0858 7.64478 20.9374 7.58332 20.7827 7.58332ZM20.1994 12.6758L19.1319 15.085C19.0277 15.0283 18.9379 14.9485 18.8694 14.8517C18.8007 14.7545 18.7573 14.6418 18.7431 14.5236C18.7288 14.4055 18.7442 14.2857 18.7877 14.175L19.0094 13.5917C19.0677 13.4404 19.0876 13.277 19.0672 13.1161C19.0468 12.9553 18.9869 12.802 18.8927 12.67C18.8 12.5385 18.6766 12.4316 18.5333 12.3584C18.39 12.2852 18.2311 12.248 18.0702 12.25H16.151C16.1123 12.2501 16.074 12.2418 16.0387 12.2257C16.0035 12.2096 15.9722 12.186 15.9469 12.1567C15.9016 12.0945 15.8827 12.0169 15.8944 11.9408L16.431 9.02416C16.4285 8.98801 16.4337 8.95173 16.4462 8.91772C16.4587 8.88371 16.4783 8.85274 16.5037 8.82684C16.529 8.80094 16.5596 8.7807 16.5933 8.76745C16.627 8.75421 16.6632 8.74826 16.6994 8.74999H20.1994V12.6758ZM13.7477 14.6125H12.0619L12.2077 14.2275C12.3138 13.9404 12.349 13.6318 12.3104 13.3282C12.2717 13.0245 12.1603 12.7347 11.9857 12.4833C11.811 12.2319 11.5783 12.0264 11.3072 11.8842C11.0361 11.742 10.7347 11.6674 10.4285 11.6667C10.3153 11.6658 10.2043 11.6978 10.109 11.7589C10.0137 11.8201 9.93829 11.9076 9.89188 12.0108L8.58521 14.9625C8.55179 15.0358 8.53391 15.1153 8.53271 15.1958V19.8625C8.53271 20.0172 8.59417 20.1656 8.70357 20.275C8.81297 20.3844 8.96134 20.4458 9.11605 20.4458H13.1994C13.5334 20.4472 13.8572 20.3311 14.1142 20.1178C14.3712 19.9045 14.545 19.6077 14.6052 19.2792L15.1419 16.3625C15.179 16.1573 15.1705 15.9464 15.1171 15.7448C15.0637 15.5432 14.9666 15.3558 14.8327 15.1958C14.7062 15.0244 14.5433 14.8832 14.3557 14.7824C14.1681 14.6815 13.9604 14.6235 13.7477 14.6125ZM13.4677 19.0342C13.4577 19.097 13.4247 19.1539 13.3751 19.1938C13.3255 19.2336 13.2629 19.2537 13.1994 19.25H9.69938V15.3242L10.7669 12.915C10.8711 12.9717 10.9609 13.0515 11.0294 13.1483C11.098 13.2455 11.1414 13.3582 11.1557 13.4763C11.1699 13.5945 11.1546 13.7143 11.111 13.825L10.8894 14.4083C10.8311 14.5596 10.8112 14.723 10.8316 14.8839C10.8519 15.0447 10.9119 15.198 11.006 15.33C11.0975 15.4636 11.2203 15.5728 11.3636 15.6481C11.507 15.7233 11.6666 15.7623 11.8285 15.7617H13.7477C13.7865 15.7615 13.8248 15.7698 13.86 15.7859C13.8953 15.8021 13.9266 15.8256 13.9519 15.855C13.9972 15.9172 14.016 15.9948 14.0044 16.0708L13.4677 19.0342Z" fill="white"/>
</g>
<defs>
<clipPath id="clip0_1_16100">
<rect width="14" height="14" fill="white" transform="translate(7.94922 7)"/>
</clipPath>
</defs>
</svg>
