<svg width="37" height="35" viewBox="0 0 37 35" fill="none" xmlns="http://www.w3.org/2000/svg">
<path d="M13.7101 17.9618C13.3542 16.6027 13.3326 15.2545 13.8611 13.9386C14.7995 11.6196 16.5037 10.2605 18.9845 9.88299C19.4052 9.81827 19.815 9.82906 20.2249 9.81827C20.9907 9.75356 21.7026 9.88299 22.3282 10.3576C23.2342 10.7782 24.0216 11.3499 24.6472 12.1265C24.8521 12.3854 24.9169 12.202 25.0139 12.0726C25.8876 11.0371 26.9878 10.336 28.3037 10.0232C30.2452 9.55941 32.0249 9.91535 33.632 11.1018C34.8509 12.9894 34.9048 14.9848 34.1498 17.0342C33.4594 18.911 32.3593 20.5504 31.162 22.1252C30.0403 23.6029 28.7891 24.9619 27.5055 26.2994C26.5563 27.281 25.564 28.2193 24.5501 29.147C24.4423 29.244 24.3128 29.5029 24.1187 29.2332C24.1403 28.5861 24.3344 27.9713 24.3344 27.3241C24.3128 25.7493 23.752 24.4011 22.7273 23.2254C22.5763 23.0636 22.4253 22.891 22.2419 22.7616C21.077 21.8124 19.7395 21.3055 18.2403 21.3055C17.496 21.3055 16.7734 21.4565 16.083 21.7369C15.9213 21.8016 15.7702 21.8987 15.5869 21.8232C15.2633 21.2839 14.9397 20.7446 14.6161 20.2053C14.1631 19.5258 13.7748 18.8031 13.7101 17.9618Z" fill="#FFDE59"/>
<path d="M15.5745 21.837C17.3327 21.0496 19.0908 20.9849 20.8597 21.783C21.399 22.0203 21.8952 22.3439 22.3266 22.743C22.4561 22.9156 22.6179 23.0666 22.7473 23.2392C23.5562 24.3933 23.8367 25.6984 23.7073 27.0682C23.5131 29.1823 22.4669 30.8002 20.6548 31.9328C18.6594 33.1624 15.6608 33.0977 13.8056 31.5445C11.4327 29.2147 11.6484 24.9757 14.2371 22.743C14.6577 22.3871 15.1107 22.1066 15.5745 21.837Z" fill="#58595B"/>
<path d="M34.4569 11.8391C35.4276 12.7991 35.9454 13.9856 36.1395 15.3123C36.4415 17.4803 35.5463 19.3247 34.5 21.1044C32.8821 23.8441 30.7573 26.1846 28.5353 28.4389C27.6509 29.345 26.7233 30.1971 25.7849 31.0492C25.1161 31.6532 24.5337 31.664 23.8649 31.0707C23.7355 30.9521 23.6061 30.8442 23.4766 30.7256C23.4335 30.5746 23.4766 30.4883 23.6384 30.4667C24.1022 30.6501 24.5121 30.5314 24.8573 30.1863C25.2995 29.7548 25.7741 29.3557 26.2163 28.9351C27.1978 28.0183 28.1362 27.0583 29.0531 26.0768C31.0808 23.8872 33.0008 21.6005 34.3167 18.8824C34.8883 17.7068 35.2874 16.4771 35.2443 15.1289C35.2119 14.1366 34.9423 13.2305 34.5 12.3569C34.4245 12.2166 34.3059 12.0872 34.3275 11.9146C34.349 11.8499 34.3814 11.8068 34.4569 11.8391Z" fill="#FFDE59"/>
<path d="M34.4569 11.8391C35.4276 12.7991 35.9454 13.9856 36.1395 15.3123C36.4415 17.4803 35.5463 19.3247 34.5 21.1044C32.8821 23.8441 30.7573 26.1846 28.5353 28.4389C27.6509 29.345 26.7233 30.1971 25.7849 31.0492C25.1161 31.6532 24.5337 31.664 23.8649 31.0707C23.7355 30.9521 23.6061 30.8442 23.4766 30.7256C23.4335 30.5746 23.4766 30.4883 23.6384 30.4667C24.1022 30.6501 24.5121 30.5314 24.8573 30.1863C25.2995 29.7548 25.7741 29.3557 26.2163 28.9351C27.1978 28.0183 28.1362 27.0583 29.0531 26.0768C31.0808 23.8872 33.0008 21.6005 34.3167 18.8824C34.8883 17.7068 35.2874 16.4771 35.2443 15.1289C35.2119 14.1366 34.9423 13.2305 34.5 12.3569C34.4245 12.2166 34.3059 12.0872 34.3275 11.9146C34.349 11.8499 34.3814 11.8068 34.4569 11.8391Z" fill="black" fill-opacity="0.1"/>
<path d="M34.364 11.9252C34.8063 12.6371 35.1299 13.3921 35.2593 14.2334C35.4534 15.4846 35.324 16.6819 34.8602 17.8576C33.9973 20.0687 32.6491 21.9779 31.1606 23.8007C30.1898 24.9872 29.1436 26.0981 28.0973 27.2091C27.0834 28.2769 25.9725 29.2477 24.9154 30.2831C24.6242 30.5744 24.2683 30.7038 23.8476 30.6499C23.729 30.6391 23.6319 30.6175 23.6211 30.4773C23.7074 30.0243 23.8368 29.5928 24.182 29.2477C24.2683 29.3555 24.3222 29.2585 24.3653 29.2153C24.8076 28.8054 25.2498 28.3956 25.6812 27.9749C26.447 27.263 27.1805 26.5188 27.8924 25.7638C29.7476 23.8223 31.4626 21.7837 32.854 19.4863C33.5982 18.2566 34.2454 16.9623 34.4611 15.5278C34.6768 14.0932 34.4935 12.691 33.7169 11.4183C33.6629 11.3212 33.5335 11.2457 33.6306 11.1055C33.8247 11.2025 33.9865 11.3428 34.1052 11.5261C34.213 11.6556 34.3425 11.7634 34.364 11.9252Z" fill="#FFDE59"/>
<path d="M34.364 11.9252C34.8063 12.6371 35.1299 13.3921 35.2593 14.2334C35.4534 15.4846 35.324 16.6819 34.8602 17.8576C33.9973 20.0687 32.6491 21.9779 31.1606 23.8007C30.1898 24.9872 29.1436 26.0981 28.0973 27.2091C27.0834 28.2769 25.9725 29.2477 24.9154 30.2831C24.6242 30.5744 24.2683 30.7038 23.8476 30.6499C23.729 30.6391 23.6319 30.6175 23.6211 30.4773C23.7074 30.0243 23.8368 29.5928 24.182 29.2477C24.2683 29.3555 24.3222 29.2585 24.3653 29.2153C24.8076 28.8054 25.2498 28.3956 25.6812 27.9749C26.447 27.263 27.1805 26.5188 27.8924 25.7638C29.7476 23.8223 31.4626 21.7837 32.854 19.4863C33.5982 18.2566 34.2454 16.9623 34.4611 15.5278C34.6768 14.0932 34.4935 12.691 33.7169 11.4183C33.6629 11.3212 33.5335 11.2457 33.6306 11.1055C33.8247 11.2025 33.9865 11.3428 34.1052 11.5261C34.213 11.6556 34.3425 11.7634 34.364 11.9252Z" fill="black" fill-opacity="0.05"/>
<path d="M24.175 29.2476C23.9916 29.6574 23.8083 30.0673 23.6141 30.4772C23.5602 30.5527 23.5171 30.639 23.4631 30.7145C22.5247 32.0412 21.3059 32.9903 19.6988 33.3355C17.4229 33.8209 15.4383 33.2492 13.8096 31.5342C14.2087 31.7392 14.6077 31.9657 15.0176 32.149C17.7357 33.3571 20.9392 32.4618 22.5679 29.9594C23.9485 27.8346 24.0024 25.6126 22.7405 23.3907C22.7081 23.3368 22.6757 23.2721 22.6434 23.2074C22.6218 23.1211 22.6542 23.0995 22.7297 23.1211C23.7651 24.1673 24.2937 25.4401 24.4123 26.8962C24.4986 27.7052 24.3799 28.4818 24.175 29.2476Z" fill="#414042"/>
<path d="M7.00569 34.2509C6.97333 34.2833 6.95176 34.3049 6.9194 34.3372C6.61739 34.0999 6.34773 33.8303 6.08887 33.5391C6.52031 33.6361 6.67132 34.0568 7.00569 34.2509Z" fill="white"/>
<path d="M7.00569 34.2509C6.97333 34.2833 6.95176 34.3049 6.9194 34.3372C6.61739 34.0999 6.34773 33.8303 6.08887 33.5391C6.52031 33.6361 6.67132 34.0568 7.00569 34.2509Z" fill="black" fill-opacity="0.2"/>
<path d="M34.3564 11.9235C34.2486 11.8048 34.1407 11.6969 34.1191 11.5352C34.2809 11.5891 34.3672 11.7185 34.4535 11.8372C34.4211 11.8587 34.3888 11.8911 34.3564 11.9235Z" fill="#F18118"/>
<path d="M22.7502 23.1297C22.7178 23.162 22.6855 23.1836 22.6639 23.216C22.5561 23.0542 22.3727 22.9463 22.3403 22.7306C22.5021 22.8385 22.6423 22.9679 22.7502 23.1297Z" fill="#504C47"/>
<path d="M22.1709 25.6015C22.1602 25.925 22.0415 26.1947 21.8258 26.4104C20.6932 27.543 19.5715 28.6755 18.439 29.7972C17.932 30.2934 17.3388 30.2826 16.8318 29.7865C16.1523 29.1177 15.4728 28.449 14.804 27.7695C14.3295 27.2841 14.3079 26.6693 14.7393 26.2271C15.1816 25.7632 15.8072 25.774 16.3141 26.2594C16.6916 26.6261 17.0691 26.9929 17.4251 27.3704C17.5869 27.543 17.6731 27.5322 17.8349 27.3704C18.6439 26.5506 19.4636 25.7309 20.2834 24.9219C20.607 24.5984 20.9953 24.4905 21.4267 24.6199C21.815 24.7386 22.0415 25.0298 22.1386 25.4289C22.1602 25.4828 22.1709 25.5475 22.1709 25.6015Z" fill="#F0F1F1"/>
<path d="M8.67919 19.9196C6.74848 18.0644 4.95799 16.0798 3.37244 13.9118C2.32619 12.4772 1.39858 10.9672 0.826918 9.27376C-0.445841 5.54177 1.60352 1.73428 5.38944 0.914533C7.80552 0.396801 9.87645 1.11947 11.5375 2.9531C11.7317 3.16883 11.8072 3.23354 12.0337 2.97468C14.1909 0.493876 17.6748 0.0408597 20.4145 1.85292C20.49 1.90685 20.587 1.92843 20.5655 2.05786C21.094 2.4893 21.2234 3.12568 21.4068 3.71892C21.9029 5.32605 21.6117 6.87924 20.9861 8.40008C20.7812 8.89624 20.587 9.40319 20.2742 9.83463C19.8536 10.0072 19.4006 9.93171 18.9691 9.98564C15.3558 10.4602 12.9181 13.9333 13.7163 17.482C13.7487 17.6222 13.8026 17.7624 13.7702 17.9134C13.7271 18.0536 13.63 18.1399 13.5329 18.2262C12.7132 18.9705 11.9258 19.7578 11.0953 20.4913C10.6099 20.9227 10.1137 20.9659 9.58523 20.6854C9.25086 20.4805 9.03514 20.1246 8.67919 19.9196Z" fill="#E53950"/>
<path d="M13.7119 17.9648C13.9492 18.7414 14.3052 19.4749 14.6179 20.2191C13.9492 20.8447 13.2913 21.4703 12.6117 22.0743C12.1048 22.5274 11.49 22.5274 10.983 22.0743C10.4761 21.6321 10.0015 21.1683 9.50534 20.7153C9.48377 20.6398 9.50534 20.6074 9.59163 20.629C10.1956 20.9418 10.6918 20.7477 11.1556 20.3162C12.0077 19.5396 12.8598 18.7522 13.7119 17.9648Z" fill="#D00028"/>
</svg>
