<svg width="50" height="49" viewBox="0 0 50 49" fill="none" xmlns="http://www.w3.org/2000/svg">
<rect width="50" height="49" rx="12" fill="white"/>
<g clip-path="url(#clip0_1_4496)">
<path d="M32.3008 27.8999C34.5008 27.8999 36.3008 29.6999 36.3008 31.7999C36.3008 33.9999 34.5008 35.6999 32.3008 35.6999C30.1008 35.6999 28.3008 33.8999 28.3008 31.7999C28.3008 29.5999 30.1008 27.8999 32.3008 27.8999Z" fill="#FFDE59"/>
<path d="M22.4 30.1001C23.4 30.1001 24.2 30.9001 24.2 31.8001C24.2 32.8001 23.4 33.5001 22.4 33.5001H14.8C13.8 33.5001 13 32.7001 13 31.8001C13 30.8001 13.8 30.1001 14.8 30.1001H22.4V30.1001Z" fill="#1C1C1C"/>
<path d="M17 15C19.2 15 21 16.8 21 18.9C21 21.1 19.2 22.8 17 22.8C14.8 22.8 13 21 13 18.9C13 16.8 14.8 15 17 15Z" fill="#FFDE59"/>
<path d="M34.5996 17.2C35.5996 17.2 36.3996 18 36.3996 18.9C36.3996 19.9 35.5996 20.6 34.5996 20.6H26.8996C25.8996 20.6 25.0996 19.8 25.0996 18.9C25.0996 17.9 25.8996 17.2 26.8996 17.2H34.5996Z" fill="#1C1C1C"/>
</g>
<defs>
<clipPath id="clip0_1_4496">
<rect width="23.3" height="20.7" fill="white" transform="translate(13 15)"/>
</clipPath>
</defs>
</svg>
