<svg width="20" height="20" viewBox="0 0 20 20" fill="none" xmlns="http://www.w3.org/2000/svg">
<path fill-rule="evenodd" clip-rule="evenodd" d="M10.2799 0.375244C12.7938 0.375244 15.1563 1.35262 16.9308 3.12799C20.5988 6.79599 20.5988 12.7635 16.9308 16.4315C15.1326 18.2305 12.7115 19.1825 10.2589 19.1825C8.92188 19.1825 7.57613 18.8999 6.31701 18.3171C5.94601 18.1684 5.59863 18.0284 5.34926 18.0284C5.06226 18.0301 4.67638 18.1631 4.30363 18.2917C3.53888 18.5542 2.58688 18.8815 1.88251 18.1797C1.18076 17.4771 1.50451 16.5277 1.76526 15.7639C1.89388 15.3876 2.02601 14.9991 2.02601 14.7051C2.02601 14.4636 1.90963 14.1556 1.73113 13.712C0.0922574 10.1726 0.850008 5.90699 3.62988 3.12887C5.40438 1.35349 7.76601 0.375244 10.2799 0.375244ZM10.2808 1.68774C8.11688 1.68774 6.08426 2.52949 4.55738 4.05724C2.16513 6.44774 1.51413 10.1184 2.93601 13.1922C3.14076 13.6989 3.33851 14.1924 3.33851 14.7051C3.33851 15.217 3.16263 15.7324 3.00776 16.1874C2.88001 16.5619 2.68663 17.1271 2.81088 17.2514C2.93251 17.3774 3.50126 17.1787 3.87663 17.0501C4.32726 16.8961 4.83826 16.7194 5.34488 16.7159C5.85238 16.7159 6.33101 16.9084 6.83763 17.1122C9.94126 18.5472 13.6119 17.8945 16.0033 15.504C19.1585 12.347 19.1585 7.21162 16.0033 4.05637C14.4755 2.52862 12.4438 1.68774 10.2808 1.68774ZM13.7343 9.2676C14.2173 9.2676 14.6093 9.65873 14.6093 10.1426C14.6093 10.6265 14.2173 11.0176 13.7343 11.0176C13.2513 11.0176 12.8558 10.6265 12.8558 10.1426C12.8558 9.65873 13.2434 9.2676 13.7264 9.2676H13.7343ZM10.2266 9.2676C10.7096 9.2676 11.1016 9.65873 11.1016 10.1426C11.1016 10.6265 10.7096 11.0176 10.2266 11.0176C9.7436 11.0176 9.3481 10.6265 9.3481 10.1426C9.3481 9.65873 9.73485 9.2676 10.2187 9.2676H10.2266ZM6.71855 9.2676C7.20155 9.2676 7.59355 9.65873 7.59355 10.1426C7.59355 10.6265 7.20155 11.0176 6.71855 11.0176C6.23555 11.0176 5.84005 10.6265 5.84005 10.1426C5.84005 9.65873 6.22767 9.2676 6.71067 9.2676H6.71855Z" fill="black"/>
</svg>
