<svg width="45" height="45" viewBox="0 0 45 45" fill="none" xmlns="http://www.w3.org/2000/svg">
<rect x="0.949219" y="0.998047" width="43.9978" height="43.9978" rx="21.9989" fill="#456EFE"/>
<g clip-path="url(#clip0_1_15784)">
<path d="M15.3775 32.998C15.0719 32.9209 14.7612 32.8644 14.466 32.7565C12.8243 32.1658 11.7782 30.5168 11.9698 28.8319C12.1718 27.0493 13.5079 25.6778 15.2635 25.4466C16.0352 25.3438 16.7706 25.4671 17.4697 25.8113C17.5267 25.837 17.5836 25.8627 17.6406 25.8884C17.651 25.8935 17.6665 25.8884 17.6924 25.8832C17.6924 25.8062 17.6924 25.724 17.6924 25.6418C17.6924 22.0921 17.6924 18.5476 17.6924 14.998C17.6924 14.2993 17.9824 13.9706 18.6764 13.873C21.7163 13.4415 24.7563 13.0099 27.791 12.5733C29.1323 12.3832 30.4736 12.1932 31.8201 12.0031C32.4105 11.9209 32.8973 12.3113 32.9439 12.9021C32.9491 12.9586 32.9491 13.0099 32.9491 13.0665C32.9491 17.7822 32.9543 22.498 32.9491 27.2137C32.9491 28.6726 32.3121 29.8079 31.0537 30.5682C28.7698 31.9449 25.6884 30.4757 25.3466 27.8456C25.0618 25.6623 26.574 23.7411 28.7646 23.5202C29.4638 23.4483 30.137 23.5716 30.774 23.8798C30.8569 23.9209 30.9449 23.962 31.0433 24.0082C31.0433 21.9329 31.0433 19.8832 31.0433 17.8028C27.2369 18.3421 23.4357 18.8815 19.6085 19.4209C19.6085 19.5082 19.6085 19.5956 19.6085 19.6778C19.6085 22.8165 19.6085 25.95 19.6085 29.0887C19.6085 30.4192 19.0751 31.4825 17.9979 32.2736C17.5059 32.6332 16.9518 32.8438 16.3511 32.9363C16.2889 32.9466 16.232 32.9671 16.175 32.9774C15.9005 32.998 15.6416 32.998 15.3775 32.998Z" fill="white"/>
</g>
<defs>
<clipPath id="clip0_1_15784">
<rect width="21" height="21" fill="white" transform="translate(11.9492 11.998)"/>
</clipPath>
</defs>
</svg>
