<svg width="45" height="44" viewBox="0 0 45 44" fill="none" xmlns="http://www.w3.org/2000/svg">
<g clip-path="url(#clip0_1_15687)">
<rect x="0.949219" width="43.9978" height="43.9978" rx="21.9989" fill="#FF783B"/>
<g clip-path="url(#clip1_1_15687)">
<path d="M27.5147 26.011H11.0155C9.87691 26.011 8.95312 26.9348 8.95312 28.0734V30.8232C8.95312 31.9619 9.87691 32.8856 11.0155 32.8856H27.5147C27.8907 32.8856 28.2022 32.5741 28.2022 32.1982V26.6984C28.2022 26.3246 27.8928 26.011 27.5147 26.011ZM26.1398 30.8232H18.5776V28.0734H26.1398V30.8232ZM31.9832 26.011H29.9208C29.7318 26.011 29.5771 26.1657 29.5771 26.3547V32.5419C29.5771 32.7299 29.7329 32.8856 29.9208 32.8856H31.9832C32.1712 32.8856 32.327 32.7299 32.327 32.5419V26.3547C32.327 26.1657 32.1723 26.011 31.9832 26.011ZM36.108 26.011H34.0456C33.8566 26.011 33.7019 26.1657 33.7019 26.3547V32.5419C33.7019 32.7299 33.8577 32.8856 34.0456 32.8856H36.108C36.296 32.8856 36.4518 32.7299 36.4518 32.5419V26.3547C36.4518 26.1657 36.2971 26.011 36.108 26.011ZM32.7266 14.6304C32.4816 14.4637 32.327 14.2003 32.327 13.9051V11.2305C32.327 11.0425 32.1723 10.8867 31.9832 10.8867H29.9208C29.7318 10.8867 29.5771 11.0425 29.5771 11.2305V13.9051C29.5771 14.8504 30.0175 15.7742 30.8068 16.2898C32.6191 17.4606 33.7019 19.4586 33.7019 21.6198V22.9174C33.7019 23.1064 33.8566 23.2611 34.0456 23.2611H36.108C36.2971 23.2611 36.4518 23.1064 36.4518 22.9174V21.6198C36.4518 18.8055 35.0596 16.1931 32.7266 14.6304ZM29.9122 16.9708C28.881 16.2575 28.2022 15.1512 28.2022 13.9051V11.2305C28.2022 11.0425 28.0475 10.8867 27.8584 10.8867H25.796C25.607 10.8867 25.4523 11.0425 25.4523 11.2305V14.0826C25.4523 15.9611 26.5093 17.5895 28.0432 18.668C29.0099 19.3426 29.5771 20.4382 29.5771 21.6198V22.9174C29.5771 23.1064 29.7318 23.2611 29.9208 23.2611H31.9832C32.1723 23.2611 32.327 23.1064 32.327 22.9174V21.6198C32.327 19.755 31.4247 18.0321 29.9122 16.9708Z" fill="white"/>
</g>
</g>
<defs>
<clipPath id="clip0_1_15687">
<rect x="0.949219" width="43.9978" height="43.9978" rx="21.9989" fill="white"/>
</clipPath>
<clipPath id="clip1_1_15687">
<rect width="27.4986" height="21.9989" fill="white" transform="translate(8.95117 10.8867)"/>
</clipPath>
</defs>
</svg>
