<svg width="29" height="28" viewBox="0 0 29 28" fill="none" xmlns="http://www.w3.org/2000/svg">
<rect x="0.949219" width="28" height="28" rx="8" fill="#FFDE59"/>
<path d="M15.6157 15.3333H12.9491C12.7722 15.3333 12.6027 15.4036 12.4777 15.5286C12.3526 15.6536 12.2824 15.8232 12.2824 16C12.2824 16.1768 12.3526 16.3464 12.4777 16.4714C12.6027 16.5964 12.7722 16.6667 12.9491 16.6667H15.6157C15.7925 16.6667 15.9621 16.5964 16.0871 16.4714C16.2122 16.3464 16.2824 16.1768 16.2824 16C16.2824 15.8232 16.2122 15.6536 16.0871 15.5286C15.9621 15.4036 15.7925 15.3333 15.6157 15.3333ZM18.2824 8.66667H17.4957C17.3582 8.27763 17.1037 7.94066 16.7671 7.70196C16.4305 7.46325 16.0284 7.33449 15.6157 7.33333H14.2824C13.8698 7.33449 13.4676 7.46325 13.131 7.70196C12.7944 7.94066 12.5399 8.27763 12.4024 8.66667H11.6157C11.0853 8.66667 10.5766 8.87738 10.2015 9.25245C9.82644 9.62752 9.61572 10.1362 9.61572 10.6667V18.6667C9.61572 19.1971 9.82644 19.7058 10.2015 20.0809C10.5766 20.456 11.0853 20.6667 11.6157 20.6667H18.2824C18.8128 20.6667 19.3215 20.456 19.6966 20.0809C20.0717 19.7058 20.2824 19.1971 20.2824 18.6667V10.6667C20.2824 10.1362 20.0717 9.62752 19.6966 9.25245C19.3215 8.87738 18.8128 8.66667 18.2824 8.66667ZM13.6157 9.33333C13.6157 9.15652 13.686 8.98695 13.811 8.86193C13.936 8.7369 14.1056 8.66667 14.2824 8.66667H15.6157C15.7925 8.66667 15.9621 8.7369 16.0871 8.86193C16.2122 8.98695 16.2824 9.15652 16.2824 9.33333V10H13.6157V9.33333ZM18.9491 18.6667C18.9491 18.8435 18.8788 19.013 18.7538 19.1381C18.6288 19.2631 18.4592 19.3333 18.2824 19.3333H11.6157C11.4389 19.3333 11.2693 19.2631 11.1443 19.1381C11.0193 19.013 10.9491 18.8435 10.9491 18.6667V10.6667C10.9491 10.4899 11.0193 10.3203 11.1443 10.1953C11.2693 10.0702 11.4389 10 11.6157 10H12.2824V10.6667C12.2824 10.8435 12.3526 11.013 12.4777 11.1381C12.6027 11.2631 12.7722 11.3333 12.9491 11.3333H16.9491C17.1259 11.3333 17.2954 11.2631 17.4205 11.1381C17.5455 11.013 17.6157 10.8435 17.6157 10.6667V10H18.2824C18.4592 10 18.6288 10.0702 18.7538 10.1953C18.8788 10.3203 18.9491 10.4899 18.9491 10.6667V18.6667ZM16.9491 12.6667H12.9491C12.7722 12.6667 12.6027 12.7369 12.4777 12.8619C12.3526 12.987 12.2824 13.1565 12.2824 13.3333C12.2824 13.5101 12.3526 13.6797 12.4777 13.8047C12.6027 13.9298 12.7722 14 12.9491 14H16.9491C17.1259 14 17.2954 13.9298 17.4205 13.8047C17.5455 13.6797 17.6157 13.5101 17.6157 13.3333C17.6157 13.1565 17.5455 12.987 17.4205 12.8619C17.2954 12.7369 17.1259 12.6667 16.9491 12.6667Z" fill="white"/>
</svg>
