<svg width="45" height="44" viewBox="0 0 45 44" fill="none" xmlns="http://www.w3.org/2000/svg">
<rect x="0.949219" width="43.9978" height="43.9978" rx="21.9989" fill="#FF696A"/>
<g clip-path="url(#clip0_1_15674)">
<path d="M14.5081 15.0302C15.2764 14.2444 16.3171 13.8042 17.401 13.8042C18.4848 13.8042 19.5256 14.2444 20.2939 15.0302C21.0624 15.8162 21.4952 16.8836 21.4952 17.9977C21.4952 19.1119 21.0624 20.1792 20.2939 20.9652C19.5256 21.751 18.4848 22.1913 17.401 22.1913C16.3171 22.1913 15.2764 21.751 14.5081 20.9652C13.7396 20.1792 13.3067 19.1119 13.3067 17.9977C13.3067 16.8836 13.7396 15.8162 14.5081 15.0302ZM12.5902 14.8054C11.9859 15.756 11.6645 16.8649 11.6645 17.9977C11.6644 19.4488 12.1914 20.8492 13.1446 21.9269C14.0423 22.942 15.2581 23.6029 16.5799 23.7981V25.5427H14.6702C14.4504 25.5427 14.2409 25.632 14.0874 25.789C13.9341 25.9458 13.8491 26.1571 13.8491 26.3762C13.8491 26.5954 13.9341 26.8067 14.0874 26.9635C14.2409 27.1204 14.4504 27.2098 14.6702 27.2098H16.5799V29.7277C16.5799 29.9468 16.6649 30.1581 16.8182 30.3149C16.9717 30.4719 17.1812 30.5612 17.401 30.5612C17.6208 30.5612 17.8303 30.4719 17.9838 30.3149C18.1371 30.1581 18.2221 29.9468 18.2221 29.7277V27.2098H20.1318C20.3516 27.2098 20.5611 27.1204 20.7146 26.9635C20.8679 26.8067 20.9529 26.5954 20.9529 26.3762C20.9529 26.1571 20.8679 25.9458 20.7146 25.789C20.5611 25.632 20.3516 25.5427 20.1318 25.5427H18.2221V23.7981C19.2369 23.6482 20.1949 23.2229 20.9957 22.5651C21.861 21.8543 22.5052 20.9027 22.8512 19.8262C23.1972 18.7497 23.2303 17.5938 22.9466 16.4985C22.6629 15.4032 22.0744 14.4148 21.2515 13.6535C20.4285 12.8922 19.4064 12.3907 18.3091 12.211C17.2117 12.0313 16.087 12.1811 15.0716 12.642C14.0564 13.1029 13.1946 13.8547 12.5902 14.8054Z" fill="white" stroke="white" stroke-width="0.549973"/>
<path d="M24.1468 17.3882C24.3541 17.3882 24.5529 17.3059 24.6994 17.1593L26.9472 14.9115L26.9472 19.9206C25.6798 20.108 24.5187 20.7457 23.6796 21.7213C22.7862 22.7601 22.3263 24.1025 22.3949 25.4709C22.4634 26.8393 23.0553 28.129 24.0481 29.0733C25.0409 30.0175 26.3586 30.5441 27.7287 30.5441C29.0988 30.5441 30.4165 30.0175 31.4093 29.0733C32.402 28.129 32.9939 26.8393 33.0625 25.4709C33.1311 24.1025 32.6711 22.7601 31.7777 21.7213C30.9387 20.7457 29.7776 20.108 28.5101 19.9206L28.5101 14.9115L30.7579 17.1593C30.9045 17.3059 31.1033 17.3882 31.3106 17.3882C31.5178 17.3882 31.7166 17.3059 31.8632 17.1593C32.0098 17.0127 32.0921 16.8139 32.0921 16.6067C32.0921 16.3994 32.0098 16.2006 31.8632 16.054L28.2813 12.4722C28.1347 12.3256 27.936 12.2433 27.7287 12.2433C27.5214 12.2433 27.3226 12.3256 27.1761 12.4722L23.5942 16.054C23.4476 16.2006 23.3653 16.3994 23.3653 16.6067C23.3653 16.8139 23.4476 17.0127 23.5942 17.1593C23.7407 17.3059 23.9395 17.3882 24.1468 17.3882ZM23.9512 25.2032C23.9512 24.2013 24.3492 23.2405 25.0576 22.5321C25.766 21.8237 26.7268 21.4257 27.7287 21.4257C28.7305 21.4257 29.6913 21.8237 30.3997 22.5321C31.1081 23.2405 31.5061 24.2013 31.5061 25.2032C31.5061 26.205 31.1081 27.1658 30.3997 27.8742C29.6913 28.5826 28.7305 28.9806 27.7287 28.9806C26.7268 28.9806 25.766 28.5826 25.0576 27.8742C24.3492 27.1658 23.9512 26.205 23.9512 25.2032Z" fill="white" stroke="white" stroke-width="0.549973"/>
</g>
<defs>
<clipPath id="clip0_1_15674">
<rect width="23.8322" height="23.8322" fill="white" transform="translate(10.9492 10.4238)"/>
</clipPath>
</defs>
</svg>
