<svg width="45" height="44" viewBox="0 0 45 44" fill="none" xmlns="http://www.w3.org/2000/svg">
<rect x="0.949219" width="43.9978" height="43.9978" rx="21.9989" fill="#456EFE"/>
<g clip-path="url(#clip0_1_15709)">
<path d="M24.9677 34.7438C22.3345 34.7438 19.6962 34.7438 17.063 34.7438C16.6065 34.5984 16.451 34.3777 16.446 33.8761C16.4109 31.7495 16.0448 29.678 15.2974 27.6867C14.841 26.4729 14.2441 25.3293 13.5369 24.2409C12.6491 22.8716 12.1325 21.3719 11.982 19.7469C11.8015 17.7857 12.1977 15.9399 13.1206 14.2195C14.0636 12.449 15.4529 11.0948 17.2285 10.1668C18.2868 9.61512 19.4053 9.24395 20.6041 9.13361C23.4429 8.86778 26.001 9.56496 28.1878 11.4308C30.0537 13.0258 31.1972 15.0371 31.5684 17.4747C31.6436 17.9562 31.5885 18.4428 31.5935 18.9243C31.5935 19.14 31.6386 19.3306 31.759 19.5111C32.5063 20.6647 33.2537 21.8234 34.006 22.972C34.1716 23.2227 34.3421 23.4735 34.4775 23.7394C34.7634 24.276 34.4173 24.908 33.8104 24.9482C32.9026 25.0033 32.2204 25.3996 31.8092 26.2221C31.7189 26.4077 31.5734 26.4579 31.3828 26.4579C30.7057 26.4529 30.0336 26.4579 29.3565 26.4579C29.1007 26.4579 28.875 26.5331 28.7245 26.7538C28.579 26.9695 28.5489 27.1952 28.6693 27.441C28.7997 27.7018 29.0204 27.8171 29.2963 27.8222C29.838 27.8322 30.3797 27.8272 30.9214 27.8272C31.0117 27.8272 31.107 27.8272 31.1972 27.8272C31.5483 27.8322 31.5885 27.8673 31.5885 28.2134C31.5885 29.0711 31.5935 29.9338 31.5885 30.7915C31.5885 31.3883 31.2524 31.7143 30.6505 31.7143C29.7678 31.7194 28.88 31.7495 27.9972 31.7043C26.8486 31.6491 25.68 32.4868 25.5847 33.9313C25.5746 34.0918 25.5345 34.2423 25.4693 34.3877C25.374 34.6084 25.1834 34.6887 24.9677 34.7438Z" fill="white"/>
<path d="M21.1087 13.6973C20.903 13.4666 20.7074 13.2309 20.4917 13.0102C20.1406 12.649 20.1055 12.1976 20.4165 11.8816C20.7224 11.5707 21.1789 11.5857 21.53 11.9268C22.2573 12.624 22.9845 13.3262 23.7118 14.0284C24.1131 14.4196 24.108 14.9011 23.6867 15.2622C22.9494 15.8992 22.2121 16.5362 21.4698 17.1732C21.1839 17.414 20.8829 17.4441 20.592 17.2886C20.3212 17.1381 20.1757 16.8522 20.2108 16.5362C20.2359 16.3155 20.3563 16.155 20.5218 16.0146C20.8328 15.7488 21.1387 15.4829 21.4898 15.177C20.9732 15.192 20.5469 15.3325 20.1356 15.5281C18.6158 16.2553 17.8585 17.8353 18.034 19.3099C18.2447 21.1106 19.6742 22.3845 21.2391 22.6002C23.6516 22.9313 25.7382 20.925 25.4824 18.5124C25.4172 17.8704 25.2015 17.2886 24.8403 16.7519C24.74 16.6014 24.6347 16.451 24.6146 16.2604C24.5845 15.9193 24.7701 15.6083 25.0861 15.4829C25.4021 15.3575 25.7432 15.4428 25.9588 15.7287C26.5005 16.4359 26.8466 17.2334 26.962 18.1162C27.2027 20.0171 26.6009 21.6121 25.1664 22.8811C22.9595 24.8272 19.3782 24.451 17.6177 22.0987C15.6415 19.4554 16.3839 15.9143 19.2478 14.2942C19.7745 13.9983 20.3412 13.8077 20.9381 13.7224C21.0134 13.7124 21.0886 13.7174 21.1087 13.6973Z" fill="#456EFE"/>
</g>
<defs>
<clipPath id="clip0_1_15709">
<rect width="22.6359" height="25.6654" fill="white" transform="translate(11.9492 9.08008)"/>
</clipPath>
</defs>
</svg>
