<svg width="45" height="44" viewBox="0 0 45 44" fill="none" xmlns="http://www.w3.org/2000/svg">
<rect x="0.949219" width="43.9978" height="43.9978" rx="21.9989" fill="#1CCD9D"/>
<path d="M28.706 23.1043C28.1189 22.8222 27.6928 22.2933 27.5361 21.6609C27.0007 19.5013 25.0496 17.9004 22.7244 17.9004C20.3992 17.9004 18.4481 19.5012 17.9127 21.6609C17.756 22.2933 17.33 22.8222 16.7428 23.1043C15.0629 23.9114 13.9082 25.6374 13.93 27.6308C13.96 30.3604 16.2293 32.5706 18.9587 32.5318C19.9219 32.5181 20.8185 32.2297 21.5739 31.7415C22.2725 31.29 23.1761 31.29 23.8748 31.7415C24.6302 32.2297 25.5268 32.5182 26.4899 32.5318C29.2194 32.5706 31.4888 30.3604 31.5187 27.6308C31.5407 25.6374 30.3859 23.9114 28.706 23.1043Z" fill="white"/>
<path d="M28.7168 23.1043C28.1297 22.8222 27.7036 22.2933 27.5469 21.6609C27.0115 19.5013 25.0604 17.9004 22.7352 17.9004C22.5169 17.9004 22.302 17.9145 22.0912 17.9419C23.1744 18.5064 23.9887 19.5163 24.2893 20.7295C24.4258 21.2801 24.7967 21.7406 25.3081 21.9862C26.7708 22.689 27.7763 24.1919 27.7572 25.9275C27.7312 28.3043 25.7551 30.2288 23.3785 30.1951C22.5398 30.1832 21.7591 29.9321 21.1013 29.5069C20.493 29.1137 19.7062 29.1137 19.0978 29.5069C18.4401 29.9321 17.6594 30.1832 16.8207 30.1951C15.8869 30.2083 15.0149 29.9191 14.2988 29.419C15.0448 31.2619 16.871 32.5616 18.9695 32.5318C19.9327 32.518 20.8293 32.2297 21.5846 31.7415C22.2833 31.2899 23.1869 31.2899 23.8856 31.7415C24.641 32.2297 25.5376 32.5181 26.5007 32.5318C29.2302 32.5705 31.4995 30.3603 31.5295 27.6307C31.5514 25.6374 30.3967 23.9114 28.7168 23.1043Z" fill="white"/>
<path d="M14.3783 17.0963C15.5974 18.3154 15.8404 20.0488 14.9211 20.968C14.0019 21.8873 12.2684 21.6443 11.0494 20.4252C9.83034 19.2061 9.58737 17.4727 10.5066 16.5535C11.4258 15.6342 13.1593 15.8772 14.3783 17.0963Z" fill="white"/>
<path d="M11.0176 16.1981C11.6018 16.3559 12.1917 16.692 12.6942 17.1945C13.9133 18.4136 14.1562 20.147 13.237 21.0662C13.0884 21.2148 12.9182 21.3326 12.7327 21.4213C13.5658 21.6463 14.3875 21.508 14.9278 20.9676C15.847 20.0483 15.6041 18.3148 14.385 17.0959C13.363 16.074 11.9798 15.7384 11.0176 16.1981Z" fill="white"/>
<path d="M20.9335 13.0065C21.3797 14.6718 20.7234 16.2945 19.4677 16.631C18.2119 16.9675 16.8322 15.8903 16.386 14.2251C15.9398 12.5598 16.5961 10.9371 17.8518 10.6006C19.1076 10.2641 20.4873 11.3413 20.9335 13.0065Z" fill="white"/>
<path d="M18.4681 10.5469C18.8952 10.9757 19.238 11.5617 19.4219 12.2481C19.8681 13.9134 19.2118 15.5361 17.9561 15.8726C17.753 15.927 17.5468 15.9439 17.3418 15.9279C17.9508 16.5393 18.7315 16.8303 19.4696 16.6325C20.7254 16.296 21.3817 14.6733 20.9354 13.0081C20.5614 11.6121 19.5312 10.6299 18.4681 10.5469Z" fill="white"/>
<path d="M29.1191 14.2251C28.6729 15.8903 27.2932 16.9675 26.0374 16.631C24.7816 16.2945 24.1253 14.6718 24.5716 13.0065C25.0178 11.3413 26.3975 10.2641 27.6532 10.6006C28.909 10.9371 29.5653 12.5598 29.1191 14.2251Z" fill="white"/>
<path d="M28.2128 10.8613C28.3684 11.4462 28.3721 12.1251 28.1882 12.8116C27.742 14.4768 26.3623 15.554 25.1066 15.2175C24.9035 15.1631 24.7165 15.0746 24.5469 14.9582C24.7686 15.7922 25.2992 16.4347 26.0373 16.6325C27.2931 16.969 28.6728 15.8918 29.119 14.2265C29.4931 12.8305 29.092 11.4648 28.2128 10.8613Z" fill="white"/>
<path d="M34.4486 20.4252C33.2296 21.6443 31.4962 21.8873 30.5769 20.968C29.6577 20.0488 29.9007 18.3153 31.1197 17.0963C32.3388 15.8772 34.0722 15.6342 34.9915 16.5535C35.9107 17.4727 35.6677 19.2061 34.4486 20.4252Z" fill="white"/>
<path d="M35.3461 17.0605C35.1883 17.6448 34.8522 18.2347 34.3497 18.7372C33.1306 19.9562 31.3972 20.1992 30.4779 19.28C30.3293 19.1314 30.2115 18.9612 30.1229 18.7757C29.8979 19.6088 30.0362 20.4304 30.5766 20.9708C31.4959 21.89 33.2293 21.647 34.4483 20.4279C35.4702 19.406 35.8058 18.0227 35.3461 17.0605Z" fill="white"/>
</svg>
