<svg width="45" height="45" viewBox="0 0 45 45" fill="none" xmlns="http://www.w3.org/2000/svg">
<rect x="0.949219" y="0.998047" width="43.9978" height="43.9978" rx="21.9989" fill="#8581FF"/>
<g clip-path="url(#clip0_1_15773)">
<path d="M22.7631 10.998C22.9081 11.0341 23.0531 11.0701 23.1921 11.1181C24.3524 11.4842 25.0716 12.6426 24.8782 13.837C24.6848 15.0194 23.6514 15.8958 22.4488 15.8958C21.2462 15.8958 20.2068 15.0194 20.0194 13.837C19.8079 12.5286 20.6963 11.2801 22.0076 11.0461C22.05 11.0401 22.0923 11.0161 22.1346 11.004C22.3461 10.998 22.5515 10.998 22.7631 10.998Z" fill="white"/>
<path d="M22.4732 21.0636C25.3619 21.0636 28.2445 21.0636 31.1332 21.0636C31.6952 21.0636 31.949 21.3157 31.949 21.8679C31.949 22.9543 31.949 24.0407 31.949 25.121C31.949 25.6492 31.6892 25.9073 31.1634 25.9073C25.3558 25.9073 19.5422 25.9073 13.7347 25.9073C13.221 25.9073 12.9551 25.6432 12.9551 25.133C12.9551 24.0407 12.9551 22.9483 12.9551 21.8559C12.9551 21.3157 13.2089 21.0576 13.7528 21.0576C16.6596 21.0636 19.5664 21.0636 22.4732 21.0636ZM23.1259 23.4825C23.1259 23.1163 22.8116 22.8102 22.443 22.8102C22.0744 22.8102 21.7661 23.1223 21.7661 23.4885C21.7661 23.8546 22.0804 24.1607 22.449 24.1607C22.8177 24.1607 23.1259 23.8486 23.1259 23.4825Z" fill="white"/>
<path d="M16.0078 27.2695C20.3106 27.2695 24.5832 27.2695 28.892 27.2695C28.8316 27.5756 28.7772 27.8697 28.7168 28.1638C28.3784 29.8864 28.0339 31.609 27.6955 33.3316C27.6048 33.7998 27.3752 33.9979 26.8857 33.9979C23.9245 33.9979 20.9633 33.9979 18.0021 33.9979C17.5307 33.9979 17.295 33.7938 17.2104 33.3436C16.8297 31.399 16.4429 29.4543 16.0562 27.5156C16.038 27.4376 16.0259 27.3656 16.0078 27.2695Z" fill="white"/>
<path d="M17.2527 19.6948C17.2527 19.1966 17.2466 18.7164 17.2527 18.2363C17.2587 17.9602 17.3796 17.7381 17.6395 17.6301C18.8965 17.1079 20.1837 16.7117 21.5434 16.5677C21.6099 16.5617 21.6763 16.5677 21.767 16.5677C21.767 16.9398 21.767 17.2999 21.767 17.6661C21.767 18.1222 22.045 18.4283 22.4438 18.4283C22.8427 18.4283 23.1207 18.1222 23.1207 17.6661C23.1207 17.2999 23.1207 16.9338 23.1207 16.5137C23.6948 16.6157 24.2447 16.6697 24.7645 16.8138C25.5743 17.0359 26.3659 17.318 27.1636 17.588C27.4839 17.6961 27.641 17.9362 27.641 18.2723C27.641 18.7404 27.641 19.2146 27.641 19.6888C24.1722 19.6948 20.7155 19.6948 17.2527 19.6948Z" fill="white"/>
<path d="M30.8613 19.7066C30.402 19.7066 29.9669 19.7066 29.5076 19.7066C29.5076 19.2444 29.4956 18.7943 29.5137 18.3381C29.5258 18.122 29.4472 18.002 29.2659 17.888C28.9154 17.6719 28.5709 17.4378 28.2325 17.2037C27.8699 16.9576 27.7732 16.5615 28.0029 16.2314C28.2204 15.9133 28.6253 15.8473 28.9819 16.0813C29.5016 16.4235 30.0213 16.7716 30.541 17.1197C30.7344 17.2457 30.8613 17.4258 30.8613 17.6539C30.8674 18.3321 30.8613 19.0044 30.8613 19.7066Z" fill="white"/>
<path d="M15.391 19.7073C14.9257 19.7073 14.4966 19.7073 14.0312 19.7073C14.0312 19.5752 14.0312 19.4492 14.0312 19.3232C14.0312 18.801 14.0312 18.2728 14.0312 17.7506C14.0312 17.4805 14.134 17.2764 14.3576 17.1264C14.8773 16.7843 15.397 16.4361 15.9167 16.094C16.2733 15.8599 16.6722 15.926 16.8958 16.2441C17.1194 16.5682 17.0287 16.9703 16.6661 17.2164C16.3216 17.4505 15.9832 17.6846 15.6327 17.9007C15.4514 18.0087 15.3789 18.1287 15.3849 18.3448C15.4091 18.789 15.391 19.2331 15.391 19.7073Z" fill="white"/>
</g>
<defs>
<clipPath id="clip0_1_15773">
<rect width="19" height="23" fill="white" transform="translate(12.9492 10.998)"/>
</clipPath>
</defs>
</svg>
