<svg width="96" height="96" viewBox="0 0 96 96" fill="none" xmlns="http://www.w3.org/2000/svg">
<rect width="96" height="96" rx="48" fill="#456EFE" fill-opacity="0.05"/>
<g clip-path="url(#clip0_1_24614)">
<path d="M42.6253 46.8918L42.6253 46.8918C40.6416 46.097 38.6551 45.3078 36.6649 44.5252C36.0439 44.281 35.4894 44.3365 35.0916 44.6085C34.6938 44.8806 34.4383 45.3792 34.4361 46.0509C34.4295 48.5492 34.4323 51.0484 34.4351 53.5478C34.4361 54.0239 34.517 54.3663 34.7008 54.6329C34.8847 54.8997 35.1787 55.101 35.6274 55.28C37.599 56.0664 39.5706 56.8519 41.5432 57.6346C41.5432 57.6346 41.5432 57.6346 41.5432 57.6346L41.5155 57.7043C42.8372 58.2283 43.8739 57.5371 43.8823 56.1239L42.6253 46.8918ZM42.6253 46.8918C43.0912 47.0782 43.3817 47.2754 43.5587 47.5433C43.736 47.8115 43.8073 48.1623 43.8082 48.6735C43.8095 49.5015 43.8091 50.3291 43.8087 51.1569C43.8085 51.5709 43.8082 51.9849 43.8082 52.3991C43.8082 52.7913 43.8088 53.1835 43.8094 53.5757C43.8106 54.4251 43.8118 55.2744 43.8073 56.1235L42.6253 46.8918ZM37.4551 48.5011C37.4623 49.5048 37.4607 50.5084 37.4591 51.5124C37.4587 51.8263 37.4582 52.1402 37.4579 52.4542V52.4542C37.4579 52.5246 37.4594 52.6039 37.4911 52.6748C37.5253 52.7512 37.5892 52.8079 37.6907 52.8473C38.4062 53.1252 39.1185 53.4114 39.856 53.7078C40.127 53.8168 40.4014 53.9271 40.6807 54.0388L40.7836 54.08L37.5301 48.5006M37.4551 48.5011L37.5301 48.5006M37.4551 48.5011C37.4551 48.5012 37.4552 48.5013 37.4552 48.5013L37.5301 48.5006M37.4551 48.5011C37.4544 48.4268 37.4615 48.3645 37.4802 48.3152C37.5 48.2631 37.5341 48.2228 37.5851 48.2033C37.632 48.1852 37.6821 48.1893 37.7262 48.1989C37.771 48.2087 37.8195 48.2265 37.8682 48.2461M37.5301 48.5006C37.5273 48.2185 37.6478 48.2381 37.8402 48.3157M37.8682 48.2461L37.8402 48.3157M37.8682 48.2461C37.8682 48.2461 37.8682 48.2461 37.8683 48.2461L37.8402 48.3157M37.8682 48.2461C37.9535 48.2804 38.0388 48.3147 38.1241 48.349C38.9149 48.6669 39.7048 48.9845 40.4986 49.2937L40.4986 49.2938C40.5881 49.3287 40.6634 49.3732 40.7147 49.4425C40.7668 49.5129 40.7869 49.5989 40.7864 49.702C40.7864 49.702 40.7864 49.7021 40.7864 49.7021L37.8402 48.3157M28.0942 33.8333C28.1052 31.0178 30.2982 28.9595 33.0436 29.08L33.0437 29.08C33.8836 29.1167 34.6358 29.4491 35.4045 29.7937L35.4045 29.7937C37.2208 30.6073 39.0379 31.4187 40.8551 32.2302C43.0707 33.2196 45.2864 34.209 47.5007 35.2024C48.1097 35.4764 48.6714 35.4251 49.2611 35.1604L49.2612 35.1604C53.1198 33.4266 56.9839 31.704 60.8479 29.9814C61.174 29.836 61.5001 29.6906 61.8261 29.5453C64.6994 28.2647 67.7976 29.7829 68.4725 32.7967C68.5659 33.2142 68.5818 33.6427 68.5818 34.0767V44.7907C68.5818 45.9863 68.5819 47.1818 68.582 48.3773C68.5822 50.7684 68.5824 53.1594 68.5818 55.5504C68.5818 56.7546 68.3298 57.7328 67.8042 58.5228C67.2786 59.3128 66.4748 59.9217 65.3584 60.379C62.1449 61.6951 58.9284 63.0042 55.7119 64.3134C53.8905 65.0548 52.069 65.7961 50.2482 66.5387L50.2765 66.6081L50.2482 66.5387C48.9494 67.0689 47.6725 67.0463 46.3681 66.5117L46.3397 66.5811L46.3681 66.5117C43.9285 65.512 41.4873 64.5208 39.0463 63.5295C36.4057 62.4573 33.7653 61.3851 31.1271 60.3024C30.1391 59.8969 29.384 59.3177 28.8748 58.5772C28.3656 57.8369 28.0988 56.9305 28.0951 55.865C28.0699 48.521 28.0671 41.1771 28.0942 33.8333ZM28.0942 33.8333L28.0192 33.833M28.0942 33.8333L28.0192 33.833M28.0192 33.833C28.0304 30.9749 30.2589 28.8827 33.0469 29.0051C33.9034 29.0425 34.6684 29.3815 35.4352 29.7252L28.0192 33.833ZM49.2725 63.5997L49.3009 63.6691C48.6334 63.9428 48.0367 63.9418 47.3666 63.6663C43.4935 62.0731 39.6143 60.4958 35.7348 58.9185C34.6335 58.4707 33.5323 58.0229 32.4312 57.5748C31.935 57.3729 31.5997 57.1575 31.3916 56.845C31.1835 56.5327 31.1104 56.1355 31.1104 55.5888C31.1095 52.0022 31.1095 48.4156 31.1095 44.8299C31.1095 43.9254 31.1095 43.0209 31.1094 42.1164C31.1092 39.403 31.109 36.6899 31.1104 33.9768V33.9767C31.1109 33.4907 31.2179 33.0877 31.432 32.777C31.6468 32.4654 31.9648 32.2533 32.3744 32.142L49.2725 63.5997ZM49.2725 63.5997L49.3009 63.6691C52.8172 62.2261 56.3386 60.7942 59.8599 59.3622C61.3481 58.757 62.8364 58.1519 64.3242 57.5458C64.7643 57.3667 65.0758 57.1498 65.2755 56.8476C65.4749 56.5456 65.5562 56.1685 65.5562 55.6822C65.5581 48.4474 65.559 41.2116 65.5562 33.9768C65.5557 33.2196 65.2714 32.6477 64.7979 32.3465C64.3248 32.0455 63.6811 32.0265 62.9858 32.3364L62.9858 32.3364C61.7397 32.8924 60.4933 33.4476 59.2469 34.0027C56.3313 35.3012 53.4158 36.5998 50.5054 37.9097L50.5054 37.9097C49.0446 38.5678 47.6287 38.5687 46.1642 37.9069L46.1641 37.9069C43.3313 36.6277 40.491 35.3631 37.651 34.0987C36.3145 33.5036 34.9781 32.9086 33.6426 32.3121L33.6426 32.3121M49.2725 63.5997L33.6426 32.3121M33.6426 32.3121C33.2455 32.1349 32.8317 32.0175 32.3744 32.142L33.6426 32.3121ZM34.5823 37.9582L34.5824 37.9581C34.9155 37.2355 35.7365 36.869 36.4763 37.1823C38.6567 38.1067 40.8278 39.0564 42.9906 40.022C43.5296 40.2627 43.7909 40.7368 43.8045 41.2708C43.8122 42.411 42.7649 43.1662 41.7779 42.7545C39.5923 41.8423 37.4233 40.889 35.2633 39.916L35.2632 39.9159C34.5117 39.5782 34.2391 38.7009 34.5823 37.9582ZM46.8684 59.4425L46.8684 59.4425C46.8247 59.2627 46.8238 59.0674 46.8229 58.8681L46.8228 58.8605C46.82 56.2986 46.821 53.7367 46.8219 51.1747V51.1747C46.8219 50.4545 46.8215 49.7345 46.8211 49.0144C46.82 47.095 46.8189 45.1757 46.8256 43.2564C46.8283 42.4597 47.4157 41.8269 48.1759 41.7504C48.9304 41.6748 49.6112 42.1537 49.8003 42.9037C49.832 43.0295 49.8438 43.1649 49.8438 43.2991V43.3038C49.8457 48.5504 49.8475 53.797 49.8429 59.0436V59.0436C49.8429 59.8775 49.2687 60.5161 48.4905 60.5961L48.4904 60.5961C47.7424 60.6735 47.0492 60.1889 46.8684 59.4425ZM60.1092 52.3973L60.0826 52.3272L60.1092 52.3973C60.9481 52.0792 61.7793 52.4258 62.1037 53.2041C62.4363 54.0045 62.0826 54.8515 61.2276 55.1979L61.2275 55.198C59.5781 55.8672 57.924 56.5253 56.2696 57.1835C55.8371 57.3556 55.4045 57.5277 54.972 57.7C54.7717 57.7794 54.5755 57.8324 54.4092 57.8164L54.4092 57.8161H54.402C53.6513 57.8161 53.0249 57.3128 52.8905 56.6425L52.8905 56.6425C52.738 55.8836 53.0994 55.1994 53.852 54.8942L53.8521 54.8942C54.8469 54.4902 55.8447 54.0946 56.8429 53.6989C57.3421 53.5009 57.8414 53.303 58.3405 53.1039C58.5451 53.0223 58.7486 52.9396 58.9518 52.8571C59.3368 52.7006 59.7208 52.5445 60.1092 52.3973ZM53.8723 39.9252L53.8724 39.9252C54.8589 39.4974 55.8424 39.0675 56.8258 38.6377C57.8718 38.1805 58.9176 37.7233 59.9667 37.2689C60.5753 37.0056 61.1363 37.05 61.5449 37.3151C61.9534 37.5801 62.2229 38.0744 62.2306 38.7383C62.2395 39.5238 62.2371 40.3089 62.2347 41.0947C62.2336 41.4576 62.2324 41.8206 62.2324 42.1839V42.184C62.2325 42.2414 62.2325 42.2988 62.2326 42.3562C62.2326 42.3993 62.2327 42.4424 62.2327 42.4854C62.2328 42.6146 62.233 42.7438 62.2331 42.8729C62.2342 43.7921 62.2352 44.7111 62.2315 45.6301C62.2297 46.0963 62.149 46.4395 61.9701 46.7075C61.7914 46.9752 61.5081 47.1774 61.0812 47.3484C59.0676 48.1545 57.054 48.9577 55.0359 49.7505L55.0633 49.8203L55.0359 49.7505C54.4501 49.9808 53.9097 49.9225 53.5166 49.6593C53.1237 49.3961 52.8667 48.9206 52.8631 48.2928C52.8548 46.846 52.8562 45.3991 52.8577 43.9521C52.8586 43.1171 52.8594 42.282 52.8584 41.4469C52.8584 41.0749 52.9442 40.7687 53.1112 40.5197C53.2782 40.2706 53.5303 40.0731 53.8723 39.9252ZM58.9593 44.939L58.9593 44.939C59.0488 44.9039 59.1156 44.8563 59.1578 44.7868C59.1991 44.7186 59.2106 44.6395 59.2106 44.5544L59.2105 44.5542C59.2078 43.689 59.2081 42.8234 59.2084 41.9298C59.2086 41.6273 59.2087 41.3217 59.2087 41.0117V40.8975L59.1038 40.9429C58.8412 41.0568 58.5817 41.1696 58.3244 41.2814C57.5668 41.6105 56.8288 41.9311 56.0892 42.2476L56.089 42.2477C56.018 42.2783 55.9639 42.3202 55.929 42.3782C55.8947 42.4354 55.884 42.5001 55.884 42.5669V42.5669C55.8846 43.3266 55.8844 44.0862 55.8842 44.8608C55.8841 45.2539 55.884 45.6508 55.884 46.0535V46.1643L55.9869 46.1231C56.1829 46.0446 56.3771 45.9668 56.5699 45.8895C57.3823 45.5639 58.1692 45.2484 58.9593 44.939Z" fill="#1C1C1C" stroke="#F6F8FF" stroke-width="0.15"/>
<path d="M34.56 37.9453L34.56 37.9454C34.2116 38.6992 34.4877 39.5923 35.2533 39.9364L35.2534 39.9364C37.4135 40.9095 39.5827 41.863 41.7687 42.7752C42.7744 43.1948 43.8378 42.4239 43.8299 41.268C43.8162 40.7255 43.5501 40.242 43.0011 39.9968C40.8382 39.0312 38.667 38.0814 36.4864 37.1569L34.56 37.9453ZM34.56 37.9453C34.8983 37.2117 35.7329 36.8379 36.4864 37.1569L34.56 37.9453ZM60.1007 52.3716L60.1007 52.3716C59.712 52.5189 59.3275 52.6752 58.9423 52.8318C58.7391 52.9143 58.5358 52.9969 58.3316 53.0784C57.8326 53.2774 57.3333 53.4753 56.8341 53.6733C55.8359 54.069 54.8379 54.4647 53.843 54.8687L53.843 54.8688C53.0794 55.1784 52.7115 55.8742 52.8664 56.6451L52.8664 56.6451C53.0033 57.3279 53.6407 57.8388 54.4024 57.8388H54.4072L54.4071 57.839C54.5797 57.8555 54.7805 57.8006 54.9816 57.7209C55.4139 57.5487 55.8463 57.3767 56.2786 57.2047C57.9332 56.5464 59.5876 55.8882 61.2373 55.2188L61.2373 55.2188C62.1047 54.8673 62.4653 54.006 62.1271 53.1922L60.1007 52.3716ZM60.1007 52.3716C60.9514 52.049 61.7973 52.4006 62.1271 53.1922L60.1007 52.3716ZM42.6349 46.8663L42.635 46.8663C43.1028 47.0534 43.3988 47.2531 43.5799 47.5272C43.7612 47.8015 43.8327 48.1582 43.8336 48.6712C43.8349 49.4992 43.8344 50.3268 43.834 51.1546C43.8338 51.5686 43.8336 51.9826 43.8336 52.3968C43.8336 52.7889 43.8342 53.1811 43.8347 53.5732C43.8359 54.4227 43.8371 55.2722 43.8327 56.1213C43.8285 56.8159 43.5722 57.3242 43.164 57.5966C42.7557 57.8691 42.1842 57.9131 41.5343 57.6555C39.5618 56.8728 37.5901 56.0873 35.6184 55.3009C35.1675 55.121 34.8684 54.9173 34.6806 54.6447C34.4928 54.3723 34.4114 54.0242 34.4105 53.5455C34.4077 51.0461 34.4049 48.5468 34.4114 46.0485L34.3614 46.0484L34.4114 46.0485C34.4137 45.3705 34.6718 44.8633 35.0779 44.5855C35.4839 44.3079 36.0475 44.2531 36.6744 44.4996L36.6927 44.4531L36.6744 44.4996C38.6647 45.2823 40.6512 46.0715 42.6349 46.8663ZM40.6903 54.0133L40.7589 54.0407L40.7117 49.6994L40.7617 49.6996C40.7617 49.6996 40.7617 49.6996 40.7617 49.6996C40.7622 49.5997 40.7427 49.5196 40.6949 49.4551C40.6477 49.3912 40.5774 49.3489 40.4899 49.3147L40.4898 49.3147C39.6958 49.0054 38.9056 48.6876 38.1148 48.3697C38.0296 48.3354 37.9444 48.3012 37.8592 48.2669C37.8108 48.2474 37.7639 48.2303 37.7212 48.221C37.6791 48.2118 37.6347 48.2088 37.5944 48.2243C37.5515 48.2408 37.5218 48.2748 37.504 48.3217C37.4869 48.3668 37.4798 48.4256 37.4805 48.4986C37.4876 49.5025 37.4861 50.5063 37.4845 51.5103C37.484 51.8241 37.4835 52.138 37.4833 52.4519V52.4519C37.4833 52.5228 37.485 52.5969 37.5143 52.6623C37.5452 52.7313 37.6032 52.784 37.7001 52.8217C38.4157 53.0996 39.1281 53.3859 39.8655 53.6823C40.1366 53.7912 40.4111 53.9015 40.6903 54.0133ZM49.8691 43.2968V43.2968L49.8692 43.3014C49.871 48.5481 49.8729 53.7947 49.8682 59.0413V59.0413C49.8682 59.8874 49.2849 60.5373 48.4934 60.6186L48.4934 60.6186C47.7328 60.6973 47.0282 60.2046 46.8444 59.4461L46.8444 59.4461C46.8001 59.2634 46.7992 59.0656 46.7982 58.8674L46.7982 58.8582C46.7954 56.2963 46.7963 53.7343 46.7973 51.1723V51.1723C46.7973 50.4523 46.7969 49.7324 46.7964 49.0124C46.7953 47.0929 46.7942 45.1735 46.801 43.254L46.801 43.254C46.8037 42.4445 47.4008 41.801 48.1738 41.7232C48.9408 41.6464 49.6329 42.1334 49.8249 42.8953C49.8572 43.0236 49.8691 43.1613 49.8691 43.2968ZM53.8627 39.8999L53.8628 39.8999C54.8488 39.4724 55.8324 39.0424 56.8158 38.6126C57.8622 38.1552 58.9083 37.6979 59.9572 37.2436C60.572 36.9777 61.142 37.0214 61.5588 37.2918C61.9756 37.5621 62.2481 38.065 62.2559 38.7357C62.2649 39.5214 62.2624 40.3069 62.26 41.0928C62.2589 41.4556 62.2578 41.8185 62.2578 42.1816V42.1816C62.258 42.4115 62.2582 42.6413 62.2585 42.8711C62.2595 43.7901 62.2606 44.709 62.2569 45.6279C62.255 46.0967 62.1739 46.4454 61.9913 46.719C61.8087 46.9924 61.5204 47.1973 61.0909 47.3693C59.0772 48.1754 57.0636 48.9786 55.0454 49.7715L55.0636 49.818L55.0454 49.7715C54.4533 50.0042 53.904 49.9462 53.5031 49.6777C53.1022 49.4093 52.8421 48.9254 52.8384 48.2906C52.8301 46.8439 52.8316 45.3971 52.8331 43.9501C52.8339 43.115 52.8348 42.2798 52.8337 41.4446C52.8337 41.0687 52.9205 40.7573 53.0908 40.5035C53.261 40.2495 53.5174 40.0493 53.8627 39.8999ZM55.9094 46.0512V46.1251L55.9779 46.0976C56.1739 46.0192 56.368 45.9413 56.5607 45.8641C57.3731 45.5384 58.1603 45.2229 58.9505 44.9134L58.9323 44.8669L58.9505 44.9134C59.0368 44.8796 59.0983 44.8348 59.1367 44.7715C59.1746 44.7091 59.1859 44.6352 59.1859 44.5521L59.1859 44.5519C59.1831 43.6865 59.1835 42.8206 59.1838 41.9267C59.1839 41.6245 59.184 41.3191 59.184 41.0094V40.9332L59.1141 40.9635C58.8518 41.0773 58.5924 41.19 58.3354 41.3017C57.5775 41.6309 56.8393 41.9517 56.0994 42.2683L56.0993 42.2683C56.0317 42.2974 55.9823 42.3363 55.9508 42.3888C55.9197 42.4406 55.9094 42.5002 55.9094 42.5645V42.5646C55.91 43.3242 55.9098 44.0839 55.9096 44.8585C55.9095 45.2516 55.9094 45.6484 55.9094 46.0512Z" fill="#1C1C1C" stroke="#F6F8FF" stroke-width="0.1"/>
<path d="M42.5792 47.006L42.5791 47.006C40.5957 46.2113 38.6094 45.4222 36.6195 44.6397L36.6195 44.6397C36.0284 44.4072 35.519 44.466 35.1626 44.7098C34.8059 44.9538 34.5636 45.4093 34.5614 46.0495L42.5792 47.006ZM42.5792 47.006C43.0356 47.1886 43.2983 47.3736 43.4548 47.6103C43.612 47.8482 43.6827 48.1694 43.6836 48.6719M42.5792 47.006L43.6836 48.6719M37.9153 48.1283C37.8656 48.1082 37.8089 48.087 37.7531 48.0749C37.6995 48.0633 37.621 48.0539 37.5407 48.0847C37.4496 48.1197 37.3933 48.1913 37.3638 48.2689C37.337 48.3393 37.3297 48.4196 37.3305 48.5002C37.3376 49.5033 37.3361 50.5062 37.3345 51.5101C37.334 51.824 37.3335 52.1381 37.3333 52.4522V52.4524V52.4526C37.3333 52.5203 37.3333 52.6255 37.3774 52.724C37.428 52.8373 37.5214 52.9137 37.6458 52.962C38.3605 53.2395 39.0718 53.5254 39.809 53.8217C40.0802 53.9307 40.3549 54.0411 40.6346 54.153L40.9089 54.2628L40.9117 49.7009C40.9117 49.7008 40.9117 49.7007 40.9117 49.7007C40.9123 49.5813 40.889 49.4656 40.8155 49.3663C40.744 49.2697 40.6436 49.2143 40.5445 49.1755L40.5443 49.1754C39.7511 48.8664 38.9617 48.549 38.1708 48.231C38.0856 48.1967 38.0004 48.1625 37.9153 48.1283ZM37.9153 48.1283C37.9153 48.1283 37.9153 48.1283 37.9153 48.1283L37.8406 48.3138M37.9153 48.1283C37.9152 48.1283 37.9152 48.1282 37.9152 48.1282L37.8406 48.3138M37.8406 48.3138C37.6482 48.2363 37.5277 48.2167 37.5305 48.4987L38.0963 48.4166C38.0111 48.3823 37.9258 48.3481 37.8406 48.3138ZM43.6836 48.6719C43.6849 49.4998 43.6844 50.3272 43.684 51.1549M43.6836 48.6719L43.684 51.1549M43.684 51.1549C43.6838 51.5689 43.6836 51.983 43.6836 52.3973M43.684 51.1549L43.6836 52.3973M43.6836 52.3973C43.6836 52.7899 43.6842 53.1822 43.6847 53.5745C43.6859 54.4237 43.6871 55.2724 43.6827 56.121M43.6836 52.3973L43.6827 56.121M34.5605 53.5458C34.5577 51.0464 34.5549 48.5475 34.5614 46.0495L34.5605 53.5458ZM34.5605 53.5458C34.5614 54.009 34.6404 54.3226 34.8041 54.5601C34.9682 54.7981 35.2364 54.9874 35.674 55.162C37.6456 55.9484 39.6172 56.7339 41.5896 57.5165L34.5605 53.5458ZM43.6827 56.121C43.6787 56.7796 43.4372 57.2344 43.0807 57.4723M43.6827 56.121L43.0807 57.4723M43.0807 57.4723C42.7239 57.7105 42.2068 57.7612 41.5897 57.5165L43.0807 57.4723Z" fill="#1C1C1C" stroke="#F6F8FF" stroke-width="0.4"/>
<path d="M62.1062 38.7379C62.1152 39.5225 62.1128 40.3061 62.1103 41.0914C62.1092 41.4545 62.1081 41.818 62.1081 42.1821V42.1823C62.1083 42.4121 62.1085 42.6419 62.1088 42.8717C62.1099 43.7908 62.1109 44.7092 62.1072 45.6278L62.1072 45.6278C62.1054 46.0809 62.0268 46.3965 61.8668 46.6363C61.7072 46.8753 61.4491 47.0649 61.0354 47.2306C59.0218 48.0366 57.0086 48.8397 54.9908 49.6324L54.9908 49.6324C54.4368 49.8502 53.9405 49.7904 53.5868 49.5536C53.2336 49.317 52.9921 48.8833 52.9887 48.2903C52.9804 46.8439 52.9819 45.3979 52.9834 43.9512C52.9842 43.1161 52.9851 42.2808 52.984 41.4451C52.9841 41.0929 53.0651 40.8121 53.2157 40.5875C53.3665 40.3625 53.5975 40.1787 53.9226 40.0382L53.9228 40.0381C54.9115 39.6093 55.8944 39.1797 56.8769 38.7503C57.9218 38.2935 58.9664 37.8369 60.0171 37.3818C60.5947 37.1319 61.1104 37.18 61.4775 37.4181C61.8446 37.6563 62.0989 38.1077 62.1062 38.7379ZM62.1062 38.7379C62.1062 38.7379 62.1062 38.7379 62.1062 38.738L62.3062 38.7356L62.1062 38.7379ZM59.0055 45.0536L59.0056 45.0536C59.1111 45.0122 59.2044 44.9502 59.2653 44.8498C59.3239 44.7531 59.3362 44.6471 59.3362 44.5526L59.3362 44.552C59.3334 43.6868 59.3338 42.8213 59.3341 41.9276C59.3342 41.6253 59.3343 41.3198 59.3343 41.0099V40.7052L59.0548 40.8265C58.7921 40.9404 58.5325 41.0532 58.2753 41.1649C57.5176 41.4941 56.78 41.8145 56.0407 42.1309L56.0403 42.1311C55.952 42.1691 55.8743 42.2259 55.8225 42.3121C55.7722 42.3959 55.7597 42.4858 55.7597 42.5651V42.5652C55.7603 43.3248 55.7601 44.0843 55.7599 44.8589C55.7598 45.252 55.7597 45.6489 55.7597 46.0517V46.3472L56.034 46.2374C56.2299 46.1589 56.424 46.0811 56.6166 46.0039C57.4292 45.6782 58.2158 45.3629 59.0055 45.0536Z" fill="#1C1C1C" stroke="#F6F8FF" stroke-width="0.4"/>
<path d="M49.7187 59.044V59.0438C49.7234 53.7962 49.7215 48.5486 49.7196 43.3008L49.7196 43.2995V43.2995C49.7196 43.1721 49.7084 43.0475 49.6799 42.9346L49.7187 59.044ZM49.7187 59.044C49.7187 59.8167 49.1901 60.399 48.4786 60.4721L48.4784 60.4721M49.7187 59.044L48.4784 60.4721M48.4784 60.4721C47.7928 60.543 47.1568 60.0992 46.9907 59.4135L46.9907 59.4134M48.4784 60.4721L46.9907 59.4134M46.9907 59.4134C46.9506 59.2482 46.9497 59.0657 46.9487 58.8604C46.9459 56.299 46.9468 53.7376 46.9478 51.176L46.9478 51.1751V51.175M46.9907 59.4134L46.9478 51.175M46.9478 51.175C46.9478 50.4549 46.9473 49.7348 46.9469 49.0148C46.9458 47.0954 46.9447 45.1764 46.9515 43.2572L46.9515 43.2572M46.9478 51.175L46.9515 43.2572M46.9515 43.2572C46.954 42.5244 47.493 41.9453 48.1893 41.8752L46.9515 43.2572ZM48.1893 41.8752C48.8812 41.8059 49.5058 42.2438 49.6799 42.9345L48.1893 41.8752Z" fill="#1C1C1C" stroke="#F6F8FF" stroke-width="0.4"/>
<path d="M35.3149 39.7996L35.3151 39.7997C37.4743 40.7724 39.6422 41.7252 41.8265 42.6368C42.7195 43.0094 43.6864 42.3325 43.68 41.2704C43.6671 40.779 43.4293 40.3523 42.94 40.1338C40.7778 39.1685 38.6075 38.2191 36.428 37.295L35.3149 39.7996ZM35.3149 39.7996C34.634 39.4936 34.3788 38.6953 34.6962 38.0083L34.6963 38.0081M35.3149 39.7996L34.6963 38.0081M34.6963 38.0081C35.0041 37.3405 35.7565 37.0108 36.4279 37.295L34.6963 38.0081Z" fill="#1C1C1C" stroke="#F6F8FF" stroke-width="0.4"/>
<path d="M54.9998 57.768L54.9262 57.5821C54.7296 57.66 54.5566 57.7033 54.4212 57.6903L54.4117 57.6894H54.4021C53.7062 57.6894 53.135 57.2236 53.0132 56.6163L53.0132 56.6162C52.8727 55.9171 53.2012 55.2914 53.8991 55.0084L53.8992 55.0084C54.8935 54.6046 55.8904 54.2093 56.8883 53.8137C57.3876 53.6157 57.8872 53.4176 58.3869 53.2184C58.5931 53.1361 58.7973 53.0531 59.0009 52.9704C59.385 52.8143 59.7664 52.6593 60.1536 52.5126L60.1536 52.5126C60.9337 52.2167 61.6916 52.5386 61.9883 53.2504C62.2931 53.9839 61.9742 54.7589 61.1807 55.0804L61.1806 55.0805C59.5315 55.7496 57.8778 56.4075 56.2233 57.0658C55.7908 57.2378 55.3583 57.4099 54.9258 57.5822L54.9998 57.768ZM54.9998 57.768C55.4322 57.5958 55.8646 57.4237 56.297 57.2517C57.9516 56.5934 59.606 55.9352 61.2558 55.2658L60.0827 52.3256C59.6935 52.473 59.308 52.6297 58.9223 52.7864C58.7193 52.8689 58.5163 52.9514 58.3128 53.0326C57.814 53.2315 57.3148 53.4295 56.8156 53.6274C55.8173 54.0232 54.8189 54.419 53.8239 54.8231C53.0384 55.1416 52.6574 55.8608 52.8171 56.6556C52.959 57.3636 53.6185 57.8894 54.4021 57.8894C54.587 57.9072 54.7972 57.8483 54.9998 57.768Z" fill="#1C1C1C" stroke="#F6F8FF" stroke-width="0.4"/>
</g>
<defs>
<clipPath id="clip0_1_24614">
<rect width="40.6572" height="38" fill="white" transform="translate(28 29)"/>
</clipPath>
</defs>
</svg>
