<svg xmlns="http://www.w3.org/2000/svg" xmlns:xlink="http://www.w3.org/1999/xlink" viewBox="0 0 66 66"><defs><style>.cls-1{fill:none;}.cls-2{fill:#d9d9d9;fill-opacity:0.15;}.cls-3{clip-path:url(#clip-path);}.cls-4{fill:#ffde59;}.cls-5{fill:#ffe477;}.cls-6{fill:#fff;fill-opacity:0.2;}.cls-7{fill:#feba85;}.cls-8{fill:#f4a86c;}</style><clipPath id="clip-path"><rect class="cls-1" x="20.5" y="18" width="24.99" height="30"/></clipPath></defs><g id="Layer_2" data-name="Layer 2"><g id="Layer_1-2" data-name="Layer 1"><circle class="cls-2" cx="33" cy="33" r="33"/><g class="cls-3"><path class="cls-4" d="M32.84,34.79a7.27,7.27,0,0,0,3.94-1.2,6.13,6.13,0,0,0,.73-.48,3,3,0,0,1,2.84-.47A5.76,5.76,0,0,1,44.21,36a12.73,12.73,0,0,1,1.08,3.77,19.65,19.65,0,0,1,.2,3.34,4.83,4.83,0,0,1-4.37,4.84,8.71,8.71,0,0,1-1,.05H32.84Z"/><path class="cls-5" d="M32.84,34.79V48c-2.47,0-4.94,0-7.42,0a4.8,4.8,0,0,1-4.61-3.22,7.14,7.14,0,0,1-.29-2.64,19,19,0,0,1,.5-3.9A8.41,8.41,0,0,1,23.19,34a5.36,5.36,0,0,1,3.93-1.52,1.73,1.73,0,0,1,.89.33,21.54,21.54,0,0,0,2.17,1.31A7.65,7.65,0,0,0,32.84,34.79Z"/><path class="cls-6" d="M32.84,34.79V48c-2.47,0-4.94,0-7.42,0a4.8,4.8,0,0,1-4.61-3.22,7.14,7.14,0,0,1-.29-2.64,19,19,0,0,1,.5-3.9A8.41,8.41,0,0,1,23.19,34a5.36,5.36,0,0,1,3.93-1.52,1.73,1.73,0,0,1,.89.33,21.54,21.54,0,0,0,2.17,1.31A7.65,7.65,0,0,0,32.84,34.79Z"/><path class="cls-7" d="M32.83,32.43a6.88,6.88,0,0,1-5.24-2.23,7,7,0,0,1-2-4.52,7.24,7.24,0,0,1,4.26-7.08,6.85,6.85,0,0,1,3-.6v1.74Q32.84,26.09,32.83,32.43Z"/><path class="cls-8" d="M32.83,32.43q0-6.34,0-12.69V18a6.63,6.63,0,0,1,4.49,1.57A7.23,7.23,0,0,1,38.24,30a6.86,6.86,0,0,1-4.42,2.41C33.5,32.43,33.16,32.41,32.83,32.43Z"/></g></g></g></svg>