<svg width="28" height="28" viewBox="0 0 28 28" fill="none" xmlns="http://www.w3.org/2000/svg">
<g clip-path="url(#clip0_1_25763)">
<path d="M0 9.39167C0 6.06964 0 4.40862 0.656755 3.14432C1.2102 2.0789 2.0789 1.2102 3.14432 0.656755C4.40862 0 6.06964 0 9.39167 0H18.6083C21.9304 0 23.5914 0 24.8557 0.656755C25.9211 1.2102 26.7898 2.0789 27.3432 3.14432C28 4.40862 28 6.06964 28 9.39167V18.6083C28 21.9304 28 23.5914 27.3432 24.8557C26.7898 25.9211 25.9211 26.7898 24.8557 27.3432C23.5914 28 21.9304 28 18.6083 28H9.39167C6.06964 28 4.40862 28 3.14432 27.3432C2.0789 26.7898 1.2102 25.9211 0.656755 24.8557C0 23.5914 0 21.9304 0 18.6083V9.39167Z" fill="#FC471E"/>
<path d="M23.3381 13.9999C23.3237 13.6059 23.1956 13.2244 22.9693 12.9014C22.743 12.5785 22.4281 12.328 22.0625 12.18C21.697 12.032 21.2965 11.9929 20.9093 12.0674C20.522 12.1419 20.1646 12.3269 19.8801 12.5999C18.2875 11.5173 16.4154 10.9192 14.4901 10.8779L15.4001 6.50992L18.3961 7.13992C18.4317 7.471 18.5842 7.77854 18.8261 8.00734C19.068 8.23614 19.3836 8.37122 19.7162 8.38833C20.0487 8.40544 20.3765 8.30346 20.6406 8.1007C20.9047 7.89793 21.0879 7.60766 21.1573 7.28199C21.2267 6.95632 21.1778 6.61657 21.0193 6.32373C20.8608 6.0309 20.6031 5.80415 20.2924 5.68419C19.9818 5.56423 19.6386 5.55891 19.3244 5.66919C19.0102 5.77948 18.7456 5.99814 18.5781 6.28592L15.1481 5.59992C15.092 5.58762 15.034 5.58657 14.9775 5.59683C14.921 5.6071 14.8671 5.62848 14.8189 5.65973C14.7708 5.69099 14.7293 5.73149 14.6968 5.7789C14.6644 5.82631 14.6418 5.87968 14.6301 5.93592L13.5941 10.7939C11.6452 10.8233 9.7473 11.4219 8.13412 12.5159C7.9183 12.3129 7.6609 12.1591 7.37977 12.0654C7.09863 11.9717 6.80049 11.9403 6.50599 11.9733C6.2115 12.0062 5.92769 12.1029 5.67425 12.2564C5.4208 12.41 5.20378 12.6168 5.03822 12.8626C4.87266 13.1084 4.76251 13.3872 4.71542 13.6798C4.66834 13.9723 4.68543 14.2717 4.76551 14.557C4.8456 14.8423 4.98676 15.1068 5.17922 15.3321C5.37169 15.5574 5.61084 15.7382 5.88012 15.8619C5.86435 16.067 5.86435 16.2729 5.88012 16.4779C5.88012 19.6139 9.53412 22.1619 14.0421 22.1619C18.5501 22.1619 22.2041 19.6139 22.2041 16.4779C22.2199 16.2729 22.2199 16.067 22.2041 15.8619C22.5496 15.6902 22.8394 15.4242 23.0401 15.0947C23.2408 14.7652 23.3441 14.3857 23.3381 13.9999ZM9.33812 15.3999C9.33812 15.0286 9.48562 14.6725 9.74817 14.41C10.0107 14.1474 10.3668 13.9999 10.7381 13.9999C11.1094 13.9999 11.4655 14.1474 11.7281 14.41C11.9906 14.6725 12.1381 15.0286 12.1381 15.3999C12.1381 15.7712 11.9906 16.1273 11.7281 16.3899C11.4655 16.6524 11.1094 16.7999 10.7381 16.7999C10.3668 16.7999 10.0107 16.6524 9.74817 16.3899C9.48562 16.1273 9.33812 15.7712 9.33812 15.3999ZM17.4721 19.2499C16.4788 19.9984 15.2568 20.3794 14.0141 20.3279C12.7715 20.3794 11.5494 19.9984 10.5561 19.2499C10.4966 19.1774 10.4662 19.0853 10.4708 18.9916C10.4754 18.8978 10.5147 18.8092 10.581 18.7428C10.6474 18.6765 10.736 18.6372 10.8298 18.6326C10.9235 18.628 11.0156 18.6584 11.0881 18.7179C11.9298 19.3353 12.9573 19.6465 14.0001 19.5999C15.0442 19.6567 16.0765 19.3554 16.9261 18.7459C16.9619 18.7058 17.0056 18.6735 17.0544 18.651C17.1032 18.6285 17.1562 18.6163 17.2099 18.6151C17.2637 18.6139 17.3171 18.6238 17.3669 18.6441C17.4166 18.6645 17.4617 18.6948 17.4992 18.7333C17.5367 18.7718 17.5659 18.8176 17.585 18.8679C17.6041 18.9182 17.6126 18.9718 17.6101 19.0255C17.6076 19.0792 17.594 19.1318 17.5703 19.1801C17.5465 19.2283 17.5131 19.2711 17.4721 19.3059V19.2499ZM17.2201 16.8559C16.9432 16.8559 16.6725 16.7738 16.4423 16.62C16.2121 16.4661 16.0326 16.2475 15.9267 15.9917C15.8207 15.7359 15.793 15.4544 15.847 15.1828C15.901 14.9112 16.0344 14.6618 16.2302 14.466C16.426 14.2702 16.6754 14.1368 16.947 14.0828C17.2186 14.0288 17.5001 14.0565 17.7559 14.1625C18.0117 14.2685 18.2303 14.4479 18.3842 14.6781C18.538 14.9084 18.6201 15.179 18.6201 15.4559C18.6277 15.6456 18.5967 15.8349 18.5288 16.0122C18.461 16.1895 18.3578 16.3512 18.2256 16.4874C18.0933 16.6236 17.9347 16.7314 17.7595 16.8044C17.5842 16.8774 17.396 16.914 17.2061 16.9119L17.2201 16.8559Z" fill="white"/>
</g>
<defs>
<clipPath id="clip0_1_25763">
<rect width="28" height="28" fill="white"/>
</clipPath>
</defs>
</svg>
