<svg width="45" height="44" viewBox="0 0 45 44" fill="none" xmlns="http://www.w3.org/2000/svg">
<rect x="0.949219" width="43.9978" height="43.9978" rx="21.9989" fill="#00AE9C"/>
<path d="M22.9416 28.2997C19.4834 28.2997 16.6482 25.4505 16.6622 21.9783C16.6692 18.52 19.5044 15.7058 22.9696 15.7198C26.4279 15.7268 29.2491 18.562 29.2421 22.0203C29.2281 25.4785 26.3929 28.2997 22.9416 28.2997ZM24.6568 21.5792C25.9869 21.7262 26.7219 22.5523 26.7219 23.8754C26.7219 24.4704 26.7219 25.0655 26.7219 25.6535C26.7219 25.7235 26.7289 25.8006 26.7359 25.8916C28.248 24.4845 28.9131 22.0273 27.933 19.8151C26.9389 17.5679 24.6568 16.3008 22.1576 16.6088C19.8684 16.8959 17.9573 18.786 17.5582 21.1452C17.2292 23.0983 18.1323 25.0655 19.1684 25.8566C19.1684 25.1075 19.1544 24.3654 19.1684 23.6234C19.1824 22.6433 19.8964 21.8172 20.8625 21.6282C20.9885 21.6072 21.1075 21.5862 21.2405 21.5652C20.6385 20.4381 20.7715 19.4231 21.5905 18.73C22.3606 18.079 23.4597 18.065 24.2437 18.688C25.1118 19.3741 25.2518 20.3541 24.6568 21.5792ZM21.2755 27.1867C22.3956 27.5507 23.5087 27.5437 24.6358 27.1797C24.6358 26.0106 24.6358 24.8555 24.6358 23.7004C24.9228 23.7004 25.1888 23.7004 25.4758 23.7004C25.4758 24.7435 25.4758 25.7656 25.4758 26.7946C25.7909 26.7106 25.9029 26.5496 25.8889 26.2276C25.8609 25.4015 25.8819 24.5685 25.8819 23.7424C25.8819 22.9583 25.3498 22.4263 24.5658 22.4193C23.4947 22.4193 22.4166 22.4193 21.3455 22.4193C20.5475 22.4193 20.0154 22.9513 20.0154 23.7494C20.0154 24.5965 20.0154 25.4435 20.0154 26.2906C20.0154 26.6336 20.0714 26.7036 20.4495 26.7806C20.4495 25.7515 20.4495 24.7225 20.4495 23.7004C20.7365 23.7004 21.0025 23.7004 21.2755 23.7004C21.2755 24.8765 21.2755 26.0246 21.2755 27.1867ZM22.9486 19.073C22.2626 19.073 21.6955 19.6331 21.6885 20.3121C21.6815 21.0122 22.2486 21.5862 22.9416 21.5862C23.6277 21.5862 24.1947 21.0262 24.2017 20.3471C24.2157 19.6471 23.6487 19.073 22.9486 19.073Z" fill="white"/>
<path d="M16.1522 32.9132C15.8722 32.9132 15.5922 32.9202 15.3122 32.9062C15.1511 32.8992 15.0601 32.9552 14.9901 33.0952C14.7171 33.6342 14.4371 34.1663 14.1361 34.6913C14.0521 34.8313 13.8841 34.9573 13.73 34.9993C13.534 35.0483 13.401 34.8803 13.31 34.7123C13.03 34.1803 12.736 33.6552 12.4699 33.1162C12.3929 32.9622 12.2949 32.9132 12.1269 32.9132C11.5739 32.9272 11.0278 32.9202 10.4748 32.9132C10.0198 32.9132 9.83774 32.6191 10.0478 32.2201C10.3278 31.6811 10.6148 31.135 10.9088 30.603C10.9928 30.456 10.9998 30.351 10.9158 30.197C10.6218 29.6719 10.3418 29.1399 10.0618 28.6078C9.83074 28.1738 10.0058 27.8868 10.4958 27.8868C11.0558 27.8868 11.6159 27.8798 12.1689 27.8868C12.3159 27.8868 12.3859 27.8378 12.4489 27.7188C12.715 27.2077 12.988 26.7037 13.254 26.1926C13.359 25.9896 13.471 25.8076 13.73 25.8076C13.9961 25.8146 14.0941 26.0036 14.1991 26.2066C14.4581 26.7107 14.7381 27.2077 14.9971 27.7118C15.0671 27.8448 15.1441 27.8938 15.2982 27.8938C15.8582 27.8868 16.4182 27.8868 16.9713 27.8938C17.4403 27.8938 17.6153 28.1878 17.3913 28.6078C17.1113 29.1399 16.8313 29.6719 16.5373 30.197C16.4462 30.358 16.4603 30.477 16.5443 30.624C16.8173 31.121 17.0833 31.6251 17.3493 32.1221C17.6293 32.6541 17.4753 32.9202 16.8803 32.9202C16.6423 32.9132 16.3972 32.9132 16.1522 32.9132ZM13.73 32.0311C14.4301 32.2691 14.7801 31.9191 15.0041 31.317C15.1231 31.002 15.4312 30.708 15.4312 30.407C15.4312 30.0989 15.1582 29.7839 14.9971 29.4759C14.8641 29.2239 14.7731 28.8879 14.5631 28.7548C14.3601 28.6288 14.0241 28.7198 13.744 28.7198C13.457 28.7198 13.107 28.6288 12.897 28.7548C12.68 28.8879 12.589 29.2379 12.4489 29.4969C12.2949 29.7909 12.0219 30.0849 12.0219 30.379C12.0219 30.68 12.3159 30.974 12.4349 31.289C12.666 31.9051 13.016 32.2901 13.73 32.0311ZM14.1361 27.8658C13.9891 27.5998 13.8701 27.3687 13.723 27.0957C13.576 27.3757 13.45 27.6068 13.31 27.8658C13.597 27.8658 13.849 27.8658 14.1361 27.8658ZM14.1361 32.9272C13.849 32.9272 13.597 32.9272 13.317 32.9272C13.457 33.1862 13.583 33.4172 13.73 33.6902C13.8771 33.4172 13.9961 33.1862 14.1361 32.9272ZM11.4899 29.5039C11.6369 29.2309 11.7629 28.9929 11.8959 28.7408C11.6159 28.7408 11.3639 28.7408 11.0838 28.7408C11.2168 28.9929 11.3359 29.2239 11.4899 29.5039ZM15.5502 28.7338C15.6902 28.9999 15.8162 29.2309 15.9632 29.5039C16.1102 29.2309 16.2292 28.9999 16.3692 28.7338C16.0822 28.7338 15.8372 28.7338 15.5502 28.7338ZM11.4899 31.289C11.3429 31.5691 11.2168 31.8071 11.0838 32.0591C11.3779 32.0591 11.6229 32.0591 11.8959 32.0591C11.7629 31.8001 11.6369 31.5691 11.4899 31.289ZM16.3762 32.0591C16.2292 31.7861 16.1032 31.5551 15.9632 31.289C15.8162 31.5691 15.6902 31.8001 15.5502 32.0591C15.8302 32.0591 16.0822 32.0591 16.3762 32.0591Z" fill="white"/>
<path d="M31.755 26.6201C34.0372 26.6131 35.9273 28.4893 35.9413 30.7785C35.9553 33.1096 34.0792 34.9998 31.741 35.0068C29.4448 35.0138 27.5547 33.1236 27.5547 30.8205C27.5547 28.5103 29.4308 26.6271 31.755 26.6201ZM29.6058 33.3897C29.2138 31.7025 30.3619 30.4634 31.706 30.3934C32.5881 30.3444 33.2251 29.6514 33.1551 28.8323C33.0781 27.9642 32.3571 27.3832 31.461 27.4672C29.6478 27.6422 28.3177 29.1683 28.4018 30.9955C28.4508 31.9405 28.8568 32.7176 29.6058 33.3897ZM33.8972 28.2443C33.9182 28.3423 33.9322 28.3843 33.9392 28.4263C34.2262 29.8754 33.2531 31.1425 31.79 31.2405C30.9149 31.2965 30.2779 31.9965 30.3479 32.8156C30.4319 33.6837 31.16 34.2647 32.049 34.1667C34.0302 33.9497 35.3673 32.2136 35.0453 30.2394C34.9263 29.4484 34.5412 28.7973 33.8972 28.2443Z" fill="white"/>
<path d="M31.7555 13.2002C31.3425 13.2002 30.9714 13.2002 30.5934 13.2002C30.2294 13.2002 30.0754 13.0531 30.0754 12.6961C30.0754 12.1921 30.0684 11.681 30.0754 11.177C30.0754 10.834 30.2294 10.687 30.5794 10.687C30.9644 10.687 31.3425 10.687 31.7555 10.687C31.7555 10.2949 31.7555 9.91691 31.7555 9.54588C31.7555 9.15385 31.8955 9.00684 32.2875 9.00684C32.7776 9.00684 33.2676 9.00684 33.7577 9.00684C34.1217 9.00684 34.2687 9.15385 34.2687 9.51087C34.2687 9.8889 34.2687 10.2599 34.2687 10.68C34.6117 10.68 34.9478 10.68 35.2838 10.68C35.8508 10.68 35.9488 10.778 35.9488 11.352C35.9488 11.8001 35.9488 12.2411 35.9488 12.6891C35.9488 13.0461 35.7948 13.1932 35.4308 13.1932C35.0528 13.1932 34.6817 13.1932 34.2687 13.1932C34.2687 13.2982 34.2687 13.3892 34.2687 13.4802C34.2687 14.3202 34.2687 15.1533 34.2687 15.9934C34.2687 16.4064 34.1287 16.5464 33.7227 16.5464C33.2396 16.5464 32.7636 16.5464 32.2805 16.5464C31.9025 16.5464 31.7555 16.3994 31.7555 16.0214C31.7555 15.1813 31.7555 14.3482 31.7555 13.5082C31.7555 13.4242 31.7555 13.3332 31.7555 13.2002ZM33.4286 15.7064C33.4286 14.7613 33.4286 13.8442 33.4286 12.9341C33.4286 12.4931 33.5616 12.3671 34.0097 12.3601C34.3737 12.3601 34.7377 12.3601 35.0948 12.3601C35.0948 12.0591 35.0948 11.8001 35.0948 11.52C34.7377 11.52 34.3877 11.52 34.0377 11.52C33.5406 11.52 33.4286 11.401 33.4286 10.897C33.4286 10.554 33.4286 10.2039 33.4286 9.8399C33.2676 9.8399 33.1416 9.8399 33.0086 9.8399C32.8756 9.8399 32.7356 9.8399 32.5886 9.8399C32.5886 10.1199 32.5886 10.3649 32.5886 10.61C32.5886 11.513 32.5816 11.52 31.6925 11.52C31.4335 11.52 31.1745 11.52 30.9294 11.52C30.9294 11.8211 30.9294 12.0801 30.9294 12.3601C31.3075 12.3601 31.6715 12.3601 32.0355 12.3601C32.4486 12.3601 32.5886 12.5001 32.5886 12.9061C32.5886 13.7182 32.5886 14.5303 32.5886 15.3423C32.5886 15.4613 32.5886 15.5803 32.5886 15.7064C32.8826 15.7064 33.1416 15.7064 33.4286 15.7064Z" fill="white"/>
<path d="M9.94922 12.7727C9.94922 9.97247 12.9384 8.13833 15.4306 9.41243C15.6407 9.51744 15.8087 9.65745 15.7597 9.91647C15.7107 10.1895 15.5076 10.2595 15.2556 10.2735C13.9255 10.3575 12.8894 11.4566 12.8894 12.7727C12.8894 14.0888 13.9185 15.1949 15.2486 15.2859C15.5006 15.2999 15.7037 15.3629 15.7597 15.6289C15.8157 15.9019 15.6407 16.0349 15.4236 16.1469C12.9314 17.421 9.94922 15.5799 9.94922 12.7727ZM13.6735 9.86746C12.5324 9.90947 11.6503 10.4135 11.1253 11.4356C10.5583 12.5417 10.6773 13.6198 11.4333 14.5998C11.9794 15.3139 13.0925 15.8249 13.6735 15.6709C11.4963 14.2848 11.5103 11.2676 13.6735 9.86746Z" fill="white"/>
<path d="M14.2049 13.9833C14.2049 13.9763 14.2049 13.9623 14.2049 13.9553C14.3799 13.4723 14.2609 13.1083 13.8549 12.7722C13.5748 12.5342 13.7218 12.0862 14.0929 12.0792C14.6109 12.0652 14.8629 11.8132 15.0309 11.3581C15.0729 11.2461 15.269 11.1201 15.388 11.1201C15.521 11.1271 15.731 11.2461 15.773 11.3581C15.934 11.8202 16.207 12.0442 16.7111 12.0722C17.0961 12.0932 17.2221 12.5412 16.9211 12.7932C16.5361 13.1153 16.438 13.4653 16.5781 13.9343C16.6131 14.0533 16.5151 14.2704 16.41 14.3544C16.319 14.4314 16.074 14.4524 15.983 14.3824C15.577 14.0813 15.227 14.1023 14.8139 14.3824C14.5269 14.5924 14.1839 14.3334 14.2049 13.9833ZM15.738 12.8002C15.619 12.7162 15.5 12.6462 15.395 12.5692C15.276 12.6462 15.164 12.7232 15.0729 12.7932C15.1219 12.9333 15.171 13.0733 15.22 13.2063C15.346 13.2063 15.472 13.2063 15.591 13.2063C15.605 13.1293 15.612 13.0593 15.633 12.9963C15.661 12.9263 15.71 12.8633 15.738 12.8002Z" fill="white"/>
<path d="M33.8066 21.0057C34.0797 20.9777 34.3387 20.9567 34.6327 20.9287C34.6537 21.2297 34.6747 21.5308 34.6957 21.8388C34.4017 21.8388 34.1497 21.8388 33.8626 21.8388C33.8416 21.5728 33.8276 21.2997 33.8066 21.0057Z" fill="white"/>
<path d="M22.7734 11.0922C22.7734 10.8262 22.7734 10.5671 22.7734 10.2871C23.0395 10.2871 23.3195 10.2871 23.6275 10.2871C23.6065 10.5601 23.5925 10.8192 23.5785 11.0922C23.3055 11.0922 23.0535 11.0922 22.7734 11.0922Z" fill="white"/>
<path d="M26.7642 11.7856C26.4982 11.7016 26.2602 11.6176 25.9941 11.5336C26.0711 11.2746 26.1412 11.0155 26.2252 10.7285C26.4982 10.8195 26.7642 10.9035 27.0512 11.0015C26.9532 11.2606 26.8622 11.5056 26.7642 11.7856Z" fill="white"/>
<path d="M12.1885 23.8057C12.2445 24.0787 12.2935 24.3307 12.3495 24.6037C12.0765 24.6737 11.8175 24.7367 11.5375 24.7997C11.4745 24.5127 11.4255 24.2537 11.3555 23.9527C11.6425 23.9037 11.9085 23.8547 12.1885 23.8057Z" fill="white"/>
<path d="M18.8262 33.0048C18.9312 32.7247 19.0222 32.4867 19.1202 32.2207C19.3792 32.3047 19.6172 32.3817 19.8903 32.4727C19.8132 32.7387 19.7432 32.9978 19.6592 33.2778C19.3722 33.1868 19.1132 33.1028 18.8262 33.0048Z" fill="white"/>
<path d="M21.9548 11.1418C21.6748 11.1768 21.4298 11.2118 21.1498 11.2468C21.1008 10.9808 21.0588 10.7148 21.0098 10.4278C21.2968 10.3858 21.5698 10.3508 21.8708 10.3018C21.8988 10.5958 21.9268 10.8548 21.9548 11.1418Z" fill="white"/>
<path d="M24.3984 11.1973C24.4334 10.9173 24.4614 10.6653 24.5034 10.3643C24.7975 10.4133 25.0705 10.4623 25.3715 10.5113C25.3085 10.7913 25.2595 11.0503 25.1965 11.3233C24.9305 11.2813 24.6855 11.2393 24.3984 11.1973Z" fill="white"/>
<path d="M28.6486 11.7369C28.5016 12.0029 28.3756 12.227 28.2425 12.465C27.9975 12.339 27.7665 12.22 27.5215 12.0939C27.6405 11.8419 27.7525 11.5969 27.8715 11.3379C28.1375 11.4779 28.3756 11.6039 28.6486 11.7369Z" fill="white"/>
<path d="M33.3171 18.6115C33.2191 18.3524 33.1351 18.1074 33.0371 17.8484C33.2891 17.7434 33.5271 17.6454 33.8072 17.5264C33.9052 17.7994 34.0032 18.0584 34.1082 18.3454C33.8352 18.4364 33.5832 18.5204 33.3171 18.6115Z" fill="white"/>
<path d="M11.2591 23.0701C11.2381 22.769 11.2241 22.503 11.2031 22.209C11.4901 22.209 11.7562 22.209 12.0362 22.209C12.0502 22.447 12.0712 22.699 12.0852 22.972C11.8192 23 11.5602 23.035 11.2591 23.0701Z" fill="white"/>
<path d="M34.437 24.4561C34.3599 24.7571 34.2899 25.0231 34.2199 25.3032C33.9469 25.2262 33.7019 25.1492 33.4219 25.0721C33.4849 24.8131 33.5479 24.5681 33.6109 24.2881C33.8839 24.3511 34.1429 24.4001 34.437 24.4561Z" fill="white"/>
<path d="M11.6721 18.7236C11.9661 18.8076 12.2111 18.8776 12.4702 18.9547C12.4002 19.2277 12.3371 19.4727 12.2741 19.7457C12.0011 19.6897 11.7421 19.6337 11.4551 19.5707C11.5321 19.2907 11.5951 19.0247 11.6721 18.7236Z" fill="white"/>
<path d="M19.3027 10.8406C19.5898 10.7566 19.8558 10.6865 20.1428 10.6025C20.2128 10.8826 20.2758 11.1346 20.3458 11.4076C20.0868 11.4846 19.8418 11.5546 19.5688 11.6386C19.4777 11.3796 19.3937 11.1276 19.3027 10.8406Z" fill="white"/>
<path d="M34.5909 23.5956C34.2969 23.5536 34.0378 23.5186 33.7578 23.4836C33.7858 23.2106 33.8068 22.9656 33.8348 22.6855C34.1148 22.6995 34.3739 22.7135 34.6609 22.7276C34.6399 23.0216 34.6189 23.2876 34.5909 23.5956Z" fill="white"/>
<path d="M12.0565 21.3626C11.7695 21.3486 11.5175 21.3276 11.2305 21.3136C11.2585 21.0196 11.2795 20.7466 11.3075 20.4456C11.5945 20.4806 11.8605 20.5156 12.1335 20.5576C12.1055 20.8306 12.0845 21.0896 12.0565 21.3626Z" fill="white"/>
<path d="M26.5751 33.1797C26.2811 33.2637 26.0151 33.3337 25.7351 33.4177C25.6651 33.1377 25.6021 32.8857 25.5391 32.6127C25.7911 32.5357 26.0431 32.4657 26.3161 32.3887C26.3931 32.6407 26.4771 32.8927 26.5751 33.1797Z" fill="white"/>
<path d="M21.3677 33.6487C21.0667 33.5927 20.8077 33.5507 20.5137 33.4947C20.5697 33.2147 20.6257 32.9626 20.6817 32.6826C20.9547 32.7246 21.2067 32.7666 21.4867 32.8156C21.4447 33.0957 21.4097 33.3547 21.3677 33.6487Z" fill="white"/>
<path d="M12.2872 17.0781C12.5532 17.2041 12.7912 17.3091 13.0433 17.4282C12.9382 17.6732 12.8472 17.9112 12.7352 18.1772C12.4832 18.0792 12.2312 17.9882 11.9512 17.8832C12.0632 17.6242 12.1682 17.3651 12.2872 17.0781Z" fill="white"/>
<path d="M24.8669 33.5995C24.5589 33.6415 24.2929 33.6695 23.9989 33.7115C23.9709 33.4245 23.9499 33.1585 23.9219 32.8784C24.1949 32.8434 24.4469 32.8084 24.7199 32.7734C24.7759 33.0395 24.8179 33.2985 24.8669 33.5995Z" fill="white"/>
<path d="M34.3531 19.199C34.4161 19.5 34.4721 19.766 34.5281 20.053C34.2481 20.102 33.982 20.144 33.709 20.1861C33.653 19.92 33.597 19.675 33.541 19.395C33.8 19.332 34.0661 19.269 34.3531 19.199Z" fill="white"/>
<path d="M22.2559 33.7328C22.2699 33.4458 22.2769 33.1938 22.2909 32.9277C22.5639 32.9277 22.8229 32.9277 23.0959 32.9277C23.0959 33.2008 23.0959 33.4598 23.0959 33.7328C22.8229 33.7328 22.5569 33.7328 22.2559 33.7328Z" fill="white"/>
<path d="M32.1692 28.706C32.1762 28.93 31.9872 29.1261 31.7632 29.1331C31.5391 29.1401 31.3431 28.951 31.3361 28.727C31.3291 28.503 31.5181 28.307 31.7422 28.3C31.9732 28.293 32.1692 28.482 32.1692 28.706Z" fill="white"/>
<path d="M31.7422 32.4934C31.9662 32.4864 32.1622 32.6684 32.1692 32.8994C32.1762 33.1234 31.9942 33.3194 31.7632 33.3264C31.5391 33.3334 31.3431 33.1514 31.3361 32.9204C31.3291 32.6964 31.5111 32.5004 31.7422 32.4934Z" fill="white"/>
</svg>
