<svg xmlns="http://www.w3.org/2000/svg" xmlns:xlink="http://www.w3.org/1999/xlink" viewBox="0 0 66 66"><defs><style>.cls-1{fill:none;}.cls-2{fill:#d9d9d9;fill-opacity:0.15;}.cls-3{clip-path:url(#clip-path);}.cls-4{fill:#d6d5fa;}.cls-5{fill:#f0f0fa;}.cls-6{fill:#ffde59;}.cls-7{fill:#476388;}.cls-8{fill:#364a67;}.cls-9{fill:#354b68;}.cls-10{fill:#0790f9;}.cls-11{fill:#4bbdfb;}</style><clipPath id="clip-path"><rect class="cls-1" x="18" y="18" width="30" height="30"/></clipPath></defs><g id="Layer_2" data-name="Layer 2"><g id="Layer_1-2" data-name="Layer 1"><circle class="cls-2" cx="33" cy="33" r="33"/><g class="cls-3"><path class="cls-4" d="M47.46,18.52a1.1,1.1,0,0,1,.47.87,18.31,18.31,0,0,1,0,3.55,23.7,23.7,0,0,1-.7,4.18,19,19,0,0,1-3.63,7.28c-.58.71-1.19,1.39-1.82,2.06-.47.51-1,.94-1.53,1.42a1,1,0,0,0-.13.16.72.72,0,0,0-.31.21,20.83,20.83,0,0,1-4.7,2.94L33.3,39.41Q31.64,37.74,30,36.09V36a1.2,1.2,0,0,1,.17-.21l5.08-5.08.21-.17h0l.11.13a4.27,4.27,0,0,0,4.74.74,4.16,4.16,0,0,0,2.61-4,4.1,4.1,0,0,0-1.26-3.09v-.05a3.36,3.36,0,0,1,.24-.29l5.29-5.29Z"/><path class="cls-5" d="M47.46,18.52l-.26.23L41.91,24c-.09.09-.16.19-.24.28l-.35-.27a4.34,4.34,0,0,0-2.55-1,4.39,4.39,0,0,0-4.35,2.85,4.5,4.5,0,0,0-.11,2.74,5.37,5.37,0,0,0,1.11,1.92l-.21.17-5.08,5.08L30,36l-.28-.25L24.84,31a.64.64,0,0,1,.11-.36,22.15,22.15,0,0,1,2.64-4.18c.13-.16.32-.29.36-.52a6.81,6.81,0,0,0,1-1.06,26.06,26.06,0,0,1,3.86-3.34,18.49,18.49,0,0,1,5.09-2.43,21.47,21.47,0,0,1,3.8-.83c.91-.12,1.84-.16,2.76-.23.7-.06,1.39,0,2.08,0A1,1,0,0,1,47.46,18.52Z"/><path class="cls-6" d="M28,25.9c0,.23-.23.37-.36.53A22.15,22.15,0,0,0,25,30.61a.63.63,0,0,0-.11.35c-.12.06-.14.18-.19.28A18.16,18.16,0,0,0,23.47,35c-1.29-.21-2.59-.43-3.89-.61a1.63,1.63,0,0,1-1.22-2.64c.88-1.33,1.8-2.63,2.62-4a3,3,0,0,1,2.69-1.52C25.1,26.17,26.53,26,28,25.9Z"/><path class="cls-6" d="M35.06,41.19a21.23,21.23,0,0,0,4.7-2.95,1,1,0,0,1,.32-.21c-.12,1.4-.23,2.8-.34,4.19a6.44,6.44,0,0,1-.13,1.16,2.23,2.23,0,0,1-.91,1.3c-1.53,1-3.05,2-4.59,3a1.6,1.6,0,0,1-2.48-1.15c-.21-1.22-.38-2.44-.57-3.67L31,42.52A16.51,16.51,0,0,0,35.06,41.19Z"/><path class="cls-7" d="M23.47,35a18.16,18.16,0,0,1,1.18-3.75c.05-.1.07-.22.19-.28l4.84,4.83L30,36v.05c-.7.62-1.33,1.32-2,2-.47.44-.89.93-1.38,1.34-.93-.92-1.87-1.84-2.79-2.78A1.66,1.66,0,0,1,23.47,35Z"/><path class="cls-8" d="M26.58,39.4c.5-.41.91-.89,1.38-1.34.67-.65,1.3-1.35,2-2l3.34,3.32,1.76,1.78A16.58,16.58,0,0,1,31,42.52a1.82,1.82,0,0,1-2-.59C28.26,41.06,27.41,40.24,26.58,39.4Z"/><path class="cls-6" d="M18.85,42.7a.79.79,0,0,1-.44-.14,1,1,0,0,1-.37-.88.92.92,0,0,1,.24-.47c.37-.38.75-.75,1.12-1.12l1.68-1.68a.89.89,0,0,1,1.31-.07.88.88,0,0,1-.07,1.31L19.58,42.4a1.23,1.23,0,0,1-.33.23A.92.92,0,0,1,18.85,42.7Z"/><path class="cls-6" d="M24.23,48a.86.86,0,0,1-.87-.51.84.84,0,0,1,.18-1l1.87-1.87,1-1a.86.86,0,0,1,1.26,0,.81.81,0,0,1,.19.29.75.75,0,0,1,.07.33,1,1,0,0,1-.07.34.8.8,0,0,1-.2.28c-.94,1-1.91,1.92-2.86,2.87A.75.75,0,0,1,24.23,48Z"/><path class="cls-6" d="M25,41a.82.82,0,0,1,.13,1.09,2.75,2.75,0,0,1-.22.26l-5.31,5.31a.84.84,0,0,1-1.36,0c.1-.09.21-.17.31-.27l6.14-6.14Z"/><path class="cls-6" d="M25,41l-.31.28q-3.06,3.08-6.14,6.14c-.1.1-.21.18-.31.27a.79.79,0,0,1-.09-1.05,1.59,1.59,0,0,1,.2-.24l5.32-5.32A.86.86,0,0,1,25,41Z"/><path class="cls-9" d="M41.67,24.38a4.05,4.05,0,0,1,1.25,3.09,4.14,4.14,0,0,1-2.6,4,4.27,4.27,0,0,1-4.74-.74l-.11-.13a6.41,6.41,0,0,1,1.19-1.25l.25.19A2.62,2.62,0,0,0,40.72,29a2.67,2.67,0,0,0-.3-3.38A6.13,6.13,0,0,1,41.67,24.38Z"/><path class="cls-7" d="M41.67,24.38a6.41,6.41,0,0,0-1.25,1.19h-.05a2.62,2.62,0,0,0-3.71,3.71v0a6.13,6.13,0,0,0-1.19,1.25h0a5.37,5.37,0,0,1-1.11-1.92,4.43,4.43,0,0,1,.11-2.74,4.37,4.37,0,0,1,1.7-2.14,4.43,4.43,0,0,1,5.2.27l.34.27A.13.13,0,0,1,41.67,24.38Z"/><path class="cls-10" d="M36.66,29.33v0l3.71-3.72h.06A2.68,2.68,0,0,1,40.72,29a2.62,2.62,0,0,1-3.81.57Z"/><path class="cls-11" d="M40.37,25.56l-3.71,3.72a2.63,2.63,0,0,1,3.71-3.72Z"/></g></g></g></svg>