<svg width="32" height="32" viewBox="0 0 32 32" fill="none" xmlns="http://www.w3.org/2000/svg">
<rect width="32" height="32" rx="16" fill="#1C1C1C"/>
<path fill-rule="evenodd" clip-rule="evenodd" d="M14.7365 17.7655L17.4793 22.2152C17.5993 22.4102 17.7868 22.408 17.8625 22.3975C17.9383 22.387 18.1205 22.3405 18.1865 22.1192L21.6163 10.5355C21.6763 10.3307 21.566 10.1912 21.5165 10.1417C21.4685 10.0922 21.3313 9.98649 21.1325 10.0427L9.54052 13.4372C9.32077 13.5017 9.27277 13.6862 9.26227 13.762C9.25177 13.8392 9.24877 14.0305 9.44302 14.1527L13.9438 16.9675L17.9203 12.949C18.1385 12.7285 18.4948 12.7262 18.716 12.9445C18.9373 13.1627 18.9388 13.5197 18.7205 13.7402L14.7365 17.7655ZM17.804 23.527C17.282 23.527 16.8035 23.2615 16.5215 22.8055L13.6138 18.0872L8.84677 15.106C8.33302 14.7842 8.06452 14.2112 8.14777 13.609C8.23027 13.0067 8.64352 12.5282 9.22402 12.358L20.816 8.96349C21.3493 8.80749 21.9208 8.95524 22.3138 9.34674C22.7068 9.74199 22.853 10.3195 22.694 10.855L19.2643 22.438C19.0925 23.0207 18.6125 23.4325 18.0118 23.5127C17.9413 23.5217 17.873 23.527 17.804 23.527Z" fill="white"/>
</svg>
