<svg width="45" height="44" viewBox="0 0 45 44" fill="none" xmlns="http://www.w3.org/2000/svg">
<rect x="0.949219" width="43.9978" height="43.9978" rx="21.9989" fill="#00C1F7"/>
<path d="M18.4344 11.0002C19.1851 11.023 19.912 11.1541 20.6162 11.3936H20.6865C20.7342 11.4162 20.7699 11.4413 20.7938 11.4639C21.0571 11.5485 21.3062 11.6438 21.5445 11.7749L21.9973 11.9775C22.176 12.0728 22.3905 12.2504 22.5097 12.323C22.6288 12.3933 22.7599 12.466 22.8671 12.5483C24.191 11.5366 25.7985 10.9885 27.4548 11.0002C28.2067 11.0002 28.9574 11.1064 29.6712 11.3459C34.0693 12.7759 35.6542 17.6018 34.3303 21.8201C33.5796 23.9757 32.3522 25.943 30.7448 27.5504C28.4438 29.7787 25.9188 31.7568 23.2008 33.4608L22.9029 33.6407L22.5931 33.4488C19.8655 31.7568 17.3262 29.7787 15.0038 27.5385C13.4071 25.9311 12.1785 23.9757 11.4159 21.8201C10.0694 17.6018 11.6542 12.7759 16.1001 11.3209C16.4456 11.2018 16.8019 11.1183 17.1594 11.0719H17.3024C17.6372 11.023 17.9697 11.0002 18.3033 11.0002H18.4344ZM29.0515 14.7658C28.563 14.5978 28.0268 14.8611 27.848 15.3616C27.6812 15.8621 27.9433 16.4102 28.4438 16.5878C29.2076 16.8737 29.7188 17.6256 29.7188 18.4586V18.4955C29.6962 18.7684 29.7784 19.0317 29.9452 19.2343C30.112 19.4369 30.3623 19.5548 30.6244 19.5799C31.113 19.5668 31.53 19.1747 31.5658 18.6731V18.5313C31.6015 16.8618 30.5899 15.3497 29.0515 14.7658Z" fill="white"/>
</svg>
