<svg width="28" height="28" viewBox="0 0 28 28" fill="none" xmlns="http://www.w3.org/2000/svg">
<g clip-path="url(#clip0_1_25767)">
<path d="M0 9.39167C0 6.06964 0 4.40862 0.656755 3.14432C1.2102 2.0789 2.0789 1.2102 3.14432 0.656755C4.40862 0 6.06964 0 9.39167 0H18.6083C21.9304 0 23.5914 0 24.8557 0.656755C25.9211 1.2102 26.7898 2.0789 27.3432 3.14432C28 4.40862 28 6.06964 28 9.39167V18.6083C28 21.9304 28 23.5914 27.3432 24.8557C26.7898 25.9211 25.9211 26.7898 24.8557 27.3432C23.5914 28 21.9304 28 18.6083 28H9.39167C6.06964 28 4.40862 28 3.14432 27.3432C2.0789 26.7898 1.2102 25.9211 0.656755 24.8557C0 23.5914 0 21.9304 0 18.6083V9.39167Z" fill="black"/>
<path d="M8.49553 16.7653C8.60948 15.8219 8.99642 15.2936 9.72561 14.7521C10.7689 14.0187 12.0722 14.4336 12.0722 14.4336V11.9725C12.3891 11.9644 12.706 11.9832 13.0194 12.0287V15.1958C13.0194 15.1958 11.7165 14.7809 10.6732 15.5147C9.94441 16.0558 9.55667 16.5845 9.44311 17.5279C9.43955 18.0402 9.5357 18.7099 9.97843 19.289C9.86897 19.2328 9.75739 19.1689 9.64371 19.0971C8.66843 18.4422 8.49078 17.4597 8.49553 16.7653ZM18.4007 7.42204C17.683 6.63557 17.4115 5.84151 17.3134 5.28369H18.2163C18.2163 5.28369 18.0363 6.74629 19.3483 8.18463L19.3665 8.20397C19.0129 7.98154 18.6886 7.719 18.4007 7.42204ZM22.7501 9.65178V12.7552C22.7501 12.7552 21.5979 12.7101 20.7453 12.4932C19.5548 12.1898 18.7896 11.7245 18.7896 11.7245C18.7896 11.7245 18.261 11.3927 18.2183 11.3696V17.7782C18.2183 18.135 18.1206 19.0262 17.8226 19.7694C17.4337 20.7417 16.8335 21.3799 16.7231 21.5104C16.7231 21.5104 15.9931 22.3731 14.7053 22.954C13.5444 23.4781 12.5252 23.4648 12.2206 23.4781C12.2206 23.4781 10.4588 23.5478 8.87338 22.5175C8.53055 22.2904 8.21053 22.0332 7.91748 21.7493L7.92539 21.7549C9.51117 22.7853 11.2726 22.7155 11.2726 22.7155C11.5777 22.7022 12.5969 22.7155 13.7573 22.1914C15.044 21.6105 15.7751 20.7478 15.7751 20.7478C15.8843 20.6173 16.4873 19.9791 16.8746 19.0065C17.1718 18.2636 17.2703 17.3721 17.2703 17.0152V10.6074C17.313 10.6309 17.8412 10.9627 17.8412 10.9627C17.8412 10.9627 18.6068 11.4284 19.7973 11.7314C20.6504 11.9483 21.8021 11.9934 21.8021 11.9934V9.56153C22.1962 9.64989 22.5321 9.67378 22.7501 9.65178Z" fill="#FD355A"/>
<path d="M21.8024 9.56153V11.9926C21.8024 11.9926 20.6506 11.9475 19.7976 11.7306C18.6071 11.4272 17.8415 10.9619 17.8415 10.9619C17.8415 10.9619 17.3133 10.6301 17.2706 10.6066V17.016C17.2706 17.3728 17.1729 18.2643 16.8749 19.0072C16.486 19.9799 15.8858 20.6181 15.7754 20.7485C15.7754 20.7485 15.045 21.6112 13.7576 22.1922C12.5971 22.7162 11.5779 22.703 11.2729 22.7162C11.2729 22.7162 9.51146 22.786 7.92568 21.7557L7.91777 21.75C7.75035 21.5879 7.59275 21.4167 7.44576 21.2373C6.93972 20.6204 6.62953 19.8908 6.55158 19.6826C6.55145 19.6817 6.55145 19.6808 6.55158 19.6799C6.42616 19.3182 6.16266 18.4494 6.19866 17.6079C6.26236 16.1233 6.78462 15.2121 6.9227 14.9838C7.28841 14.3613 7.76405 13.8043 8.32845 13.3377C8.82651 12.935 9.39105 12.6146 9.9989 12.3897C10.656 12.1255 11.3597 11.984 12.0721 11.9725V14.4336C12.0721 14.4336 10.7688 14.0203 9.7259 14.7521C8.99671 15.2936 8.60976 15.8219 8.49582 16.7653C8.49107 17.4597 8.66872 18.4422 9.64321 19.0975C9.75689 19.1695 9.86846 19.2335 9.97793 19.2893C10.1482 19.5106 10.3554 19.7035 10.5912 19.8601C11.5431 20.4626 12.3408 20.5047 13.3608 20.1134C14.0409 19.8517 14.5529 19.262 14.7902 18.6087C14.9394 18.2006 14.9374 17.79 14.9374 17.3652V5.28369H17.3113C17.4095 5.84151 17.6809 6.63557 18.3986 7.42204C18.6865 7.719 19.0108 7.98154 19.3644 8.20397C19.4688 8.31204 20.003 8.84635 20.6886 9.17436C21.0432 9.34391 21.4169 9.47382 21.8024 9.56153Z" fill="white"/>
<path d="M5.60693 18.9268V18.9287L5.66584 19.0883C5.65907 19.0697 5.63718 19.0132 5.60693 18.9268Z" fill="#33F3ED"/>
<path d="M9.99893 12.39C9.39108 12.6149 8.82655 12.9353 8.32849 13.338C7.7639 13.8057 7.28837 14.3638 6.92313 14.9875C6.78505 15.2151 6.26279 16.1271 6.19909 17.6117C6.16308 18.4531 6.42659 19.3219 6.55201 19.6836C6.55187 19.6845 6.55187 19.6854 6.55201 19.6863C6.63114 19.8926 6.94014 20.6222 7.44618 21.241C7.59318 21.4204 7.75077 21.5916 7.9182 21.7537C7.38177 21.3982 6.90336 20.9683 6.4986 20.4781C5.99691 19.8664 5.68751 19.1444 5.6068 18.9313C5.6067 18.9298 5.6067 18.9283 5.6068 18.9267V18.9241C5.48098 18.5627 5.21668 17.6936 5.25348 16.851C5.31718 15.3664 5.83944 14.4551 5.97752 14.2268C6.34266 13.6031 6.8182 13.0449 7.38288 12.5773C7.88083 12.1745 8.44539 11.8541 9.05332 11.6293C9.43252 11.4785 9.82754 11.3672 10.2316 11.2975C10.8405 11.1956 11.4623 11.1868 12.0741 11.2713V11.9728C11.361 11.984 10.6567 12.1256 9.99893 12.39Z" fill="#33F3ED"/>
<path d="M17.3135 5.28396H14.9396V17.3659C14.9396 17.7906 14.9396 18.2001 14.7924 18.6093C14.5526 19.2623 14.0427 19.852 13.3629 20.1136C12.3425 20.5065 11.5449 20.4629 10.5934 19.8603C10.3571 19.7044 10.1494 19.5123 9.97852 19.2915C10.7892 19.706 11.5148 19.6988 12.4138 19.3529C13.0931 19.0913 13.6039 18.5016 13.8428 17.8482C13.9924 17.4402 13.9904 17.0295 13.9904 16.6052V4.521H17.2684C17.2684 4.521 17.2316 4.82133 17.3135 5.28396ZM21.8026 8.88947V9.5618C21.4177 9.47395 21.0447 9.34405 20.6908 9.17463C20.0051 8.84662 19.471 8.31231 19.3665 8.20424C19.4878 8.28051 19.6135 8.3499 19.7432 8.41204C20.5768 8.81097 21.3978 8.93004 21.8026 8.88947Z" fill="#33F3ED"/>
</g>
<defs>
<clipPath id="clip0_1_25767">
<rect width="28" height="28" fill="white"/>
</clipPath>
</defs>
</svg>
