<svg width="28" height="28" viewBox="0 0 28 28" fill="none" xmlns="http://www.w3.org/2000/svg">
<g clip-path="url(#clip0_1_25739)">
<path d="M14 0C6.26792 0 0 6.26792 0 14C0 21.7321 6.26792 28 14 28C21.7321 28 28 21.7321 28 14C28 6.26792 21.7321 0 14 0ZM19.6948 11.4683C19.7006 11.5879 19.7021 11.7075 19.7021 11.8242C19.7021 15.47 16.9298 19.6715 11.8577 19.6715C10.359 19.674 8.89141 19.2435 7.63146 18.4319C7.84583 18.4581 8.06604 18.4683 8.28917 18.4683C9.58125 18.4683 10.7698 18.0294 11.7133 17.2885C11.1383 17.2772 10.5812 17.0868 10.1195 16.7439C9.65789 16.4009 9.31474 15.9225 9.13792 15.3752C9.55085 15.4537 9.97624 15.4373 10.3819 15.3271C9.75778 15.2009 9.19654 14.8627 8.79332 14.3699C8.39011 13.8771 8.16974 13.2601 8.16958 12.6233V12.5898C8.54146 12.7954 8.96729 12.9208 9.41937 12.9354C8.83429 12.5459 8.4201 11.9476 8.26152 11.2629C8.10294 10.5782 8.21195 9.8587 8.56625 9.25167C9.25889 10.1033 10.1227 10.8 11.1017 11.2967C12.0807 11.7934 13.153 12.0789 14.2494 12.1348C14.11 11.5432 14.17 10.922 14.42 10.368C14.67 9.814 15.0961 9.35811 15.632 9.07122C16.1678 8.78433 16.7835 8.68251 17.3832 8.7816C17.9829 8.8807 18.533 9.17514 18.9481 9.61917C19.5652 9.49707 20.1571 9.2707 20.6981 8.94979C20.4924 9.58874 20.0618 10.1313 19.4862 10.4767C20.0329 10.4108 20.5667 10.2639 21.07 10.0406C20.7003 10.5946 20.2346 11.0781 19.6948 11.4683Z" fill="#4491EC"/>
</g>
<defs>
<clipPath id="clip0_1_25739">
<rect width="28" height="28" fill="white"/>
</clipPath>
</defs>
</svg>
