<svg width="29" height="28" viewBox="0 0 29 28" fill="none" xmlns="http://www.w3.org/2000/svg">
<g clip-path="url(#clip0_1_9113)">
<path d="M26.0506 0H3.09977C1.8457 0 0.75 0.902344 0.75 2.14169V25.1429C0.75 26.3896 1.8457 27.5 3.09977 27.5H26.0438C27.3046 27.5 28.25 26.3828 28.25 25.1435V2.14169C28.2573 0.902344 27.3046 0 26.0506 0ZM15.8504 21.7913H9.48615L6.93442 6.53371L12.505 6.00458L13.8554 16.8616C15.1157 14.8083 16.6717 11.5825 16.6717 9.38069C16.6717 8.17634 16.4655 7.35502 16.1432 6.6798L21.2154 5.65346C21.8022 6.6221 22.0662 7.61775 22.0662 8.88041C22.0655 12.9011 18.6336 18.1242 15.8504 21.7913Z" fill="#3075DB"/>
</g>
<defs>
<clipPath id="clip0_1_9113">
<rect width="27.5" height="27.5" fill="white" transform="translate(0.75)"/>
</clipPath>
</defs>
</svg>
