<svg width="96" height="96" viewBox="0 0 96 96" fill="none" xmlns="http://www.w3.org/2000/svg">
<rect width="96" height="96" rx="48" fill="#1CCD9D" fill-opacity="0.05"/>
<path fill-rule="evenodd" clip-rule="evenodd" d="M38.0298 30.0026L39.1135 30.004C39.2988 30.0043 39.4861 30.0045 39.6751 30.0048L40.8269 30.0067C43.354 30.011 46.0458 30.0169 48.0973 30.0212L48.9958 30.023C49.1369 30.0233 49.2736 30.0236 49.4054 30.0238C54.5897 29.6598 59.2693 33.5077 59.6863 38.6712C59.6902 38.7241 59.6936 39.0247 59.6965 39.5714L64.4794 35.6544C65.871 34.5139 67.7443 34.2904 69.3687 35.0576C70.9931 35.8295 72.0023 37.424 72 39.2212L71.9723 56.1541C71.97 57.9513 70.9585 59.5457 69.3364 60.3107C68.7005 60.6125 68.0277 60.7577 67.3595 60.7577C66.3204 60.7577 65.295 60.4006 64.4494 59.707L59.7072 55.7721C59.7071 55.8388 59.7071 55.9057 59.7071 55.9728C59.8039 58.4059 58.9375 60.7492 57.2647 62.5694C55.5067 64.4841 53.0828 65.597 50.4422 65.7053C50.3974 65.7085 50.1451 65.7107 49.7309 65.7121L48.8207 65.7136C48.4656 65.7139 48.0622 65.7139 47.6203 65.7137L45.6711 65.7119C45.4955 65.7116 45.3171 65.7114 45.1362 65.7111L44.0247 65.7094C41.3765 65.7049 38.3933 65.698 36.0806 65.6929L35.1333 65.6909C34.8332 65.6903 34.5498 65.6897 34.2858 65.6892C34.0416 65.7076 33.7973 65.7169 33.5531 65.7169C28.6822 65.7192 24.4334 61.9865 24.0325 57.0903L24.0321 57.0853L24.03 57.0396C24.0298 57.0346 24.0297 57.0292 24.0295 57.0231L24.0279 56.9505C24.0277 56.9402 24.0275 56.9291 24.0274 56.9171L24.0256 56.7829C24.0254 56.7649 24.0252 56.7457 24.025 56.7253L24.0232 56.5075C24.023 56.4793 24.0228 56.4496 24.0225 56.4184L24.0213 56.2126C24.0211 56.1751 24.0209 56.1359 24.0207 56.095L24.0188 55.678C24.0186 55.626 24.0184 55.572 24.0182 55.516L24.0164 54.9549C24.0162 54.8859 24.016 54.8147 24.0158 54.7412L24.0141 54.014C24.014 53.9257 24.0138 53.8348 24.0136 53.7413L24.0117 52.4869C24.0115 52.371 24.0114 52.252 24.0112 52.1301L24.0094 50.0641C24.0094 49.9099 24.0093 49.7523 24.0092 49.5912L24.0091 40.5639C24.0092 40.2901 24.0093 40.0117 24.0095 39.7288C23.8989 37.3532 24.7606 34.9938 26.4426 33.1574C28.1983 31.2404 30.62 30.1229 33.2628 30.01C33.2984 30.0075 33.4668 30.0055 33.7445 30.0041L34.2403 30.0024C34.3356 30.0022 34.437 30.002 34.5442 30.0018L37.5121 30.0021C37.6816 30.0022 37.8543 30.0024 38.0298 30.0026ZM49.5298 33.4754C46.6207 33.4712 43.0637 33.4661 40.0283 33.4628L38.4313 33.4612C38.1761 33.4609 37.927 33.4607 37.6848 33.4605L33.6778 33.4606C33.527 33.4613 33.4294 33.4623 33.3918 33.4639C31.6914 33.5353 30.1223 34.2565 28.991 35.4915C27.9357 36.6459 27.3919 38.1205 27.4633 39.6504L27.4652 48.5511C27.4653 48.7476 27.4654 48.9427 27.4656 49.1363L27.4677 51.8875C27.4678 52.0587 27.468 52.227 27.4682 52.3922L27.4694 53.344C27.4696 53.4957 27.4698 53.6438 27.47 53.788L27.4723 54.9746C27.4747 56.0428 27.4778 56.7357 27.4818 56.8691C27.7444 60.0603 30.7352 62.5003 34.1591 62.2376C34.5212 62.2382 34.8932 62.2387 35.273 62.2393L36.4332 62.2412C37.4156 62.2428 38.4323 62.2445 39.4482 62.2462L40.6649 62.2482C41.2708 62.2492 41.8714 62.2502 42.4591 62.2511L43.6153 62.2529C43.8044 62.2532 43.9915 62.2534 44.1763 62.2537L45.2559 62.2551C45.4306 62.2553 45.6024 62.2555 45.7711 62.2557L49.8389 62.2556C50.105 62.2547 50.2721 62.2533 50.3224 62.2515C52.016 62.1823 53.5874 61.4635 54.7187 60.2308C55.7763 59.081 56.32 57.6064 56.2532 56.0834L56.2512 56.0453L56.2508 44.9022C56.2507 44.7212 56.2506 44.5426 56.2504 44.3665L56.2487 42.3946C56.2485 42.2433 56.2484 42.0957 56.2482 41.9519L56.2462 40.769C56.2455 40.414 56.2446 40.1007 56.2437 39.8358L56.2418 39.3727C56.2404 39.1098 56.2388 38.9412 56.2371 38.8832C55.9767 35.6758 52.9722 33.2058 49.5298 33.4754ZM66.6683 38.3295L59.7062 44.0098C59.7065 44.2929 59.7067 44.5872 59.7069 44.8926L59.7084 50.6705L66.6406 57.0366C67.1498 57.4513 67.6613 57.2808 67.8595 57.184C68.0577 57.0919 68.5162 56.8039 68.5162 56.1495L68.5438 39.2166C68.5461 38.5622 68.0853 38.2742 67.8871 38.1797C67.6913 38.0875 67.1729 37.9147 66.6683 38.3295Z" fill="#1C1C1C"/>
</svg>
