<svg width="75" height="77" viewBox="0 0 75 77" fill="none" xmlns="http://www.w3.org/2000/svg">
<path d="M58.9536 48.9948C58.0642 48.9851 57.1921 49.2381 56.448 49.7218C55.7039 50.2054 55.1215 50.8977 54.7748 51.7108C54.4282 52.5239 54.3329 53.4209 54.5012 54.2878C54.6695 55.1548 55.0936 55.9525 55.7198 56.5795C56.3459 57.2065 57.1458 57.6345 58.0176 57.809C58.8895 57.9836 59.7939 57.8969 60.616 57.5599C61.438 57.2228 62.1405 56.6507 62.6342 55.9163C63.1278 55.1819 63.3903 54.3184 63.3883 53.4355C63.3929 52.8543 63.2817 52.2779 63.0609 51.7396C62.8402 51.2012 62.5143 50.7116 62.1021 50.2988C61.6899 49.886 61.1995 49.5583 60.6591 49.3345C60.1187 49.1107 59.5391 48.9953 58.9536 48.9948ZM58.9536 55.6698C58.6527 55.6762 58.3536 55.6224 58.0741 55.5117C57.7946 55.401 57.5404 55.2355 57.3266 55.0253C57.1128 54.815 56.9438 54.5642 56.8297 54.2878C56.7156 54.0114 56.6586 53.715 56.6622 53.4163C56.6686 52.8285 56.9056 52.2664 57.323 51.8495C57.7404 51.4325 58.3051 51.1936 58.8972 51.1837C59.5053 51.1855 60.0882 51.4254 60.5191 51.8513C60.9501 52.2771 61.1945 52.8546 61.1991 53.4582C61.1904 54.0455 60.951 54.6061 60.5318 55.0206C60.1126 55.435 59.5469 55.6705 58.9554 55.6769L58.9536 55.6698ZM58.9536 48.9948C58.0642 48.9851 57.1921 49.2381 56.448 49.7218C55.7039 50.2054 55.1215 50.8977 54.7748 51.7108C54.4282 52.5239 54.3329 53.4209 54.5012 54.2878C54.6695 55.1548 55.0936 55.9525 55.7198 56.5795C56.3459 57.2065 57.1458 57.6345 58.0176 57.809C58.8895 57.9836 59.7939 57.8969 60.616 57.5599C61.438 57.2228 62.1405 56.6507 62.6342 55.9163C63.1278 55.1819 63.3903 54.3184 63.3883 53.4355C63.3929 52.8543 63.2817 52.2779 63.0609 51.7396C62.8402 51.2012 62.5143 50.7116 62.1021 50.2988C61.6899 49.886 61.1995 49.5583 60.6591 49.3345C60.1187 49.1107 59.5391 48.9953 58.9536 48.9948ZM58.9536 55.6698C58.6527 55.6762 58.3536 55.6224 58.0741 55.5117C57.7946 55.401 57.5404 55.2355 57.3266 55.0253C57.1128 54.815 56.9438 54.5642 56.8297 54.2878C56.7156 54.0114 56.6586 53.715 56.6622 53.4163C56.6686 52.8285 56.9056 52.2664 57.323 51.8495C57.7404 51.4325 58.3051 51.1936 58.8972 51.1837C59.5053 51.1855 60.0882 51.4254 60.5191 51.8513C60.9501 52.2771 61.1945 52.8546 61.1991 53.4582C61.1904 54.0455 60.951 54.6061 60.5318 55.0206C60.1126 55.435 59.5469 55.6705 58.9554 55.6769L58.9536 55.6698ZM58.9536 48.9948C58.0642 48.9851 57.1921 49.2381 56.448 49.7218C55.7039 50.2054 55.1215 50.8977 54.7748 51.7108C54.4282 52.5239 54.3329 53.4209 54.5012 54.2878C54.6695 55.1548 55.0936 55.9525 55.7198 56.5795C56.3459 57.2065 57.1458 57.6345 58.0176 57.809C58.8895 57.9836 59.7939 57.8969 60.616 57.5599C61.438 57.2228 62.1405 56.6507 62.6342 55.9163C63.1278 55.1819 63.3903 54.3184 63.3883 53.4355C63.3929 52.8543 63.2817 52.2779 63.0609 51.7396C62.8402 51.2012 62.5143 50.7116 62.1021 50.2988C61.6899 49.886 61.1995 49.5583 60.6591 49.3345C60.1187 49.1107 59.5391 48.9953 58.9536 48.9948ZM58.9536 55.6698C58.6527 55.6762 58.3536 55.6224 58.0741 55.5117C57.7946 55.401 57.5404 55.2355 57.3266 55.0253C57.1128 54.815 56.9438 54.5642 56.8297 54.2878C56.7156 54.0114 56.6586 53.715 56.6622 53.4163C56.6686 52.8285 56.9056 52.2664 57.323 51.8495C57.7404 51.4325 58.3051 51.1936 58.8972 51.1837C59.5053 51.1855 60.0882 51.4254 60.5191 51.8513C60.9501 52.2771 61.1945 52.8546 61.1991 53.4582C61.1904 54.0455 60.951 54.6061 60.5318 55.0206C60.1126 55.435 59.5469 55.6705 58.9554 55.6769L58.9536 55.6698ZM58.9536 48.9948C58.0642 48.9851 57.1921 49.2381 56.448 49.7218C55.7039 50.2054 55.1215 50.8977 54.7748 51.7108C54.4282 52.5239 54.3329 53.4209 54.5012 54.2878C54.6695 55.1548 55.0936 55.9525 55.7198 56.5795C56.3459 57.2065 57.1458 57.6345 58.0176 57.809C58.8895 57.9836 59.7939 57.8969 60.616 57.5599C61.438 57.2228 62.1405 56.6507 62.6342 55.9163C63.1278 55.1819 63.3903 54.3184 63.3883 53.4355C63.3929 52.8543 63.2817 52.2779 63.0609 51.7396C62.8402 51.2012 62.5143 50.7116 62.1021 50.2988C61.6899 49.886 61.1995 49.5583 60.6591 49.3345C60.1187 49.1107 59.5391 48.9953 58.9536 48.9948ZM58.9536 55.6698C58.6527 55.6762 58.3536 55.6224 58.0741 55.5117C57.7946 55.401 57.5404 55.2355 57.3266 55.0253C57.1128 54.815 56.9438 54.5642 56.8297 54.2878C56.7156 54.0114 56.6586 53.715 56.6622 53.4163C56.6686 52.8285 56.9056 52.2664 57.323 51.8495C57.7404 51.4325 58.3051 51.1936 58.8972 51.1837C59.5053 51.1855 60.0882 51.4254 60.5191 51.8513C60.9501 52.2771 61.1945 52.8546 61.1991 53.4582C61.1904 54.0455 60.951 54.6061 60.5318 55.0206C60.1126 55.435 59.5469 55.6705 58.9554 55.6769L58.9536 55.6698ZM74.9932 47.882C74.9932 46.0711 74.0572 45.121 72.2347 45.1438C71.5402 45.1438 71.3534 44.9688 71.364 44.2689C71.4028 41.2087 71.3781 38.145 71.3834 35.0883C71.3834 33.7323 71.1119 32.4253 70.0843 31.4997C69.411 30.8926 69.2859 30.2627 69.2912 29.4439C69.3018 27.9636 68.6443 26.8194 67.3312 26.0687C66.5645 25.6313 65.7184 25.5911 64.7208 25.5736C65.7977 23.9989 66.8006 22.5379 67.7965 21.0716C69.189 19.0175 68.8206 17.0316 66.7689 15.6476C59.4694 10.696 52.1664 5.7491 44.8599 0.80683C42.8523 -0.552673 40.8289 -0.171246 39.4629 1.80939C38.0969 3.79003 36.759 5.75143 35.4089 7.72332C30.4983 14.8877 25.5907 22.0555 20.686 29.2269C20.374 29.6836 20.0708 29.904 19.4909 29.8813C18.1443 29.8323 16.7959 29.8568 15.4476 29.8813C15.0228 29.8813 14.8307 29.8323 14.8853 29.3074C15.3048 25.3111 15.7002 21.3119 16.0715 17.3098C16.1244 16.7517 16.3289 16.435 16.8682 16.2145C18.1843 15.6892 19.3124 14.7857 20.1079 13.6197C20.5009 13.0354 20.9468 12.9374 21.5796 13.0056C24.0261 13.2663 26.4743 13.4938 28.9226 13.737C29.9114 13.835 30.4278 13.534 30.4983 12.8096C30.5688 12.0853 30.1282 11.6671 29.1517 11.5691C26.5008 11.3055 23.8492 11.0413 21.1971 10.7765C20.1502 10.6733 19.2812 11.0197 18.6819 11.8858C17.9114 13.0283 16.8119 13.9136 15.5269 14.4263C14.5486 14.8235 14.0445 15.6144 13.9405 16.6589C13.5281 20.8319 13.091 25.0032 12.7244 29.1814C12.6556 29.9583 12.2361 29.8638 11.7355 29.8813C11.0305 29.9058 11.3178 29.4194 11.3055 29.0974C11.306 28.8633 11.3225 28.6295 11.3548 28.3976C11.9811 22.1372 12.6063 15.8774 13.2302 9.61823C13.3624 8.27097 13.8789 7.81255 15.222 7.94553L31.57 9.56223C32.4284 9.64622 33.003 9.28928 33.084 8.6174C33.1651 7.94552 32.661 7.46786 31.8044 7.39262C26.2381 6.85022 20.6713 6.30782 15.1039 5.76542C12.9694 5.55896 11.3249 6.86247 11.0993 9.00233C10.5916 13.8402 10.1351 18.6816 9.6222 23.5247C9.5517 24.2053 9.81961 25.1467 9.28202 25.5036C8.7885 25.829 7.92483 25.6173 7.22508 25.6191C4.36968 25.6278 2.96137 26.9698 2.86443 29.7938C2.85385 30.0912 2.85209 30.3187 2.52425 30.5129C0.705257 31.5627 -0.00330529 33.1882 0.00198248 35.2581C0.0284213 47.4114 0.012557 59.5629 0.0160822 71.7162C0.0160822 75.0616 1.999 77.0212 5.36731 77.0212H66.0233C69.3723 77.0212 71.3693 75.0336 71.3781 71.6935C71.3781 68.6927 71.401 65.6903 71.3622 62.6878C71.3622 62.0019 71.4627 61.743 72.2435 61.7623C74.029 61.8077 74.9896 60.8052 74.9949 59.0065C75.0031 55.2902 75.002 51.582 74.9914 47.882H74.9932ZM66.0709 27.9356C66.7442 28.0266 67.0791 28.6653 67.0738 29.3879C67.0738 29.6573 67.1073 29.8918 66.6861 29.8865C65.1191 29.8638 63.5539 29.8778 61.7667 29.8778C62.2584 29.1622 62.5211 28.5183 63.0005 28.1421C63.917 27.4212 65.0504 27.8027 66.0692 27.9409L66.0709 27.9356ZM24.1001 28.1106L41.0474 3.37536C42.0433 1.92138 42.4839 1.83389 43.9663 2.83996C51.1224 7.68425 58.2768 12.5326 65.4293 17.3851C66.5768 18.1637 66.6949 18.7848 65.9123 19.9256C63.9047 22.8598 61.8583 25.766 59.9054 28.7388C59.3167 29.6346 58.7051 30.0982 57.6052 29.7781C57.4712 29.5488 57.7321 29.4019 57.8467 29.2304C58.7932 27.8307 59.7432 26.4309 60.7127 25.0487C61.4177 24.0461 61.5199 23.0365 60.9365 21.9395C60.3367 20.8276 60.0961 19.5594 60.2473 18.3072C60.3725 17.2223 59.9618 16.3825 59.0576 15.7614C55.2398 13.1742 51.4209 10.5864 47.6007 7.99802C47.1991 7.70025 46.7195 7.52359 46.2194 7.48915C45.7193 7.45471 45.2198 7.56395 44.7806 7.80381C43.5775 8.42022 42.2147 8.66114 40.8712 8.49493C39.7043 8.35496 38.8883 8.97434 38.2484 9.91217C35.131 14.4882 32.0042 19.0572 28.8679 23.6192C27.6835 25.3514 26.4373 27.0451 25.3427 28.828C24.777 29.7448 24.1089 30.0405 22.9809 29.7536L24.1001 28.1106ZM43.9821 21.6665C38.8706 20.4418 33.6745 23.9551 32.9624 29.1324C32.8866 29.6801 32.7562 29.876 32.1851 29.8638C30.6111 29.827 29.0371 29.8498 27.2693 29.8498C29.5007 26.5971 31.6246 23.5002 33.7468 20.4015C35.8072 17.3973 37.8783 14.4019 39.9158 11.3802C40.2684 10.8553 40.6068 10.6295 41.2589 10.6943C42.7541 10.8443 44.2603 10.5476 45.5843 9.84218C45.9457 9.65321 46.2118 9.69696 46.5414 9.92092C50.2299 12.437 53.9273 14.9448 57.6334 17.4445C57.7952 17.5381 57.9238 17.6793 58.0011 17.8486C58.0785 18.0179 58.1009 18.2069 58.0652 18.3894C57.901 19.9335 58.208 21.491 58.9465 22.8598C59.1616 23.2535 59.0875 23.537 58.8425 23.8869C57.577 25.7031 56.3261 27.5297 55.09 29.3669C54.8538 29.7168 54.6088 29.8918 54.1699 29.8673C53.351 29.8192 52.53 29.8192 51.7111 29.8673C51.1118 29.9128 50.9849 29.6433 50.9038 29.1412C50.294 25.3671 47.6889 22.5659 43.9804 21.6805L43.9821 21.6665ZM48.1471 29.8603C46.0708 29.8375 43.9927 29.8603 41.9164 29.8603C39.9264 29.8603 37.9382 29.8358 35.9483 29.8725C35.2785 29.8848 35.0352 29.7903 35.1956 29.0257C35.8601 25.8763 38.779 23.5754 42.1367 23.6332C45.3288 23.6874 48.2141 26.1545 48.7323 29.2322C48.824 29.7816 48.6477 29.8795 48.1454 29.8743L48.1471 29.8603ZM5.10116 29.1062C5.24393 28.3556 5.67929 27.9111 6.43544 27.8289C6.90175 27.7959 7.36954 27.7883 7.8367 27.8062C9.24677 27.8062 9.21681 27.8062 9.07051 29.2374C9.02116 29.7081 8.89425 29.9075 8.3972 29.8603C7.9636 29.82 7.51591 29.8603 7.08407 29.8603C6.64669 29.8367 6.20833 29.8367 5.77094 29.8603C5.13817 29.9443 4.99364 29.6766 5.09939 29.1202L5.10116 29.1062ZM2.17702 36.8398C2.24752 36.2659 2.18936 35.6762 2.19288 35.0901C2.20346 33.0989 3.28569 32.0299 5.30033 32.0281H55.9307C59.3314 32.0281 62.7302 32.0281 66.1273 32.0281C68.0803 32.0281 69.159 33.1077 69.1572 35.0586C69.1572 35.9334 69.4639 37.1005 69.0215 37.5904C68.5156 38.152 67.3171 37.7654 66.4199 37.7654C56.1358 37.777 45.854 37.777 35.5746 37.7654C24.764 37.7654 13.9535 37.7712 3.14292 37.7829C2.3568 37.8108 2.08008 37.6359 2.17526 36.8538L2.17702 36.8398ZM69.1766 70.1625C69.1079 70.7959 69.1766 71.4432 69.159 72.0871C69.1237 73.5499 68.1525 74.6189 66.6914 74.7939C66.3702 74.8213 66.0476 74.8295 65.7255 74.8184H5.59468C3.16055 74.8184 2.18055 73.8491 2.19641 71.4257C2.19641 70.6751 1.87033 69.7006 2.3286 69.2369C2.78688 68.7732 3.77216 69.1126 4.52479 69.0969C5.63875 69.0742 6.7527 69.0969 7.87371 69.0969C8.77263 69.0969 9.2503 68.684 9.24325 67.9771C9.23619 67.2703 8.76735 66.8923 7.84375 66.8871C6.20278 66.8748 4.56181 66.8591 2.92083 66.8958C2.34975 66.9098 2.18231 66.7576 2.18407 66.1732C2.20405 57.6919 2.20405 49.2112 2.18407 40.7311C2.18407 39.9157 2.55421 39.9437 3.12882 39.9437C14.0005 39.953 24.8698 39.953 35.7367 39.9437C46.5802 39.9437 57.4231 39.9379 68.2654 39.9262C68.9704 39.9262 69.233 40.061 69.1889 40.8151C69.1184 42.0066 69.1396 43.2051 69.1889 44.3984C69.2101 44.9636 69.0568 45.1333 68.4698 45.128C65.2455 45.0977 62.0217 45.0977 58.7985 45.128C54.6247 45.163 51.311 47.84 50.5002 51.7891C49.4656 56.8281 53.2569 61.617 58.4565 61.7395C61.7667 61.8182 65.0786 61.7815 68.3905 61.7395C69.062 61.7395 69.2207 61.9145 69.1925 62.5549C69.1361 63.7796 69.1449 65.0044 69.1925 66.2292C69.2119 66.7786 69.0427 66.9028 68.5104 66.8958C66.1361 66.8661 63.7637 66.8836 61.3895 66.8836H16.0962C15.8618 66.8836 15.6273 66.8731 15.3912 66.8836C14.5857 66.9256 14.0692 67.37 14.1256 68.0261C14.1891 68.7627 14.6544 69.0759 15.3735 69.0969C15.608 69.0969 15.8424 69.0969 16.0786 69.0969C33.4283 69.0969 50.7763 69.0882 68.1226 69.0707C69.0515 69.0759 69.27 69.3419 69.1749 70.1765L69.1766 70.1625ZM72.8322 58.7563C72.8322 59.3722 72.6401 59.5612 72.0285 59.5542C69.716 59.5244 67.4035 59.5419 65.0892 59.5419V59.5244C62.8648 59.5244 60.6369 59.5787 58.4142 59.5122C57.0713 59.4707 55.7799 58.9893 54.7415 58.1429C53.7031 57.2966 52.9759 56.133 52.6735 54.8335C52.3665 53.5196 52.5022 52.142 53.0597 50.9119C53.6171 49.6819 54.5657 48.6673 55.7598 48.0237C56.7199 47.5167 57.7939 47.2597 58.8813 47.2766C63.2437 47.2766 67.6079 47.2766 71.9703 47.2609C72.6119 47.2609 72.8375 47.4358 72.8322 48.099C72.8076 51.6602 72.807 55.2173 72.8305 58.7703L72.8322 58.7563ZM58.9554 48.9808C58.066 48.9711 57.1938 49.2241 56.4497 49.7078C55.7057 50.1914 55.1233 50.8838 54.7766 51.6968C54.4299 52.5099 54.3347 53.4069 54.503 54.2738C54.6712 55.1408 55.0954 55.9385 55.7215 56.5655C56.3477 57.1925 57.1476 57.6205 58.0194 57.7951C58.8912 57.9696 59.7957 57.8829 60.6177 57.5459C61.4398 57.2088 62.1423 56.6367 62.6359 55.9023C63.1296 55.1679 63.3921 54.3044 63.39 53.4215C63.3928 52.8413 63.2801 52.2663 63.0584 51.7295C62.8368 51.1926 62.5104 50.7046 62.0982 50.2932C61.686 49.8819 61.196 49.5555 60.6564 49.3327C60.1167 49.1099 59.5381 48.9951 58.9536 48.9948L58.9554 48.9808ZM58.9554 55.6559C58.6545 55.6622 58.3554 55.6084 58.0759 55.4977C57.7964 55.387 57.5422 55.2215 57.3284 55.0113C57.1146 54.801 56.9456 54.5502 56.8315 54.2738C56.7173 53.9974 56.6604 53.701 56.664 53.4023C56.6703 52.8145 56.9074 52.2524 57.3248 51.8355C57.7421 51.4185 58.3069 51.1797 58.8989 51.1697C59.5071 51.1715 60.0899 51.4114 60.5209 51.8373C60.9519 52.2631 61.1963 52.8406 61.2009 53.4443C61.1958 54.0342 60.9577 54.5987 60.5378 55.0162C60.1179 55.4337 59.5497 55.6709 58.9554 55.6769V55.6559ZM58.9554 48.9808C58.066 48.9711 57.1938 49.2241 56.4497 49.7078C55.7057 50.1914 55.1233 50.8838 54.7766 51.6968C54.4299 52.5099 54.3347 53.4069 54.503 54.2738C54.6712 55.1408 55.0954 55.9385 55.7215 56.5655C56.3477 57.1925 57.1476 57.6205 58.0194 57.7951C58.8912 57.9696 59.7957 57.8829 60.6177 57.5459C61.4398 57.2088 62.1423 56.6367 62.6359 55.9023C63.1296 55.1679 63.3921 54.3044 63.39 53.4215C63.3928 52.8413 63.2801 52.2663 63.0584 51.7295C62.8368 51.1926 62.5104 50.7046 62.0982 50.2932C61.686 49.8819 61.196 49.5555 60.6564 49.3327C60.1167 49.1099 59.5381 48.9951 58.9536 48.9948L58.9554 48.9808ZM58.9554 55.6559C58.6545 55.6622 58.3554 55.6084 58.0759 55.4977C57.7964 55.387 57.5422 55.2215 57.3284 55.0113C57.1146 54.801 56.9456 54.5502 56.8315 54.2738C56.7173 53.9974 56.6604 53.701 56.664 53.4023C56.6703 52.8145 56.9074 52.2524 57.3248 51.8355C57.7421 51.4185 58.3069 51.1797 58.8989 51.1697C59.5071 51.1715 60.0899 51.4114 60.5209 51.8373C60.9519 52.2631 61.1963 52.8406 61.2009 53.4443C61.1958 54.0342 60.9577 54.5987 60.5378 55.0162C60.1179 55.4337 59.5497 55.6709 58.9554 55.6769V55.6559ZM58.9554 48.9808C58.066 48.9711 57.1938 49.2241 56.4497 49.7078C55.7057 50.1914 55.1233 50.8838 54.7766 51.6968C54.4299 52.5099 54.3347 53.4069 54.503 54.2738C54.6712 55.1408 55.0954 55.9385 55.7215 56.5655C56.3477 57.1925 57.1476 57.6205 58.0194 57.7951C58.8912 57.9696 59.7957 57.8829 60.6177 57.5459C61.4398 57.2088 62.1423 56.6367 62.6359 55.9023C63.1296 55.1679 63.3921 54.3044 63.39 53.4215C63.3928 52.8413 63.2801 52.2663 63.0584 51.7295C62.8368 51.1926 62.5104 50.7046 62.0982 50.2932C61.686 49.8819 61.196 49.5555 60.6564 49.3327C60.1167 49.1099 59.5381 48.9951 58.9536 48.9948L58.9554 48.9808ZM58.9554 55.6559C58.6545 55.6622 58.3554 55.6084 58.0759 55.4977C57.7964 55.387 57.5422 55.2215 57.3284 55.0113C57.1146 54.801 56.9456 54.5502 56.8315 54.2738C56.7173 53.9974 56.6604 53.701 56.664 53.4023C56.6703 52.8145 56.9074 52.2524 57.3248 51.8355C57.7421 51.4185 58.3069 51.1797 58.8989 51.1697C59.5071 51.1715 60.0899 51.4114 60.5209 51.8373C60.9519 52.2631 61.1963 52.8406 61.2009 53.4443C61.1958 54.0342 60.9577 54.5987 60.5378 55.0162C60.1179 55.4337 59.5497 55.6709 58.9554 55.6769V55.6559Z" fill="#1C1C1C" fill-opacity="0.7"/>
</svg>
