<svg width="28" height="28" viewBox="0 0 28 28" fill="none" xmlns="http://www.w3.org/2000/svg">
<g clip-path="url(#clip0_1_25745)">
<path d="M0.596646 13.8327C0.595995 16.1852 1.21069 18.4823 2.37953 20.507L0.484863 27.4247L7.56431 25.5685C9.52238 26.6344 11.7163 27.193 13.9457 27.1931H13.9516C21.3113 27.1931 27.3024 21.2043 27.3055 13.8432C27.3069 10.2762 25.9191 6.9221 23.3975 4.39862C20.8765 1.87537 17.5235 0.485026 13.951 0.483398C6.59038 0.483398 0.599794 6.47193 0.596755 13.8327" fill="url(#paint0_linear_1_25745)"/>
<path d="M0.119542 13.8281C0.118782 16.2653 0.755511 18.6445 1.96602 20.7417L0.00341797 27.9074L7.3367 25.9846C9.35726 27.0863 11.6322 27.6671 13.9471 27.668H13.9531C21.5769 27.668 27.7831 21.4637 27.7864 13.8392C27.7877 10.144 26.3499 6.66932 23.7383 4.05544C21.1264 1.44189 17.6535 0.00151938 13.9531 0C6.32794 0 0.122689 6.20341 0.119651 13.8281H0.119542ZM4.48667 20.3805L4.21286 19.9459C3.06182 18.1157 2.45429 16.0007 2.45515 13.829C2.45765 7.49152 7.61529 2.3355 13.9574 2.3355C17.0287 2.33681 19.9151 3.53408 22.0861 5.70636C24.257 7.87885 25.4515 10.7668 25.4508 13.8383C25.4479 20.1757 20.2902 25.3324 13.9531 25.3324H13.9485C11.8851 25.3313 9.86137 24.7772 8.0965 23.73L7.6765 23.4809L3.32478 24.6219L4.48667 20.3804V20.3805Z" fill="url(#paint1_linear_1_25745)"/>
<path d="M10.4959 8.04716C10.237 7.47164 9.96449 7.46003 9.71824 7.44994C9.5166 7.44125 9.28608 7.44191 9.05579 7.44191C8.82528 7.44191 8.45075 7.52862 8.13418 7.87428C7.81728 8.22026 6.92432 9.05636 6.92432 10.7569C6.92432 12.4575 8.16294 14.1009 8.3356 14.3318C8.50849 14.5622 10.7268 18.1635 14.24 19.549C17.1598 20.7003 17.754 20.4713 18.3877 20.4136C19.0215 20.3561 20.4328 19.5777 20.7207 18.7706C21.0089 17.9636 21.0089 17.2719 20.9225 17.1273C20.8361 16.9833 20.6056 16.8968 20.2599 16.724C19.9141 16.5511 18.2148 15.7149 17.898 15.5996C17.5811 15.4843 17.3507 15.4268 17.1202 15.7729C16.8897 16.1184 16.2278 16.8968 16.0261 17.1273C15.8245 17.3584 15.6228 17.3871 15.2772 17.2142C14.9313 17.0408 13.8182 16.6763 12.4975 15.4989C11.47 14.5827 10.7763 13.4513 10.5746 13.1052C10.373 12.7596 10.553 12.5723 10.7263 12.4001C10.8816 12.2452 11.0721 11.9965 11.2451 11.7947C11.4174 11.5929 11.475 11.4488 11.5902 11.2183C11.7056 10.9876 11.6479 10.7857 11.5616 10.6129C11.475 10.44 10.8033 8.73067 10.4959 8.04727" fill="white"/>
</g>
<defs>
<linearGradient id="paint0_linear_1_25745" x1="13.8952" y1="27.4247" x2="13.8952" y2="0.483398" gradientUnits="userSpaceOnUse">
<stop stop-color="#1FAF38"/>
<stop offset="1" stop-color="#60D669"/>
</linearGradient>
<linearGradient id="paint1_linear_1_25745" x1="13.8949" y1="27.9074" x2="13.8949" y2="0" gradientUnits="userSpaceOnUse">
<stop stop-color="#F9F9F9"/>
<stop offset="1" stop-color="white"/>
</linearGradient>
<clipPath id="clip0_1_25745">
<rect width="27.79" height="28" fill="white"/>
</clipPath>
</defs>
</svg>
