<svg width="45" height="44" viewBox="0 0 45 44" fill="none" xmlns="http://www.w3.org/2000/svg">
<rect x="0.949219" width="43.9978" height="43.9978" rx="21.9989" fill="#FF783B"/>
<g clip-path="url(#clip0_1_15781)">
<path d="M23.1973 10C23.3717 10.0698 23.5461 10.1257 23.6915 10.2374C24.0839 10.4888 24.1857 10.8658 24.1711 11.2987C24.1711 11.4104 24.1566 11.4942 24.2729 11.592C24.331 11.6339 24.2583 11.8573 24.2002 11.969C24.0112 12.3042 23.7932 12.6254 23.8368 13.0443C23.8659 13.3097 23.9676 13.5052 24.2293 13.6029C24.4618 13.6867 24.6944 13.7845 24.9415 13.8124C25.7845 13.8822 26.1333 14.4827 26.1769 15.2228C26.206 15.6976 26.1915 16.1724 26.1915 16.6333C26.1915 17.3455 26.3368 18.0158 26.6421 18.6721C26.7874 18.9794 26.8165 19.3424 26.8746 19.6916C26.9327 19.9848 26.9182 20.292 26.9909 20.5853C27.049 20.8087 27.1653 21.0322 27.2961 21.2277C27.4851 21.5489 27.7176 21.8421 27.9066 22.1494C27.9647 22.2332 27.9211 22.3728 27.9357 22.4845C27.8339 22.4287 27.7322 22.3728 27.645 22.303C27.5868 22.2611 27.5577 22.1913 27.4996 22.1075C27.5432 22.5264 27.7903 22.8476 27.7612 23.2247C27.7322 23.2386 27.7031 23.2526 27.674 23.2665C27.5723 23.099 27.456 22.9174 27.3252 22.7219C27.3252 23.0152 27.3252 23.2665 27.3252 23.5319C27.2961 23.5319 27.2816 23.5319 27.2525 23.5458C27.0345 23.3224 27.1217 23.0012 27.0054 22.7359C26.9764 23.0012 26.9473 23.2665 26.9182 23.5179C26.8746 23.5179 26.831 23.5179 26.8019 23.5179C26.7583 23.3084 26.7293 23.099 26.6857 22.8755C26.6421 22.9872 26.5839 23.1129 26.5258 23.2247C26.5112 23.2247 26.4822 23.2247 26.4676 23.2247C26.4531 23.1409 26.424 23.071 26.424 22.9872C26.4095 22.4706 26.4386 21.9539 26.3804 21.4372C26.3514 21.1579 26.206 20.8786 26.0752 20.6272C25.7554 20.0407 25.4357 19.4542 25.3339 18.7978C25.2758 18.4487 25.2612 18.0996 25.2176 17.7505C25.2031 17.6387 25.145 17.527 25.1014 17.4013C25.0723 17.4013 25.0287 17.4153 24.9996 17.4153C24.9996 18.2392 24.956 19.0631 24.9996 19.8871C25.0141 20.2222 25.2031 20.5574 25.3048 20.8925C25.5229 21.6047 25.5229 22.3449 25.3921 23.071C25.2467 23.9508 25.0868 24.8446 24.956 25.7243C24.8833 26.1852 24.8833 26.646 24.8397 27.1069C24.8397 27.1627 24.8397 27.2325 24.8688 27.2884C25.2031 28.0565 25.0577 28.8106 24.8107 29.5786C24.6508 30.0814 24.4764 30.5981 24.3601 31.1008C24.2729 31.4778 24.3165 31.8689 24.4764 32.2459C24.7089 32.7626 24.6508 32.8324 24.0694 32.9022C23.8368 32.9302 23.6043 32.9581 23.3717 32.9721C23.2409 32.986 23.1246 32.9162 23.1537 32.7626C23.1827 32.609 23.2409 32.4554 23.27 32.3018C23.4298 31.5616 23.6769 30.8355 23.6624 30.0814C23.6624 29.9277 23.6479 29.7602 23.6333 29.6066C23.5607 29.048 23.5897 28.5033 23.6479 27.9447C23.6915 27.5817 23.6188 27.2186 23.5607 26.8555C23.4153 25.6545 23.2554 24.4536 23.0955 23.2526C23.0955 23.2247 23.081 23.1967 23.081 23.1548C22.9938 23.1548 22.9211 23.1548 22.8484 23.1548C22.7903 23.6715 22.7467 24.2022 22.674 24.7189C22.5577 25.5288 22.4124 26.3248 22.2961 27.1348C22.2525 27.456 22.2816 27.7911 22.2816 28.1123C22.2816 28.5033 22.3397 28.9083 22.2961 29.2993C22.2089 30.0255 22.2525 30.7517 22.456 31.4499C22.5577 31.827 22.645 32.204 22.7467 32.5811C22.8194 32.9022 22.7612 32.9721 22.4269 32.9302C22.3979 32.9302 22.3688 32.9441 22.3397 32.9302C22.0636 32.8883 21.7874 32.8604 21.4967 32.8185C21.3514 32.8045 21.3077 32.7067 21.3368 32.5671C21.3659 32.4554 21.395 32.3297 21.4386 32.218C21.7002 31.7013 21.6275 31.1706 21.4676 30.64C21.2641 29.9696 21.0752 29.2993 20.9008 28.629C20.799 28.238 20.8572 27.847 20.988 27.4839C21.0752 27.2465 21.0461 27.0091 21.0461 26.7577C21.0607 25.878 20.799 25.0261 20.6827 24.1603C20.5955 23.49 20.4938 22.8197 20.4502 22.1494C20.4066 21.4511 20.6391 20.7808 20.8572 20.1105C20.9153 19.9429 20.9734 19.7614 20.9734 19.5938C20.9589 18.8537 20.9298 18.1135 20.9008 17.3734C20.8717 17.3734 20.8572 17.3594 20.8281 17.3594C20.7845 17.4432 20.7264 17.541 20.7118 17.6248C20.6682 17.8203 20.6101 18.0018 20.6101 18.1973C20.6246 19.0213 20.2903 19.7335 19.9124 20.4317C19.8252 20.5713 19.7234 20.711 19.6798 20.8646C19.6072 21.116 19.549 21.3673 19.5345 21.6187C19.5054 22.0935 19.5054 22.5543 19.4764 23.0291C19.4764 23.071 19.4618 23.1129 19.3746 23.1688C19.3165 23.0431 19.2729 22.9314 19.2147 22.8057C19.1711 23.0152 19.1421 23.2247 19.0984 23.4341C19.0548 23.4341 19.0112 23.4341 18.9822 23.4341C18.9531 23.1688 18.924 22.9174 18.895 22.6521C18.8804 22.6521 18.8804 22.6521 18.8659 22.6521C18.8077 22.9314 18.7641 23.1967 18.706 23.476C18.6624 23.476 18.6333 23.476 18.5897 23.476C18.5752 23.3643 18.5607 23.2526 18.5461 23.1409C18.5461 23.0152 18.5461 22.8895 18.5461 22.7359C18.4298 22.9035 18.3281 23.0571 18.2264 23.2107C18.1973 23.1967 18.1682 23.1828 18.1391 23.1688C18.1101 22.7917 18.3426 22.4706 18.4008 22.0795C18.3281 22.2471 18.2409 22.3449 18.1537 22.4287C18.1101 22.4566 18.0519 22.4706 17.9938 22.4845C17.9793 22.4287 17.9357 22.3728 17.9502 22.3169C17.9793 22.2192 18.0083 22.1214 18.0665 22.0237C18.1537 21.8701 18.2409 21.7025 18.3717 21.5768C18.8804 21.0741 19.0112 20.4457 19.0403 19.7893C19.0694 19.3145 19.1711 18.8676 19.3891 18.4347C19.6362 17.946 19.7234 17.4013 19.738 16.8707C19.7525 16.34 19.7234 15.8094 19.7525 15.2787C19.7671 14.9994 19.8543 14.7061 19.9705 14.4408C20.1159 14.1196 20.3921 13.9381 20.7554 13.8682C21.0316 13.8124 21.3223 13.7565 21.5839 13.6588C22.0781 13.4772 22.2525 12.9047 21.9764 12.4718C21.8455 12.2763 21.7293 12.0668 21.6421 11.8434C21.613 11.7735 21.6711 11.6478 21.7002 11.5641C21.7147 11.5222 21.7583 11.4803 21.7583 11.4244C21.6857 10.6703 22.02 10.2095 22.7322 10C22.8921 10 23.0519 10 23.1973 10Z" fill="white"/>
</g>
<defs>
<clipPath id="clip0_1_15781">
<rect width="10" height="23" fill="white" transform="translate(17.9492 10)"/>
</clipPath>
</defs>
</svg>
